%TF.GenerationSoftware,KiCad,Pcbnew,10.0.1*%
%TF.CreationDate,2026-09-12T12:04:22+09:00*%
%TF.ProjectId,m5_spi_module,6d355f73-7069-45f6-9d6f-64756c652e6b,rev?*%
%TF.SameCoordinates,Original*%
%TF.FileFunction,Paste,Top*%
%TF.FilePolarity,Positive*%
%FSLAX46Y46*%
G04 Gerber Fmt 4.6, Leading zero omitted, Abs format (unit mm)*
G04 Created by KiCad (PCBNEW 10.0.1) date 2026-09-12 12:04:22*
%MOMM*%
%LPD*%
G01*
G04 APERTURE LIST*
%ADD10C,0.150000*%
%ADD11R,0.806477X0.864008*%
%ADD12R,1.000000X0.650013*%
%ADD13R,0.864008X0.806477*%
%ADD14C,0.350000*%
G04 APERTURE END LIST*
D10*
%TO.C,R5*%
X103754991Y-99099975D02*
X103754991Y-99342012D01*
X103384989Y-99342012D01*
X103384989Y-99672009D01*
X103754991Y-99672009D01*
X103754991Y-99899975D01*
X103704978Y-99949987D01*
X102904978Y-99949987D01*
X102854991Y-99899975D01*
X102854991Y-99099975D01*
X102904978Y-99049987D01*
X103704978Y-99049987D01*
X103754991Y-99099975D01*
G36*
X103754991Y-99099975D02*
G01*
X103754991Y-99342012D01*
X103384989Y-99342012D01*
X103384989Y-99672009D01*
X103754991Y-99672009D01*
X103754991Y-99899975D01*
X103704978Y-99949987D01*
X102904978Y-99949987D01*
X102854991Y-99899975D01*
X102854991Y-99099975D01*
X102904978Y-99049987D01*
X103704978Y-99049987D01*
X103754991Y-99099975D01*
G37*
X105345009Y-99100025D02*
X105345009Y-99900025D01*
X105295022Y-99950013D01*
X104495022Y-99950013D01*
X104445009Y-99900025D01*
X104445009Y-99657988D01*
X104815011Y-99657988D01*
X104815011Y-99327991D01*
X104445009Y-99327991D01*
X104445009Y-99100025D01*
X104495022Y-99050013D01*
X105295022Y-99050013D01*
X105345009Y-99100025D01*
G36*
X105345009Y-99100025D02*
G01*
X105345009Y-99900025D01*
X105295022Y-99950013D01*
X104495022Y-99950013D01*
X104445009Y-99900025D01*
X104445009Y-99657988D01*
X104815011Y-99657988D01*
X104815011Y-99327991D01*
X104445009Y-99327991D01*
X104445009Y-99100025D01*
X104495022Y-99050013D01*
X105295022Y-99050013D01*
X105345009Y-99100025D01*
G37*
%TO.C,R9*%
X103754991Y-106099975D02*
X103754991Y-106342012D01*
X103384989Y-106342012D01*
X103384989Y-106672009D01*
X103754991Y-106672009D01*
X103754991Y-106899975D01*
X103704978Y-106949987D01*
X102904978Y-106949987D01*
X102854991Y-106899975D01*
X102854991Y-106099975D01*
X102904978Y-106049987D01*
X103704978Y-106049987D01*
X103754991Y-106099975D01*
G36*
X103754991Y-106099975D02*
G01*
X103754991Y-106342012D01*
X103384989Y-106342012D01*
X103384989Y-106672009D01*
X103754991Y-106672009D01*
X103754991Y-106899975D01*
X103704978Y-106949987D01*
X102904978Y-106949987D01*
X102854991Y-106899975D01*
X102854991Y-106099975D01*
X102904978Y-106049987D01*
X103704978Y-106049987D01*
X103754991Y-106099975D01*
G37*
X105345009Y-106100025D02*
X105345009Y-106900025D01*
X105295022Y-106950013D01*
X104495022Y-106950013D01*
X104445009Y-106900025D01*
X104445009Y-106657988D01*
X104815011Y-106657988D01*
X104815011Y-106327991D01*
X104445009Y-106327991D01*
X104445009Y-106100025D01*
X104495022Y-106050013D01*
X105295022Y-106050013D01*
X105345009Y-106100025D01*
G36*
X105345009Y-106100025D02*
G01*
X105345009Y-106900025D01*
X105295022Y-106950013D01*
X104495022Y-106950013D01*
X104445009Y-106900025D01*
X104445009Y-106657988D01*
X104815011Y-106657988D01*
X104815011Y-106327991D01*
X104445009Y-106327991D01*
X104445009Y-106100025D01*
X104495022Y-106050013D01*
X105295022Y-106050013D01*
X105345009Y-106100025D01*
G37*
%TO.C,R4*%
X95350013Y-98304978D02*
X95350013Y-99104978D01*
X95300025Y-99154991D01*
X95057988Y-99154991D01*
X95057988Y-98784989D01*
X94727991Y-98784989D01*
X94727991Y-99154991D01*
X94500025Y-99154991D01*
X94450013Y-99104978D01*
X94450013Y-98304978D01*
X94500025Y-98254991D01*
X95300025Y-98254991D01*
X95350013Y-98304978D01*
G36*
X95350013Y-98304978D02*
G01*
X95350013Y-99104978D01*
X95300025Y-99154991D01*
X95057988Y-99154991D01*
X95057988Y-98784989D01*
X94727991Y-98784989D01*
X94727991Y-99154991D01*
X94500025Y-99154991D01*
X94450013Y-99104978D01*
X94450013Y-98304978D01*
X94500025Y-98254991D01*
X95300025Y-98254991D01*
X95350013Y-98304978D01*
G37*
X94742012Y-100215011D02*
X95072009Y-100215011D01*
X95072009Y-99845009D01*
X95299975Y-99845009D01*
X95349987Y-99895022D01*
X95349987Y-100695022D01*
X95299975Y-100745009D01*
X94499975Y-100745009D01*
X94449987Y-100695022D01*
X94449987Y-99895022D01*
X94499975Y-99845009D01*
X94742012Y-99845009D01*
X94742012Y-100215011D01*
G36*
X94742012Y-100215011D02*
G01*
X95072009Y-100215011D01*
X95072009Y-99845009D01*
X95299975Y-99845009D01*
X95349987Y-99895022D01*
X95349987Y-100695022D01*
X95299975Y-100745009D01*
X94499975Y-100745009D01*
X94449987Y-100695022D01*
X94449987Y-99895022D01*
X94499975Y-99845009D01*
X94742012Y-99845009D01*
X94742012Y-100215011D01*
G37*
%TO.C,R2*%
X103754991Y-95599975D02*
X103754991Y-95842012D01*
X103384989Y-95842012D01*
X103384989Y-96172009D01*
X103754991Y-96172009D01*
X103754991Y-96399975D01*
X103704978Y-96449987D01*
X102904978Y-96449987D01*
X102854991Y-96399975D01*
X102854991Y-95599975D01*
X102904978Y-95549987D01*
X103704978Y-95549987D01*
X103754991Y-95599975D01*
G36*
X103754991Y-95599975D02*
G01*
X103754991Y-95842012D01*
X103384989Y-95842012D01*
X103384989Y-96172009D01*
X103754991Y-96172009D01*
X103754991Y-96399975D01*
X103704978Y-96449987D01*
X102904978Y-96449987D01*
X102854991Y-96399975D01*
X102854991Y-95599975D01*
X102904978Y-95549987D01*
X103704978Y-95549987D01*
X103754991Y-95599975D01*
G37*
X105345009Y-95600025D02*
X105345009Y-96400025D01*
X105295022Y-96450013D01*
X104495022Y-96450013D01*
X104445009Y-96400025D01*
X104445009Y-96157988D01*
X104815011Y-96157988D01*
X104815011Y-95827991D01*
X104445009Y-95827991D01*
X104445009Y-95600025D01*
X104495022Y-95550013D01*
X105295022Y-95550013D01*
X105345009Y-95600025D01*
G36*
X105345009Y-95600025D02*
G01*
X105345009Y-96400025D01*
X105295022Y-96450013D01*
X104495022Y-96450013D01*
X104445009Y-96400025D01*
X104445009Y-96157988D01*
X104815011Y-96157988D01*
X104815011Y-95827991D01*
X104445009Y-95827991D01*
X104445009Y-95600025D01*
X104495022Y-95550013D01*
X105295022Y-95550013D01*
X105345009Y-95600025D01*
G37*
%TO.C,R3*%
X95350013Y-94804978D02*
X95350013Y-95604978D01*
X95300025Y-95654991D01*
X95057988Y-95654991D01*
X95057988Y-95284989D01*
X94727991Y-95284989D01*
X94727991Y-95654991D01*
X94500025Y-95654991D01*
X94450013Y-95604978D01*
X94450013Y-94804978D01*
X94500025Y-94754991D01*
X95300025Y-94754991D01*
X95350013Y-94804978D01*
G36*
X95350013Y-94804978D02*
G01*
X95350013Y-95604978D01*
X95300025Y-95654991D01*
X95057988Y-95654991D01*
X95057988Y-95284989D01*
X94727991Y-95284989D01*
X94727991Y-95654991D01*
X94500025Y-95654991D01*
X94450013Y-95604978D01*
X94450013Y-94804978D01*
X94500025Y-94754991D01*
X95300025Y-94754991D01*
X95350013Y-94804978D01*
G37*
X94742012Y-96715011D02*
X95072009Y-96715011D01*
X95072009Y-96345009D01*
X95299975Y-96345009D01*
X95349987Y-96395022D01*
X95349987Y-97195022D01*
X95299975Y-97245009D01*
X94499975Y-97245009D01*
X94449987Y-97195022D01*
X94449987Y-96395022D01*
X94499975Y-96345009D01*
X94742012Y-96345009D01*
X94742012Y-96715011D01*
G36*
X94742012Y-96715011D02*
G01*
X95072009Y-96715011D01*
X95072009Y-96345009D01*
X95299975Y-96345009D01*
X95349987Y-96395022D01*
X95349987Y-97195022D01*
X95299975Y-97245009D01*
X94499975Y-97245009D01*
X94449987Y-97195022D01*
X94449987Y-96395022D01*
X94499975Y-96345009D01*
X94742012Y-96345009D01*
X94742012Y-96715011D01*
G37*
%TO.C,R8*%
X95350013Y-105304978D02*
X95350013Y-106104978D01*
X95300025Y-106154991D01*
X95057988Y-106154991D01*
X95057988Y-105784989D01*
X94727991Y-105784989D01*
X94727991Y-106154991D01*
X94500025Y-106154991D01*
X94450013Y-106104978D01*
X94450013Y-105304978D01*
X94500025Y-105254991D01*
X95300025Y-105254991D01*
X95350013Y-105304978D01*
G36*
X95350013Y-105304978D02*
G01*
X95350013Y-106104978D01*
X95300025Y-106154991D01*
X95057988Y-106154991D01*
X95057988Y-105784989D01*
X94727991Y-105784989D01*
X94727991Y-106154991D01*
X94500025Y-106154991D01*
X94450013Y-106104978D01*
X94450013Y-105304978D01*
X94500025Y-105254991D01*
X95300025Y-105254991D01*
X95350013Y-105304978D01*
G37*
X94742012Y-107215011D02*
X95072009Y-107215011D01*
X95072009Y-106845009D01*
X95299975Y-106845009D01*
X95349987Y-106895022D01*
X95349987Y-107695022D01*
X95299975Y-107745009D01*
X94499975Y-107745009D01*
X94449987Y-107695022D01*
X94449987Y-106895022D01*
X94499975Y-106845009D01*
X94742012Y-106845009D01*
X94742012Y-107215011D01*
G36*
X94742012Y-107215011D02*
G01*
X95072009Y-107215011D01*
X95072009Y-106845009D01*
X95299975Y-106845009D01*
X95349987Y-106895022D01*
X95349987Y-107695022D01*
X95299975Y-107745009D01*
X94499975Y-107745009D01*
X94449987Y-107695022D01*
X94449987Y-106895022D01*
X94499975Y-106845009D01*
X94742012Y-106845009D01*
X94742012Y-107215011D01*
G37*
%TO.C,R7*%
X103754991Y-102599975D02*
X103754991Y-102842012D01*
X103384989Y-102842012D01*
X103384989Y-103172009D01*
X103754991Y-103172009D01*
X103754991Y-103399975D01*
X103704978Y-103449987D01*
X102904978Y-103449987D01*
X102854991Y-103399975D01*
X102854991Y-102599975D01*
X102904978Y-102549987D01*
X103704978Y-102549987D01*
X103754991Y-102599975D01*
G36*
X103754991Y-102599975D02*
G01*
X103754991Y-102842012D01*
X103384989Y-102842012D01*
X103384989Y-103172009D01*
X103754991Y-103172009D01*
X103754991Y-103399975D01*
X103704978Y-103449987D01*
X102904978Y-103449987D01*
X102854991Y-103399975D01*
X102854991Y-102599975D01*
X102904978Y-102549987D01*
X103704978Y-102549987D01*
X103754991Y-102599975D01*
G37*
X105345009Y-102600025D02*
X105345009Y-103400025D01*
X105295022Y-103450013D01*
X104495022Y-103450013D01*
X104445009Y-103400025D01*
X104445009Y-103157988D01*
X104815011Y-103157988D01*
X104815011Y-102827991D01*
X104445009Y-102827991D01*
X104445009Y-102600025D01*
X104495022Y-102550013D01*
X105295022Y-102550013D01*
X105345009Y-102600025D01*
G36*
X105345009Y-102600025D02*
G01*
X105345009Y-103400025D01*
X105295022Y-103450013D01*
X104495022Y-103450013D01*
X104445009Y-103400025D01*
X104445009Y-103157988D01*
X104815011Y-103157988D01*
X104815011Y-102827991D01*
X104445009Y-102827991D01*
X104445009Y-102600025D01*
X104495022Y-102550013D01*
X105295022Y-102550013D01*
X105345009Y-102600025D01*
G37*
%TO.C,R6*%
X95350013Y-101804978D02*
X95350013Y-102604978D01*
X95300025Y-102654991D01*
X95057988Y-102654991D01*
X95057988Y-102284989D01*
X94727991Y-102284989D01*
X94727991Y-102654991D01*
X94500025Y-102654991D01*
X94450013Y-102604978D01*
X94450013Y-101804978D01*
X94500025Y-101754991D01*
X95300025Y-101754991D01*
X95350013Y-101804978D01*
G36*
X95350013Y-101804978D02*
G01*
X95350013Y-102604978D01*
X95300025Y-102654991D01*
X95057988Y-102654991D01*
X95057988Y-102284989D01*
X94727991Y-102284989D01*
X94727991Y-102654991D01*
X94500025Y-102654991D01*
X94450013Y-102604978D01*
X94450013Y-101804978D01*
X94500025Y-101754991D01*
X95300025Y-101754991D01*
X95350013Y-101804978D01*
G37*
X94742012Y-103715011D02*
X95072009Y-103715011D01*
X95072009Y-103345009D01*
X95299975Y-103345009D01*
X95349987Y-103395022D01*
X95349987Y-104195022D01*
X95299975Y-104245009D01*
X94499975Y-104245009D01*
X94449987Y-104195022D01*
X94449987Y-103395022D01*
X94499975Y-103345009D01*
X94742012Y-103345009D01*
X94742012Y-103715011D01*
G36*
X94742012Y-103715011D02*
G01*
X95072009Y-103715011D01*
X95072009Y-103345009D01*
X95299975Y-103345009D01*
X95349987Y-103395022D01*
X95349987Y-104195022D01*
X95299975Y-104245009D01*
X94499975Y-104245009D01*
X94449987Y-104195022D01*
X94449987Y-103395022D01*
X94499975Y-103345009D01*
X94742012Y-103345009D01*
X94742012Y-103715011D01*
G37*
%TD*%
D11*
%TO.C,R5*%
X103346634Y-99500000D03*
X104853366Y-99500000D03*
%TD*%
D12*
%TO.C,U6*%
X100000000Y-105550038D03*
X100000000Y-107449962D03*
X102000000Y-106500000D03*
%TD*%
D11*
%TO.C,R9*%
X103346634Y-106500000D03*
X104853366Y-106500000D03*
%TD*%
D13*
%TO.C,R4*%
X94900000Y-100253366D03*
X94900000Y-98746634D03*
%TD*%
D12*
%TO.C,U4*%
X100000000Y-98550038D03*
X100000000Y-100449962D03*
X102000000Y-99500000D03*
%TD*%
D11*
%TO.C,R2*%
X103346634Y-96000000D03*
X104853366Y-96000000D03*
%TD*%
D13*
%TO.C,R3*%
X94900000Y-96753366D03*
X94900000Y-95246634D03*
%TD*%
%TO.C,R8*%
X94900000Y-107253366D03*
X94900000Y-105746634D03*
%TD*%
D11*
%TO.C,R7*%
X103346634Y-103000000D03*
X104853366Y-103000000D03*
%TD*%
D13*
%TO.C,R6*%
X94900000Y-103753366D03*
X94900000Y-102246634D03*
%TD*%
D12*
%TO.C,U2*%
X100000000Y-95050038D03*
X100000000Y-96949962D03*
X102000000Y-96000000D03*
%TD*%
%TO.C,U5*%
X100000000Y-102050038D03*
X100000000Y-103949962D03*
X102000000Y-103000000D03*
%TD*%
D14*
X78000000Y-122000000D03*
X82000000Y-122000000D03*
X118000000Y-122000000D03*
X118000000Y-78000000D03*
X122000000Y-122000000D03*
X78000000Y-78000000D03*
X122000000Y-78000000D03*
X82000000Y-78000000D03*
X97500127Y-81126924D03*
X102500127Y-81126924D03*
X101000000Y-83227000D03*
X99000000Y-83227000D03*
X118800178Y-107500127D03*
X118800178Y-92499873D03*
X116700102Y-106000000D03*
X116700102Y-104000000D03*
X116700102Y-102000000D03*
X116700102Y-100000000D03*
X116700102Y-98000000D03*
X116700102Y-96000000D03*
X116700102Y-94000000D03*
X82220000Y-82220000D03*
X79680000Y-82220000D03*
X82220000Y-84760000D03*
X79680000Y-84760000D03*
X82220000Y-87300000D03*
X79680000Y-87300000D03*
X82220000Y-89840000D03*
X79680000Y-89840000D03*
X82220000Y-92380000D03*
X79680000Y-92380000D03*
X82220000Y-94920000D03*
X79680000Y-94920000D03*
X82220000Y-97460000D03*
X79680000Y-97460000D03*
X82220000Y-100000000D03*
X79680000Y-100000000D03*
X82220000Y-102540000D03*
X79680000Y-102540000D03*
X82220000Y-105080000D03*
X79680000Y-105080000D03*
X82220000Y-107620000D03*
X79680000Y-107620000D03*
X82220000Y-110160000D03*
X79680000Y-110160000D03*
X82220000Y-112700000D03*
X79680000Y-112700000D03*
X82220000Y-115240000D03*
X79680000Y-115240000D03*
X82220000Y-117780000D03*
X79680000Y-117780000D03*
M02*
