M48
; DRILL file KiCad 10.0.1 date 2026-09-12T12:04:23
; FORMAT={-:-/ absolute / metric / decimal}
; #@! TF.CreationDate,2026-09-12T12:04:23+09:00
; #@! TF.GenerationSoftware,Kicad,Pcbnew,10.0.1
; #@! TF.FileFunction,MixedPlating,1,2
FMAT,2
METRIC
; #@! TA.AperFunction,Plated,PTH,ViaDrill
T1C0.300
; #@! TA.AperFunction,Plated,PTH,ComponentDrill
T2C0.800
; #@! TA.AperFunction,Plated,PTH,ComponentDrill
T3C0.900
; #@! TA.AperFunction,Plated,PTH,ComponentDrill
T4C1.000
; #@! TA.AperFunction,NonPlated,NPTH,ComponentDrill
T5C1.200
; #@! TA.AperFunction,NonPlated,NPTH,ComponentDrill
T6C1.250
; #@! TA.AperFunction,NonPlated,NPTH,ComponentDrill
T7C2.200
; #@! TA.AperFunction,NonPlated,NPTH,ComponentDrill
T8C3.200
%
G90
G05
T1
X80.45Y-120.45
X85.45Y-80.45
X85.45Y-85.45
X85.45Y-95.45
X85.45Y-100.45
X85.45Y-105.45
X85.45Y-110.45
X85.45Y-115.45
X85.45Y-120.45
X90.45Y-80.45
X90.45Y-85.45
X90.45Y-90.45
X90.45Y-100.45
X90.45Y-105.45
X90.45Y-110.45
X90.45Y-115.45
X90.45Y-120.45
X95.45Y-80.45
X95.45Y-85.45
X95.45Y-90.45
X95.45Y-110.45
X95.45Y-115.45
X95.45Y-120.45
X97.5Y-95.3
X97.5Y-98.7
X97.5Y-102.2
X97.5Y-105.6
X100.45Y-80.45
X100.45Y-85.45
X100.45Y-110.45
X100.45Y-115.45
X100.45Y-120.45
X104.9Y-95.0
X104.9Y-98.35
X104.9Y-101.6
X104.9Y-105.1
X105.45Y-80.45
X105.45Y-85.45
X105.45Y-90.45
X105.45Y-115.45
X105.45Y-120.45
X110.45Y-80.45
X110.45Y-85.45
X110.45Y-90.45
X110.45Y-105.45
X110.45Y-110.45
X110.45Y-115.45
X110.45Y-120.45
X115.45Y-80.45
X115.45Y-85.45
X115.45Y-90.45
X115.45Y-105.45
X115.45Y-110.45
X115.45Y-115.45
X115.45Y-120.45
X120.45Y-80.45
X120.45Y-85.45
X120.45Y-90.45
X120.45Y-95.45
X120.45Y-100.45
X120.45Y-105.45
X120.45Y-110.45
X120.45Y-115.45
X120.45Y-120.45
T2
X116.7Y-94.0
X116.7Y-96.0
X116.7Y-98.0
X116.7Y-100.0
X116.7Y-102.0
X116.7Y-104.0
X116.7Y-106.0
T3
X99.0Y-83.227
X101.0Y-83.227
T4
X79.68Y-82.22
X79.68Y-84.76
X79.68Y-87.3
X79.68Y-89.84
X79.68Y-92.38
X79.68Y-94.92
X79.68Y-97.46
X79.68Y-100.0
X79.68Y-102.54
X79.68Y-105.08
X79.68Y-107.62
X79.68Y-110.16
X79.68Y-112.7
X79.68Y-115.24
X79.68Y-117.78
X82.22Y-82.22
X82.22Y-84.76
X82.22Y-87.3
X82.22Y-89.84
X82.22Y-92.38
X82.22Y-94.92
X82.22Y-97.46
X82.22Y-100.0
X82.22Y-102.54
X82.22Y-105.08
X82.22Y-107.62
X82.22Y-110.16
X82.22Y-112.7
X82.22Y-115.24
X82.22Y-117.78
T5
X118.8Y-92.5
X118.8Y-107.5
T6
X97.5Y-81.127
X102.5Y-81.127
T7
X82.0Y-78.0
X82.0Y-122.0
X118.0Y-78.0
X118.0Y-122.0
T8
X78.0Y-78.0
X78.0Y-122.0
X122.0Y-78.0
X122.0Y-122.0
M30
