%TF.GenerationSoftware,KiCad,Pcbnew,10.0.1*%
%TF.CreationDate,2026-09-12T12:04:22+09:00*%
%TF.ProjectId,m5_spi_module,6d355f73-7069-45f6-9d6f-64756c652e6b,rev?*%
%TF.SameCoordinates,Original*%
%TF.FileFunction,Legend,Top*%
%TF.FilePolarity,Positive*%
%FSLAX46Y46*%
G04 Gerber Fmt 4.6, Leading zero omitted, Abs format (unit mm)*
G04 Created by KiCad (PCBNEW 10.0.1) date 2026-09-12 12:04:22*
%MOMM*%
%LPD*%
G01*
G04 APERTURE LIST*
%ADD10C,0.200000*%
%ADD11C,0.150000*%
%ADD12C,0.120000*%
%ADD13C,0.152400*%
%ADD14C,0.254001*%
%ADD15C,0.350000*%
G04 APERTURE END LIST*
D10*
G36*
X106944224Y-82814240D02*
G01*
X107011297Y-82881313D01*
X107046749Y-82952218D01*
X107088720Y-83120099D01*
X107088720Y-83238337D01*
X107046749Y-83406218D01*
X107011296Y-83477124D01*
X106944225Y-83544197D01*
X106839160Y-83579219D01*
X106717292Y-83579219D01*
X106717292Y-82779219D01*
X106839160Y-82779219D01*
X106944224Y-82814240D01*
G37*
G36*
X107399831Y-83890330D02*
G01*
X104310943Y-83890330D01*
X104310943Y-83107790D01*
X104422054Y-83107790D01*
X104422054Y-83250647D01*
X104422389Y-83254049D01*
X104422172Y-83255508D01*
X104423251Y-83262805D01*
X104423975Y-83270156D01*
X104424539Y-83271519D01*
X104425040Y-83274901D01*
X104472659Y-83465376D01*
X104473172Y-83466813D01*
X104473224Y-83467536D01*
X104476332Y-83475660D01*
X104479254Y-83483837D01*
X104479684Y-83484417D01*
X104480230Y-83485844D01*
X104527849Y-83581082D01*
X104533131Y-83589474D01*
X104534144Y-83591918D01*
X104536400Y-83594667D01*
X104538292Y-83597672D01*
X104540286Y-83599401D01*
X104546581Y-83607071D01*
X104641819Y-83702311D01*
X104656972Y-83714747D01*
X104660291Y-83716122D01*
X104663007Y-83718477D01*
X104680907Y-83726468D01*
X104823764Y-83774087D01*
X104833436Y-83776286D01*
X104835878Y-83777298D01*
X104839415Y-83777646D01*
X104842879Y-83778434D01*
X104845513Y-83778246D01*
X104855387Y-83779219D01*
X104950625Y-83779219D01*
X104960498Y-83778246D01*
X104963132Y-83778434D01*
X104966595Y-83777646D01*
X104970134Y-83777298D01*
X104972576Y-83776286D01*
X104982248Y-83774087D01*
X105125104Y-83726468D01*
X105143005Y-83718477D01*
X105145720Y-83716122D01*
X105149040Y-83714747D01*
X105164193Y-83702310D01*
X105211812Y-83654690D01*
X105224249Y-83639537D01*
X105239180Y-83603488D01*
X105241101Y-83583980D01*
X105241101Y-83250647D01*
X105239180Y-83231138D01*
X105224248Y-83195090D01*
X105196658Y-83167500D01*
X105160610Y-83152568D01*
X105141101Y-83150647D01*
X104950625Y-83150647D01*
X104931116Y-83152568D01*
X104895068Y-83167500D01*
X104867478Y-83195090D01*
X104852546Y-83231138D01*
X104852546Y-83270156D01*
X104867478Y-83306204D01*
X104895068Y-83333794D01*
X104931116Y-83348726D01*
X104950625Y-83350647D01*
X105041101Y-83350647D01*
X105041101Y-83542559D01*
X105039462Y-83544197D01*
X104934398Y-83579219D01*
X104871613Y-83579219D01*
X104766548Y-83544197D01*
X104699478Y-83477127D01*
X104664024Y-83406218D01*
X104622054Y-83238337D01*
X104622054Y-83120100D01*
X104664024Y-82952218D01*
X104699477Y-82881312D01*
X104766549Y-82814240D01*
X104871613Y-82779219D01*
X104974637Y-82779219D01*
X105048760Y-82816281D01*
X105067069Y-82823287D01*
X105105989Y-82826053D01*
X105143005Y-82813714D01*
X105172482Y-82788149D01*
X105189931Y-82753251D01*
X105192696Y-82714331D01*
X105180993Y-82679219D01*
X105469673Y-82679219D01*
X105469673Y-83679219D01*
X105471594Y-83698728D01*
X105486526Y-83734776D01*
X105514116Y-83762366D01*
X105550164Y-83777298D01*
X105589182Y-83777298D01*
X105625230Y-83762366D01*
X105652820Y-83734776D01*
X105667752Y-83698728D01*
X105669673Y-83679219D01*
X105669673Y-83055775D01*
X106054277Y-83728833D01*
X106057195Y-83732943D01*
X106057954Y-83734776D01*
X106059820Y-83736642D01*
X106065624Y-83744818D01*
X106076140Y-83752962D01*
X106085544Y-83762366D01*
X106091431Y-83764804D01*
X106096473Y-83768709D01*
X106109305Y-83772208D01*
X106121592Y-83777298D01*
X106127968Y-83777298D01*
X106134117Y-83778975D01*
X106147310Y-83777298D01*
X106160610Y-83777298D01*
X106166498Y-83774858D01*
X106172823Y-83774055D01*
X106184372Y-83767454D01*
X106196658Y-83762366D01*
X106201165Y-83757858D01*
X106206700Y-83754696D01*
X106214844Y-83744179D01*
X106224248Y-83734776D01*
X106226686Y-83728888D01*
X106230591Y-83723847D01*
X106234090Y-83711014D01*
X106239180Y-83698728D01*
X106240162Y-83688750D01*
X106240857Y-83686204D01*
X106240606Y-83684236D01*
X106241101Y-83679219D01*
X106241101Y-82679219D01*
X106517292Y-82679219D01*
X106517292Y-83679219D01*
X106519213Y-83698728D01*
X106534145Y-83734776D01*
X106561735Y-83762366D01*
X106597783Y-83777298D01*
X106617292Y-83779219D01*
X106855387Y-83779219D01*
X106865260Y-83778246D01*
X106867894Y-83778434D01*
X106871357Y-83777646D01*
X106874896Y-83777298D01*
X106877338Y-83776286D01*
X106887010Y-83774087D01*
X107029866Y-83726468D01*
X107047767Y-83718477D01*
X107050482Y-83716122D01*
X107053802Y-83714747D01*
X107068955Y-83702310D01*
X107164193Y-83607071D01*
X107170485Y-83599404D01*
X107172482Y-83597673D01*
X107174375Y-83594665D01*
X107176630Y-83591918D01*
X107177641Y-83589476D01*
X107182925Y-83581082D01*
X107230544Y-83485845D01*
X107231090Y-83484416D01*
X107231520Y-83483837D01*
X107234441Y-83475660D01*
X107237550Y-83467536D01*
X107237601Y-83466815D01*
X107238115Y-83465377D01*
X107285734Y-83274901D01*
X107286234Y-83271519D01*
X107286799Y-83270156D01*
X107287522Y-83262805D01*
X107288602Y-83255508D01*
X107288384Y-83254049D01*
X107288720Y-83250647D01*
X107288720Y-83107790D01*
X107288384Y-83104387D01*
X107288602Y-83102929D01*
X107287522Y-83095631D01*
X107286799Y-83088281D01*
X107286234Y-83086917D01*
X107285734Y-83083536D01*
X107238115Y-82893060D01*
X107237601Y-82891621D01*
X107237550Y-82890901D01*
X107234441Y-82882776D01*
X107231520Y-82874600D01*
X107231090Y-82874020D01*
X107230544Y-82872592D01*
X107182925Y-82777355D01*
X107177638Y-82768956D01*
X107176629Y-82766519D01*
X107174377Y-82763775D01*
X107172482Y-82760764D01*
X107170484Y-82759031D01*
X107164193Y-82751365D01*
X107068955Y-82656127D01*
X107053801Y-82643691D01*
X107050482Y-82642316D01*
X107047767Y-82639961D01*
X107029866Y-82631970D01*
X106887010Y-82584351D01*
X106877338Y-82582151D01*
X106874896Y-82581140D01*
X106871357Y-82580791D01*
X106867894Y-82580004D01*
X106865260Y-82580191D01*
X106855387Y-82579219D01*
X106617292Y-82579219D01*
X106597783Y-82581140D01*
X106561735Y-82596072D01*
X106534145Y-82623662D01*
X106519213Y-82659710D01*
X106517292Y-82679219D01*
X106241101Y-82679219D01*
X106239180Y-82659710D01*
X106224248Y-82623662D01*
X106196658Y-82596072D01*
X106160610Y-82581140D01*
X106121592Y-82581140D01*
X106085544Y-82596072D01*
X106057954Y-82623662D01*
X106043022Y-82659710D01*
X106041101Y-82679219D01*
X106041101Y-83302662D01*
X105656497Y-82629605D01*
X105653578Y-82625494D01*
X105652820Y-82623662D01*
X105650953Y-82621795D01*
X105645150Y-82613620D01*
X105634635Y-82605477D01*
X105625230Y-82596072D01*
X105619339Y-82593632D01*
X105614301Y-82589730D01*
X105601472Y-82586231D01*
X105589182Y-82581140D01*
X105582807Y-82581140D01*
X105576658Y-82579463D01*
X105563465Y-82581140D01*
X105550164Y-82581140D01*
X105544275Y-82583579D01*
X105537951Y-82584383D01*
X105526401Y-82590983D01*
X105514116Y-82596072D01*
X105509608Y-82600579D01*
X105504074Y-82603742D01*
X105495931Y-82614256D01*
X105486526Y-82623662D01*
X105484086Y-82629552D01*
X105480184Y-82634591D01*
X105476685Y-82647419D01*
X105471594Y-82659710D01*
X105470611Y-82669687D01*
X105469917Y-82672234D01*
X105470167Y-82674201D01*
X105469673Y-82679219D01*
X105180993Y-82679219D01*
X105180358Y-82677315D01*
X105154793Y-82647838D01*
X105138203Y-82637395D01*
X105042965Y-82589776D01*
X105024657Y-82582770D01*
X105021073Y-82582515D01*
X105017753Y-82581140D01*
X104998244Y-82579219D01*
X104855387Y-82579219D01*
X104845513Y-82580191D01*
X104842879Y-82580004D01*
X104839415Y-82580791D01*
X104835878Y-82581140D01*
X104833436Y-82582151D01*
X104823764Y-82584351D01*
X104680907Y-82631970D01*
X104663007Y-82639961D01*
X104660291Y-82642316D01*
X104656973Y-82643691D01*
X104641819Y-82656127D01*
X104546581Y-82751365D01*
X104540286Y-82759035D01*
X104538292Y-82760765D01*
X104536398Y-82763772D01*
X104534145Y-82766519D01*
X104533134Y-82768958D01*
X104527849Y-82777355D01*
X104480230Y-82872593D01*
X104479684Y-82874019D01*
X104479254Y-82874600D01*
X104476332Y-82882776D01*
X104473224Y-82890901D01*
X104473172Y-82891623D01*
X104472659Y-82893061D01*
X104425040Y-83083536D01*
X104424539Y-83086917D01*
X104423975Y-83088281D01*
X104423251Y-83095631D01*
X104422172Y-83102929D01*
X104422389Y-83104387D01*
X104422054Y-83107790D01*
X104310943Y-83107790D01*
X104310943Y-82468108D01*
X107399831Y-82468108D01*
X107399831Y-83890330D01*
G37*
G36*
X95783509Y-83890330D02*
G01*
X92649708Y-83890330D01*
X92649708Y-83278757D01*
X92760819Y-83278757D01*
X92760819Y-83317775D01*
X92775751Y-83353823D01*
X92803341Y-83381413D01*
X92839389Y-83396345D01*
X92858898Y-83398266D01*
X93139850Y-83398266D01*
X93139850Y-83679219D01*
X93141771Y-83698728D01*
X93156703Y-83734776D01*
X93184293Y-83762366D01*
X93220341Y-83777298D01*
X93259359Y-83777298D01*
X93295407Y-83762366D01*
X93322997Y-83734776D01*
X93337929Y-83698728D01*
X93339850Y-83679219D01*
X93339850Y-83398266D01*
X93620803Y-83398266D01*
X93640312Y-83396345D01*
X93676360Y-83381413D01*
X93703950Y-83353823D01*
X93718882Y-83317775D01*
X93718882Y-83278757D01*
X93703950Y-83242709D01*
X93676360Y-83215119D01*
X93640312Y-83200187D01*
X93620803Y-83198266D01*
X93339850Y-83198266D01*
X93339850Y-83165062D01*
X93949841Y-83165062D01*
X93951295Y-83169880D01*
X93951295Y-83174918D01*
X93956891Y-83188427D01*
X93961112Y-83202417D01*
X93964299Y-83206313D01*
X93966227Y-83210966D01*
X93976563Y-83221302D01*
X93985819Y-83232615D01*
X93990256Y-83234995D01*
X93993817Y-83238556D01*
X94007322Y-83244150D01*
X94020203Y-83251060D01*
X94025212Y-83251560D01*
X94029865Y-83253488D01*
X94044486Y-83253488D01*
X94059027Y-83254942D01*
X94063846Y-83253488D01*
X94068883Y-83253488D01*
X94082392Y-83247891D01*
X94096382Y-83243671D01*
X94100278Y-83240483D01*
X94104931Y-83238556D01*
X94120085Y-83226120D01*
X94156228Y-83189975D01*
X94215838Y-83160171D01*
X94406719Y-83160171D01*
X94466328Y-83189976D01*
X94490997Y-83214644D01*
X94520802Y-83274254D01*
X94520802Y-83465135D01*
X94490997Y-83524743D01*
X94466328Y-83549413D01*
X94406719Y-83579219D01*
X94215838Y-83579219D01*
X94156228Y-83549414D01*
X94120085Y-83513270D01*
X94104932Y-83500833D01*
X94068884Y-83485902D01*
X94029866Y-83485901D01*
X93993817Y-83500832D01*
X93966227Y-83528422D01*
X93951296Y-83564470D01*
X93951295Y-83603488D01*
X93966226Y-83639537D01*
X93978663Y-83654690D01*
X94026281Y-83702310D01*
X94033949Y-83708603D01*
X94035681Y-83710600D01*
X94038689Y-83712493D01*
X94041435Y-83714747D01*
X94043875Y-83715757D01*
X94052272Y-83721043D01*
X94147509Y-83768662D01*
X94165818Y-83775668D01*
X94169401Y-83775922D01*
X94172722Y-83777298D01*
X94192231Y-83779219D01*
X94430326Y-83779219D01*
X94449835Y-83777298D01*
X94453155Y-83775922D01*
X94456739Y-83775668D01*
X94475047Y-83768662D01*
X94570285Y-83721043D01*
X94578680Y-83715758D01*
X94581122Y-83714747D01*
X94583869Y-83712491D01*
X94586875Y-83710600D01*
X94588605Y-83708605D01*
X94596275Y-83702310D01*
X94643894Y-83654690D01*
X94650186Y-83647023D01*
X94652183Y-83645292D01*
X94654076Y-83642284D01*
X94656331Y-83639537D01*
X94657342Y-83637095D01*
X94662626Y-83628701D01*
X94710245Y-83533464D01*
X94717251Y-83515155D01*
X94717505Y-83511571D01*
X94718881Y-83508251D01*
X94720802Y-83488742D01*
X94720802Y-83250647D01*
X94718881Y-83231138D01*
X94717505Y-83227817D01*
X94717251Y-83224234D01*
X94710245Y-83205925D01*
X94662626Y-83110688D01*
X94657340Y-83102291D01*
X94656330Y-83099851D01*
X94654076Y-83097105D01*
X94652183Y-83094097D01*
X94650185Y-83092364D01*
X94643893Y-83084698D01*
X94596275Y-83037079D01*
X94588604Y-83030784D01*
X94586875Y-83028790D01*
X94583867Y-83026896D01*
X94581121Y-83024643D01*
X94578681Y-83023632D01*
X94570285Y-83018347D01*
X94475047Y-82970728D01*
X94456739Y-82963722D01*
X94453155Y-82963467D01*
X94449835Y-82962092D01*
X94430326Y-82960171D01*
X94192231Y-82960171D01*
X94172722Y-82962092D01*
X94169401Y-82963467D01*
X94169064Y-82963491D01*
X94187492Y-82779219D01*
X94573183Y-82779219D01*
X94592692Y-82777298D01*
X94628740Y-82762366D01*
X94656330Y-82734776D01*
X94671262Y-82698728D01*
X94671262Y-82691726D01*
X94807302Y-82691726D01*
X94811649Y-82710842D01*
X95144982Y-83710841D01*
X95152973Y-83728742D01*
X95157656Y-83734141D01*
X95160851Y-83740531D01*
X95170322Y-83748746D01*
X95178538Y-83758218D01*
X95184926Y-83761412D01*
X95190327Y-83766096D01*
X95202228Y-83770063D01*
X95213437Y-83775667D01*
X95220561Y-83776173D01*
X95227343Y-83778434D01*
X95239852Y-83777544D01*
X95252357Y-83778434D01*
X95259135Y-83776174D01*
X95266263Y-83775668D01*
X95277479Y-83770059D01*
X95289373Y-83766095D01*
X95294770Y-83761414D01*
X95301162Y-83758218D01*
X95309380Y-83748742D01*
X95318849Y-83740530D01*
X95322042Y-83734143D01*
X95326727Y-83728742D01*
X95334718Y-83710842D01*
X95668051Y-82710842D01*
X95672398Y-82691727D01*
X95669632Y-82652807D01*
X95652182Y-82617908D01*
X95622706Y-82592343D01*
X95585690Y-82580004D01*
X95546770Y-82582771D01*
X95511871Y-82600220D01*
X95486306Y-82629696D01*
X95478315Y-82647597D01*
X95239850Y-83362991D01*
X95001385Y-82647596D01*
X94993394Y-82629696D01*
X94967829Y-82600220D01*
X94932930Y-82582770D01*
X94894010Y-82580004D01*
X94856994Y-82592342D01*
X94827518Y-82617907D01*
X94810068Y-82652806D01*
X94807302Y-82691726D01*
X94671262Y-82691726D01*
X94671262Y-82659710D01*
X94656330Y-82623662D01*
X94628740Y-82596072D01*
X94592692Y-82581140D01*
X94573183Y-82579219D01*
X94096993Y-82579219D01*
X94089776Y-82579929D01*
X94087340Y-82579686D01*
X94084961Y-82580403D01*
X94077484Y-82581140D01*
X94063974Y-82586736D01*
X94049985Y-82590957D01*
X94046088Y-82594144D01*
X94041436Y-82596072D01*
X94031099Y-82606408D01*
X94019787Y-82615664D01*
X94017406Y-82620101D01*
X94013846Y-82623662D01*
X94008251Y-82637167D01*
X94001342Y-82650048D01*
X93999865Y-82657412D01*
X93998914Y-82659710D01*
X93998914Y-82662160D01*
X93997489Y-82669269D01*
X93949870Y-83145459D01*
X93949841Y-83165062D01*
X93339850Y-83165062D01*
X93339850Y-82917314D01*
X93337929Y-82897805D01*
X93322997Y-82861757D01*
X93295407Y-82834167D01*
X93259359Y-82819235D01*
X93220341Y-82819235D01*
X93184293Y-82834167D01*
X93156703Y-82861757D01*
X93141771Y-82897805D01*
X93139850Y-82917314D01*
X93139850Y-83198266D01*
X92858898Y-83198266D01*
X92839389Y-83200187D01*
X92803341Y-83215119D01*
X92775751Y-83242709D01*
X92760819Y-83278757D01*
X92649708Y-83278757D01*
X92649708Y-82468108D01*
X95783509Y-82468108D01*
X95783509Y-83890330D01*
G37*
G36*
X112789056Y-94663330D02*
G01*
X108797327Y-94663330D01*
X108797327Y-94051757D01*
X108908438Y-94051757D01*
X108908438Y-94090775D01*
X108923370Y-94126823D01*
X108950960Y-94154413D01*
X108987008Y-94169345D01*
X109006517Y-94171266D01*
X109287469Y-94171266D01*
X109287469Y-94452219D01*
X109289390Y-94471728D01*
X109304322Y-94507776D01*
X109331912Y-94535366D01*
X109367960Y-94550298D01*
X109406978Y-94550298D01*
X109443026Y-94535366D01*
X109470616Y-94507776D01*
X109485548Y-94471728D01*
X109487469Y-94452219D01*
X109487469Y-94171266D01*
X109768422Y-94171266D01*
X109787931Y-94169345D01*
X109823979Y-94154413D01*
X109851569Y-94126823D01*
X109866501Y-94090775D01*
X109866501Y-94051757D01*
X109851569Y-94015709D01*
X109823979Y-93988119D01*
X109787931Y-93973187D01*
X109768422Y-93971266D01*
X109487469Y-93971266D01*
X109487469Y-93690314D01*
X109485548Y-93670805D01*
X109470616Y-93634757D01*
X109443026Y-93607167D01*
X109406978Y-93592235D01*
X109367960Y-93592235D01*
X109331912Y-93607167D01*
X109304322Y-93634757D01*
X109289390Y-93670805D01*
X109287469Y-93690314D01*
X109287469Y-93971266D01*
X109006517Y-93971266D01*
X108987008Y-93973187D01*
X108950960Y-93988119D01*
X108923370Y-94015709D01*
X108908438Y-94051757D01*
X108797327Y-94051757D01*
X108797327Y-93432710D01*
X110051295Y-93432710D01*
X110051295Y-93471728D01*
X110066227Y-93507776D01*
X110093817Y-93535366D01*
X110129865Y-93550298D01*
X110149374Y-93552219D01*
X110548044Y-93552219D01*
X110359830Y-93767321D01*
X110353800Y-93775754D01*
X110351941Y-93777614D01*
X110351210Y-93779377D01*
X110348429Y-93783268D01*
X110343224Y-93798656D01*
X110337009Y-93813662D01*
X110337009Y-93817035D01*
X110335929Y-93820229D01*
X110337009Y-93836431D01*
X110337009Y-93852680D01*
X110338299Y-93855795D01*
X110338524Y-93859161D01*
X110345724Y-93873721D01*
X110351941Y-93888728D01*
X110354325Y-93891112D01*
X110355821Y-93894136D01*
X110368046Y-93904833D01*
X110379531Y-93916318D01*
X110382645Y-93917608D01*
X110385185Y-93919830D01*
X110400573Y-93925034D01*
X110415579Y-93931250D01*
X110420338Y-93931718D01*
X110422146Y-93932330D01*
X110424770Y-93932155D01*
X110435088Y-93933171D01*
X110554338Y-93933171D01*
X110613947Y-93962976D01*
X110638616Y-93987644D01*
X110668421Y-94047254D01*
X110668421Y-94238135D01*
X110638616Y-94297743D01*
X110613947Y-94322413D01*
X110554338Y-94352219D01*
X110315838Y-94352219D01*
X110256228Y-94322414D01*
X110220085Y-94286270D01*
X110204932Y-94273833D01*
X110168884Y-94258902D01*
X110129866Y-94258901D01*
X110093817Y-94273832D01*
X110066227Y-94301422D01*
X110051296Y-94337470D01*
X110051295Y-94376488D01*
X110066226Y-94412537D01*
X110078663Y-94427690D01*
X110126281Y-94475310D01*
X110133949Y-94481603D01*
X110135681Y-94483600D01*
X110138689Y-94485493D01*
X110141435Y-94487747D01*
X110143875Y-94488757D01*
X110152272Y-94494043D01*
X110247509Y-94541662D01*
X110265818Y-94548668D01*
X110269401Y-94548922D01*
X110272722Y-94550298D01*
X110292231Y-94552219D01*
X110577945Y-94552219D01*
X110597454Y-94550298D01*
X110600774Y-94548922D01*
X110604358Y-94548668D01*
X110622666Y-94541662D01*
X110717904Y-94494043D01*
X110726299Y-94488758D01*
X110728741Y-94487747D01*
X110731488Y-94485491D01*
X110734494Y-94483600D01*
X110736224Y-94481605D01*
X110743894Y-94475310D01*
X110791513Y-94427690D01*
X110797805Y-94420023D01*
X110799802Y-94418292D01*
X110801695Y-94415284D01*
X110803950Y-94412537D01*
X110804961Y-94410095D01*
X110810245Y-94401701D01*
X110857864Y-94306464D01*
X110864870Y-94288155D01*
X110865124Y-94284571D01*
X110866500Y-94281251D01*
X110868421Y-94261742D01*
X110868421Y-94023647D01*
X110866500Y-94004138D01*
X110865124Y-94000817D01*
X110864870Y-93997234D01*
X110857864Y-93978925D01*
X110810245Y-93883688D01*
X110804959Y-93875291D01*
X110803949Y-93872851D01*
X110801695Y-93870105D01*
X110799802Y-93867097D01*
X110797804Y-93865364D01*
X110791512Y-93857698D01*
X110743894Y-93810079D01*
X110736223Y-93803784D01*
X110734494Y-93801790D01*
X110731486Y-93799896D01*
X110728740Y-93797643D01*
X110726300Y-93796632D01*
X110717904Y-93791347D01*
X110639056Y-93751923D01*
X110843679Y-93518069D01*
X110849708Y-93509635D01*
X110851568Y-93507776D01*
X110852298Y-93506012D01*
X110855080Y-93502122D01*
X110860284Y-93486733D01*
X110866500Y-93471728D01*
X110866500Y-93468354D01*
X110867580Y-93465161D01*
X110867551Y-93464726D01*
X110954921Y-93464726D01*
X110959268Y-93483842D01*
X111292601Y-94483841D01*
X111300592Y-94501742D01*
X111305275Y-94507141D01*
X111308470Y-94513531D01*
X111317941Y-94521746D01*
X111326157Y-94531218D01*
X111332545Y-94534412D01*
X111337946Y-94539096D01*
X111349847Y-94543063D01*
X111361056Y-94548667D01*
X111368180Y-94549173D01*
X111374962Y-94551434D01*
X111387471Y-94550544D01*
X111399976Y-94551434D01*
X111406754Y-94549174D01*
X111413882Y-94548668D01*
X111425098Y-94543059D01*
X111436992Y-94539095D01*
X111442389Y-94534414D01*
X111448781Y-94531218D01*
X111456999Y-94521742D01*
X111466468Y-94513530D01*
X111469661Y-94507143D01*
X111474346Y-94501742D01*
X111482337Y-94483842D01*
X111815670Y-93483842D01*
X111820017Y-93464727D01*
X111817742Y-93432710D01*
X111860819Y-93432710D01*
X111860819Y-93471728D01*
X111875751Y-93507776D01*
X111903341Y-93535366D01*
X111939389Y-93550298D01*
X111958898Y-93552219D01*
X112357568Y-93552219D01*
X112169354Y-93767321D01*
X112163324Y-93775754D01*
X112161465Y-93777614D01*
X112160734Y-93779377D01*
X112157953Y-93783268D01*
X112152748Y-93798656D01*
X112146533Y-93813662D01*
X112146533Y-93817035D01*
X112145453Y-93820229D01*
X112146533Y-93836431D01*
X112146533Y-93852680D01*
X112147823Y-93855795D01*
X112148048Y-93859161D01*
X112155248Y-93873721D01*
X112161465Y-93888728D01*
X112163849Y-93891112D01*
X112165345Y-93894136D01*
X112177570Y-93904833D01*
X112189055Y-93916318D01*
X112192169Y-93917608D01*
X112194709Y-93919830D01*
X112210097Y-93925034D01*
X112225103Y-93931250D01*
X112229862Y-93931718D01*
X112231670Y-93932330D01*
X112234294Y-93932155D01*
X112244612Y-93933171D01*
X112363862Y-93933171D01*
X112423471Y-93962976D01*
X112448140Y-93987644D01*
X112477945Y-94047254D01*
X112477945Y-94238135D01*
X112448140Y-94297743D01*
X112423471Y-94322413D01*
X112363862Y-94352219D01*
X112125362Y-94352219D01*
X112065752Y-94322414D01*
X112029609Y-94286270D01*
X112014456Y-94273833D01*
X111978408Y-94258902D01*
X111939390Y-94258901D01*
X111903341Y-94273832D01*
X111875751Y-94301422D01*
X111860820Y-94337470D01*
X111860819Y-94376488D01*
X111875750Y-94412537D01*
X111888187Y-94427690D01*
X111935805Y-94475310D01*
X111943473Y-94481603D01*
X111945205Y-94483600D01*
X111948213Y-94485493D01*
X111950959Y-94487747D01*
X111953399Y-94488757D01*
X111961796Y-94494043D01*
X112057033Y-94541662D01*
X112075342Y-94548668D01*
X112078925Y-94548922D01*
X112082246Y-94550298D01*
X112101755Y-94552219D01*
X112387469Y-94552219D01*
X112406978Y-94550298D01*
X112410298Y-94548922D01*
X112413882Y-94548668D01*
X112432190Y-94541662D01*
X112527428Y-94494043D01*
X112535823Y-94488758D01*
X112538265Y-94487747D01*
X112541012Y-94485491D01*
X112544018Y-94483600D01*
X112545748Y-94481605D01*
X112553418Y-94475310D01*
X112601037Y-94427690D01*
X112607329Y-94420023D01*
X112609326Y-94418292D01*
X112611219Y-94415284D01*
X112613474Y-94412537D01*
X112614485Y-94410095D01*
X112619769Y-94401701D01*
X112667388Y-94306464D01*
X112674394Y-94288155D01*
X112674648Y-94284571D01*
X112676024Y-94281251D01*
X112677945Y-94261742D01*
X112677945Y-94023647D01*
X112676024Y-94004138D01*
X112674648Y-94000817D01*
X112674394Y-93997234D01*
X112667388Y-93978925D01*
X112619769Y-93883688D01*
X112614483Y-93875291D01*
X112613473Y-93872851D01*
X112611219Y-93870105D01*
X112609326Y-93867097D01*
X112607328Y-93865364D01*
X112601036Y-93857698D01*
X112553418Y-93810079D01*
X112545747Y-93803784D01*
X112544018Y-93801790D01*
X112541010Y-93799896D01*
X112538264Y-93797643D01*
X112535824Y-93796632D01*
X112527428Y-93791347D01*
X112448580Y-93751923D01*
X112653203Y-93518069D01*
X112659232Y-93509635D01*
X112661092Y-93507776D01*
X112661822Y-93506012D01*
X112664604Y-93502122D01*
X112669808Y-93486733D01*
X112676024Y-93471728D01*
X112676024Y-93468354D01*
X112677104Y-93465161D01*
X112676024Y-93448958D01*
X112676024Y-93432710D01*
X112674733Y-93429594D01*
X112674509Y-93426229D01*
X112667306Y-93411663D01*
X112661092Y-93396662D01*
X112658708Y-93394278D01*
X112657213Y-93391254D01*
X112644979Y-93380549D01*
X112633502Y-93369072D01*
X112630388Y-93367782D01*
X112627849Y-93365560D01*
X112612457Y-93360354D01*
X112597454Y-93354140D01*
X112592694Y-93353671D01*
X112590887Y-93353060D01*
X112588262Y-93353234D01*
X112577945Y-93352219D01*
X111958898Y-93352219D01*
X111939389Y-93354140D01*
X111903341Y-93369072D01*
X111875751Y-93396662D01*
X111860819Y-93432710D01*
X111817742Y-93432710D01*
X111817251Y-93425807D01*
X111799801Y-93390908D01*
X111770325Y-93365343D01*
X111733309Y-93353004D01*
X111694389Y-93355771D01*
X111659490Y-93373220D01*
X111633925Y-93402696D01*
X111625934Y-93420597D01*
X111387469Y-94135991D01*
X111149004Y-93420596D01*
X111141013Y-93402696D01*
X111115448Y-93373220D01*
X111080549Y-93355770D01*
X111041629Y-93353004D01*
X111004613Y-93365342D01*
X110975137Y-93390907D01*
X110957687Y-93425806D01*
X110954921Y-93464726D01*
X110867551Y-93464726D01*
X110866500Y-93448958D01*
X110866500Y-93432710D01*
X110865209Y-93429594D01*
X110864985Y-93426229D01*
X110857782Y-93411663D01*
X110851568Y-93396662D01*
X110849184Y-93394278D01*
X110847689Y-93391254D01*
X110835455Y-93380549D01*
X110823978Y-93369072D01*
X110820864Y-93367782D01*
X110818325Y-93365560D01*
X110802933Y-93360354D01*
X110787930Y-93354140D01*
X110783170Y-93353671D01*
X110781363Y-93353060D01*
X110778738Y-93353234D01*
X110768421Y-93352219D01*
X110149374Y-93352219D01*
X110129865Y-93354140D01*
X110093817Y-93369072D01*
X110066227Y-93396662D01*
X110051295Y-93432710D01*
X108797327Y-93432710D01*
X108797327Y-93241108D01*
X112789056Y-93241108D01*
X112789056Y-94663330D01*
G37*
G36*
X112883509Y-96663330D02*
G01*
X109749708Y-96663330D01*
X109749708Y-96051757D01*
X109860819Y-96051757D01*
X109860819Y-96090775D01*
X109875751Y-96126823D01*
X109903341Y-96154413D01*
X109939389Y-96169345D01*
X109958898Y-96171266D01*
X110239850Y-96171266D01*
X110239850Y-96452219D01*
X110241771Y-96471728D01*
X110256703Y-96507776D01*
X110284293Y-96535366D01*
X110320341Y-96550298D01*
X110359359Y-96550298D01*
X110395407Y-96535366D01*
X110422997Y-96507776D01*
X110437929Y-96471728D01*
X110439850Y-96452219D01*
X110439850Y-96171266D01*
X110720803Y-96171266D01*
X110740312Y-96169345D01*
X110776360Y-96154413D01*
X110803950Y-96126823D01*
X110818882Y-96090775D01*
X110818882Y-96051757D01*
X110803950Y-96015709D01*
X110776360Y-95988119D01*
X110740312Y-95973187D01*
X110720803Y-95971266D01*
X110439850Y-95971266D01*
X110439850Y-95938062D01*
X111049841Y-95938062D01*
X111051295Y-95942880D01*
X111051295Y-95947918D01*
X111056891Y-95961427D01*
X111061112Y-95975417D01*
X111064299Y-95979313D01*
X111066227Y-95983966D01*
X111076563Y-95994302D01*
X111085819Y-96005615D01*
X111090256Y-96007995D01*
X111093817Y-96011556D01*
X111107322Y-96017150D01*
X111120203Y-96024060D01*
X111125212Y-96024560D01*
X111129865Y-96026488D01*
X111144486Y-96026488D01*
X111159027Y-96027942D01*
X111163846Y-96026488D01*
X111168883Y-96026488D01*
X111182392Y-96020891D01*
X111196382Y-96016671D01*
X111200278Y-96013483D01*
X111204931Y-96011556D01*
X111220085Y-95999120D01*
X111256228Y-95962975D01*
X111315838Y-95933171D01*
X111506719Y-95933171D01*
X111566328Y-95962976D01*
X111590997Y-95987644D01*
X111620802Y-96047254D01*
X111620802Y-96238135D01*
X111590997Y-96297743D01*
X111566328Y-96322413D01*
X111506719Y-96352219D01*
X111315838Y-96352219D01*
X111256228Y-96322414D01*
X111220085Y-96286270D01*
X111204932Y-96273833D01*
X111168884Y-96258902D01*
X111129866Y-96258901D01*
X111093817Y-96273832D01*
X111066227Y-96301422D01*
X111051296Y-96337470D01*
X111051295Y-96376488D01*
X111066226Y-96412537D01*
X111078663Y-96427690D01*
X111126281Y-96475310D01*
X111133949Y-96481603D01*
X111135681Y-96483600D01*
X111138689Y-96485493D01*
X111141435Y-96487747D01*
X111143875Y-96488757D01*
X111152272Y-96494043D01*
X111247509Y-96541662D01*
X111265818Y-96548668D01*
X111269401Y-96548922D01*
X111272722Y-96550298D01*
X111292231Y-96552219D01*
X111530326Y-96552219D01*
X111549835Y-96550298D01*
X111553155Y-96548922D01*
X111556739Y-96548668D01*
X111575047Y-96541662D01*
X111670285Y-96494043D01*
X111678680Y-96488758D01*
X111681122Y-96487747D01*
X111683869Y-96485491D01*
X111686875Y-96483600D01*
X111688605Y-96481605D01*
X111696275Y-96475310D01*
X111743894Y-96427690D01*
X111750186Y-96420023D01*
X111752183Y-96418292D01*
X111754076Y-96415284D01*
X111756331Y-96412537D01*
X111757342Y-96410095D01*
X111762626Y-96401701D01*
X111810245Y-96306464D01*
X111817251Y-96288155D01*
X111817505Y-96284571D01*
X111818881Y-96281251D01*
X111820802Y-96261742D01*
X111820802Y-96023647D01*
X111818881Y-96004138D01*
X111817505Y-96000817D01*
X111817251Y-95997234D01*
X111810245Y-95978925D01*
X111762626Y-95883688D01*
X111757340Y-95875291D01*
X111756330Y-95872851D01*
X111754076Y-95870105D01*
X111752183Y-95867097D01*
X111750185Y-95865364D01*
X111743893Y-95857698D01*
X111696275Y-95810079D01*
X111688604Y-95803784D01*
X111686875Y-95801790D01*
X111683867Y-95799896D01*
X111681121Y-95797643D01*
X111678681Y-95796632D01*
X111670285Y-95791347D01*
X111575047Y-95743728D01*
X111556739Y-95736722D01*
X111553155Y-95736467D01*
X111549835Y-95735092D01*
X111530326Y-95733171D01*
X111292231Y-95733171D01*
X111272722Y-95735092D01*
X111269401Y-95736467D01*
X111269064Y-95736491D01*
X111287492Y-95552219D01*
X111673183Y-95552219D01*
X111692692Y-95550298D01*
X111728740Y-95535366D01*
X111756330Y-95507776D01*
X111771262Y-95471728D01*
X111771262Y-95464726D01*
X111907302Y-95464726D01*
X111911649Y-95483842D01*
X112244982Y-96483841D01*
X112252973Y-96501742D01*
X112257656Y-96507141D01*
X112260851Y-96513531D01*
X112270322Y-96521746D01*
X112278538Y-96531218D01*
X112284926Y-96534412D01*
X112290327Y-96539096D01*
X112302228Y-96543063D01*
X112313437Y-96548667D01*
X112320561Y-96549173D01*
X112327343Y-96551434D01*
X112339852Y-96550544D01*
X112352357Y-96551434D01*
X112359135Y-96549174D01*
X112366263Y-96548668D01*
X112377479Y-96543059D01*
X112389373Y-96539095D01*
X112394770Y-96534414D01*
X112401162Y-96531218D01*
X112409380Y-96521742D01*
X112418849Y-96513530D01*
X112422042Y-96507143D01*
X112426727Y-96501742D01*
X112434718Y-96483842D01*
X112768051Y-95483842D01*
X112772398Y-95464727D01*
X112769632Y-95425807D01*
X112752182Y-95390908D01*
X112722706Y-95365343D01*
X112685690Y-95353004D01*
X112646770Y-95355771D01*
X112611871Y-95373220D01*
X112586306Y-95402696D01*
X112578315Y-95420597D01*
X112339850Y-96135991D01*
X112101385Y-95420596D01*
X112093394Y-95402696D01*
X112067829Y-95373220D01*
X112032930Y-95355770D01*
X111994010Y-95353004D01*
X111956994Y-95365342D01*
X111927518Y-95390907D01*
X111910068Y-95425806D01*
X111907302Y-95464726D01*
X111771262Y-95464726D01*
X111771262Y-95432710D01*
X111756330Y-95396662D01*
X111728740Y-95369072D01*
X111692692Y-95354140D01*
X111673183Y-95352219D01*
X111196993Y-95352219D01*
X111189776Y-95352929D01*
X111187340Y-95352686D01*
X111184961Y-95353403D01*
X111177484Y-95354140D01*
X111163974Y-95359736D01*
X111149985Y-95363957D01*
X111146088Y-95367144D01*
X111141436Y-95369072D01*
X111131099Y-95379408D01*
X111119787Y-95388664D01*
X111117406Y-95393101D01*
X111113846Y-95396662D01*
X111108251Y-95410167D01*
X111101342Y-95423048D01*
X111099865Y-95430412D01*
X111098914Y-95432710D01*
X111098914Y-95435160D01*
X111097489Y-95442269D01*
X111049870Y-95918459D01*
X111049841Y-95938062D01*
X110439850Y-95938062D01*
X110439850Y-95690314D01*
X110437929Y-95670805D01*
X110422997Y-95634757D01*
X110395407Y-95607167D01*
X110359359Y-95592235D01*
X110320341Y-95592235D01*
X110284293Y-95607167D01*
X110256703Y-95634757D01*
X110241771Y-95670805D01*
X110239850Y-95690314D01*
X110239850Y-95971266D01*
X109958898Y-95971266D01*
X109939389Y-95973187D01*
X109903341Y-95988119D01*
X109875751Y-96015709D01*
X109860819Y-96051757D01*
X109749708Y-96051757D01*
X109749708Y-95241108D01*
X112883509Y-95241108D01*
X112883509Y-96663330D01*
G37*
G36*
X112789056Y-98663330D02*
G01*
X110795406Y-98663330D01*
X110795406Y-97880790D01*
X110906517Y-97880790D01*
X110906517Y-98023647D01*
X110906852Y-98027049D01*
X110906635Y-98028508D01*
X110907714Y-98035805D01*
X110908438Y-98043156D01*
X110909002Y-98044519D01*
X110909503Y-98047901D01*
X110957122Y-98238376D01*
X110957635Y-98239813D01*
X110957687Y-98240536D01*
X110960795Y-98248660D01*
X110963717Y-98256837D01*
X110964147Y-98257417D01*
X110964693Y-98258844D01*
X111012312Y-98354082D01*
X111017594Y-98362474D01*
X111018607Y-98364918D01*
X111020863Y-98367667D01*
X111022755Y-98370672D01*
X111024749Y-98372401D01*
X111031044Y-98380071D01*
X111126282Y-98475311D01*
X111141435Y-98487747D01*
X111144754Y-98489122D01*
X111147470Y-98491477D01*
X111165370Y-98499468D01*
X111308227Y-98547087D01*
X111317899Y-98549286D01*
X111320341Y-98550298D01*
X111323878Y-98550646D01*
X111327342Y-98551434D01*
X111329976Y-98551246D01*
X111339850Y-98552219D01*
X111435088Y-98552219D01*
X111444961Y-98551246D01*
X111447595Y-98551434D01*
X111451058Y-98550646D01*
X111454597Y-98550298D01*
X111457039Y-98549286D01*
X111466711Y-98547087D01*
X111609567Y-98499468D01*
X111627468Y-98491477D01*
X111630183Y-98489122D01*
X111633503Y-98487747D01*
X111648656Y-98475310D01*
X111696275Y-98427690D01*
X111708712Y-98412537D01*
X111723643Y-98376488D01*
X111723642Y-98337470D01*
X111708711Y-98301422D01*
X111681120Y-98273832D01*
X111645072Y-98258901D01*
X111606054Y-98258902D01*
X111570006Y-98273833D01*
X111554852Y-98286270D01*
X111523925Y-98317197D01*
X111418861Y-98352219D01*
X111356076Y-98352219D01*
X111251011Y-98317197D01*
X111183941Y-98250127D01*
X111148487Y-98179218D01*
X111106517Y-98011337D01*
X111106517Y-97893100D01*
X111148487Y-97725218D01*
X111183940Y-97654312D01*
X111251012Y-97587240D01*
X111356076Y-97552219D01*
X111418861Y-97552219D01*
X111523926Y-97587240D01*
X111554853Y-97618167D01*
X111570006Y-97630604D01*
X111606055Y-97645535D01*
X111645073Y-97645535D01*
X111651930Y-97642695D01*
X111906517Y-97642695D01*
X111906517Y-97737933D01*
X111908438Y-97757442D01*
X111909813Y-97760762D01*
X111910068Y-97764346D01*
X111917074Y-97782654D01*
X111964693Y-97877892D01*
X111969978Y-97886288D01*
X111970989Y-97888728D01*
X111973242Y-97891474D01*
X111975136Y-97894482D01*
X111977130Y-97896211D01*
X111983425Y-97903882D01*
X112031044Y-97951500D01*
X112038710Y-97957792D01*
X112040443Y-97959790D01*
X112043451Y-97961683D01*
X112046197Y-97963937D01*
X112048637Y-97964947D01*
X112057034Y-97970233D01*
X112152271Y-98017852D01*
X112153699Y-98018398D01*
X112154279Y-98018828D01*
X112162455Y-98021749D01*
X112170580Y-98024858D01*
X112171300Y-98024909D01*
X112172739Y-98025423D01*
X112352564Y-98070379D01*
X112423471Y-98105833D01*
X112448140Y-98130501D01*
X112477945Y-98190111D01*
X112477945Y-98238135D01*
X112448140Y-98297743D01*
X112423471Y-98322413D01*
X112363862Y-98352219D01*
X112165600Y-98352219D01*
X112038140Y-98309732D01*
X112019024Y-98305385D01*
X111980104Y-98308151D01*
X111945205Y-98325601D01*
X111919640Y-98355077D01*
X111907302Y-98392093D01*
X111910068Y-98431013D01*
X111927518Y-98465912D01*
X111956994Y-98491477D01*
X111974894Y-98499468D01*
X112117751Y-98547087D01*
X112127423Y-98549286D01*
X112129865Y-98550298D01*
X112133402Y-98550646D01*
X112136866Y-98551434D01*
X112139500Y-98551246D01*
X112149374Y-98552219D01*
X112387469Y-98552219D01*
X112406978Y-98550298D01*
X112410298Y-98548922D01*
X112413882Y-98548668D01*
X112432190Y-98541662D01*
X112527428Y-98494043D01*
X112535823Y-98488758D01*
X112538265Y-98487747D01*
X112541012Y-98485491D01*
X112544018Y-98483600D01*
X112545748Y-98481605D01*
X112553418Y-98475310D01*
X112601037Y-98427690D01*
X112607329Y-98420023D01*
X112609326Y-98418292D01*
X112611219Y-98415284D01*
X112613474Y-98412537D01*
X112614485Y-98410095D01*
X112619769Y-98401701D01*
X112667388Y-98306464D01*
X112674394Y-98288155D01*
X112674648Y-98284571D01*
X112676024Y-98281251D01*
X112677945Y-98261742D01*
X112677945Y-98166504D01*
X112676024Y-98146995D01*
X112674648Y-98143674D01*
X112674394Y-98140091D01*
X112667388Y-98121782D01*
X112619769Y-98026545D01*
X112614483Y-98018148D01*
X112613473Y-98015708D01*
X112611219Y-98012962D01*
X112609326Y-98009954D01*
X112607328Y-98008221D01*
X112601036Y-98000555D01*
X112553418Y-97952936D01*
X112545747Y-97946641D01*
X112544018Y-97944647D01*
X112541010Y-97942753D01*
X112538264Y-97940500D01*
X112535824Y-97939489D01*
X112527428Y-97934204D01*
X112432190Y-97886585D01*
X112430763Y-97886039D01*
X112430183Y-97885609D01*
X112422006Y-97882687D01*
X112413882Y-97879579D01*
X112413159Y-97879527D01*
X112411722Y-97879014D01*
X112231897Y-97834057D01*
X112160990Y-97798604D01*
X112136322Y-97773935D01*
X112106517Y-97714325D01*
X112106517Y-97666302D01*
X112136322Y-97606692D01*
X112160990Y-97582023D01*
X112220600Y-97552219D01*
X112418861Y-97552219D01*
X112546322Y-97594706D01*
X112565437Y-97599053D01*
X112604357Y-97596287D01*
X112639256Y-97578837D01*
X112664821Y-97549361D01*
X112677160Y-97512345D01*
X112674393Y-97473425D01*
X112656944Y-97438526D01*
X112627468Y-97412961D01*
X112609567Y-97404970D01*
X112466711Y-97357351D01*
X112457039Y-97355151D01*
X112454597Y-97354140D01*
X112451058Y-97353791D01*
X112447595Y-97353004D01*
X112444961Y-97353191D01*
X112435088Y-97352219D01*
X112196993Y-97352219D01*
X112177484Y-97354140D01*
X112174163Y-97355515D01*
X112170580Y-97355770D01*
X112152271Y-97362776D01*
X112057034Y-97410395D01*
X112048637Y-97415680D01*
X112046197Y-97416691D01*
X112043451Y-97418944D01*
X112040443Y-97420838D01*
X112038710Y-97422835D01*
X112031044Y-97429128D01*
X111983425Y-97476746D01*
X111977130Y-97484416D01*
X111975136Y-97486146D01*
X111973242Y-97489153D01*
X111970989Y-97491900D01*
X111969978Y-97494339D01*
X111964693Y-97502736D01*
X111917074Y-97597974D01*
X111910068Y-97616282D01*
X111909813Y-97619865D01*
X111908438Y-97623186D01*
X111906517Y-97642695D01*
X111651930Y-97642695D01*
X111681121Y-97630604D01*
X111708711Y-97603014D01*
X111723642Y-97566966D01*
X111723642Y-97527948D01*
X111708711Y-97491899D01*
X111696274Y-97476746D01*
X111648656Y-97429127D01*
X111633502Y-97416691D01*
X111630183Y-97415316D01*
X111627468Y-97412961D01*
X111609567Y-97404970D01*
X111466711Y-97357351D01*
X111457039Y-97355151D01*
X111454597Y-97354140D01*
X111451058Y-97353791D01*
X111447595Y-97353004D01*
X111444961Y-97353191D01*
X111435088Y-97352219D01*
X111339850Y-97352219D01*
X111329976Y-97353191D01*
X111327342Y-97353004D01*
X111323878Y-97353791D01*
X111320341Y-97354140D01*
X111317899Y-97355151D01*
X111308227Y-97357351D01*
X111165370Y-97404970D01*
X111147470Y-97412961D01*
X111144754Y-97415316D01*
X111141436Y-97416691D01*
X111126282Y-97429127D01*
X111031044Y-97524365D01*
X111024749Y-97532035D01*
X111022755Y-97533765D01*
X111020861Y-97536772D01*
X111018608Y-97539519D01*
X111017597Y-97541958D01*
X111012312Y-97550355D01*
X110964693Y-97645593D01*
X110964147Y-97647019D01*
X110963717Y-97647600D01*
X110960795Y-97655776D01*
X110957687Y-97663901D01*
X110957635Y-97664623D01*
X110957122Y-97666061D01*
X110909503Y-97856536D01*
X110909002Y-97859917D01*
X110908438Y-97861281D01*
X110907714Y-97868631D01*
X110906635Y-97875929D01*
X110906852Y-97877387D01*
X110906517Y-97880790D01*
X110795406Y-97880790D01*
X110795406Y-97241108D01*
X112789056Y-97241108D01*
X112789056Y-98663330D01*
G37*
G36*
X112375851Y-99582023D02*
G01*
X112440030Y-99646202D01*
X112477945Y-99797861D01*
X112477945Y-100106575D01*
X112440029Y-100258235D01*
X112375853Y-100322413D01*
X112316243Y-100352219D01*
X112172981Y-100352219D01*
X112113371Y-100322414D01*
X112049194Y-100258236D01*
X112011279Y-100106575D01*
X112011279Y-99797862D01*
X112049194Y-99646202D01*
X112113373Y-99582023D01*
X112172981Y-99552219D01*
X112316243Y-99552219D01*
X112375851Y-99582023D01*
G37*
G36*
X112789056Y-100663330D02*
G01*
X110747787Y-100663330D01*
X110747787Y-99642695D01*
X110858898Y-99642695D01*
X110858898Y-99737933D01*
X110860819Y-99757442D01*
X110862194Y-99760762D01*
X110862449Y-99764346D01*
X110869455Y-99782654D01*
X110917074Y-99877892D01*
X110922359Y-99886288D01*
X110923370Y-99888728D01*
X110925623Y-99891474D01*
X110927517Y-99894482D01*
X110929511Y-99896211D01*
X110935806Y-99903882D01*
X110983425Y-99951500D01*
X110991091Y-99957792D01*
X110992824Y-99959790D01*
X110995832Y-99961683D01*
X110998578Y-99963937D01*
X111001018Y-99964947D01*
X111009415Y-99970233D01*
X111104652Y-100017852D01*
X111106080Y-100018398D01*
X111106660Y-100018828D01*
X111114836Y-100021749D01*
X111122961Y-100024858D01*
X111123681Y-100024909D01*
X111125120Y-100025423D01*
X111304945Y-100070379D01*
X111375852Y-100105833D01*
X111400521Y-100130501D01*
X111430326Y-100190111D01*
X111430326Y-100238135D01*
X111400521Y-100297743D01*
X111375852Y-100322413D01*
X111316243Y-100352219D01*
X111117981Y-100352219D01*
X110990521Y-100309732D01*
X110971405Y-100305385D01*
X110932485Y-100308151D01*
X110897586Y-100325601D01*
X110872021Y-100355077D01*
X110859683Y-100392093D01*
X110862449Y-100431013D01*
X110879899Y-100465912D01*
X110909375Y-100491477D01*
X110927275Y-100499468D01*
X111070132Y-100547087D01*
X111079804Y-100549286D01*
X111082246Y-100550298D01*
X111085783Y-100550646D01*
X111089247Y-100551434D01*
X111091881Y-100551246D01*
X111101755Y-100552219D01*
X111339850Y-100552219D01*
X111359359Y-100550298D01*
X111362679Y-100548922D01*
X111366263Y-100548668D01*
X111384571Y-100541662D01*
X111479809Y-100494043D01*
X111488204Y-100488758D01*
X111490646Y-100487747D01*
X111493393Y-100485491D01*
X111496399Y-100483600D01*
X111498129Y-100481605D01*
X111505799Y-100475310D01*
X111553418Y-100427690D01*
X111559710Y-100420023D01*
X111561707Y-100418292D01*
X111563600Y-100415284D01*
X111565855Y-100412537D01*
X111566866Y-100410095D01*
X111572150Y-100401701D01*
X111619769Y-100306464D01*
X111626775Y-100288155D01*
X111627029Y-100284571D01*
X111628405Y-100281251D01*
X111630326Y-100261742D01*
X111630326Y-100166504D01*
X111628405Y-100146995D01*
X111627029Y-100143674D01*
X111626775Y-100140091D01*
X111619769Y-100121782D01*
X111572150Y-100026545D01*
X111566864Y-100018148D01*
X111565854Y-100015708D01*
X111563600Y-100012962D01*
X111561707Y-100009954D01*
X111559709Y-100008221D01*
X111553417Y-100000555D01*
X111505799Y-99952936D01*
X111498128Y-99946641D01*
X111496399Y-99944647D01*
X111493391Y-99942753D01*
X111490645Y-99940500D01*
X111488205Y-99939489D01*
X111479809Y-99934204D01*
X111384571Y-99886585D01*
X111383144Y-99886039D01*
X111382564Y-99885609D01*
X111374387Y-99882687D01*
X111366263Y-99879579D01*
X111365540Y-99879527D01*
X111364103Y-99879014D01*
X111184278Y-99834057D01*
X111113371Y-99798604D01*
X111100320Y-99785552D01*
X111811279Y-99785552D01*
X111811279Y-100118885D01*
X111811614Y-100122287D01*
X111811397Y-100123746D01*
X111812476Y-100131043D01*
X111813200Y-100138394D01*
X111813764Y-100139757D01*
X111814265Y-100143139D01*
X111861884Y-100333614D01*
X111868479Y-100352075D01*
X111872904Y-100358047D01*
X111875750Y-100364918D01*
X111888187Y-100380071D01*
X111983425Y-100475311D01*
X111991093Y-100481604D01*
X111992824Y-100483600D01*
X111995831Y-100485493D01*
X111998578Y-100487747D01*
X112001018Y-100488757D01*
X112009415Y-100494043D01*
X112104652Y-100541662D01*
X112122961Y-100548668D01*
X112126544Y-100548922D01*
X112129865Y-100550298D01*
X112149374Y-100552219D01*
X112339850Y-100552219D01*
X112359359Y-100550298D01*
X112362679Y-100548922D01*
X112366263Y-100548668D01*
X112384571Y-100541662D01*
X112479809Y-100494043D01*
X112488204Y-100488758D01*
X112490646Y-100487747D01*
X112493393Y-100485491D01*
X112496399Y-100483600D01*
X112498129Y-100481605D01*
X112505799Y-100475310D01*
X112601037Y-100380071D01*
X112613474Y-100364918D01*
X112616319Y-100358047D01*
X112620745Y-100352075D01*
X112627340Y-100333615D01*
X112674959Y-100143139D01*
X112675459Y-100139757D01*
X112676024Y-100138394D01*
X112676747Y-100131043D01*
X112677827Y-100123746D01*
X112677609Y-100122287D01*
X112677945Y-100118885D01*
X112677945Y-99785552D01*
X112677609Y-99782149D01*
X112677827Y-99780691D01*
X112676747Y-99773393D01*
X112676024Y-99766043D01*
X112675459Y-99764679D01*
X112674959Y-99761298D01*
X112627340Y-99570822D01*
X112620745Y-99552362D01*
X112616318Y-99546387D01*
X112613473Y-99539519D01*
X112601037Y-99524365D01*
X112505799Y-99429127D01*
X112498128Y-99422832D01*
X112496399Y-99420838D01*
X112493391Y-99418944D01*
X112490645Y-99416691D01*
X112488205Y-99415680D01*
X112479809Y-99410395D01*
X112384571Y-99362776D01*
X112366263Y-99355770D01*
X112362679Y-99355515D01*
X112359359Y-99354140D01*
X112339850Y-99352219D01*
X112149374Y-99352219D01*
X112129865Y-99354140D01*
X112126544Y-99355515D01*
X112122961Y-99355770D01*
X112104652Y-99362776D01*
X112009415Y-99410395D01*
X112001016Y-99415681D01*
X111998579Y-99416691D01*
X111995835Y-99418942D01*
X111992824Y-99420838D01*
X111991091Y-99422835D01*
X111983425Y-99429127D01*
X111888187Y-99524365D01*
X111875751Y-99539519D01*
X111872905Y-99546387D01*
X111868479Y-99552362D01*
X111861884Y-99570823D01*
X111814265Y-99761298D01*
X111813764Y-99764679D01*
X111813200Y-99766043D01*
X111812476Y-99773393D01*
X111811397Y-99780691D01*
X111811614Y-99782149D01*
X111811279Y-99785552D01*
X111100320Y-99785552D01*
X111088703Y-99773935D01*
X111058898Y-99714325D01*
X111058898Y-99666302D01*
X111088703Y-99606692D01*
X111113371Y-99582023D01*
X111172981Y-99552219D01*
X111371242Y-99552219D01*
X111498703Y-99594706D01*
X111517818Y-99599053D01*
X111556738Y-99596287D01*
X111591637Y-99578837D01*
X111617202Y-99549361D01*
X111629541Y-99512345D01*
X111626774Y-99473425D01*
X111609325Y-99438526D01*
X111579849Y-99412961D01*
X111561948Y-99404970D01*
X111419092Y-99357351D01*
X111409420Y-99355151D01*
X111406978Y-99354140D01*
X111403439Y-99353791D01*
X111399976Y-99353004D01*
X111397342Y-99353191D01*
X111387469Y-99352219D01*
X111149374Y-99352219D01*
X111129865Y-99354140D01*
X111126544Y-99355515D01*
X111122961Y-99355770D01*
X111104652Y-99362776D01*
X111009415Y-99410395D01*
X111001018Y-99415680D01*
X110998578Y-99416691D01*
X110995832Y-99418944D01*
X110992824Y-99420838D01*
X110991091Y-99422835D01*
X110983425Y-99429128D01*
X110935806Y-99476746D01*
X110929511Y-99484416D01*
X110927517Y-99486146D01*
X110925623Y-99489153D01*
X110923370Y-99491900D01*
X110922359Y-99494339D01*
X110917074Y-99502736D01*
X110869455Y-99597974D01*
X110862449Y-99616282D01*
X110862194Y-99619865D01*
X110860819Y-99623186D01*
X110858898Y-99642695D01*
X110747787Y-99642695D01*
X110747787Y-99241108D01*
X112789056Y-99241108D01*
X112789056Y-100663330D01*
G37*
G36*
X112741438Y-102663330D02*
G01*
X111319216Y-102663330D01*
X111319216Y-101642695D01*
X111430327Y-101642695D01*
X111430327Y-101737933D01*
X111432248Y-101757442D01*
X111433623Y-101760762D01*
X111433878Y-101764346D01*
X111440884Y-101782654D01*
X111488503Y-101877892D01*
X111493788Y-101886288D01*
X111494799Y-101888728D01*
X111497052Y-101891474D01*
X111498946Y-101894482D01*
X111500940Y-101896211D01*
X111507235Y-101903882D01*
X111554854Y-101951500D01*
X111562520Y-101957792D01*
X111564253Y-101959790D01*
X111567261Y-101961683D01*
X111570007Y-101963937D01*
X111572447Y-101964947D01*
X111580844Y-101970233D01*
X111676081Y-102017852D01*
X111677509Y-102018398D01*
X111678089Y-102018828D01*
X111686265Y-102021749D01*
X111694390Y-102024858D01*
X111695110Y-102024909D01*
X111696549Y-102025423D01*
X111876374Y-102070379D01*
X111947281Y-102105833D01*
X111971950Y-102130501D01*
X112001755Y-102190111D01*
X112001755Y-102238135D01*
X111971950Y-102297743D01*
X111947281Y-102322413D01*
X111887672Y-102352219D01*
X111689410Y-102352219D01*
X111561950Y-102309732D01*
X111542834Y-102305385D01*
X111503914Y-102308151D01*
X111469015Y-102325601D01*
X111443450Y-102355077D01*
X111431112Y-102392093D01*
X111433878Y-102431013D01*
X111451328Y-102465912D01*
X111480804Y-102491477D01*
X111498704Y-102499468D01*
X111641561Y-102547087D01*
X111651233Y-102549286D01*
X111653675Y-102550298D01*
X111657212Y-102550646D01*
X111660676Y-102551434D01*
X111663310Y-102551246D01*
X111673184Y-102552219D01*
X111911279Y-102552219D01*
X111930788Y-102550298D01*
X111934108Y-102548922D01*
X111937692Y-102548668D01*
X111956000Y-102541662D01*
X112051238Y-102494043D01*
X112059633Y-102488758D01*
X112062075Y-102487747D01*
X112064822Y-102485491D01*
X112067828Y-102483600D01*
X112069558Y-102481605D01*
X112077228Y-102475310D01*
X112124847Y-102427690D01*
X112131139Y-102420023D01*
X112133136Y-102418292D01*
X112135029Y-102415284D01*
X112137284Y-102412537D01*
X112138295Y-102410095D01*
X112143579Y-102401701D01*
X112191198Y-102306464D01*
X112198204Y-102288155D01*
X112198458Y-102284571D01*
X112199834Y-102281251D01*
X112201755Y-102261742D01*
X112201755Y-102166504D01*
X112199834Y-102146995D01*
X112198458Y-102143674D01*
X112198204Y-102140091D01*
X112191198Y-102121782D01*
X112143579Y-102026545D01*
X112138293Y-102018148D01*
X112137283Y-102015708D01*
X112135029Y-102012962D01*
X112133136Y-102009954D01*
X112131138Y-102008221D01*
X112124846Y-102000555D01*
X112077228Y-101952936D01*
X112069557Y-101946641D01*
X112067828Y-101944647D01*
X112064820Y-101942753D01*
X112062074Y-101940500D01*
X112059634Y-101939489D01*
X112051238Y-101934204D01*
X111956000Y-101886585D01*
X111954573Y-101886039D01*
X111953993Y-101885609D01*
X111945816Y-101882687D01*
X111937692Y-101879579D01*
X111936969Y-101879527D01*
X111935532Y-101879014D01*
X111755707Y-101834057D01*
X111684800Y-101798604D01*
X111660132Y-101773935D01*
X111630327Y-101714325D01*
X111630327Y-101666302D01*
X111660132Y-101606692D01*
X111684800Y-101582023D01*
X111744410Y-101552219D01*
X111942671Y-101552219D01*
X112070132Y-101594706D01*
X112089247Y-101599053D01*
X112128167Y-101596287D01*
X112163066Y-101578837D01*
X112188631Y-101549361D01*
X112200970Y-101512345D01*
X112198203Y-101473425D01*
X112187600Y-101452219D01*
X112430327Y-101452219D01*
X112430327Y-102452219D01*
X112432248Y-102471728D01*
X112447180Y-102507776D01*
X112474770Y-102535366D01*
X112510818Y-102550298D01*
X112549836Y-102550298D01*
X112585884Y-102535366D01*
X112613474Y-102507776D01*
X112628406Y-102471728D01*
X112630327Y-102452219D01*
X112630327Y-101452219D01*
X112628406Y-101432710D01*
X112613474Y-101396662D01*
X112585884Y-101369072D01*
X112549836Y-101354140D01*
X112510818Y-101354140D01*
X112474770Y-101369072D01*
X112447180Y-101396662D01*
X112432248Y-101432710D01*
X112430327Y-101452219D01*
X112187600Y-101452219D01*
X112180754Y-101438526D01*
X112151278Y-101412961D01*
X112133377Y-101404970D01*
X111990521Y-101357351D01*
X111980849Y-101355151D01*
X111978407Y-101354140D01*
X111974868Y-101353791D01*
X111971405Y-101353004D01*
X111968771Y-101353191D01*
X111958898Y-101352219D01*
X111720803Y-101352219D01*
X111701294Y-101354140D01*
X111697973Y-101355515D01*
X111694390Y-101355770D01*
X111676081Y-101362776D01*
X111580844Y-101410395D01*
X111572447Y-101415680D01*
X111570007Y-101416691D01*
X111567261Y-101418944D01*
X111564253Y-101420838D01*
X111562520Y-101422835D01*
X111554854Y-101429128D01*
X111507235Y-101476746D01*
X111500940Y-101484416D01*
X111498946Y-101486146D01*
X111497052Y-101489153D01*
X111494799Y-101491900D01*
X111493788Y-101494339D01*
X111488503Y-101502736D01*
X111440884Y-101597974D01*
X111433878Y-101616282D01*
X111433623Y-101619865D01*
X111432248Y-101623186D01*
X111430327Y-101642695D01*
X111319216Y-101642695D01*
X111319216Y-101241108D01*
X112741438Y-101241108D01*
X112741438Y-102663330D01*
G37*
G36*
X112788908Y-104663330D02*
G01*
X109795406Y-104663330D01*
X109795406Y-103642695D01*
X109906517Y-103642695D01*
X109906517Y-103737933D01*
X109908438Y-103757442D01*
X109909813Y-103760762D01*
X109910068Y-103764346D01*
X109917074Y-103782654D01*
X109964693Y-103877892D01*
X109969978Y-103886288D01*
X109970989Y-103888728D01*
X109973242Y-103891474D01*
X109975136Y-103894482D01*
X109977130Y-103896211D01*
X109983425Y-103903882D01*
X110031044Y-103951500D01*
X110038710Y-103957792D01*
X110040443Y-103959790D01*
X110043451Y-103961683D01*
X110046197Y-103963937D01*
X110048637Y-103964947D01*
X110057034Y-103970233D01*
X110152271Y-104017852D01*
X110153699Y-104018398D01*
X110154279Y-104018828D01*
X110162455Y-104021749D01*
X110170580Y-104024858D01*
X110171300Y-104024909D01*
X110172739Y-104025423D01*
X110352564Y-104070379D01*
X110423471Y-104105833D01*
X110448140Y-104130501D01*
X110477945Y-104190111D01*
X110477945Y-104238135D01*
X110448140Y-104297743D01*
X110423471Y-104322413D01*
X110363862Y-104352219D01*
X110165600Y-104352219D01*
X110038140Y-104309732D01*
X110019024Y-104305385D01*
X109980104Y-104308151D01*
X109945205Y-104325601D01*
X109919640Y-104355077D01*
X109907302Y-104392093D01*
X109910068Y-104431013D01*
X109927518Y-104465912D01*
X109956994Y-104491477D01*
X109974894Y-104499468D01*
X110117751Y-104547087D01*
X110127423Y-104549286D01*
X110129865Y-104550298D01*
X110133402Y-104550646D01*
X110136866Y-104551434D01*
X110139500Y-104551246D01*
X110149374Y-104552219D01*
X110387469Y-104552219D01*
X110406978Y-104550298D01*
X110410298Y-104548922D01*
X110413882Y-104548668D01*
X110432190Y-104541662D01*
X110527428Y-104494043D01*
X110535823Y-104488758D01*
X110538265Y-104487747D01*
X110541012Y-104485491D01*
X110544018Y-104483600D01*
X110545748Y-104481605D01*
X110553418Y-104475310D01*
X110601037Y-104427690D01*
X110607329Y-104420023D01*
X110609326Y-104418292D01*
X110611219Y-104415284D01*
X110613474Y-104412537D01*
X110614485Y-104410095D01*
X110619769Y-104401701D01*
X110667388Y-104306464D01*
X110674394Y-104288155D01*
X110674648Y-104284571D01*
X110676024Y-104281251D01*
X110677945Y-104261742D01*
X110677945Y-104166504D01*
X110676024Y-104146995D01*
X110674648Y-104143674D01*
X110674394Y-104140091D01*
X110667388Y-104121782D01*
X110619769Y-104026545D01*
X110614483Y-104018148D01*
X110613473Y-104015708D01*
X110611219Y-104012962D01*
X110609326Y-104009954D01*
X110607328Y-104008221D01*
X110601036Y-104000555D01*
X110553418Y-103952936D01*
X110545747Y-103946641D01*
X110544018Y-103944647D01*
X110541010Y-103942753D01*
X110538264Y-103940500D01*
X110535824Y-103939489D01*
X110527428Y-103934204D01*
X110432190Y-103886585D01*
X110430763Y-103886039D01*
X110430183Y-103885609D01*
X110422006Y-103882687D01*
X110417047Y-103880790D01*
X110858898Y-103880790D01*
X110858898Y-104023647D01*
X110859233Y-104027049D01*
X110859016Y-104028508D01*
X110860095Y-104035805D01*
X110860819Y-104043156D01*
X110861383Y-104044519D01*
X110861884Y-104047901D01*
X110909503Y-104238376D01*
X110910016Y-104239813D01*
X110910068Y-104240536D01*
X110913176Y-104248660D01*
X110916098Y-104256837D01*
X110916528Y-104257417D01*
X110917074Y-104258844D01*
X110964693Y-104354082D01*
X110969975Y-104362474D01*
X110970988Y-104364918D01*
X110973244Y-104367667D01*
X110975136Y-104370672D01*
X110977130Y-104372401D01*
X110983425Y-104380071D01*
X111078663Y-104475311D01*
X111093816Y-104487747D01*
X111097135Y-104489122D01*
X111099851Y-104491477D01*
X111117751Y-104499468D01*
X111260608Y-104547087D01*
X111270280Y-104549286D01*
X111272722Y-104550298D01*
X111276259Y-104550646D01*
X111279723Y-104551434D01*
X111282357Y-104551246D01*
X111292231Y-104552219D01*
X111387469Y-104552219D01*
X111397342Y-104551246D01*
X111399976Y-104551434D01*
X111403439Y-104550646D01*
X111406978Y-104550298D01*
X111409420Y-104549286D01*
X111419092Y-104547087D01*
X111561948Y-104499468D01*
X111579849Y-104491477D01*
X111582564Y-104489122D01*
X111585884Y-104487747D01*
X111601037Y-104475310D01*
X111648656Y-104427690D01*
X111661093Y-104412537D01*
X111676024Y-104376488D01*
X111676023Y-104337470D01*
X111661092Y-104301422D01*
X111633501Y-104273832D01*
X111597453Y-104258901D01*
X111558435Y-104258902D01*
X111522387Y-104273833D01*
X111507233Y-104286270D01*
X111476306Y-104317197D01*
X111371242Y-104352219D01*
X111308457Y-104352219D01*
X111203392Y-104317197D01*
X111136322Y-104250127D01*
X111100868Y-104179218D01*
X111058898Y-104011337D01*
X111058898Y-103893100D01*
X111100868Y-103725218D01*
X111136321Y-103654312D01*
X111203393Y-103587240D01*
X111308457Y-103552219D01*
X111371242Y-103552219D01*
X111476307Y-103587240D01*
X111507234Y-103618167D01*
X111522387Y-103630604D01*
X111558436Y-103645535D01*
X111597454Y-103645535D01*
X111633502Y-103630604D01*
X111661092Y-103603014D01*
X111676023Y-103566966D01*
X111676023Y-103527948D01*
X111661092Y-103491899D01*
X111648655Y-103476746D01*
X111624129Y-103452219D01*
X111906517Y-103452219D01*
X111906517Y-104452219D01*
X111908438Y-104471728D01*
X111923370Y-104507776D01*
X111950960Y-104535366D01*
X111987008Y-104550298D01*
X112026026Y-104550298D01*
X112062074Y-104535366D01*
X112089664Y-104507776D01*
X112104596Y-104471728D01*
X112106517Y-104452219D01*
X112106517Y-104065069D01*
X112138554Y-104033031D01*
X112497945Y-104512219D01*
X112511187Y-104526674D01*
X112544762Y-104546553D01*
X112583388Y-104552071D01*
X112621185Y-104542388D01*
X112652400Y-104518977D01*
X112672279Y-104485403D01*
X112677797Y-104446777D01*
X112668114Y-104408979D01*
X112657945Y-104392219D01*
X112281411Y-103890174D01*
X112648656Y-103522930D01*
X112661092Y-103507777D01*
X112676023Y-103471728D01*
X112676023Y-103432710D01*
X112661092Y-103396662D01*
X112633502Y-103369072D01*
X112597454Y-103354141D01*
X112558436Y-103354141D01*
X112522387Y-103369072D01*
X112507234Y-103381508D01*
X112106517Y-103782225D01*
X112106517Y-103452219D01*
X112104596Y-103432710D01*
X112089664Y-103396662D01*
X112062074Y-103369072D01*
X112026026Y-103354140D01*
X111987008Y-103354140D01*
X111950960Y-103369072D01*
X111923370Y-103396662D01*
X111908438Y-103432710D01*
X111906517Y-103452219D01*
X111624129Y-103452219D01*
X111601037Y-103429127D01*
X111585883Y-103416691D01*
X111582564Y-103415316D01*
X111579849Y-103412961D01*
X111561948Y-103404970D01*
X111419092Y-103357351D01*
X111409420Y-103355151D01*
X111406978Y-103354140D01*
X111403439Y-103353791D01*
X111399976Y-103353004D01*
X111397342Y-103353191D01*
X111387469Y-103352219D01*
X111292231Y-103352219D01*
X111282357Y-103353191D01*
X111279723Y-103353004D01*
X111276259Y-103353791D01*
X111272722Y-103354140D01*
X111270280Y-103355151D01*
X111260608Y-103357351D01*
X111117751Y-103404970D01*
X111099851Y-103412961D01*
X111097135Y-103415316D01*
X111093817Y-103416691D01*
X111078663Y-103429127D01*
X110983425Y-103524365D01*
X110977130Y-103532035D01*
X110975136Y-103533765D01*
X110973242Y-103536772D01*
X110970989Y-103539519D01*
X110969978Y-103541958D01*
X110964693Y-103550355D01*
X110917074Y-103645593D01*
X110916528Y-103647019D01*
X110916098Y-103647600D01*
X110913176Y-103655776D01*
X110910068Y-103663901D01*
X110910016Y-103664623D01*
X110909503Y-103666061D01*
X110861884Y-103856536D01*
X110861383Y-103859917D01*
X110860819Y-103861281D01*
X110860095Y-103868631D01*
X110859016Y-103875929D01*
X110859233Y-103877387D01*
X110858898Y-103880790D01*
X110417047Y-103880790D01*
X110413882Y-103879579D01*
X110413159Y-103879527D01*
X110411722Y-103879014D01*
X110231897Y-103834057D01*
X110160990Y-103798604D01*
X110136322Y-103773935D01*
X110106517Y-103714325D01*
X110106517Y-103666302D01*
X110136322Y-103606692D01*
X110160990Y-103582023D01*
X110220600Y-103552219D01*
X110418861Y-103552219D01*
X110546322Y-103594706D01*
X110565437Y-103599053D01*
X110604357Y-103596287D01*
X110639256Y-103578837D01*
X110664821Y-103549361D01*
X110677160Y-103512345D01*
X110674393Y-103473425D01*
X110656944Y-103438526D01*
X110627468Y-103412961D01*
X110609567Y-103404970D01*
X110466711Y-103357351D01*
X110457039Y-103355151D01*
X110454597Y-103354140D01*
X110451058Y-103353791D01*
X110447595Y-103353004D01*
X110444961Y-103353191D01*
X110435088Y-103352219D01*
X110196993Y-103352219D01*
X110177484Y-103354140D01*
X110174163Y-103355515D01*
X110170580Y-103355770D01*
X110152271Y-103362776D01*
X110057034Y-103410395D01*
X110048637Y-103415680D01*
X110046197Y-103416691D01*
X110043451Y-103418944D01*
X110040443Y-103420838D01*
X110038710Y-103422835D01*
X110031044Y-103429128D01*
X109983425Y-103476746D01*
X109977130Y-103484416D01*
X109975136Y-103486146D01*
X109973242Y-103489153D01*
X109970989Y-103491900D01*
X109969978Y-103494339D01*
X109964693Y-103502736D01*
X109917074Y-103597974D01*
X109910068Y-103616282D01*
X109909813Y-103619865D01*
X109908438Y-103623186D01*
X109906517Y-103642695D01*
X109795406Y-103642695D01*
X109795406Y-103241108D01*
X112788908Y-103241108D01*
X112788908Y-104663330D01*
G37*
G36*
X112333449Y-105587240D02*
G01*
X112400522Y-105654313D01*
X112435974Y-105725218D01*
X112477945Y-105893099D01*
X112477945Y-106011337D01*
X112435974Y-106179218D01*
X112400521Y-106250124D01*
X112333450Y-106317197D01*
X112228385Y-106352219D01*
X112106517Y-106352219D01*
X112106517Y-105552219D01*
X112228385Y-105552219D01*
X112333449Y-105587240D01*
G37*
G36*
X112789056Y-106663330D02*
G01*
X109700168Y-106663330D01*
X109700168Y-105880790D01*
X109811279Y-105880790D01*
X109811279Y-106023647D01*
X109811614Y-106027049D01*
X109811397Y-106028508D01*
X109812476Y-106035805D01*
X109813200Y-106043156D01*
X109813764Y-106044519D01*
X109814265Y-106047901D01*
X109861884Y-106238376D01*
X109862397Y-106239813D01*
X109862449Y-106240536D01*
X109865557Y-106248660D01*
X109868479Y-106256837D01*
X109868909Y-106257417D01*
X109869455Y-106258844D01*
X109917074Y-106354082D01*
X109922356Y-106362474D01*
X109923369Y-106364918D01*
X109925625Y-106367667D01*
X109927517Y-106370672D01*
X109929511Y-106372401D01*
X109935806Y-106380071D01*
X110031044Y-106475311D01*
X110046197Y-106487747D01*
X110049516Y-106489122D01*
X110052232Y-106491477D01*
X110070132Y-106499468D01*
X110212989Y-106547087D01*
X110222661Y-106549286D01*
X110225103Y-106550298D01*
X110228640Y-106550646D01*
X110232104Y-106551434D01*
X110234738Y-106551246D01*
X110244612Y-106552219D01*
X110339850Y-106552219D01*
X110349723Y-106551246D01*
X110352357Y-106551434D01*
X110355820Y-106550646D01*
X110359359Y-106550298D01*
X110361801Y-106549286D01*
X110371473Y-106547087D01*
X110514329Y-106499468D01*
X110532230Y-106491477D01*
X110534945Y-106489122D01*
X110538265Y-106487747D01*
X110553418Y-106475310D01*
X110601037Y-106427690D01*
X110613474Y-106412537D01*
X110628405Y-106376488D01*
X110630326Y-106356980D01*
X110630326Y-106023647D01*
X110628405Y-106004138D01*
X110613473Y-105968090D01*
X110585883Y-105940500D01*
X110549835Y-105925568D01*
X110530326Y-105923647D01*
X110339850Y-105923647D01*
X110320341Y-105925568D01*
X110284293Y-105940500D01*
X110256703Y-105968090D01*
X110241771Y-106004138D01*
X110241771Y-106043156D01*
X110256703Y-106079204D01*
X110284293Y-106106794D01*
X110320341Y-106121726D01*
X110339850Y-106123647D01*
X110430326Y-106123647D01*
X110430326Y-106315559D01*
X110428687Y-106317197D01*
X110323623Y-106352219D01*
X110260838Y-106352219D01*
X110155773Y-106317197D01*
X110088703Y-106250127D01*
X110053249Y-106179218D01*
X110011279Y-106011337D01*
X110011279Y-105893100D01*
X110053249Y-105725218D01*
X110088702Y-105654312D01*
X110155774Y-105587240D01*
X110260838Y-105552219D01*
X110363862Y-105552219D01*
X110437985Y-105589281D01*
X110456294Y-105596287D01*
X110495214Y-105599053D01*
X110532230Y-105586714D01*
X110561707Y-105561149D01*
X110579156Y-105526251D01*
X110581921Y-105487331D01*
X110570218Y-105452219D01*
X110858898Y-105452219D01*
X110858898Y-106452219D01*
X110860819Y-106471728D01*
X110875751Y-106507776D01*
X110903341Y-106535366D01*
X110939389Y-106550298D01*
X110978407Y-106550298D01*
X111014455Y-106535366D01*
X111042045Y-106507776D01*
X111056977Y-106471728D01*
X111058898Y-106452219D01*
X111058898Y-105828775D01*
X111443502Y-106501833D01*
X111446420Y-106505943D01*
X111447179Y-106507776D01*
X111449045Y-106509642D01*
X111454849Y-106517818D01*
X111465365Y-106525962D01*
X111474769Y-106535366D01*
X111480656Y-106537804D01*
X111485698Y-106541709D01*
X111498530Y-106545208D01*
X111510817Y-106550298D01*
X111517193Y-106550298D01*
X111523342Y-106551975D01*
X111536535Y-106550298D01*
X111549835Y-106550298D01*
X111555723Y-106547858D01*
X111562048Y-106547055D01*
X111573597Y-106540454D01*
X111585883Y-106535366D01*
X111590390Y-106530858D01*
X111595925Y-106527696D01*
X111604069Y-106517179D01*
X111613473Y-106507776D01*
X111615911Y-106501888D01*
X111619816Y-106496847D01*
X111623315Y-106484014D01*
X111628405Y-106471728D01*
X111629387Y-106461750D01*
X111630082Y-106459204D01*
X111629831Y-106457236D01*
X111630326Y-106452219D01*
X111630326Y-105452219D01*
X111906517Y-105452219D01*
X111906517Y-106452219D01*
X111908438Y-106471728D01*
X111923370Y-106507776D01*
X111950960Y-106535366D01*
X111987008Y-106550298D01*
X112006517Y-106552219D01*
X112244612Y-106552219D01*
X112254485Y-106551246D01*
X112257119Y-106551434D01*
X112260582Y-106550646D01*
X112264121Y-106550298D01*
X112266563Y-106549286D01*
X112276235Y-106547087D01*
X112419091Y-106499468D01*
X112436992Y-106491477D01*
X112439707Y-106489122D01*
X112443027Y-106487747D01*
X112458180Y-106475310D01*
X112553418Y-106380071D01*
X112559710Y-106372404D01*
X112561707Y-106370673D01*
X112563600Y-106367665D01*
X112565855Y-106364918D01*
X112566866Y-106362476D01*
X112572150Y-106354082D01*
X112619769Y-106258845D01*
X112620315Y-106257416D01*
X112620745Y-106256837D01*
X112623666Y-106248660D01*
X112626775Y-106240536D01*
X112626826Y-106239815D01*
X112627340Y-106238377D01*
X112674959Y-106047901D01*
X112675459Y-106044519D01*
X112676024Y-106043156D01*
X112676747Y-106035805D01*
X112677827Y-106028508D01*
X112677609Y-106027049D01*
X112677945Y-106023647D01*
X112677945Y-105880790D01*
X112677609Y-105877387D01*
X112677827Y-105875929D01*
X112676747Y-105868631D01*
X112676024Y-105861281D01*
X112675459Y-105859917D01*
X112674959Y-105856536D01*
X112627340Y-105666060D01*
X112626826Y-105664621D01*
X112626775Y-105663901D01*
X112623666Y-105655776D01*
X112620745Y-105647600D01*
X112620315Y-105647020D01*
X112619769Y-105645592D01*
X112572150Y-105550355D01*
X112566863Y-105541956D01*
X112565854Y-105539519D01*
X112563602Y-105536775D01*
X112561707Y-105533764D01*
X112559709Y-105532031D01*
X112553418Y-105524365D01*
X112458180Y-105429127D01*
X112443026Y-105416691D01*
X112439707Y-105415316D01*
X112436992Y-105412961D01*
X112419091Y-105404970D01*
X112276235Y-105357351D01*
X112266563Y-105355151D01*
X112264121Y-105354140D01*
X112260582Y-105353791D01*
X112257119Y-105353004D01*
X112254485Y-105353191D01*
X112244612Y-105352219D01*
X112006517Y-105352219D01*
X111987008Y-105354140D01*
X111950960Y-105369072D01*
X111923370Y-105396662D01*
X111908438Y-105432710D01*
X111906517Y-105452219D01*
X111630326Y-105452219D01*
X111628405Y-105432710D01*
X111613473Y-105396662D01*
X111585883Y-105369072D01*
X111549835Y-105354140D01*
X111510817Y-105354140D01*
X111474769Y-105369072D01*
X111447179Y-105396662D01*
X111432247Y-105432710D01*
X111430326Y-105452219D01*
X111430326Y-106075662D01*
X111045722Y-105402605D01*
X111042803Y-105398494D01*
X111042045Y-105396662D01*
X111040178Y-105394795D01*
X111034375Y-105386620D01*
X111023860Y-105378477D01*
X111014455Y-105369072D01*
X111008564Y-105366632D01*
X111003526Y-105362730D01*
X110990697Y-105359231D01*
X110978407Y-105354140D01*
X110972032Y-105354140D01*
X110965883Y-105352463D01*
X110952690Y-105354140D01*
X110939389Y-105354140D01*
X110933500Y-105356579D01*
X110927176Y-105357383D01*
X110915626Y-105363983D01*
X110903341Y-105369072D01*
X110898833Y-105373579D01*
X110893299Y-105376742D01*
X110885156Y-105387256D01*
X110875751Y-105396662D01*
X110873311Y-105402552D01*
X110869409Y-105407591D01*
X110865910Y-105420419D01*
X110860819Y-105432710D01*
X110859836Y-105442687D01*
X110859142Y-105445234D01*
X110859392Y-105447201D01*
X110858898Y-105452219D01*
X110570218Y-105452219D01*
X110569583Y-105450315D01*
X110544018Y-105420838D01*
X110527428Y-105410395D01*
X110432190Y-105362776D01*
X110413882Y-105355770D01*
X110410298Y-105355515D01*
X110406978Y-105354140D01*
X110387469Y-105352219D01*
X110244612Y-105352219D01*
X110234738Y-105353191D01*
X110232104Y-105353004D01*
X110228640Y-105353791D01*
X110225103Y-105354140D01*
X110222661Y-105355151D01*
X110212989Y-105357351D01*
X110070132Y-105404970D01*
X110052232Y-105412961D01*
X110049516Y-105415316D01*
X110046198Y-105416691D01*
X110031044Y-105429127D01*
X109935806Y-105524365D01*
X109929511Y-105532035D01*
X109927517Y-105533765D01*
X109925623Y-105536772D01*
X109923370Y-105539519D01*
X109922359Y-105541958D01*
X109917074Y-105550355D01*
X109869455Y-105645593D01*
X109868909Y-105647019D01*
X109868479Y-105647600D01*
X109865557Y-105655776D01*
X109862449Y-105663901D01*
X109862397Y-105664623D01*
X109861884Y-105666061D01*
X109814265Y-105856536D01*
X109813764Y-105859917D01*
X109813200Y-105861281D01*
X109812476Y-105868631D01*
X109811397Y-105875929D01*
X109811614Y-105877387D01*
X109811279Y-105880790D01*
X109700168Y-105880790D01*
X109700168Y-105241108D01*
X112789056Y-105241108D01*
X112789056Y-106663330D01*
G37*
D11*
X106766666Y-96854819D02*
X106766666Y-97569104D01*
X106766666Y-97569104D02*
X106719047Y-97711961D01*
X106719047Y-97711961D02*
X106623809Y-97807200D01*
X106623809Y-97807200D02*
X106480952Y-97854819D01*
X106480952Y-97854819D02*
X106385714Y-97854819D01*
X107242857Y-97854819D02*
X107242857Y-96854819D01*
X107242857Y-96854819D02*
X107623809Y-96854819D01*
X107623809Y-96854819D02*
X107719047Y-96902438D01*
X107719047Y-96902438D02*
X107766666Y-96950057D01*
X107766666Y-96950057D02*
X107814285Y-97045295D01*
X107814285Y-97045295D02*
X107814285Y-97188152D01*
X107814285Y-97188152D02*
X107766666Y-97283390D01*
X107766666Y-97283390D02*
X107719047Y-97331009D01*
X107719047Y-97331009D02*
X107623809Y-97378628D01*
X107623809Y-97378628D02*
X107242857Y-97378628D01*
X108195238Y-96950057D02*
X108242857Y-96902438D01*
X108242857Y-96902438D02*
X108338095Y-96854819D01*
X108338095Y-96854819D02*
X108576190Y-96854819D01*
X108576190Y-96854819D02*
X108671428Y-96902438D01*
X108671428Y-96902438D02*
X108719047Y-96950057D01*
X108719047Y-96950057D02*
X108766666Y-97045295D01*
X108766666Y-97045295D02*
X108766666Y-97140533D01*
X108766666Y-97140533D02*
X108719047Y-97283390D01*
X108719047Y-97283390D02*
X108147619Y-97854819D01*
X108147619Y-97854819D02*
X108766666Y-97854819D01*
X103933333Y-97954819D02*
X103600000Y-97478628D01*
X103361905Y-97954819D02*
X103361905Y-96954819D01*
X103361905Y-96954819D02*
X103742857Y-96954819D01*
X103742857Y-96954819D02*
X103838095Y-97002438D01*
X103838095Y-97002438D02*
X103885714Y-97050057D01*
X103885714Y-97050057D02*
X103933333Y-97145295D01*
X103933333Y-97145295D02*
X103933333Y-97288152D01*
X103933333Y-97288152D02*
X103885714Y-97383390D01*
X103885714Y-97383390D02*
X103838095Y-97431009D01*
X103838095Y-97431009D02*
X103742857Y-97478628D01*
X103742857Y-97478628D02*
X103361905Y-97478628D01*
X104838095Y-96954819D02*
X104361905Y-96954819D01*
X104361905Y-96954819D02*
X104314286Y-97431009D01*
X104314286Y-97431009D02*
X104361905Y-97383390D01*
X104361905Y-97383390D02*
X104457143Y-97335771D01*
X104457143Y-97335771D02*
X104695238Y-97335771D01*
X104695238Y-97335771D02*
X104790476Y-97383390D01*
X104790476Y-97383390D02*
X104838095Y-97431009D01*
X104838095Y-97431009D02*
X104885714Y-97526247D01*
X104885714Y-97526247D02*
X104885714Y-97764342D01*
X104885714Y-97764342D02*
X104838095Y-97859580D01*
X104838095Y-97859580D02*
X104790476Y-97907200D01*
X104790476Y-97907200D02*
X104695238Y-97954819D01*
X104695238Y-97954819D02*
X104457143Y-97954819D01*
X104457143Y-97954819D02*
X104361905Y-97907200D01*
X104361905Y-97907200D02*
X104314286Y-97859580D01*
X97738095Y-103954819D02*
X97738095Y-104764342D01*
X97738095Y-104764342D02*
X97785714Y-104859580D01*
X97785714Y-104859580D02*
X97833333Y-104907200D01*
X97833333Y-104907200D02*
X97928571Y-104954819D01*
X97928571Y-104954819D02*
X98119047Y-104954819D01*
X98119047Y-104954819D02*
X98214285Y-104907200D01*
X98214285Y-104907200D02*
X98261904Y-104859580D01*
X98261904Y-104859580D02*
X98309523Y-104764342D01*
X98309523Y-104764342D02*
X98309523Y-103954819D01*
X99214285Y-103954819D02*
X99023809Y-103954819D01*
X99023809Y-103954819D02*
X98928571Y-104002438D01*
X98928571Y-104002438D02*
X98880952Y-104050057D01*
X98880952Y-104050057D02*
X98785714Y-104192914D01*
X98785714Y-104192914D02*
X98738095Y-104383390D01*
X98738095Y-104383390D02*
X98738095Y-104764342D01*
X98738095Y-104764342D02*
X98785714Y-104859580D01*
X98785714Y-104859580D02*
X98833333Y-104907200D01*
X98833333Y-104907200D02*
X98928571Y-104954819D01*
X98928571Y-104954819D02*
X99119047Y-104954819D01*
X99119047Y-104954819D02*
X99214285Y-104907200D01*
X99214285Y-104907200D02*
X99261904Y-104859580D01*
X99261904Y-104859580D02*
X99309523Y-104764342D01*
X99309523Y-104764342D02*
X99309523Y-104526247D01*
X99309523Y-104526247D02*
X99261904Y-104431009D01*
X99261904Y-104431009D02*
X99214285Y-104383390D01*
X99214285Y-104383390D02*
X99119047Y-104335771D01*
X99119047Y-104335771D02*
X98928571Y-104335771D01*
X98928571Y-104335771D02*
X98833333Y-104383390D01*
X98833333Y-104383390D02*
X98785714Y-104431009D01*
X98785714Y-104431009D02*
X98738095Y-104526247D01*
X106766666Y-100404819D02*
X106766666Y-101119104D01*
X106766666Y-101119104D02*
X106719047Y-101261961D01*
X106719047Y-101261961D02*
X106623809Y-101357200D01*
X106623809Y-101357200D02*
X106480952Y-101404819D01*
X106480952Y-101404819D02*
X106385714Y-101404819D01*
X107242857Y-101404819D02*
X107242857Y-100404819D01*
X107242857Y-100404819D02*
X107623809Y-100404819D01*
X107623809Y-100404819D02*
X107719047Y-100452438D01*
X107719047Y-100452438D02*
X107766666Y-100500057D01*
X107766666Y-100500057D02*
X107814285Y-100595295D01*
X107814285Y-100595295D02*
X107814285Y-100738152D01*
X107814285Y-100738152D02*
X107766666Y-100833390D01*
X107766666Y-100833390D02*
X107719047Y-100881009D01*
X107719047Y-100881009D02*
X107623809Y-100928628D01*
X107623809Y-100928628D02*
X107242857Y-100928628D01*
X108147619Y-100404819D02*
X108766666Y-100404819D01*
X108766666Y-100404819D02*
X108433333Y-100785771D01*
X108433333Y-100785771D02*
X108576190Y-100785771D01*
X108576190Y-100785771D02*
X108671428Y-100833390D01*
X108671428Y-100833390D02*
X108719047Y-100881009D01*
X108719047Y-100881009D02*
X108766666Y-100976247D01*
X108766666Y-100976247D02*
X108766666Y-101214342D01*
X108766666Y-101214342D02*
X108719047Y-101309580D01*
X108719047Y-101309580D02*
X108671428Y-101357200D01*
X108671428Y-101357200D02*
X108576190Y-101404819D01*
X108576190Y-101404819D02*
X108290476Y-101404819D01*
X108290476Y-101404819D02*
X108195238Y-101357200D01*
X108195238Y-101357200D02*
X108147619Y-101309580D01*
X103933333Y-104954819D02*
X103600000Y-104478628D01*
X103361905Y-104954819D02*
X103361905Y-103954819D01*
X103361905Y-103954819D02*
X103742857Y-103954819D01*
X103742857Y-103954819D02*
X103838095Y-104002438D01*
X103838095Y-104002438D02*
X103885714Y-104050057D01*
X103885714Y-104050057D02*
X103933333Y-104145295D01*
X103933333Y-104145295D02*
X103933333Y-104288152D01*
X103933333Y-104288152D02*
X103885714Y-104383390D01*
X103885714Y-104383390D02*
X103838095Y-104431009D01*
X103838095Y-104431009D02*
X103742857Y-104478628D01*
X103742857Y-104478628D02*
X103361905Y-104478628D01*
X104409524Y-104954819D02*
X104600000Y-104954819D01*
X104600000Y-104954819D02*
X104695238Y-104907200D01*
X104695238Y-104907200D02*
X104742857Y-104859580D01*
X104742857Y-104859580D02*
X104838095Y-104716723D01*
X104838095Y-104716723D02*
X104885714Y-104526247D01*
X104885714Y-104526247D02*
X104885714Y-104145295D01*
X104885714Y-104145295D02*
X104838095Y-104050057D01*
X104838095Y-104050057D02*
X104790476Y-104002438D01*
X104790476Y-104002438D02*
X104695238Y-103954819D01*
X104695238Y-103954819D02*
X104504762Y-103954819D01*
X104504762Y-103954819D02*
X104409524Y-104002438D01*
X104409524Y-104002438D02*
X104361905Y-104050057D01*
X104361905Y-104050057D02*
X104314286Y-104145295D01*
X104314286Y-104145295D02*
X104314286Y-104383390D01*
X104314286Y-104383390D02*
X104361905Y-104478628D01*
X104361905Y-104478628D02*
X104409524Y-104526247D01*
X104409524Y-104526247D02*
X104504762Y-104573866D01*
X104504762Y-104573866D02*
X104695238Y-104573866D01*
X104695238Y-104573866D02*
X104790476Y-104526247D01*
X104790476Y-104526247D02*
X104838095Y-104478628D01*
X104838095Y-104478628D02*
X104885714Y-104383390D01*
X92633333Y-97954819D02*
X92300000Y-97478628D01*
X92061905Y-97954819D02*
X92061905Y-96954819D01*
X92061905Y-96954819D02*
X92442857Y-96954819D01*
X92442857Y-96954819D02*
X92538095Y-97002438D01*
X92538095Y-97002438D02*
X92585714Y-97050057D01*
X92585714Y-97050057D02*
X92633333Y-97145295D01*
X92633333Y-97145295D02*
X92633333Y-97288152D01*
X92633333Y-97288152D02*
X92585714Y-97383390D01*
X92585714Y-97383390D02*
X92538095Y-97431009D01*
X92538095Y-97431009D02*
X92442857Y-97478628D01*
X92442857Y-97478628D02*
X92061905Y-97478628D01*
X93490476Y-97288152D02*
X93490476Y-97954819D01*
X93252381Y-96907200D02*
X93014286Y-97621485D01*
X93014286Y-97621485D02*
X93633333Y-97621485D01*
X97738095Y-96954819D02*
X97738095Y-97764342D01*
X97738095Y-97764342D02*
X97785714Y-97859580D01*
X97785714Y-97859580D02*
X97833333Y-97907200D01*
X97833333Y-97907200D02*
X97928571Y-97954819D01*
X97928571Y-97954819D02*
X98119047Y-97954819D01*
X98119047Y-97954819D02*
X98214285Y-97907200D01*
X98214285Y-97907200D02*
X98261904Y-97859580D01*
X98261904Y-97859580D02*
X98309523Y-97764342D01*
X98309523Y-97764342D02*
X98309523Y-96954819D01*
X99214285Y-97288152D02*
X99214285Y-97954819D01*
X98976190Y-96907200D02*
X98738095Y-97621485D01*
X98738095Y-97621485D02*
X99357142Y-97621485D01*
X103933333Y-94454819D02*
X103600000Y-93978628D01*
X103361905Y-94454819D02*
X103361905Y-93454819D01*
X103361905Y-93454819D02*
X103742857Y-93454819D01*
X103742857Y-93454819D02*
X103838095Y-93502438D01*
X103838095Y-93502438D02*
X103885714Y-93550057D01*
X103885714Y-93550057D02*
X103933333Y-93645295D01*
X103933333Y-93645295D02*
X103933333Y-93788152D01*
X103933333Y-93788152D02*
X103885714Y-93883390D01*
X103885714Y-93883390D02*
X103838095Y-93931009D01*
X103838095Y-93931009D02*
X103742857Y-93978628D01*
X103742857Y-93978628D02*
X103361905Y-93978628D01*
X104314286Y-93550057D02*
X104361905Y-93502438D01*
X104361905Y-93502438D02*
X104457143Y-93454819D01*
X104457143Y-93454819D02*
X104695238Y-93454819D01*
X104695238Y-93454819D02*
X104790476Y-93502438D01*
X104790476Y-93502438D02*
X104838095Y-93550057D01*
X104838095Y-93550057D02*
X104885714Y-93645295D01*
X104885714Y-93645295D02*
X104885714Y-93740533D01*
X104885714Y-93740533D02*
X104838095Y-93883390D01*
X104838095Y-93883390D02*
X104266667Y-94454819D01*
X104266667Y-94454819D02*
X104885714Y-94454819D01*
X92633333Y-94454819D02*
X92300000Y-93978628D01*
X92061905Y-94454819D02*
X92061905Y-93454819D01*
X92061905Y-93454819D02*
X92442857Y-93454819D01*
X92442857Y-93454819D02*
X92538095Y-93502438D01*
X92538095Y-93502438D02*
X92585714Y-93550057D01*
X92585714Y-93550057D02*
X92633333Y-93645295D01*
X92633333Y-93645295D02*
X92633333Y-93788152D01*
X92633333Y-93788152D02*
X92585714Y-93883390D01*
X92585714Y-93883390D02*
X92538095Y-93931009D01*
X92538095Y-93931009D02*
X92442857Y-93978628D01*
X92442857Y-93978628D02*
X92061905Y-93978628D01*
X92966667Y-93454819D02*
X93585714Y-93454819D01*
X93585714Y-93454819D02*
X93252381Y-93835771D01*
X93252381Y-93835771D02*
X93395238Y-93835771D01*
X93395238Y-93835771D02*
X93490476Y-93883390D01*
X93490476Y-93883390D02*
X93538095Y-93931009D01*
X93538095Y-93931009D02*
X93585714Y-94026247D01*
X93585714Y-94026247D02*
X93585714Y-94264342D01*
X93585714Y-94264342D02*
X93538095Y-94359580D01*
X93538095Y-94359580D02*
X93490476Y-94407200D01*
X93490476Y-94407200D02*
X93395238Y-94454819D01*
X93395238Y-94454819D02*
X93109524Y-94454819D01*
X93109524Y-94454819D02*
X93014286Y-94407200D01*
X93014286Y-94407200D02*
X92966667Y-94359580D01*
X92633333Y-104954819D02*
X92300000Y-104478628D01*
X92061905Y-104954819D02*
X92061905Y-103954819D01*
X92061905Y-103954819D02*
X92442857Y-103954819D01*
X92442857Y-103954819D02*
X92538095Y-104002438D01*
X92538095Y-104002438D02*
X92585714Y-104050057D01*
X92585714Y-104050057D02*
X92633333Y-104145295D01*
X92633333Y-104145295D02*
X92633333Y-104288152D01*
X92633333Y-104288152D02*
X92585714Y-104383390D01*
X92585714Y-104383390D02*
X92538095Y-104431009D01*
X92538095Y-104431009D02*
X92442857Y-104478628D01*
X92442857Y-104478628D02*
X92061905Y-104478628D01*
X93204762Y-104383390D02*
X93109524Y-104335771D01*
X93109524Y-104335771D02*
X93061905Y-104288152D01*
X93061905Y-104288152D02*
X93014286Y-104192914D01*
X93014286Y-104192914D02*
X93014286Y-104145295D01*
X93014286Y-104145295D02*
X93061905Y-104050057D01*
X93061905Y-104050057D02*
X93109524Y-104002438D01*
X93109524Y-104002438D02*
X93204762Y-103954819D01*
X93204762Y-103954819D02*
X93395238Y-103954819D01*
X93395238Y-103954819D02*
X93490476Y-104002438D01*
X93490476Y-104002438D02*
X93538095Y-104050057D01*
X93538095Y-104050057D02*
X93585714Y-104145295D01*
X93585714Y-104145295D02*
X93585714Y-104192914D01*
X93585714Y-104192914D02*
X93538095Y-104288152D01*
X93538095Y-104288152D02*
X93490476Y-104335771D01*
X93490476Y-104335771D02*
X93395238Y-104383390D01*
X93395238Y-104383390D02*
X93204762Y-104383390D01*
X93204762Y-104383390D02*
X93109524Y-104431009D01*
X93109524Y-104431009D02*
X93061905Y-104478628D01*
X93061905Y-104478628D02*
X93014286Y-104573866D01*
X93014286Y-104573866D02*
X93014286Y-104764342D01*
X93014286Y-104764342D02*
X93061905Y-104859580D01*
X93061905Y-104859580D02*
X93109524Y-104907200D01*
X93109524Y-104907200D02*
X93204762Y-104954819D01*
X93204762Y-104954819D02*
X93395238Y-104954819D01*
X93395238Y-104954819D02*
X93490476Y-104907200D01*
X93490476Y-104907200D02*
X93538095Y-104859580D01*
X93538095Y-104859580D02*
X93585714Y-104764342D01*
X93585714Y-104764342D02*
X93585714Y-104573866D01*
X93585714Y-104573866D02*
X93538095Y-104478628D01*
X93538095Y-104478628D02*
X93490476Y-104431009D01*
X93490476Y-104431009D02*
X93395238Y-104383390D01*
X103933333Y-101454819D02*
X103600000Y-100978628D01*
X103361905Y-101454819D02*
X103361905Y-100454819D01*
X103361905Y-100454819D02*
X103742857Y-100454819D01*
X103742857Y-100454819D02*
X103838095Y-100502438D01*
X103838095Y-100502438D02*
X103885714Y-100550057D01*
X103885714Y-100550057D02*
X103933333Y-100645295D01*
X103933333Y-100645295D02*
X103933333Y-100788152D01*
X103933333Y-100788152D02*
X103885714Y-100883390D01*
X103885714Y-100883390D02*
X103838095Y-100931009D01*
X103838095Y-100931009D02*
X103742857Y-100978628D01*
X103742857Y-100978628D02*
X103361905Y-100978628D01*
X104266667Y-100454819D02*
X104933333Y-100454819D01*
X104933333Y-100454819D02*
X104504762Y-101454819D01*
X92633333Y-101454819D02*
X92300000Y-100978628D01*
X92061905Y-101454819D02*
X92061905Y-100454819D01*
X92061905Y-100454819D02*
X92442857Y-100454819D01*
X92442857Y-100454819D02*
X92538095Y-100502438D01*
X92538095Y-100502438D02*
X92585714Y-100550057D01*
X92585714Y-100550057D02*
X92633333Y-100645295D01*
X92633333Y-100645295D02*
X92633333Y-100788152D01*
X92633333Y-100788152D02*
X92585714Y-100883390D01*
X92585714Y-100883390D02*
X92538095Y-100931009D01*
X92538095Y-100931009D02*
X92442857Y-100978628D01*
X92442857Y-100978628D02*
X92061905Y-100978628D01*
X93490476Y-100454819D02*
X93300000Y-100454819D01*
X93300000Y-100454819D02*
X93204762Y-100502438D01*
X93204762Y-100502438D02*
X93157143Y-100550057D01*
X93157143Y-100550057D02*
X93061905Y-100692914D01*
X93061905Y-100692914D02*
X93014286Y-100883390D01*
X93014286Y-100883390D02*
X93014286Y-101264342D01*
X93014286Y-101264342D02*
X93061905Y-101359580D01*
X93061905Y-101359580D02*
X93109524Y-101407200D01*
X93109524Y-101407200D02*
X93204762Y-101454819D01*
X93204762Y-101454819D02*
X93395238Y-101454819D01*
X93395238Y-101454819D02*
X93490476Y-101407200D01*
X93490476Y-101407200D02*
X93538095Y-101359580D01*
X93538095Y-101359580D02*
X93585714Y-101264342D01*
X93585714Y-101264342D02*
X93585714Y-101026247D01*
X93585714Y-101026247D02*
X93538095Y-100931009D01*
X93538095Y-100931009D02*
X93490476Y-100883390D01*
X93490476Y-100883390D02*
X93395238Y-100835771D01*
X93395238Y-100835771D02*
X93204762Y-100835771D01*
X93204762Y-100835771D02*
X93109524Y-100883390D01*
X93109524Y-100883390D02*
X93061905Y-100931009D01*
X93061905Y-100931009D02*
X93014286Y-101026247D01*
X97738095Y-93454819D02*
X97738095Y-94264342D01*
X97738095Y-94264342D02*
X97785714Y-94359580D01*
X97785714Y-94359580D02*
X97833333Y-94407200D01*
X97833333Y-94407200D02*
X97928571Y-94454819D01*
X97928571Y-94454819D02*
X98119047Y-94454819D01*
X98119047Y-94454819D02*
X98214285Y-94407200D01*
X98214285Y-94407200D02*
X98261904Y-94359580D01*
X98261904Y-94359580D02*
X98309523Y-94264342D01*
X98309523Y-94264342D02*
X98309523Y-93454819D01*
X98738095Y-93550057D02*
X98785714Y-93502438D01*
X98785714Y-93502438D02*
X98880952Y-93454819D01*
X98880952Y-93454819D02*
X99119047Y-93454819D01*
X99119047Y-93454819D02*
X99214285Y-93502438D01*
X99214285Y-93502438D02*
X99261904Y-93550057D01*
X99261904Y-93550057D02*
X99309523Y-93645295D01*
X99309523Y-93645295D02*
X99309523Y-93740533D01*
X99309523Y-93740533D02*
X99261904Y-93883390D01*
X99261904Y-93883390D02*
X98690476Y-94454819D01*
X98690476Y-94454819D02*
X99309523Y-94454819D01*
X106766666Y-93304819D02*
X106766666Y-94019104D01*
X106766666Y-94019104D02*
X106719047Y-94161961D01*
X106719047Y-94161961D02*
X106623809Y-94257200D01*
X106623809Y-94257200D02*
X106480952Y-94304819D01*
X106480952Y-94304819D02*
X106385714Y-94304819D01*
X107242857Y-94304819D02*
X107242857Y-93304819D01*
X107242857Y-93304819D02*
X107623809Y-93304819D01*
X107623809Y-93304819D02*
X107719047Y-93352438D01*
X107719047Y-93352438D02*
X107766666Y-93400057D01*
X107766666Y-93400057D02*
X107814285Y-93495295D01*
X107814285Y-93495295D02*
X107814285Y-93638152D01*
X107814285Y-93638152D02*
X107766666Y-93733390D01*
X107766666Y-93733390D02*
X107719047Y-93781009D01*
X107719047Y-93781009D02*
X107623809Y-93828628D01*
X107623809Y-93828628D02*
X107242857Y-93828628D01*
X108766666Y-94304819D02*
X108195238Y-94304819D01*
X108480952Y-94304819D02*
X108480952Y-93304819D01*
X108480952Y-93304819D02*
X108385714Y-93447676D01*
X108385714Y-93447676D02*
X108290476Y-93542914D01*
X108290476Y-93542914D02*
X108195238Y-93590533D01*
X97738095Y-100454819D02*
X97738095Y-101264342D01*
X97738095Y-101264342D02*
X97785714Y-101359580D01*
X97785714Y-101359580D02*
X97833333Y-101407200D01*
X97833333Y-101407200D02*
X97928571Y-101454819D01*
X97928571Y-101454819D02*
X98119047Y-101454819D01*
X98119047Y-101454819D02*
X98214285Y-101407200D01*
X98214285Y-101407200D02*
X98261904Y-101359580D01*
X98261904Y-101359580D02*
X98309523Y-101264342D01*
X98309523Y-101264342D02*
X98309523Y-100454819D01*
X99261904Y-100454819D02*
X98785714Y-100454819D01*
X98785714Y-100454819D02*
X98738095Y-100931009D01*
X98738095Y-100931009D02*
X98785714Y-100883390D01*
X98785714Y-100883390D02*
X98880952Y-100835771D01*
X98880952Y-100835771D02*
X99119047Y-100835771D01*
X99119047Y-100835771D02*
X99214285Y-100883390D01*
X99214285Y-100883390D02*
X99261904Y-100931009D01*
X99261904Y-100931009D02*
X99309523Y-101026247D01*
X99309523Y-101026247D02*
X99309523Y-101264342D01*
X99309523Y-101264342D02*
X99261904Y-101359580D01*
X99261904Y-101359580D02*
X99214285Y-101407200D01*
X99214285Y-101407200D02*
X99119047Y-101454819D01*
X99119047Y-101454819D02*
X98880952Y-101454819D01*
X98880952Y-101454819D02*
X98785714Y-101407200D01*
X98785714Y-101407200D02*
X98738095Y-101359580D01*
X99237955Y-86754819D02*
X99237955Y-87564342D01*
X99237955Y-87564342D02*
X99285574Y-87659580D01*
X99285574Y-87659580D02*
X99333193Y-87707200D01*
X99333193Y-87707200D02*
X99428431Y-87754819D01*
X99428431Y-87754819D02*
X99618907Y-87754819D01*
X99618907Y-87754819D02*
X99714145Y-87707200D01*
X99714145Y-87707200D02*
X99761764Y-87659580D01*
X99761764Y-87659580D02*
X99809383Y-87564342D01*
X99809383Y-87564342D02*
X99809383Y-86754819D01*
X100190336Y-86754819D02*
X100809383Y-86754819D01*
X100809383Y-86754819D02*
X100476050Y-87135771D01*
X100476050Y-87135771D02*
X100618907Y-87135771D01*
X100618907Y-87135771D02*
X100714145Y-87183390D01*
X100714145Y-87183390D02*
X100761764Y-87231009D01*
X100761764Y-87231009D02*
X100809383Y-87326247D01*
X100809383Y-87326247D02*
X100809383Y-87564342D01*
X100809383Y-87564342D02*
X100761764Y-87659580D01*
X100761764Y-87659580D02*
X100714145Y-87707200D01*
X100714145Y-87707200D02*
X100618907Y-87754819D01*
X100618907Y-87754819D02*
X100333193Y-87754819D01*
X100333193Y-87754819D02*
X100237955Y-87707200D01*
X100237955Y-87707200D02*
X100190336Y-87659580D01*
X109454819Y-100761904D02*
X110264342Y-100761904D01*
X110264342Y-100761904D02*
X110359580Y-100714285D01*
X110359580Y-100714285D02*
X110407200Y-100666666D01*
X110407200Y-100666666D02*
X110454819Y-100571428D01*
X110454819Y-100571428D02*
X110454819Y-100380952D01*
X110454819Y-100380952D02*
X110407200Y-100285714D01*
X110407200Y-100285714D02*
X110359580Y-100238095D01*
X110359580Y-100238095D02*
X110264342Y-100190476D01*
X110264342Y-100190476D02*
X109454819Y-100190476D01*
X109454819Y-99809523D02*
X109454819Y-99142857D01*
X109454819Y-99142857D02*
X110454819Y-99571428D01*
X106766666Y-103954819D02*
X106766666Y-104669104D01*
X106766666Y-104669104D02*
X106719047Y-104811961D01*
X106719047Y-104811961D02*
X106623809Y-104907200D01*
X106623809Y-104907200D02*
X106480952Y-104954819D01*
X106480952Y-104954819D02*
X106385714Y-104954819D01*
X107242857Y-104954819D02*
X107242857Y-103954819D01*
X107242857Y-103954819D02*
X107623809Y-103954819D01*
X107623809Y-103954819D02*
X107719047Y-104002438D01*
X107719047Y-104002438D02*
X107766666Y-104050057D01*
X107766666Y-104050057D02*
X107814285Y-104145295D01*
X107814285Y-104145295D02*
X107814285Y-104288152D01*
X107814285Y-104288152D02*
X107766666Y-104383390D01*
X107766666Y-104383390D02*
X107719047Y-104431009D01*
X107719047Y-104431009D02*
X107623809Y-104478628D01*
X107623809Y-104478628D02*
X107242857Y-104478628D01*
X108671428Y-104288152D02*
X108671428Y-104954819D01*
X108433333Y-103907200D02*
X108195238Y-104621485D01*
X108195238Y-104621485D02*
X108814285Y-104621485D01*
%TO.C,JP2*%
D12*
X106200000Y-99500000D02*
X106200000Y-98900000D01*
X106900000Y-98200000D02*
X108300000Y-98200000D01*
X108300000Y-100200000D02*
X106900000Y-100200000D01*
X109000000Y-98900000D02*
X109000000Y-99500000D01*
X106200000Y-98900000D02*
G75*
G02*
X106900000Y-98200000I699999J1D01*
G01*
X106900000Y-100200000D02*
G75*
G02*
X106200000Y-99500000I-1J699999D01*
G01*
X108300000Y-98200000D02*
G75*
G02*
X109000000Y-98900000I0J-700000D01*
G01*
X109000000Y-99500000D02*
G75*
G02*
X108300000Y-100200000I-700000J0D01*
G01*
%TO.C,R5*%
D13*
X102714910Y-98839395D02*
X103673787Y-98839395D01*
X102714910Y-100160605D02*
X102714910Y-98839395D01*
X103673787Y-100160605D02*
X102714910Y-100160605D01*
X104526213Y-100160605D02*
X105485090Y-100160605D01*
X105485090Y-98839395D02*
X104526213Y-98839395D01*
X105485090Y-100160605D02*
X105485090Y-98839395D01*
%TO.C,U6*%
X100273787Y-104973787D02*
X101726213Y-104973787D01*
X100273787Y-106955398D02*
X100273787Y-106044602D01*
X100273787Y-108026213D02*
X101726213Y-108026213D01*
X101726213Y-104973787D02*
X101726213Y-106005410D01*
X101726213Y-108026213D02*
X101726213Y-106994590D01*
%TO.C,JP3*%
D12*
X106200000Y-103050000D02*
X106200000Y-102450000D01*
X106900000Y-101750000D02*
X108300000Y-101750000D01*
X108300000Y-103750000D02*
X106900000Y-103750000D01*
X109000000Y-102450000D02*
X109000000Y-103050000D01*
X106200000Y-102450000D02*
G75*
G02*
X106900000Y-101750000I699999J1D01*
G01*
X106900000Y-103750000D02*
G75*
G02*
X106200000Y-103050000I-1J699999D01*
G01*
X108300000Y-101750000D02*
G75*
G02*
X109000000Y-102450000I0J-700000D01*
G01*
X109000000Y-103050000D02*
G75*
G02*
X108300000Y-103750000I-700000J0D01*
G01*
%TO.C,R9*%
D13*
X102714910Y-105839395D02*
X103673787Y-105839395D01*
X102714910Y-107160605D02*
X102714910Y-105839395D01*
X103673787Y-107160605D02*
X102714910Y-107160605D01*
X104526213Y-107160605D02*
X105485090Y-107160605D01*
X105485090Y-105839395D02*
X104526213Y-105839395D01*
X105485090Y-107160605D02*
X105485090Y-105839395D01*
%TO.C,R4*%
X94239395Y-98114910D02*
X94239395Y-99073787D01*
X94239395Y-100885090D02*
X94239395Y-99926213D01*
X95560605Y-98114910D02*
X94239395Y-98114910D01*
X95560605Y-99073787D02*
X95560605Y-98114910D01*
X95560605Y-99926213D02*
X95560605Y-100885090D01*
X95560605Y-100885090D02*
X94239395Y-100885090D01*
%TO.C,U4*%
X100273787Y-97973787D02*
X101726213Y-97973787D01*
X100273787Y-99955398D02*
X100273787Y-99044602D01*
X100273787Y-101026213D02*
X101726213Y-101026213D01*
X101726213Y-97973787D02*
X101726213Y-99005410D01*
X101726213Y-101026213D02*
X101726213Y-99994590D01*
%TO.C,R2*%
X102714910Y-95339395D02*
X103673787Y-95339395D01*
X102714910Y-96660605D02*
X102714910Y-95339395D01*
X103673787Y-96660605D02*
X102714910Y-96660605D01*
X104526213Y-96660605D02*
X105485090Y-96660605D01*
X105485090Y-95339395D02*
X104526213Y-95339395D01*
X105485090Y-96660605D02*
X105485090Y-95339395D01*
%TO.C,R3*%
X94239395Y-94614910D02*
X94239395Y-95573787D01*
X94239395Y-97385090D02*
X94239395Y-96426213D01*
X95560605Y-94614910D02*
X94239395Y-94614910D01*
X95560605Y-95573787D02*
X95560605Y-94614910D01*
X95560605Y-96426213D02*
X95560605Y-97385090D01*
X95560605Y-97385090D02*
X94239395Y-97385090D01*
%TO.C,R8*%
X94239395Y-105114910D02*
X94239395Y-106073787D01*
X94239395Y-107885090D02*
X94239395Y-106926213D01*
X95560605Y-105114910D02*
X94239395Y-105114910D01*
X95560605Y-106073787D02*
X95560605Y-105114910D01*
X95560605Y-106926213D02*
X95560605Y-107885090D01*
X95560605Y-107885090D02*
X94239395Y-107885090D01*
%TO.C,R7*%
X102714910Y-102339395D02*
X103673787Y-102339395D01*
X102714910Y-103660605D02*
X102714910Y-102339395D01*
X103673787Y-103660605D02*
X102714910Y-103660605D01*
X104526213Y-103660605D02*
X105485090Y-103660605D01*
X105485090Y-102339395D02*
X104526213Y-102339395D01*
X105485090Y-103660605D02*
X105485090Y-102339395D01*
%TO.C,R6*%
X94239395Y-101614910D02*
X94239395Y-102573787D01*
X94239395Y-104385090D02*
X94239395Y-103426213D01*
X95560605Y-101614910D02*
X94239395Y-101614910D01*
X95560605Y-102573787D02*
X95560605Y-101614910D01*
X95560605Y-103426213D02*
X95560605Y-104385090D01*
X95560605Y-104385090D02*
X94239395Y-104385090D01*
%TO.C,U2*%
X100273787Y-94473787D02*
X101726213Y-94473787D01*
X100273787Y-96455398D02*
X100273787Y-95544602D01*
X100273787Y-97526213D02*
X101726213Y-97526213D01*
X101726213Y-94473787D02*
X101726213Y-95505410D01*
X101726213Y-97526213D02*
X101726213Y-96494590D01*
%TO.C,JP1*%
D12*
X106200000Y-95950000D02*
X106200000Y-95350000D01*
X106900000Y-94650000D02*
X108300000Y-94650000D01*
X108300000Y-96650000D02*
X106900000Y-96650000D01*
X109000000Y-95350000D02*
X109000000Y-95950000D01*
X106200000Y-95350000D02*
G75*
G02*
X106900000Y-94650000I699999J1D01*
G01*
X106900000Y-96650000D02*
G75*
G02*
X106200000Y-95950000I-1J699999D01*
G01*
X108300000Y-94650000D02*
G75*
G02*
X109000000Y-95350000I0J-700000D01*
G01*
X109000000Y-95950000D02*
G75*
G02*
X108300000Y-96650000I-700000J0D01*
G01*
%TO.C,U5*%
D13*
X100273787Y-101473787D02*
X101726213Y-101473787D01*
X100273787Y-103455398D02*
X100273787Y-102544602D01*
X100273787Y-104526213D02*
X101726213Y-104526213D01*
X101726213Y-101473787D02*
X101726213Y-102505410D01*
X101726213Y-104526213D02*
X101726213Y-103494590D01*
%TO.C,U3*%
D14*
X97000000Y-75027000D02*
X97000000Y-86727000D01*
X97000000Y-75027000D02*
X103000000Y-75027000D01*
X97000000Y-75526924D02*
X99000000Y-75526924D01*
X97000000Y-75926924D02*
X98900000Y-75926924D01*
X97600965Y-75926949D02*
X97600965Y-82127102D01*
X98000000Y-83227000D02*
X98000000Y-86727000D01*
X98000000Y-83227000D02*
X98018872Y-83227000D01*
X98000000Y-86727000D02*
X97000000Y-86727000D01*
X98300025Y-75926924D02*
X98300025Y-82126924D01*
X98999721Y-75926898D02*
X99000737Y-75926924D01*
X99000000Y-75028626D02*
X99000000Y-75927025D01*
X99000000Y-75927025D02*
X101000000Y-75927025D01*
X99000737Y-75926924D02*
X99000737Y-82127076D01*
X99000737Y-82127076D02*
X96999213Y-82127076D01*
X99600000Y-77427000D02*
X100500000Y-77427000D01*
X99600000Y-78927000D02*
X99600000Y-77527000D01*
X99700000Y-77927000D02*
X100400000Y-77927000D01*
X99981153Y-83227000D02*
X100018872Y-83227000D01*
X100500000Y-77427000D02*
X100500000Y-78927000D01*
X100500000Y-78927000D02*
X99600000Y-78927000D01*
X100998984Y-75927025D02*
X100998984Y-82127178D01*
X100998984Y-82127178D02*
X103000508Y-82127178D01*
X101000000Y-75028626D02*
X99000000Y-75028626D01*
X101000000Y-75527000D02*
X103000000Y-75527000D01*
X101000000Y-75927000D02*
X100998984Y-75927025D01*
X101000000Y-75927000D02*
X102900000Y-75927000D01*
X101000000Y-75927025D02*
X101000000Y-75028626D01*
X101600965Y-75927025D02*
X101600965Y-82127178D01*
X101981153Y-83227000D02*
X102099975Y-83227000D01*
X102099975Y-86727000D02*
X102099975Y-83227000D01*
X102300025Y-75927000D02*
X102300025Y-82127000D01*
X103000000Y-75027000D02*
X103000000Y-86727000D01*
X103000000Y-86727000D02*
X102099975Y-86727000D01*
%TO.C,U7*%
X113200000Y-91999949D02*
X113200000Y-92999949D01*
X113200000Y-92999949D02*
X117200000Y-92999949D01*
X113200000Y-107000000D02*
X117200000Y-107000000D01*
X113200000Y-108000000D02*
X113200000Y-107000000D01*
X117200000Y-92999949D02*
X117200000Y-93214961D01*
X117200000Y-94785014D02*
X117200000Y-95214961D01*
X117200000Y-96785039D02*
X117200000Y-97214961D01*
X117200000Y-98785039D02*
X117200000Y-99214961D01*
X117200000Y-100785039D02*
X117200000Y-101214961D01*
X117200000Y-102785039D02*
X117200000Y-103214986D01*
X117200000Y-104785065D02*
X117200000Y-105214986D01*
X117200000Y-106785065D02*
X117200000Y-107000000D01*
X118185192Y-108000000D02*
X113200000Y-108000000D01*
X118185243Y-91999949D02*
X113200000Y-91999949D01*
X124955017Y-91999949D02*
X119414935Y-91999949D01*
X124955017Y-91999949D02*
X124955017Y-108000000D01*
X124955017Y-108000000D02*
X119415011Y-108000000D01*
D12*
X118700000Y-106500025D02*
X117700102Y-106000000D01*
X118700000Y-105500000D01*
X118700000Y-106500025D01*
G36*
X118700000Y-106500025D02*
G01*
X117700102Y-106000000D01*
X118700000Y-105500000D01*
X118700000Y-106500025D01*
G37*
%TO.C,JP4*%
X106200000Y-106600000D02*
X106200000Y-106000000D01*
X106900000Y-105300000D02*
X108300000Y-105300000D01*
X108300000Y-107300000D02*
X106900000Y-107300000D01*
X109000000Y-106000000D02*
X109000000Y-106600000D01*
X106200000Y-106000000D02*
G75*
G02*
X106900000Y-105300000I699999J1D01*
G01*
X106900000Y-107300000D02*
G75*
G02*
X106200000Y-106600000I-1J699999D01*
G01*
X108300000Y-105300000D02*
G75*
G02*
X109000000Y-106000000I0J-700000D01*
G01*
X109000000Y-106600000D02*
G75*
G02*
X108300000Y-107300000I-700000J0D01*
G01*
%TO.C,J1*%
X78350000Y-80890000D02*
X78350000Y-119110000D01*
X78350000Y-80890000D02*
X80950000Y-80890000D01*
X78350000Y-119110000D02*
X83550000Y-119110000D01*
X80950000Y-80890000D02*
X80950000Y-83490000D01*
X80950000Y-83490000D02*
X83550000Y-83490000D01*
X82220000Y-80890000D02*
X83550000Y-80890000D01*
X83550000Y-80890000D02*
X83550000Y-82220000D01*
X83550000Y-83490000D02*
X83550000Y-119110000D01*
%TD*%
D15*
X78000000Y-122000000D03*
X82000000Y-122000000D03*
X118000000Y-122000000D03*
X118000000Y-78000000D03*
X122000000Y-122000000D03*
X78000000Y-78000000D03*
X122000000Y-78000000D03*
X82000000Y-78000000D03*
X97500127Y-81126924D03*
X102500127Y-81126924D03*
X101000000Y-83227000D03*
X99000000Y-83227000D03*
X118800178Y-107500127D03*
X118800178Y-92499873D03*
X116700102Y-106000000D03*
X116700102Y-104000000D03*
X116700102Y-102000000D03*
X116700102Y-100000000D03*
X116700102Y-98000000D03*
X116700102Y-96000000D03*
X116700102Y-94000000D03*
X82220000Y-82220000D03*
X79680000Y-82220000D03*
X82220000Y-84760000D03*
X79680000Y-84760000D03*
X82220000Y-87300000D03*
X79680000Y-87300000D03*
X82220000Y-89840000D03*
X79680000Y-89840000D03*
X82220000Y-92380000D03*
X79680000Y-92380000D03*
X82220000Y-94920000D03*
X79680000Y-94920000D03*
X82220000Y-97460000D03*
X79680000Y-97460000D03*
X82220000Y-100000000D03*
X79680000Y-100000000D03*
X82220000Y-102540000D03*
X79680000Y-102540000D03*
X82220000Y-105080000D03*
X79680000Y-105080000D03*
X82220000Y-107620000D03*
X79680000Y-107620000D03*
X82220000Y-110160000D03*
X79680000Y-110160000D03*
X82220000Y-112700000D03*
X79680000Y-112700000D03*
X82220000Y-115240000D03*
X79680000Y-115240000D03*
X82220000Y-117780000D03*
X79680000Y-117780000D03*
M02*
