%TF.GenerationSoftware,KiCad,Pcbnew,10.0.1*%
%TF.CreationDate,2026-09-12T12:04:22+09:00*%
%TF.ProjectId,m5_spi_module,6d355f73-7069-45f6-9d6f-64756c652e6b,rev?*%
%TF.SameCoordinates,Original*%
%TF.FileFunction,Copper,L2,Bot*%
%TF.FilePolarity,Positive*%
%FSLAX46Y46*%
G04 Gerber Fmt 4.6, Leading zero omitted, Abs format (unit mm)*
G04 Created by KiCad (PCBNEW 10.0.1) date 2026-09-12 12:04:22*
%MOMM*%
%LPD*%
G01*
G04 APERTURE LIST*
%TA.AperFunction,ComponentPad*%
%ADD10R,1.500000X1.500000*%
%TD*%
%TA.AperFunction,ComponentPad*%
%ADD11C,1.500000*%
%TD*%
%TA.AperFunction,ComponentPad*%
%ADD12C,1.400000*%
%TD*%
%TA.AperFunction,ComponentPad*%
%ADD13R,1.700000X1.700000*%
%TD*%
%TA.AperFunction,ComponentPad*%
%ADD14C,1.700000*%
%TD*%
%TA.AperFunction,ViaPad*%
%ADD15C,0.600000*%
%TD*%
%TA.AperFunction,Conductor*%
%ADD16C,0.300000*%
%TD*%
%TA.AperFunction,Conductor*%
%ADD17C,0.200000*%
%TD*%
%ADD18C,0.300000*%
%ADD19C,0.350000*%
G04 APERTURE END LIST*
D10*
%TO.P,U3,1,1_1*%
%TO.N,GND*%
X101000000Y-83227000D03*
D11*
%TO.P,U3,2,2_2*%
%TO.N,+5V*%
X99000000Y-83227000D03*
%TD*%
D12*
%TO.P,U7,1,1_1*%
%TO.N,GND*%
X116700102Y-106000000D03*
%TO.P,U7,2,2_2*%
%TO.N,/SCK*%
X116700102Y-104000000D03*
%TO.P,U7,3,3_3*%
%TO.N,/SI*%
X116700102Y-102000000D03*
%TO.P,U7,4,4_4*%
%TO.N,/SO*%
X116700102Y-100000000D03*
%TO.P,U7,5,5_5*%
%TO.N,/CS*%
X116700102Y-98000000D03*
%TO.P,U7,6,6_6*%
%TO.N,+5V*%
X116700102Y-96000000D03*
%TO.P,U7,7,7_7*%
%TO.N,+3V3*%
X116700102Y-94000000D03*
%TD*%
D13*
%TO.P,J1,1,Pin_1_1*%
%TO.N,GND*%
X82220000Y-82220000D03*
D14*
%TO.P,J1,2,Pin_2_2*%
%TO.N,/GPIO35*%
X79680000Y-82220000D03*
%TO.P,J1,3,Pin_3_3*%
%TO.N,GND*%
X82220000Y-84760000D03*
%TO.P,J1,4,Pin_4_4*%
%TO.N,/GPIO36*%
X79680000Y-84760000D03*
%TO.P,J1,5,Pin_5_5*%
%TO.N,GND*%
X82220000Y-87300000D03*
%TO.P,J1,6,Pin_6_6*%
%TO.N,/EN*%
X79680000Y-87300000D03*
%TO.P,J1,7,Pin_7_7*%
%TO.N,/GPIO23*%
X82220000Y-89840000D03*
%TO.P,J1,8,Pin_8_8*%
%TO.N,/GPIO25*%
X79680000Y-89840000D03*
%TO.P,J1,9,Pin_9_9*%
%TO.N,/GPIO19*%
X82220000Y-92380000D03*
%TO.P,J1,10,Pin_10_10*%
%TO.N,/GPIO26*%
X79680000Y-92380000D03*
%TO.P,J1,11,Pin_11_11*%
%TO.N,/GPIO18*%
X82220000Y-94920000D03*
%TO.P,J1,12,Pin_12_12*%
%TO.N,+3V3*%
X79680000Y-94920000D03*
%TO.P,J1,13,Pin_13_13*%
%TO.N,/GPIO3*%
X82220000Y-97460000D03*
%TO.P,J1,14,Pin_14_14*%
%TO.N,/GPIO1*%
X79680000Y-97460000D03*
%TO.P,J1,15,Pin_15_15*%
%TO.N,/GPIO16*%
X82220000Y-100000000D03*
%TO.P,J1,16,Pin_16_16*%
%TO.N,/GPIO17*%
X79680000Y-100000000D03*
%TO.P,J1,17,Pin_17_17*%
%TO.N,/GPIO21*%
X82220000Y-102540000D03*
%TO.P,J1,18,Pin_18_18*%
%TO.N,/GPIO22*%
X79680000Y-102540000D03*
%TO.P,J1,19,Pin_19_19*%
%TO.N,/GPIO2*%
X82220000Y-105080000D03*
%TO.P,J1,20,Pin_20_20*%
%TO.N,/GPIO5*%
X79680000Y-105080000D03*
%TO.P,J1,21,Pin_21_21*%
%TO.N,/GPIO12*%
X82220000Y-107620000D03*
%TO.P,J1,22,Pin_22_22*%
%TO.N,/GPIO13*%
X79680000Y-107620000D03*
%TO.P,J1,23,Pin_23_23*%
%TO.N,/GPIO15*%
X82220000Y-110160000D03*
%TO.P,J1,24,Pin_24_24*%
%TO.N,/GPIO0*%
X79680000Y-110160000D03*
%TO.P,J1,25,Pin_25_25*%
%TO.N,VBUS*%
X82220000Y-112700000D03*
%TO.P,J1,26,Pin_26_26*%
%TO.N,/GPIO34*%
X79680000Y-112700000D03*
%TO.P,J1,27,Pin_27_27*%
%TO.N,VBUS*%
X82220000Y-115240000D03*
%TO.P,J1,28,Pin_28_28*%
%TO.N,+5V*%
X79680000Y-115240000D03*
%TO.P,J1,29,Pin_29_29*%
%TO.N,VBUS*%
X82220000Y-117780000D03*
%TO.P,J1,30,Pin_30_30*%
%TO.N,+BATT*%
X79680000Y-117780000D03*
%TD*%
D15*
%TO.N,+5V*%
X104900000Y-98350000D03*
X104900000Y-95000000D03*
X104900000Y-105100000D03*
X104900000Y-101600000D03*
%TO.N,+3V3*%
X97500000Y-98700000D03*
X97500000Y-102200000D03*
X97500000Y-105600000D03*
X97500000Y-95300000D03*
%TO.N,GND*%
X100450000Y-115450000D03*
X120450000Y-80450000D03*
X80450000Y-120450000D03*
X115450000Y-120450000D03*
X90450000Y-100450000D03*
X110450000Y-110450000D03*
X110450000Y-105450000D03*
X110450000Y-85450000D03*
X120450000Y-120450000D03*
X120450000Y-100450000D03*
X95450000Y-90450000D03*
X100450000Y-120450000D03*
X110450000Y-120450000D03*
X110450000Y-80450000D03*
X90450000Y-110450000D03*
X85450000Y-80450000D03*
X90450000Y-90450000D03*
X90450000Y-115450000D03*
X120450000Y-95450000D03*
X105450000Y-115450000D03*
X115450000Y-80450000D03*
X115450000Y-105450000D03*
X95450000Y-85450000D03*
X120450000Y-115450000D03*
X105450000Y-120450000D03*
X115450000Y-110450000D03*
X85450000Y-85450000D03*
X120450000Y-105450000D03*
X90450000Y-120450000D03*
X115450000Y-85450000D03*
X100450000Y-85450000D03*
X95450000Y-80450000D03*
X115450000Y-90450000D03*
X95450000Y-115450000D03*
X95450000Y-110450000D03*
X110450000Y-90450000D03*
X85450000Y-120450000D03*
X120450000Y-85450000D03*
X110450000Y-115450000D03*
X85450000Y-95450000D03*
X100450000Y-110450000D03*
X105450000Y-90450000D03*
X85450000Y-110450000D03*
X95450000Y-120450000D03*
X100450000Y-80450000D03*
X90450000Y-85450000D03*
X90450000Y-105450000D03*
X115450000Y-115450000D03*
X85450000Y-100450000D03*
X105450000Y-80450000D03*
X85450000Y-115450000D03*
X105450000Y-85450000D03*
X120450000Y-90450000D03*
X120450000Y-110450000D03*
X85450000Y-105450000D03*
X90450000Y-80450000D03*
%TD*%
%TO.N,+5V*%
D16*
X104900000Y-96000000D02*
X104900000Y-98350000D01*
X104900000Y-101600000D02*
X105000000Y-101500000D01*
X80920000Y-114000000D02*
X79680000Y-115240000D01*
X105000000Y-101500000D02*
X105000000Y-98450000D01*
D17*
X116700102Y-96000000D02*
X104900000Y-96000000D01*
D16*
X104900000Y-105100000D02*
X104900000Y-112050000D01*
X102950000Y-114000000D02*
X80920000Y-114000000D01*
X104900000Y-95000000D02*
X104900000Y-96000000D01*
X99000000Y-89100000D02*
X99000000Y-83227000D01*
X105000000Y-98450000D02*
X104900000Y-98350000D01*
X104900102Y-94999898D02*
X104900000Y-95000000D01*
X104900000Y-105100000D02*
X104900000Y-101600000D01*
X104900000Y-95000000D02*
X99000000Y-89100000D01*
X104900000Y-112050000D02*
X102950000Y-114000000D01*
%TO.N,+3V3*%
X97500000Y-95300000D02*
X97500000Y-98700000D01*
X97500000Y-98700000D02*
X97500000Y-102200000D01*
X95920000Y-93720000D02*
X97500000Y-95300000D01*
X80880000Y-93720000D02*
X95920000Y-93720000D01*
X79680000Y-94920000D02*
X80880000Y-93720000D01*
X97500000Y-105600000D02*
X97500000Y-102200000D01*
%TD*%
%TA.AperFunction,Conductor*%
%TO.N,GND*%
G36*
X83309869Y-75519407D02*
G01*
X83321682Y-75529496D01*
X83470504Y-75678318D01*
X83498281Y-75732835D01*
X83499500Y-75748322D01*
X83499500Y-77434108D01*
X83499500Y-77565892D01*
X83518878Y-77638211D01*
X83533609Y-77693190D01*
X83599496Y-77807309D01*
X83599498Y-77807311D01*
X83599500Y-77807314D01*
X83692686Y-77900500D01*
X83692688Y-77900501D01*
X83692690Y-77900503D01*
X83806810Y-77966390D01*
X83806808Y-77966390D01*
X83806812Y-77966391D01*
X83806814Y-77966392D01*
X83934108Y-78000500D01*
X83934110Y-78000500D01*
X88065890Y-78000500D01*
X88065892Y-78000500D01*
X88193186Y-77966392D01*
X88193188Y-77966390D01*
X88193190Y-77966390D01*
X88307309Y-77900503D01*
X88307309Y-77900502D01*
X88307314Y-77900500D01*
X88314105Y-77893709D01*
X116649500Y-77893709D01*
X116649500Y-78106290D01*
X116682752Y-78316238D01*
X116748443Y-78518412D01*
X116844948Y-78707815D01*
X116844950Y-78707819D01*
X116969891Y-78879786D01*
X116969893Y-78879788D01*
X116969896Y-78879792D01*
X117120208Y-79030104D01*
X117120211Y-79030106D01*
X117120213Y-79030108D01*
X117292180Y-79155049D01*
X117292184Y-79155051D01*
X117481588Y-79251557D01*
X117683757Y-79317246D01*
X117683758Y-79317246D01*
X117683761Y-79317247D01*
X117893710Y-79350500D01*
X117893713Y-79350500D01*
X118106290Y-79350500D01*
X118316238Y-79317247D01*
X118316239Y-79317246D01*
X118316243Y-79317246D01*
X118518412Y-79251557D01*
X118707816Y-79155051D01*
X118879792Y-79030104D01*
X119030104Y-78879792D01*
X119155051Y-78707816D01*
X119251557Y-78518412D01*
X119317246Y-78316243D01*
X119348124Y-78121289D01*
X119350500Y-78106290D01*
X119350500Y-77893712D01*
X119350064Y-77890960D01*
X119350064Y-77890958D01*
X119348124Y-77878710D01*
X120149500Y-77878710D01*
X120149500Y-78121289D01*
X120181161Y-78361781D01*
X120181161Y-78361786D01*
X120243944Y-78596092D01*
X120243948Y-78596105D01*
X120336772Y-78820204D01*
X120336774Y-78820208D01*
X120336776Y-78820212D01*
X120458064Y-79030289D01*
X120458066Y-79030292D01*
X120605729Y-79222731D01*
X120605731Y-79222733D01*
X120605735Y-79222738D01*
X120777262Y-79394265D01*
X120777266Y-79394268D01*
X120777268Y-79394270D01*
X120969707Y-79541933D01*
X120969711Y-79541936D01*
X121179788Y-79663224D01*
X121403900Y-79756054D01*
X121638211Y-79818838D01*
X121878712Y-79850500D01*
X121878713Y-79850500D01*
X122121287Y-79850500D01*
X122121288Y-79850500D01*
X122361789Y-79818838D01*
X122596100Y-79756054D01*
X122820212Y-79663224D01*
X123030289Y-79541936D01*
X123222738Y-79394265D01*
X123394265Y-79222738D01*
X123541936Y-79030289D01*
X123663224Y-78820212D01*
X123756054Y-78596100D01*
X123818838Y-78361789D01*
X123850500Y-78121288D01*
X123850500Y-77878712D01*
X123818838Y-77638211D01*
X123756054Y-77403900D01*
X123663224Y-77179788D01*
X123541936Y-76969711D01*
X123394265Y-76777262D01*
X123222738Y-76605735D01*
X123222733Y-76605731D01*
X123222731Y-76605729D01*
X123030292Y-76458066D01*
X123030289Y-76458064D01*
X122820212Y-76336776D01*
X122820208Y-76336774D01*
X122820204Y-76336772D01*
X122596105Y-76243948D01*
X122596104Y-76243947D01*
X122596100Y-76243946D01*
X122361789Y-76181162D01*
X122361786Y-76181161D01*
X122361784Y-76181161D01*
X122121289Y-76149500D01*
X122121288Y-76149500D01*
X121878712Y-76149500D01*
X121878710Y-76149500D01*
X121638218Y-76181161D01*
X121638213Y-76181161D01*
X121403907Y-76243944D01*
X121403894Y-76243948D01*
X121179795Y-76336772D01*
X120969707Y-76458066D01*
X120777268Y-76605729D01*
X120605729Y-76777268D01*
X120458066Y-76969707D01*
X120336772Y-77179795D01*
X120243948Y-77403894D01*
X120243944Y-77403907D01*
X120181161Y-77638213D01*
X120181161Y-77638218D01*
X120149500Y-77878710D01*
X119348124Y-77878710D01*
X119317247Y-77683761D01*
X119302449Y-77638218D01*
X119251557Y-77481588D01*
X119155051Y-77292184D01*
X119155049Y-77292180D01*
X119030108Y-77120213D01*
X119030106Y-77120211D01*
X119030104Y-77120208D01*
X118879792Y-76969896D01*
X118879788Y-76969893D01*
X118879786Y-76969891D01*
X118707819Y-76844950D01*
X118707815Y-76844948D01*
X118518412Y-76748443D01*
X118316238Y-76682752D01*
X118106290Y-76649500D01*
X118106287Y-76649500D01*
X117893713Y-76649500D01*
X117893710Y-76649500D01*
X117683761Y-76682752D01*
X117481587Y-76748443D01*
X117292184Y-76844948D01*
X117292180Y-76844950D01*
X117120213Y-76969891D01*
X116969891Y-77120213D01*
X116844950Y-77292180D01*
X116844948Y-77292184D01*
X116748443Y-77481587D01*
X116682752Y-77683761D01*
X116649500Y-77893709D01*
X88314105Y-77893709D01*
X88400500Y-77807314D01*
X88466392Y-77693186D01*
X88500500Y-77565892D01*
X88500500Y-75748322D01*
X88519407Y-75690131D01*
X88529496Y-75678318D01*
X88678318Y-75529496D01*
X88732835Y-75501719D01*
X88748322Y-75500500D01*
X122751678Y-75500500D01*
X122809869Y-75519407D01*
X122821682Y-75529496D01*
X124470504Y-77178318D01*
X124498281Y-77232835D01*
X124499500Y-77248322D01*
X124499500Y-122751678D01*
X124480593Y-122809869D01*
X124470504Y-122821682D01*
X122821682Y-124470504D01*
X122767165Y-124498281D01*
X122751678Y-124499500D01*
X77248322Y-124499500D01*
X77190131Y-124480593D01*
X77178318Y-124470504D01*
X75529496Y-122821682D01*
X75501719Y-122767165D01*
X75500500Y-122751678D01*
X75500500Y-121878710D01*
X76149500Y-121878710D01*
X76149500Y-122121289D01*
X76181161Y-122361781D01*
X76181161Y-122361786D01*
X76243944Y-122596092D01*
X76243948Y-122596105D01*
X76336772Y-122820204D01*
X76336774Y-122820208D01*
X76336776Y-122820212D01*
X76458064Y-123030289D01*
X76458066Y-123030292D01*
X76605729Y-123222731D01*
X76605731Y-123222733D01*
X76605735Y-123222738D01*
X76777262Y-123394265D01*
X76777266Y-123394268D01*
X76777268Y-123394270D01*
X76969707Y-123541933D01*
X76969711Y-123541936D01*
X77179788Y-123663224D01*
X77403900Y-123756054D01*
X77638211Y-123818838D01*
X77878712Y-123850500D01*
X77878713Y-123850500D01*
X78121287Y-123850500D01*
X78121288Y-123850500D01*
X78361789Y-123818838D01*
X78596100Y-123756054D01*
X78820212Y-123663224D01*
X79030289Y-123541936D01*
X79222738Y-123394265D01*
X79394265Y-123222738D01*
X79541936Y-123030289D01*
X79663224Y-122820212D01*
X79756054Y-122596100D01*
X79818838Y-122361789D01*
X79850500Y-122121288D01*
X79850500Y-121893709D01*
X80649500Y-121893709D01*
X80649500Y-122106290D01*
X80682752Y-122316238D01*
X80748443Y-122518412D01*
X80844948Y-122707815D01*
X80844950Y-122707819D01*
X80969891Y-122879786D01*
X80969893Y-122879788D01*
X80969896Y-122879792D01*
X81120208Y-123030104D01*
X81120211Y-123030106D01*
X81120213Y-123030108D01*
X81292180Y-123155049D01*
X81292184Y-123155051D01*
X81481588Y-123251557D01*
X81683757Y-123317246D01*
X81683758Y-123317246D01*
X81683761Y-123317247D01*
X81893710Y-123350500D01*
X81893713Y-123350500D01*
X82106290Y-123350500D01*
X82316238Y-123317247D01*
X82316239Y-123317246D01*
X82316243Y-123317246D01*
X82518412Y-123251557D01*
X82707816Y-123155051D01*
X82879792Y-123030104D01*
X83030104Y-122879792D01*
X83155051Y-122707816D01*
X83251557Y-122518412D01*
X83317246Y-122316243D01*
X83348124Y-122121289D01*
X83350500Y-122106290D01*
X83350500Y-121893709D01*
X116649500Y-121893709D01*
X116649500Y-122106290D01*
X116682752Y-122316238D01*
X116748443Y-122518412D01*
X116844948Y-122707815D01*
X116844950Y-122707819D01*
X116969891Y-122879786D01*
X116969893Y-122879788D01*
X116969896Y-122879792D01*
X117120208Y-123030104D01*
X117120211Y-123030106D01*
X117120213Y-123030108D01*
X117292180Y-123155049D01*
X117292184Y-123155051D01*
X117481588Y-123251557D01*
X117683757Y-123317246D01*
X117683758Y-123317246D01*
X117683761Y-123317247D01*
X117893710Y-123350500D01*
X117893713Y-123350500D01*
X118106290Y-123350500D01*
X118316238Y-123317247D01*
X118316239Y-123317246D01*
X118316243Y-123317246D01*
X118518412Y-123251557D01*
X118707816Y-123155051D01*
X118879792Y-123030104D01*
X119030104Y-122879792D01*
X119155051Y-122707816D01*
X119251557Y-122518412D01*
X119317246Y-122316243D01*
X119348124Y-122121289D01*
X119350500Y-122106290D01*
X119350500Y-121893712D01*
X119350064Y-121890960D01*
X119350064Y-121890958D01*
X119348124Y-121878710D01*
X120149500Y-121878710D01*
X120149500Y-122121289D01*
X120181161Y-122361781D01*
X120181161Y-122361786D01*
X120243944Y-122596092D01*
X120243948Y-122596105D01*
X120336772Y-122820204D01*
X120336774Y-122820208D01*
X120336776Y-122820212D01*
X120458064Y-123030289D01*
X120458066Y-123030292D01*
X120605729Y-123222731D01*
X120605731Y-123222733D01*
X120605735Y-123222738D01*
X120777262Y-123394265D01*
X120777266Y-123394268D01*
X120777268Y-123394270D01*
X120969707Y-123541933D01*
X120969711Y-123541936D01*
X121179788Y-123663224D01*
X121403900Y-123756054D01*
X121638211Y-123818838D01*
X121878712Y-123850500D01*
X121878713Y-123850500D01*
X122121287Y-123850500D01*
X122121288Y-123850500D01*
X122361789Y-123818838D01*
X122596100Y-123756054D01*
X122820212Y-123663224D01*
X123030289Y-123541936D01*
X123222738Y-123394265D01*
X123394265Y-123222738D01*
X123541936Y-123030289D01*
X123663224Y-122820212D01*
X123756054Y-122596100D01*
X123818838Y-122361789D01*
X123850500Y-122121288D01*
X123850500Y-121878712D01*
X123818838Y-121638211D01*
X123756054Y-121403900D01*
X123663224Y-121179788D01*
X123541936Y-120969711D01*
X123394265Y-120777262D01*
X123222738Y-120605735D01*
X123222733Y-120605731D01*
X123222731Y-120605729D01*
X123030292Y-120458066D01*
X123030289Y-120458064D01*
X122820212Y-120336776D01*
X122820208Y-120336774D01*
X122820204Y-120336772D01*
X122596105Y-120243948D01*
X122596104Y-120243947D01*
X122596100Y-120243946D01*
X122361789Y-120181162D01*
X122361786Y-120181161D01*
X122361784Y-120181161D01*
X122121289Y-120149500D01*
X122121288Y-120149500D01*
X121878712Y-120149500D01*
X121878710Y-120149500D01*
X121638218Y-120181161D01*
X121638213Y-120181161D01*
X121403907Y-120243944D01*
X121403894Y-120243948D01*
X121179795Y-120336772D01*
X120969707Y-120458066D01*
X120777268Y-120605729D01*
X120605729Y-120777268D01*
X120458066Y-120969707D01*
X120336772Y-121179795D01*
X120243948Y-121403894D01*
X120243944Y-121403907D01*
X120181161Y-121638213D01*
X120181161Y-121638218D01*
X120149500Y-121878710D01*
X119348124Y-121878710D01*
X119317247Y-121683761D01*
X119302449Y-121638218D01*
X119251557Y-121481588D01*
X119155051Y-121292184D01*
X119155049Y-121292180D01*
X119030108Y-121120213D01*
X119030106Y-121120211D01*
X119030104Y-121120208D01*
X118879792Y-120969896D01*
X118879788Y-120969893D01*
X118879786Y-120969891D01*
X118707819Y-120844950D01*
X118707815Y-120844948D01*
X118518412Y-120748443D01*
X118316238Y-120682752D01*
X118106290Y-120649500D01*
X118106287Y-120649500D01*
X117893713Y-120649500D01*
X117893710Y-120649500D01*
X117683761Y-120682752D01*
X117481587Y-120748443D01*
X117292184Y-120844948D01*
X117292180Y-120844950D01*
X117120213Y-120969891D01*
X116969891Y-121120213D01*
X116844950Y-121292180D01*
X116844948Y-121292184D01*
X116748443Y-121481587D01*
X116682752Y-121683761D01*
X116649500Y-121893709D01*
X83350500Y-121893709D01*
X83317247Y-121683761D01*
X83302449Y-121638218D01*
X83251557Y-121481588D01*
X83155051Y-121292184D01*
X83155049Y-121292180D01*
X83030108Y-121120213D01*
X83030106Y-121120211D01*
X83030104Y-121120208D01*
X82879792Y-120969896D01*
X82879788Y-120969893D01*
X82879786Y-120969891D01*
X82707819Y-120844950D01*
X82707815Y-120844948D01*
X82518412Y-120748443D01*
X82316238Y-120682752D01*
X82106290Y-120649500D01*
X82106287Y-120649500D01*
X81893713Y-120649500D01*
X81893710Y-120649500D01*
X81683761Y-120682752D01*
X81481587Y-120748443D01*
X81292184Y-120844948D01*
X81292180Y-120844950D01*
X81120213Y-120969891D01*
X80969891Y-121120213D01*
X80844950Y-121292180D01*
X80844948Y-121292184D01*
X80748443Y-121481587D01*
X80682752Y-121683761D01*
X80649500Y-121893709D01*
X79850500Y-121893709D01*
X79850500Y-121878712D01*
X79818838Y-121638211D01*
X79756054Y-121403900D01*
X79663224Y-121179788D01*
X79541936Y-120969711D01*
X79394265Y-120777262D01*
X79222738Y-120605735D01*
X79222733Y-120605731D01*
X79222731Y-120605729D01*
X79030292Y-120458066D01*
X79030289Y-120458064D01*
X78820212Y-120336776D01*
X78820208Y-120336774D01*
X78820204Y-120336772D01*
X78596105Y-120243948D01*
X78596104Y-120243947D01*
X78596100Y-120243946D01*
X78361789Y-120181162D01*
X78361786Y-120181161D01*
X78361784Y-120181161D01*
X78121289Y-120149500D01*
X78121288Y-120149500D01*
X77878712Y-120149500D01*
X77878710Y-120149500D01*
X77638218Y-120181161D01*
X77638213Y-120181161D01*
X77403907Y-120243944D01*
X77403894Y-120243948D01*
X77179795Y-120336772D01*
X76969707Y-120458066D01*
X76777268Y-120605729D01*
X76605729Y-120777268D01*
X76458066Y-120969707D01*
X76336772Y-121179795D01*
X76243948Y-121403894D01*
X76243944Y-121403907D01*
X76181161Y-121638213D01*
X76181161Y-121638218D01*
X76149500Y-121878710D01*
X75500500Y-121878710D01*
X75500500Y-117676532D01*
X78629500Y-117676532D01*
X78629500Y-117883467D01*
X78669869Y-118086418D01*
X78749058Y-118277597D01*
X78749059Y-118277598D01*
X78864023Y-118449655D01*
X79010345Y-118595977D01*
X79182402Y-118710941D01*
X79373580Y-118790130D01*
X79576535Y-118830500D01*
X79576536Y-118830500D01*
X79783464Y-118830500D01*
X79783465Y-118830500D01*
X79986420Y-118790130D01*
X80177598Y-118710941D01*
X80349655Y-118595977D01*
X80495977Y-118449655D01*
X80610941Y-118277598D01*
X80690130Y-118086420D01*
X80730500Y-117883465D01*
X80730500Y-117676535D01*
X80730499Y-117676532D01*
X81169500Y-117676532D01*
X81169500Y-117883467D01*
X81209869Y-118086418D01*
X81289058Y-118277597D01*
X81289059Y-118277598D01*
X81404023Y-118449655D01*
X81550345Y-118595977D01*
X81722402Y-118710941D01*
X81913580Y-118790130D01*
X82116535Y-118830500D01*
X82116536Y-118830500D01*
X82323464Y-118830500D01*
X82323465Y-118830500D01*
X82526420Y-118790130D01*
X82717598Y-118710941D01*
X82889655Y-118595977D01*
X83035977Y-118449655D01*
X83150941Y-118277598D01*
X83230130Y-118086420D01*
X83270500Y-117883465D01*
X83270500Y-117676535D01*
X83230130Y-117473580D01*
X83150941Y-117282402D01*
X83035977Y-117110345D01*
X82889655Y-116964023D01*
X82717598Y-116849059D01*
X82717599Y-116849059D01*
X82717597Y-116849058D01*
X82526418Y-116769869D01*
X82323467Y-116729500D01*
X82323465Y-116729500D01*
X82116535Y-116729500D01*
X82116532Y-116729500D01*
X81913581Y-116769869D01*
X81722402Y-116849058D01*
X81550348Y-116964020D01*
X81404020Y-117110348D01*
X81289058Y-117282402D01*
X81209869Y-117473581D01*
X81169500Y-117676532D01*
X80730499Y-117676532D01*
X80690130Y-117473580D01*
X80610941Y-117282402D01*
X80495977Y-117110345D01*
X80349655Y-116964023D01*
X80177598Y-116849059D01*
X80177599Y-116849059D01*
X80177597Y-116849058D01*
X79986418Y-116769869D01*
X79783467Y-116729500D01*
X79783465Y-116729500D01*
X79576535Y-116729500D01*
X79576532Y-116729500D01*
X79373581Y-116769869D01*
X79182402Y-116849058D01*
X79010348Y-116964020D01*
X78864020Y-117110348D01*
X78749058Y-117282402D01*
X78669869Y-117473581D01*
X78629500Y-117676532D01*
X75500500Y-117676532D01*
X75500500Y-115136532D01*
X78629500Y-115136532D01*
X78629500Y-115343467D01*
X78669869Y-115546418D01*
X78749058Y-115737597D01*
X78749059Y-115737598D01*
X78864023Y-115909655D01*
X79010345Y-116055977D01*
X79182402Y-116170941D01*
X79373580Y-116250130D01*
X79576535Y-116290500D01*
X79576536Y-116290500D01*
X79783464Y-116290500D01*
X79783465Y-116290500D01*
X79986420Y-116250130D01*
X80177598Y-116170941D01*
X80349655Y-116055977D01*
X80495977Y-115909655D01*
X80610941Y-115737598D01*
X80690130Y-115546420D01*
X80730500Y-115343465D01*
X80730500Y-115136535D01*
X80690130Y-114933580D01*
X80654512Y-114847593D01*
X80649712Y-114786600D01*
X80675972Y-114739708D01*
X81036186Y-114379496D01*
X81090702Y-114351719D01*
X81106189Y-114350500D01*
X81384861Y-114350500D01*
X81443052Y-114369407D01*
X81479016Y-114418907D01*
X81479016Y-114480093D01*
X81454866Y-114519501D01*
X81404023Y-114570345D01*
X81404020Y-114570348D01*
X81289058Y-114742402D01*
X81209869Y-114933581D01*
X81169500Y-115136532D01*
X81169500Y-115343467D01*
X81209869Y-115546418D01*
X81289058Y-115737597D01*
X81289059Y-115737598D01*
X81404023Y-115909655D01*
X81550345Y-116055977D01*
X81722402Y-116170941D01*
X81913580Y-116250130D01*
X82116535Y-116290500D01*
X82116536Y-116290500D01*
X82323464Y-116290500D01*
X82323465Y-116290500D01*
X82526420Y-116250130D01*
X82717598Y-116170941D01*
X82889655Y-116055977D01*
X83035977Y-115909655D01*
X83150941Y-115737598D01*
X83230130Y-115546420D01*
X83270500Y-115343465D01*
X83270500Y-115136535D01*
X83230130Y-114933580D01*
X83150941Y-114742402D01*
X83035977Y-114570345D01*
X82985133Y-114519501D01*
X82957358Y-114464987D01*
X82966929Y-114404555D01*
X83010194Y-114361290D01*
X83055139Y-114350500D01*
X102996142Y-114350500D01*
X102996144Y-114350500D01*
X103085288Y-114326614D01*
X103115694Y-114309059D01*
X103165212Y-114280470D01*
X105180469Y-112265213D01*
X105226614Y-112185288D01*
X105250500Y-112096144D01*
X105250500Y-107416357D01*
X117949678Y-107416357D01*
X117949678Y-107583896D01*
X117982361Y-107748206D01*
X117982363Y-107748212D01*
X118046474Y-107902989D01*
X118046475Y-107902990D01*
X118139552Y-108042289D01*
X118258016Y-108160753D01*
X118397315Y-108253830D01*
X118552096Y-108317943D01*
X118716411Y-108350627D01*
X118716412Y-108350627D01*
X118883944Y-108350627D01*
X118883945Y-108350627D01*
X119048260Y-108317943D01*
X119203041Y-108253830D01*
X119342340Y-108160753D01*
X119460804Y-108042289D01*
X119553881Y-107902990D01*
X119617994Y-107748209D01*
X119650678Y-107583894D01*
X119650678Y-107416360D01*
X119617994Y-107252045D01*
X119553881Y-107097264D01*
X119460804Y-106957965D01*
X119342340Y-106839501D01*
X119203041Y-106746424D01*
X119203042Y-106746424D01*
X119203040Y-106746423D01*
X119048263Y-106682312D01*
X119048257Y-106682310D01*
X118883947Y-106649627D01*
X118883945Y-106649627D01*
X118716411Y-106649627D01*
X118716408Y-106649627D01*
X118552098Y-106682310D01*
X118552092Y-106682312D01*
X118397315Y-106746423D01*
X118258016Y-106839501D01*
X118258012Y-106839504D01*
X118139555Y-106957961D01*
X118139552Y-106957965D01*
X118046474Y-107097264D01*
X117982363Y-107252041D01*
X117982361Y-107252047D01*
X117949678Y-107416357D01*
X105250500Y-107416357D01*
X105250500Y-105931055D01*
X116000102Y-105931055D01*
X116000102Y-106068944D01*
X116027003Y-106204183D01*
X116079768Y-106331571D01*
X116156373Y-106446220D01*
X116253881Y-106543728D01*
X116368530Y-106620333D01*
X116495918Y-106673098D01*
X116631157Y-106699999D01*
X116631159Y-106700000D01*
X116769045Y-106700000D01*
X116769046Y-106699999D01*
X116904285Y-106673098D01*
X117031673Y-106620333D01*
X117146322Y-106543728D01*
X117243830Y-106446220D01*
X117320435Y-106331571D01*
X117373200Y-106204183D01*
X117400101Y-106068944D01*
X117400102Y-106068942D01*
X117400102Y-105931057D01*
X117400101Y-105931055D01*
X117373200Y-105795816D01*
X117320435Y-105668428D01*
X117243830Y-105553779D01*
X117146322Y-105456271D01*
X117031673Y-105379666D01*
X116904285Y-105326901D01*
X116769046Y-105300000D01*
X116631157Y-105300000D01*
X116495918Y-105326901D01*
X116368530Y-105379666D01*
X116253881Y-105456271D01*
X116156373Y-105553779D01*
X116079768Y-105668428D01*
X116027003Y-105795816D01*
X116000102Y-105931055D01*
X105250500Y-105931055D01*
X105250500Y-105498321D01*
X105269407Y-105440130D01*
X105279490Y-105428323D01*
X105300500Y-105407314D01*
X105366392Y-105293186D01*
X105400500Y-105165892D01*
X105400500Y-105034108D01*
X105366392Y-104906814D01*
X105366390Y-104906811D01*
X105366390Y-104906809D01*
X105300503Y-104792690D01*
X105300498Y-104792684D01*
X105279495Y-104771680D01*
X105251719Y-104717163D01*
X105250500Y-104701678D01*
X105250500Y-103911306D01*
X115799602Y-103911306D01*
X115799602Y-104088693D01*
X115834208Y-104262665D01*
X115834208Y-104262667D01*
X115902087Y-104426544D01*
X115902087Y-104426545D01*
X116000637Y-104574034D01*
X116000638Y-104574035D01*
X116126067Y-104699464D01*
X116273555Y-104798013D01*
X116437436Y-104865894D01*
X116611411Y-104900500D01*
X116611412Y-104900500D01*
X116788792Y-104900500D01*
X116788793Y-104900500D01*
X116962768Y-104865894D01*
X117126649Y-104798013D01*
X117274137Y-104699464D01*
X117399566Y-104574035D01*
X117498115Y-104426547D01*
X117565996Y-104262666D01*
X117600602Y-104088691D01*
X117600602Y-103911309D01*
X117565996Y-103737334D01*
X117498116Y-103573455D01*
X117498116Y-103573454D01*
X117399566Y-103425965D01*
X117274136Y-103300535D01*
X117126646Y-103201985D01*
X116962768Y-103134106D01*
X116788795Y-103099500D01*
X116788793Y-103099500D01*
X116611411Y-103099500D01*
X116611408Y-103099500D01*
X116437436Y-103134106D01*
X116437434Y-103134106D01*
X116273557Y-103201985D01*
X116273556Y-103201985D01*
X116126067Y-103300535D01*
X116000637Y-103425965D01*
X115902087Y-103573454D01*
X115902087Y-103573455D01*
X115834208Y-103737332D01*
X115834208Y-103737334D01*
X115799602Y-103911306D01*
X105250500Y-103911306D01*
X105250500Y-101998321D01*
X105269020Y-101940668D01*
X105273752Y-101934061D01*
X105296508Y-101911306D01*
X115799602Y-101911306D01*
X115799602Y-102088693D01*
X115834208Y-102262665D01*
X115834208Y-102262667D01*
X115902087Y-102426544D01*
X115902087Y-102426545D01*
X115956053Y-102507310D01*
X116000638Y-102574035D01*
X116126067Y-102699464D01*
X116273555Y-102798013D01*
X116437436Y-102865894D01*
X116611411Y-102900500D01*
X116611412Y-102900500D01*
X116788792Y-102900500D01*
X116788793Y-102900500D01*
X116962768Y-102865894D01*
X117126649Y-102798013D01*
X117274137Y-102699464D01*
X117399566Y-102574035D01*
X117498115Y-102426547D01*
X117565996Y-102262666D01*
X117600602Y-102088691D01*
X117600602Y-101911309D01*
X117565996Y-101737334D01*
X117498116Y-101573455D01*
X117498116Y-101573454D01*
X117399566Y-101425965D01*
X117274136Y-101300535D01*
X117126646Y-101201985D01*
X116962768Y-101134106D01*
X116788795Y-101099500D01*
X116788793Y-101099500D01*
X116611411Y-101099500D01*
X116611408Y-101099500D01*
X116437436Y-101134106D01*
X116437434Y-101134106D01*
X116273557Y-101201985D01*
X116273556Y-101201985D01*
X116126067Y-101300535D01*
X116000637Y-101425965D01*
X115902087Y-101573454D01*
X115902087Y-101573455D01*
X115834208Y-101737332D01*
X115834208Y-101737334D01*
X115799602Y-101911306D01*
X105296508Y-101911306D01*
X105300500Y-101907314D01*
X105366392Y-101793186D01*
X105400500Y-101665892D01*
X105400500Y-101534108D01*
X105366392Y-101406814D01*
X105363761Y-101402258D01*
X105350500Y-101352761D01*
X105350500Y-99911306D01*
X115799602Y-99911306D01*
X115799602Y-100088693D01*
X115834208Y-100262665D01*
X115834208Y-100262667D01*
X115902087Y-100426544D01*
X115902087Y-100426545D01*
X115949563Y-100497597D01*
X116000638Y-100574035D01*
X116126067Y-100699464D01*
X116273555Y-100798013D01*
X116437436Y-100865894D01*
X116611411Y-100900500D01*
X116611412Y-100900500D01*
X116788792Y-100900500D01*
X116788793Y-100900500D01*
X116962768Y-100865894D01*
X117126649Y-100798013D01*
X117274137Y-100699464D01*
X117399566Y-100574035D01*
X117498115Y-100426547D01*
X117565996Y-100262666D01*
X117600602Y-100088691D01*
X117600602Y-99911309D01*
X117565996Y-99737334D01*
X117498116Y-99573455D01*
X117498116Y-99573454D01*
X117399566Y-99425965D01*
X117274136Y-99300535D01*
X117126646Y-99201985D01*
X116962768Y-99134106D01*
X116788795Y-99099500D01*
X116788793Y-99099500D01*
X116611411Y-99099500D01*
X116611408Y-99099500D01*
X116437436Y-99134106D01*
X116437434Y-99134106D01*
X116273557Y-99201985D01*
X116273556Y-99201985D01*
X116126067Y-99300535D01*
X116000637Y-99425965D01*
X115902087Y-99573454D01*
X115902087Y-99573455D01*
X115834208Y-99737332D01*
X115834208Y-99737334D01*
X115799602Y-99911306D01*
X105350500Y-99911306D01*
X105350500Y-98597238D01*
X105363765Y-98547735D01*
X105366392Y-98543186D01*
X105400500Y-98415892D01*
X105400500Y-98284108D01*
X105366392Y-98156814D01*
X105366390Y-98156811D01*
X105366390Y-98156809D01*
X105300503Y-98042690D01*
X105300498Y-98042684D01*
X105279495Y-98021680D01*
X105275869Y-98014564D01*
X105269407Y-98009869D01*
X105262241Y-97987816D01*
X105251719Y-97967163D01*
X105250500Y-97951678D01*
X105250500Y-97911306D01*
X115799602Y-97911306D01*
X115799602Y-98088693D01*
X115834208Y-98262665D01*
X115834208Y-98262667D01*
X115902087Y-98426544D01*
X115902087Y-98426545D01*
X115983063Y-98547733D01*
X116000638Y-98574035D01*
X116126067Y-98699464D01*
X116273555Y-98798013D01*
X116273556Y-98798013D01*
X116273557Y-98798014D01*
X116310683Y-98813391D01*
X116437436Y-98865894D01*
X116611411Y-98900500D01*
X116611412Y-98900500D01*
X116788792Y-98900500D01*
X116788793Y-98900500D01*
X116962768Y-98865894D01*
X117126649Y-98798013D01*
X117274137Y-98699464D01*
X117399566Y-98574035D01*
X117498115Y-98426547D01*
X117565996Y-98262666D01*
X117600602Y-98088691D01*
X117600602Y-97911309D01*
X117565996Y-97737334D01*
X117498116Y-97573455D01*
X117498116Y-97573454D01*
X117399566Y-97425965D01*
X117274136Y-97300535D01*
X117126646Y-97201985D01*
X116962768Y-97134106D01*
X116788795Y-97099500D01*
X116788793Y-97099500D01*
X116611411Y-97099500D01*
X116611408Y-97099500D01*
X116437436Y-97134106D01*
X116437434Y-97134106D01*
X116273557Y-97201985D01*
X116273556Y-97201985D01*
X116126067Y-97300535D01*
X116000637Y-97425965D01*
X115902087Y-97573454D01*
X115902087Y-97573455D01*
X115834208Y-97737332D01*
X115834208Y-97737334D01*
X115799602Y-97911306D01*
X105250500Y-97911306D01*
X105250500Y-96399500D01*
X105269407Y-96341309D01*
X105318907Y-96305345D01*
X105349500Y-96300500D01*
X115783729Y-96300500D01*
X115841920Y-96319407D01*
X115875193Y-96361615D01*
X115902087Y-96426544D01*
X115902087Y-96426545D01*
X116000637Y-96574034D01*
X116000638Y-96574035D01*
X116126067Y-96699464D01*
X116273555Y-96798013D01*
X116437436Y-96865894D01*
X116611411Y-96900500D01*
X116611412Y-96900500D01*
X116788792Y-96900500D01*
X116788793Y-96900500D01*
X116962768Y-96865894D01*
X117126649Y-96798013D01*
X117274137Y-96699464D01*
X117399566Y-96574035D01*
X117498115Y-96426547D01*
X117565996Y-96262666D01*
X117600602Y-96088691D01*
X117600602Y-95911309D01*
X117565996Y-95737334D01*
X117512139Y-95607310D01*
X117498116Y-95573455D01*
X117498116Y-95573454D01*
X117399566Y-95425965D01*
X117274136Y-95300535D01*
X117126646Y-95201985D01*
X116962768Y-95134106D01*
X116788795Y-95099500D01*
X116788793Y-95099500D01*
X116611411Y-95099500D01*
X116611408Y-95099500D01*
X116437436Y-95134106D01*
X116437434Y-95134106D01*
X116273557Y-95201985D01*
X116273556Y-95201985D01*
X116126067Y-95300535D01*
X116000637Y-95425965D01*
X115902087Y-95573454D01*
X115902087Y-95573455D01*
X115875193Y-95638385D01*
X115835457Y-95684911D01*
X115783729Y-95699500D01*
X105349500Y-95699500D01*
X105291309Y-95680593D01*
X105255345Y-95631093D01*
X105250500Y-95600500D01*
X105250500Y-95398321D01*
X105269407Y-95340130D01*
X105279490Y-95328323D01*
X105300500Y-95307314D01*
X105342766Y-95234108D01*
X105366390Y-95193190D01*
X105366390Y-95193188D01*
X105366392Y-95193186D01*
X105400500Y-95065892D01*
X105400500Y-94934108D01*
X105366392Y-94806814D01*
X105366390Y-94806811D01*
X105366390Y-94806809D01*
X105300503Y-94692690D01*
X105300501Y-94692688D01*
X105300500Y-94692686D01*
X105207314Y-94599500D01*
X105207311Y-94599498D01*
X105207309Y-94599496D01*
X105093189Y-94533609D01*
X105093191Y-94533609D01*
X105043799Y-94520375D01*
X104965892Y-94499500D01*
X104965890Y-94499500D01*
X104936190Y-94499500D01*
X104877999Y-94480593D01*
X104866186Y-94470504D01*
X104306988Y-93911306D01*
X115799602Y-93911306D01*
X115799602Y-94088693D01*
X115834208Y-94262665D01*
X115834208Y-94262667D01*
X115902087Y-94426544D01*
X115902087Y-94426545D01*
X115973625Y-94533608D01*
X116000638Y-94574035D01*
X116126067Y-94699464D01*
X116273555Y-94798013D01*
X116273556Y-94798013D01*
X116273557Y-94798014D01*
X116294803Y-94806814D01*
X116437436Y-94865894D01*
X116611411Y-94900500D01*
X116611412Y-94900500D01*
X116788792Y-94900500D01*
X116788793Y-94900500D01*
X116962768Y-94865894D01*
X117126649Y-94798013D01*
X117274137Y-94699464D01*
X117399566Y-94574035D01*
X117498115Y-94426547D01*
X117565996Y-94262666D01*
X117600602Y-94088691D01*
X117600602Y-93911309D01*
X117565996Y-93737334D01*
X117498116Y-93573455D01*
X117498116Y-93573454D01*
X117399566Y-93425965D01*
X117274136Y-93300535D01*
X117126646Y-93201985D01*
X116962768Y-93134106D01*
X116788795Y-93099500D01*
X116788793Y-93099500D01*
X116611411Y-93099500D01*
X116611408Y-93099500D01*
X116437436Y-93134106D01*
X116437434Y-93134106D01*
X116273557Y-93201985D01*
X116273556Y-93201985D01*
X116126067Y-93300535D01*
X116000637Y-93425965D01*
X115902087Y-93573454D01*
X115902087Y-93573455D01*
X115834208Y-93737332D01*
X115834208Y-93737334D01*
X115799602Y-93911306D01*
X104306988Y-93911306D01*
X102811785Y-92416103D01*
X117949678Y-92416103D01*
X117949678Y-92583642D01*
X117982361Y-92747952D01*
X117982363Y-92747958D01*
X118046474Y-92902735D01*
X118046475Y-92902736D01*
X118139552Y-93042035D01*
X118258016Y-93160499D01*
X118397315Y-93253576D01*
X118552096Y-93317689D01*
X118716411Y-93350373D01*
X118716412Y-93350373D01*
X118883944Y-93350373D01*
X118883945Y-93350373D01*
X119048260Y-93317689D01*
X119203041Y-93253576D01*
X119342340Y-93160499D01*
X119460804Y-93042035D01*
X119553881Y-92902736D01*
X119617994Y-92747955D01*
X119650678Y-92583640D01*
X119650678Y-92416106D01*
X119617994Y-92251791D01*
X119553881Y-92097010D01*
X119460804Y-91957711D01*
X119342340Y-91839247D01*
X119203041Y-91746170D01*
X119203042Y-91746170D01*
X119203040Y-91746169D01*
X119048263Y-91682058D01*
X119048257Y-91682056D01*
X118883947Y-91649373D01*
X118883945Y-91649373D01*
X118716411Y-91649373D01*
X118716408Y-91649373D01*
X118552098Y-91682056D01*
X118552092Y-91682058D01*
X118397315Y-91746169D01*
X118258016Y-91839247D01*
X118258012Y-91839250D01*
X118139555Y-91957707D01*
X118139552Y-91957711D01*
X118046474Y-92097010D01*
X117982363Y-92251787D01*
X117982361Y-92251793D01*
X117949678Y-92416103D01*
X102811785Y-92416103D01*
X99379496Y-88983814D01*
X99351719Y-88929297D01*
X99350500Y-88913810D01*
X99350500Y-84176781D01*
X99369407Y-84118590D01*
X99411613Y-84085317D01*
X99450231Y-84069322D01*
X99450235Y-84069319D01*
X99450238Y-84069318D01*
X99495187Y-84039282D01*
X99605908Y-83965302D01*
X99738302Y-83832908D01*
X99820761Y-83709500D01*
X99842318Y-83677238D01*
X99842319Y-83677234D01*
X99842322Y-83677231D01*
X99913973Y-83504251D01*
X99950500Y-83320616D01*
X99950500Y-83133384D01*
X99913973Y-82949749D01*
X99842322Y-82776769D01*
X99842320Y-82776767D01*
X99842318Y-82776761D01*
X99781622Y-82685925D01*
X99738302Y-82621092D01*
X99605908Y-82488698D01*
X99588402Y-82477001D01*
X100250000Y-82477001D01*
X100250000Y-83976999D01*
X100250001Y-83977000D01*
X101749999Y-83977000D01*
X101750000Y-83976999D01*
X101750000Y-82477001D01*
X101749999Y-82477000D01*
X100250001Y-82477000D01*
X100250000Y-82477001D01*
X99588402Y-82477001D01*
X99561559Y-82459065D01*
X99450238Y-82384681D01*
X99450229Y-82384677D01*
X99277249Y-82313026D01*
X99093618Y-82276500D01*
X99093616Y-82276500D01*
X98906384Y-82276500D01*
X98906381Y-82276500D01*
X98722750Y-82313026D01*
X98549770Y-82384677D01*
X98549761Y-82384681D01*
X98394092Y-82488698D01*
X98394088Y-82488701D01*
X98261701Y-82621088D01*
X98261698Y-82621092D01*
X98157681Y-82776761D01*
X98157677Y-82776770D01*
X98086026Y-82949750D01*
X98049500Y-83133381D01*
X98049500Y-83320618D01*
X98086026Y-83504249D01*
X98157677Y-83677229D01*
X98157681Y-83677238D01*
X98232065Y-83788559D01*
X98261698Y-83832908D01*
X98394092Y-83965302D01*
X98456107Y-84006739D01*
X98549761Y-84069318D01*
X98549766Y-84069320D01*
X98549769Y-84069322D01*
X98588386Y-84085317D01*
X98634911Y-84125052D01*
X98649500Y-84176781D01*
X98649500Y-89146144D01*
X98673386Y-89235288D01*
X98719530Y-89315212D01*
X104370505Y-94966187D01*
X104398281Y-95020702D01*
X104399500Y-95036189D01*
X104399500Y-95065892D01*
X104410464Y-95106809D01*
X104433609Y-95193190D01*
X104499496Y-95307309D01*
X104499498Y-95307311D01*
X104499500Y-95307314D01*
X104520505Y-95328319D01*
X104548281Y-95382834D01*
X104549500Y-95398321D01*
X104549500Y-97951678D01*
X104530593Y-98009869D01*
X104520505Y-98021680D01*
X104499501Y-98042684D01*
X104499496Y-98042690D01*
X104433609Y-98156809D01*
X104433608Y-98156814D01*
X104399500Y-98284108D01*
X104399500Y-98415892D01*
X104402355Y-98426547D01*
X104433609Y-98543190D01*
X104499496Y-98657309D01*
X104499498Y-98657311D01*
X104499500Y-98657314D01*
X104592686Y-98750500D01*
X104599998Y-98754721D01*
X104640939Y-98800187D01*
X104649500Y-98840458D01*
X104649500Y-101109540D01*
X104630593Y-101167731D01*
X104600003Y-101195275D01*
X104592688Y-101199498D01*
X104499496Y-101292690D01*
X104433609Y-101406809D01*
X104414539Y-101477978D01*
X104399500Y-101534108D01*
X104399500Y-101665892D01*
X104415075Y-101724020D01*
X104433609Y-101793190D01*
X104499496Y-101907309D01*
X104499498Y-101907311D01*
X104499500Y-101907314D01*
X104520505Y-101928319D01*
X104548281Y-101982834D01*
X104549500Y-101998321D01*
X104549500Y-104701678D01*
X104530593Y-104759869D01*
X104520505Y-104771680D01*
X104499501Y-104792684D01*
X104499496Y-104792690D01*
X104433609Y-104906809D01*
X104433608Y-104906814D01*
X104399500Y-105034108D01*
X104399500Y-105165892D01*
X104409089Y-105201678D01*
X104433609Y-105293190D01*
X104499496Y-105407309D01*
X104499498Y-105407311D01*
X104499500Y-105407314D01*
X104520505Y-105428319D01*
X104548281Y-105482834D01*
X104549500Y-105498321D01*
X104549500Y-111863810D01*
X104530593Y-111922001D01*
X104520504Y-111933814D01*
X102833814Y-113620504D01*
X102779297Y-113648281D01*
X102763810Y-113649500D01*
X82995139Y-113649500D01*
X82936948Y-113630593D01*
X82900984Y-113581093D01*
X82900984Y-113519907D01*
X82925133Y-113480498D01*
X83035977Y-113369655D01*
X83150941Y-113197598D01*
X83230130Y-113006420D01*
X83270500Y-112803465D01*
X83270500Y-112596535D01*
X83230130Y-112393580D01*
X83150941Y-112202402D01*
X83035977Y-112030345D01*
X82889655Y-111884023D01*
X82717598Y-111769059D01*
X82717599Y-111769059D01*
X82717597Y-111769058D01*
X82526418Y-111689869D01*
X82323467Y-111649500D01*
X82323465Y-111649500D01*
X82116535Y-111649500D01*
X82116532Y-111649500D01*
X81913581Y-111689869D01*
X81722402Y-111769058D01*
X81550348Y-111884020D01*
X81404020Y-112030348D01*
X81289058Y-112202402D01*
X81209869Y-112393581D01*
X81169500Y-112596532D01*
X81169500Y-112803467D01*
X81209869Y-113006418D01*
X81289058Y-113197597D01*
X81289059Y-113197598D01*
X81404023Y-113369655D01*
X81514866Y-113480498D01*
X81542642Y-113535013D01*
X81533071Y-113595445D01*
X81489806Y-113638710D01*
X81444861Y-113649500D01*
X80966144Y-113649500D01*
X80873856Y-113649500D01*
X80784712Y-113673386D01*
X80721070Y-113710130D01*
X80704785Y-113719532D01*
X80180290Y-114244025D01*
X80125774Y-114271802D01*
X80072401Y-114265485D01*
X79986420Y-114229870D01*
X79986418Y-114229869D01*
X79783467Y-114189500D01*
X79783465Y-114189500D01*
X79576535Y-114189500D01*
X79576532Y-114189500D01*
X79373581Y-114229869D01*
X79182402Y-114309058D01*
X79010348Y-114424020D01*
X78864020Y-114570348D01*
X78749058Y-114742402D01*
X78669869Y-114933581D01*
X78629500Y-115136532D01*
X75500500Y-115136532D01*
X75500500Y-112596532D01*
X78629500Y-112596532D01*
X78629500Y-112803467D01*
X78669869Y-113006418D01*
X78749058Y-113197597D01*
X78749059Y-113197598D01*
X78864023Y-113369655D01*
X79010345Y-113515977D01*
X79182402Y-113630941D01*
X79373580Y-113710130D01*
X79576535Y-113750500D01*
X79576536Y-113750500D01*
X79783464Y-113750500D01*
X79783465Y-113750500D01*
X79986420Y-113710130D01*
X80177598Y-113630941D01*
X80349655Y-113515977D01*
X80495977Y-113369655D01*
X80610941Y-113197598D01*
X80690130Y-113006420D01*
X80730500Y-112803465D01*
X80730500Y-112596535D01*
X80690130Y-112393580D01*
X80610941Y-112202402D01*
X80495977Y-112030345D01*
X80349655Y-111884023D01*
X80177598Y-111769059D01*
X80177599Y-111769059D01*
X80177597Y-111769058D01*
X79986418Y-111689869D01*
X79783467Y-111649500D01*
X79783465Y-111649500D01*
X79576535Y-111649500D01*
X79576532Y-111649500D01*
X79373581Y-111689869D01*
X79182402Y-111769058D01*
X79010348Y-111884020D01*
X78864020Y-112030348D01*
X78749058Y-112202402D01*
X78669869Y-112393581D01*
X78629500Y-112596532D01*
X75500500Y-112596532D01*
X75500500Y-110056532D01*
X78629500Y-110056532D01*
X78629500Y-110263467D01*
X78669869Y-110466418D01*
X78749058Y-110657597D01*
X78749059Y-110657598D01*
X78864023Y-110829655D01*
X79010345Y-110975977D01*
X79182402Y-111090941D01*
X79373580Y-111170130D01*
X79576535Y-111210500D01*
X79576536Y-111210500D01*
X79783464Y-111210500D01*
X79783465Y-111210500D01*
X79986420Y-111170130D01*
X80177598Y-111090941D01*
X80349655Y-110975977D01*
X80495977Y-110829655D01*
X80610941Y-110657598D01*
X80690130Y-110466420D01*
X80730500Y-110263465D01*
X80730500Y-110056535D01*
X80730499Y-110056532D01*
X81169500Y-110056532D01*
X81169500Y-110263467D01*
X81209869Y-110466418D01*
X81289058Y-110657597D01*
X81289059Y-110657598D01*
X81404023Y-110829655D01*
X81550345Y-110975977D01*
X81722402Y-111090941D01*
X81913580Y-111170130D01*
X82116535Y-111210500D01*
X82116536Y-111210500D01*
X82323464Y-111210500D01*
X82323465Y-111210500D01*
X82526420Y-111170130D01*
X82717598Y-111090941D01*
X82889655Y-110975977D01*
X83035977Y-110829655D01*
X83150941Y-110657598D01*
X83230130Y-110466420D01*
X83270500Y-110263465D01*
X83270500Y-110056535D01*
X83230130Y-109853580D01*
X83150941Y-109662402D01*
X83035977Y-109490345D01*
X82889655Y-109344023D01*
X82717598Y-109229059D01*
X82717599Y-109229059D01*
X82717597Y-109229058D01*
X82526418Y-109149869D01*
X82323467Y-109109500D01*
X82323465Y-109109500D01*
X82116535Y-109109500D01*
X82116532Y-109109500D01*
X81913581Y-109149869D01*
X81722402Y-109229058D01*
X81550348Y-109344020D01*
X81404020Y-109490348D01*
X81289058Y-109662402D01*
X81209869Y-109853581D01*
X81169500Y-110056532D01*
X80730499Y-110056532D01*
X80690130Y-109853580D01*
X80610941Y-109662402D01*
X80495977Y-109490345D01*
X80349655Y-109344023D01*
X80177598Y-109229059D01*
X80177599Y-109229059D01*
X80177597Y-109229058D01*
X79986418Y-109149869D01*
X79783467Y-109109500D01*
X79783465Y-109109500D01*
X79576535Y-109109500D01*
X79576532Y-109109500D01*
X79373581Y-109149869D01*
X79182402Y-109229058D01*
X79010348Y-109344020D01*
X78864020Y-109490348D01*
X78749058Y-109662402D01*
X78669869Y-109853581D01*
X78629500Y-110056532D01*
X75500500Y-110056532D01*
X75500500Y-107516532D01*
X78629500Y-107516532D01*
X78629500Y-107723467D01*
X78669869Y-107926418D01*
X78749058Y-108117597D01*
X78864020Y-108289651D01*
X78864023Y-108289655D01*
X79010345Y-108435977D01*
X79182402Y-108550941D01*
X79373580Y-108630130D01*
X79576535Y-108670500D01*
X79576536Y-108670500D01*
X79783464Y-108670500D01*
X79783465Y-108670500D01*
X79986420Y-108630130D01*
X80177598Y-108550941D01*
X80349655Y-108435977D01*
X80495977Y-108289655D01*
X80610941Y-108117598D01*
X80690130Y-107926420D01*
X80730500Y-107723465D01*
X80730500Y-107516535D01*
X80730499Y-107516532D01*
X81169500Y-107516532D01*
X81169500Y-107723467D01*
X81209869Y-107926418D01*
X81289058Y-108117597D01*
X81404020Y-108289651D01*
X81404023Y-108289655D01*
X81550345Y-108435977D01*
X81722402Y-108550941D01*
X81913580Y-108630130D01*
X82116535Y-108670500D01*
X82116536Y-108670500D01*
X82323464Y-108670500D01*
X82323465Y-108670500D01*
X82526420Y-108630130D01*
X82717598Y-108550941D01*
X82889655Y-108435977D01*
X83035977Y-108289655D01*
X83150941Y-108117598D01*
X83230130Y-107926420D01*
X83270500Y-107723465D01*
X83270500Y-107516535D01*
X83230130Y-107313580D01*
X83150941Y-107122402D01*
X83035977Y-106950345D01*
X82889655Y-106804023D01*
X82889651Y-106804020D01*
X82717597Y-106689058D01*
X82526418Y-106609869D01*
X82323467Y-106569500D01*
X82323465Y-106569500D01*
X82116535Y-106569500D01*
X82116532Y-106569500D01*
X81913581Y-106609869D01*
X81722402Y-106689058D01*
X81550348Y-106804020D01*
X81404020Y-106950348D01*
X81289058Y-107122402D01*
X81209869Y-107313581D01*
X81169500Y-107516532D01*
X80730499Y-107516532D01*
X80690130Y-107313580D01*
X80610941Y-107122402D01*
X80495977Y-106950345D01*
X80349655Y-106804023D01*
X80349651Y-106804020D01*
X80177597Y-106689058D01*
X79986418Y-106609869D01*
X79783467Y-106569500D01*
X79783465Y-106569500D01*
X79576535Y-106569500D01*
X79576532Y-106569500D01*
X79373581Y-106609869D01*
X79182402Y-106689058D01*
X79010348Y-106804020D01*
X78864020Y-106950348D01*
X78749058Y-107122402D01*
X78669869Y-107313581D01*
X78629500Y-107516532D01*
X75500500Y-107516532D01*
X75500500Y-104976532D01*
X78629500Y-104976532D01*
X78629500Y-105183467D01*
X78669869Y-105386418D01*
X78749058Y-105577597D01*
X78809749Y-105668428D01*
X78864023Y-105749655D01*
X79010345Y-105895977D01*
X79182402Y-106010941D01*
X79373580Y-106090130D01*
X79576535Y-106130500D01*
X79576536Y-106130500D01*
X79783464Y-106130500D01*
X79783465Y-106130500D01*
X79986420Y-106090130D01*
X80177598Y-106010941D01*
X80349655Y-105895977D01*
X80495977Y-105749655D01*
X80610941Y-105577598D01*
X80690130Y-105386420D01*
X80730500Y-105183465D01*
X80730500Y-104976535D01*
X80730499Y-104976532D01*
X81169500Y-104976532D01*
X81169500Y-105183467D01*
X81209869Y-105386418D01*
X81289058Y-105577597D01*
X81349749Y-105668428D01*
X81404023Y-105749655D01*
X81550345Y-105895977D01*
X81722402Y-106010941D01*
X81913580Y-106090130D01*
X82116535Y-106130500D01*
X82116536Y-106130500D01*
X82323464Y-106130500D01*
X82323465Y-106130500D01*
X82526420Y-106090130D01*
X82717598Y-106010941D01*
X82889655Y-105895977D01*
X83035977Y-105749655D01*
X83150941Y-105577598D01*
X83230130Y-105386420D01*
X83270500Y-105183465D01*
X83270500Y-104976535D01*
X83230130Y-104773580D01*
X83150941Y-104582402D01*
X83035977Y-104410345D01*
X82889655Y-104264023D01*
X82887626Y-104262667D01*
X82717597Y-104149058D01*
X82526418Y-104069869D01*
X82323467Y-104029500D01*
X82323465Y-104029500D01*
X82116535Y-104029500D01*
X82116532Y-104029500D01*
X81913581Y-104069869D01*
X81722402Y-104149058D01*
X81550348Y-104264020D01*
X81404020Y-104410348D01*
X81289058Y-104582402D01*
X81209869Y-104773581D01*
X81169500Y-104976532D01*
X80730499Y-104976532D01*
X80690130Y-104773580D01*
X80610941Y-104582402D01*
X80495977Y-104410345D01*
X80349655Y-104264023D01*
X80347626Y-104262667D01*
X80177597Y-104149058D01*
X79986418Y-104069869D01*
X79783467Y-104029500D01*
X79783465Y-104029500D01*
X79576535Y-104029500D01*
X79576532Y-104029500D01*
X79373581Y-104069869D01*
X79182402Y-104149058D01*
X79010348Y-104264020D01*
X78864020Y-104410348D01*
X78749058Y-104582402D01*
X78669869Y-104773581D01*
X78629500Y-104976532D01*
X75500500Y-104976532D01*
X75500500Y-102436532D01*
X78629500Y-102436532D01*
X78629500Y-102643467D01*
X78669869Y-102846418D01*
X78749058Y-103037597D01*
X78749059Y-103037598D01*
X78864023Y-103209655D01*
X79010345Y-103355977D01*
X79182402Y-103470941D01*
X79373580Y-103550130D01*
X79576535Y-103590500D01*
X79576536Y-103590500D01*
X79783464Y-103590500D01*
X79783465Y-103590500D01*
X79986420Y-103550130D01*
X80177598Y-103470941D01*
X80349655Y-103355977D01*
X80495977Y-103209655D01*
X80610941Y-103037598D01*
X80690130Y-102846420D01*
X80730500Y-102643465D01*
X80730500Y-102436535D01*
X80730499Y-102436532D01*
X81169500Y-102436532D01*
X81169500Y-102643467D01*
X81209869Y-102846418D01*
X81289058Y-103037597D01*
X81289059Y-103037598D01*
X81404023Y-103209655D01*
X81550345Y-103355977D01*
X81722402Y-103470941D01*
X81913580Y-103550130D01*
X82116535Y-103590500D01*
X82116536Y-103590500D01*
X82323464Y-103590500D01*
X82323465Y-103590500D01*
X82526420Y-103550130D01*
X82717598Y-103470941D01*
X82889655Y-103355977D01*
X83035977Y-103209655D01*
X83150941Y-103037598D01*
X83230130Y-102846420D01*
X83270500Y-102643465D01*
X83270500Y-102436535D01*
X83230130Y-102233580D01*
X83150941Y-102042402D01*
X83035977Y-101870345D01*
X82889655Y-101724023D01*
X82889651Y-101724020D01*
X82717597Y-101609058D01*
X82526418Y-101529869D01*
X82323467Y-101489500D01*
X82323465Y-101489500D01*
X82116535Y-101489500D01*
X82116532Y-101489500D01*
X81913581Y-101529869D01*
X81722402Y-101609058D01*
X81550348Y-101724020D01*
X81404020Y-101870348D01*
X81289058Y-102042402D01*
X81209869Y-102233581D01*
X81169500Y-102436532D01*
X80730499Y-102436532D01*
X80690130Y-102233580D01*
X80610941Y-102042402D01*
X80495977Y-101870345D01*
X80349655Y-101724023D01*
X80349651Y-101724020D01*
X80177597Y-101609058D01*
X79986418Y-101529869D01*
X79783467Y-101489500D01*
X79783465Y-101489500D01*
X79576535Y-101489500D01*
X79576532Y-101489500D01*
X79373581Y-101529869D01*
X79182402Y-101609058D01*
X79010348Y-101724020D01*
X78864020Y-101870348D01*
X78749058Y-102042402D01*
X78669869Y-102233581D01*
X78629500Y-102436532D01*
X75500500Y-102436532D01*
X75500500Y-99896532D01*
X78629500Y-99896532D01*
X78629500Y-100103467D01*
X78669869Y-100306418D01*
X78749058Y-100497597D01*
X78800132Y-100574035D01*
X78864023Y-100669655D01*
X79010345Y-100815977D01*
X79182402Y-100930941D01*
X79373580Y-101010130D01*
X79576535Y-101050500D01*
X79576536Y-101050500D01*
X79783464Y-101050500D01*
X79783465Y-101050500D01*
X79986420Y-101010130D01*
X80177598Y-100930941D01*
X80349655Y-100815977D01*
X80495977Y-100669655D01*
X80610941Y-100497598D01*
X80690130Y-100306420D01*
X80730500Y-100103465D01*
X80730500Y-99896535D01*
X80730499Y-99896532D01*
X81169500Y-99896532D01*
X81169500Y-100103467D01*
X81209869Y-100306418D01*
X81289058Y-100497597D01*
X81340132Y-100574035D01*
X81404023Y-100669655D01*
X81550345Y-100815977D01*
X81722402Y-100930941D01*
X81913580Y-101010130D01*
X82116535Y-101050500D01*
X82116536Y-101050500D01*
X82323464Y-101050500D01*
X82323465Y-101050500D01*
X82526420Y-101010130D01*
X82717598Y-100930941D01*
X82889655Y-100815977D01*
X83035977Y-100669655D01*
X83150941Y-100497598D01*
X83230130Y-100306420D01*
X83270500Y-100103465D01*
X83270500Y-99896535D01*
X83230130Y-99693580D01*
X83150941Y-99502402D01*
X83035977Y-99330345D01*
X82889655Y-99184023D01*
X82889651Y-99184020D01*
X82717597Y-99069058D01*
X82526418Y-98989869D01*
X82323467Y-98949500D01*
X82323465Y-98949500D01*
X82116535Y-98949500D01*
X82116532Y-98949500D01*
X81913581Y-98989869D01*
X81722402Y-99069058D01*
X81550348Y-99184020D01*
X81404020Y-99330348D01*
X81289058Y-99502402D01*
X81209869Y-99693581D01*
X81169500Y-99896532D01*
X80730499Y-99896532D01*
X80690130Y-99693580D01*
X80610941Y-99502402D01*
X80495977Y-99330345D01*
X80349655Y-99184023D01*
X80349651Y-99184020D01*
X80177597Y-99069058D01*
X79986418Y-98989869D01*
X79783467Y-98949500D01*
X79783465Y-98949500D01*
X79576535Y-98949500D01*
X79576532Y-98949500D01*
X79373581Y-98989869D01*
X79182402Y-99069058D01*
X79010348Y-99184020D01*
X78864020Y-99330348D01*
X78749058Y-99502402D01*
X78669869Y-99693581D01*
X78629500Y-99896532D01*
X75500500Y-99896532D01*
X75500500Y-97356532D01*
X78629500Y-97356532D01*
X78629500Y-97563467D01*
X78669869Y-97766418D01*
X78749058Y-97957597D01*
X78836652Y-98088691D01*
X78864023Y-98129655D01*
X79010345Y-98275977D01*
X79182402Y-98390941D01*
X79373580Y-98470130D01*
X79576535Y-98510500D01*
X79576536Y-98510500D01*
X79783464Y-98510500D01*
X79783465Y-98510500D01*
X79986420Y-98470130D01*
X80177598Y-98390941D01*
X80349655Y-98275977D01*
X80495977Y-98129655D01*
X80610941Y-97957598D01*
X80690130Y-97766420D01*
X80730500Y-97563465D01*
X80730500Y-97356535D01*
X80730499Y-97356532D01*
X81169500Y-97356532D01*
X81169500Y-97563467D01*
X81209869Y-97766418D01*
X81289058Y-97957597D01*
X81376652Y-98088691D01*
X81404023Y-98129655D01*
X81550345Y-98275977D01*
X81722402Y-98390941D01*
X81913580Y-98470130D01*
X82116535Y-98510500D01*
X82116536Y-98510500D01*
X82323464Y-98510500D01*
X82323465Y-98510500D01*
X82526420Y-98470130D01*
X82717598Y-98390941D01*
X82889655Y-98275977D01*
X83035977Y-98129655D01*
X83150941Y-97957598D01*
X83230130Y-97766420D01*
X83270500Y-97563465D01*
X83270500Y-97356535D01*
X83230130Y-97153580D01*
X83150941Y-96962402D01*
X83035977Y-96790345D01*
X82889655Y-96644023D01*
X82784910Y-96574035D01*
X82717597Y-96529058D01*
X82526418Y-96449869D01*
X82323467Y-96409500D01*
X82323465Y-96409500D01*
X82116535Y-96409500D01*
X82116532Y-96409500D01*
X81913581Y-96449869D01*
X81722402Y-96529058D01*
X81550348Y-96644020D01*
X81404020Y-96790348D01*
X81289058Y-96962402D01*
X81209869Y-97153581D01*
X81169500Y-97356532D01*
X80730499Y-97356532D01*
X80690130Y-97153580D01*
X80610941Y-96962402D01*
X80495977Y-96790345D01*
X80349655Y-96644023D01*
X80244910Y-96574035D01*
X80177597Y-96529058D01*
X79986418Y-96449869D01*
X79783467Y-96409500D01*
X79783465Y-96409500D01*
X79576535Y-96409500D01*
X79576532Y-96409500D01*
X79373581Y-96449869D01*
X79182402Y-96529058D01*
X79010348Y-96644020D01*
X78864020Y-96790348D01*
X78749058Y-96962402D01*
X78669869Y-97153581D01*
X78629500Y-97356532D01*
X75500500Y-97356532D01*
X75500500Y-94816532D01*
X78629500Y-94816532D01*
X78629500Y-95023467D01*
X78669869Y-95226418D01*
X78749058Y-95417597D01*
X78864020Y-95589651D01*
X78864023Y-95589655D01*
X79010345Y-95735977D01*
X79182402Y-95850941D01*
X79373580Y-95930130D01*
X79576535Y-95970500D01*
X79576536Y-95970500D01*
X79783464Y-95970500D01*
X79783465Y-95970500D01*
X79986420Y-95930130D01*
X80177598Y-95850941D01*
X80349655Y-95735977D01*
X80495977Y-95589655D01*
X80610941Y-95417598D01*
X80690130Y-95226420D01*
X80730500Y-95023465D01*
X80730500Y-94816535D01*
X80690130Y-94613580D01*
X80654512Y-94527593D01*
X80649712Y-94466599D01*
X80675972Y-94419707D01*
X80996185Y-94099496D01*
X81050701Y-94071719D01*
X81066188Y-94070500D01*
X81344861Y-94070500D01*
X81403052Y-94089407D01*
X81439016Y-94138907D01*
X81439016Y-94200093D01*
X81414866Y-94239501D01*
X81404023Y-94250345D01*
X81404020Y-94250348D01*
X81289058Y-94422402D01*
X81209869Y-94613581D01*
X81169500Y-94816532D01*
X81169500Y-95023467D01*
X81209869Y-95226418D01*
X81289058Y-95417597D01*
X81404020Y-95589651D01*
X81404023Y-95589655D01*
X81550345Y-95735977D01*
X81722402Y-95850941D01*
X81913580Y-95930130D01*
X82116535Y-95970500D01*
X82116536Y-95970500D01*
X82323464Y-95970500D01*
X82323465Y-95970500D01*
X82526420Y-95930130D01*
X82717598Y-95850941D01*
X82889655Y-95735977D01*
X83035977Y-95589655D01*
X83150941Y-95417598D01*
X83230130Y-95226420D01*
X83270500Y-95023465D01*
X83270500Y-94816535D01*
X83230130Y-94613580D01*
X83150941Y-94422402D01*
X83035977Y-94250345D01*
X83025133Y-94239501D01*
X82997358Y-94184987D01*
X83006929Y-94124555D01*
X83050194Y-94081290D01*
X83095139Y-94070500D01*
X95733810Y-94070500D01*
X95792001Y-94089407D01*
X95803814Y-94099496D01*
X96970504Y-95266185D01*
X96998281Y-95320702D01*
X96999500Y-95336189D01*
X96999500Y-95365892D01*
X97029579Y-95478151D01*
X97033609Y-95493190D01*
X97099496Y-95607309D01*
X97099498Y-95607311D01*
X97099500Y-95607314D01*
X97120505Y-95628319D01*
X97148281Y-95682834D01*
X97149500Y-95698321D01*
X97149500Y-98301678D01*
X97130593Y-98359869D01*
X97120505Y-98371680D01*
X97099501Y-98392684D01*
X97099496Y-98392690D01*
X97033609Y-98506809D01*
X97032620Y-98510500D01*
X96999500Y-98634108D01*
X96999500Y-98765892D01*
X97019480Y-98840458D01*
X97033609Y-98893190D01*
X97099496Y-99007309D01*
X97099498Y-99007311D01*
X97099500Y-99007314D01*
X97120505Y-99028319D01*
X97148281Y-99082834D01*
X97149500Y-99098321D01*
X97149500Y-101801678D01*
X97130593Y-101859869D01*
X97120505Y-101871680D01*
X97099501Y-101892684D01*
X97099496Y-101892690D01*
X97033609Y-102006809D01*
X97033608Y-102006814D01*
X96999500Y-102134108D01*
X96999500Y-102265892D01*
X97029579Y-102378151D01*
X97033609Y-102393190D01*
X97099496Y-102507309D01*
X97099498Y-102507311D01*
X97099500Y-102507314D01*
X97120505Y-102528319D01*
X97148281Y-102582834D01*
X97149500Y-102598321D01*
X97149500Y-105201678D01*
X97130593Y-105259869D01*
X97120505Y-105271680D01*
X97099501Y-105292684D01*
X97099496Y-105292690D01*
X97033609Y-105406809D01*
X97033608Y-105406814D01*
X96999500Y-105534108D01*
X96999500Y-105665892D01*
X97000180Y-105668428D01*
X97033609Y-105793190D01*
X97099496Y-105907309D01*
X97099498Y-105907311D01*
X97099500Y-105907314D01*
X97192686Y-106000500D01*
X97192688Y-106000501D01*
X97192690Y-106000503D01*
X97306810Y-106066390D01*
X97306808Y-106066390D01*
X97306812Y-106066391D01*
X97306814Y-106066392D01*
X97434108Y-106100500D01*
X97434110Y-106100500D01*
X97565890Y-106100500D01*
X97565892Y-106100500D01*
X97693186Y-106066392D01*
X97693188Y-106066390D01*
X97693190Y-106066390D01*
X97807309Y-106000503D01*
X97807309Y-106000502D01*
X97807314Y-106000500D01*
X97900500Y-105907314D01*
X97907044Y-105895979D01*
X97966390Y-105793190D01*
X97966390Y-105793188D01*
X97966392Y-105793186D01*
X98000500Y-105665892D01*
X98000500Y-105534108D01*
X97966392Y-105406814D01*
X97966390Y-105406811D01*
X97966390Y-105406809D01*
X97900503Y-105292690D01*
X97900498Y-105292684D01*
X97879495Y-105271680D01*
X97851719Y-105217163D01*
X97850500Y-105201678D01*
X97850500Y-102598321D01*
X97869407Y-102540130D01*
X97879490Y-102528323D01*
X97900500Y-102507314D01*
X97941364Y-102436536D01*
X97966390Y-102393190D01*
X97966390Y-102393188D01*
X97966392Y-102393186D01*
X98000500Y-102265892D01*
X98000500Y-102134108D01*
X97966392Y-102006814D01*
X97966390Y-102006811D01*
X97966390Y-102006809D01*
X97900503Y-101892690D01*
X97900498Y-101892684D01*
X97879495Y-101871680D01*
X97851719Y-101817163D01*
X97850500Y-101801678D01*
X97850500Y-99098321D01*
X97869407Y-99040130D01*
X97879490Y-99028323D01*
X97900500Y-99007314D01*
X97933879Y-98949500D01*
X97966390Y-98893190D01*
X97966390Y-98893188D01*
X97966392Y-98893186D01*
X98000500Y-98765892D01*
X98000500Y-98634108D01*
X97966392Y-98506814D01*
X97966390Y-98506811D01*
X97966390Y-98506809D01*
X97900503Y-98392690D01*
X97900498Y-98392684D01*
X97879495Y-98371680D01*
X97851719Y-98317163D01*
X97850500Y-98301678D01*
X97850500Y-95698321D01*
X97869407Y-95640130D01*
X97879490Y-95628323D01*
X97900500Y-95607314D01*
X97904434Y-95600500D01*
X97966390Y-95493190D01*
X97966390Y-95493188D01*
X97966392Y-95493186D01*
X98000500Y-95365892D01*
X98000500Y-95234108D01*
X97966392Y-95106814D01*
X97966390Y-95106811D01*
X97966390Y-95106809D01*
X97900503Y-94992690D01*
X97900501Y-94992688D01*
X97900500Y-94992686D01*
X97807314Y-94899500D01*
X97807311Y-94899498D01*
X97807309Y-94899496D01*
X97693189Y-94833609D01*
X97693191Y-94833609D01*
X97643799Y-94820375D01*
X97565892Y-94799500D01*
X97565890Y-94799500D01*
X97536189Y-94799500D01*
X97477998Y-94780593D01*
X97466185Y-94770504D01*
X96820236Y-94124555D01*
X96135212Y-93439530D01*
X96055288Y-93393386D01*
X96055287Y-93393385D01*
X96055286Y-93393385D01*
X96043136Y-93390129D01*
X96043136Y-93390130D01*
X95966144Y-93369500D01*
X95966142Y-93369500D01*
X82954903Y-93369500D01*
X82896712Y-93350593D01*
X82860748Y-93301093D01*
X82860748Y-93239907D01*
X82887503Y-93200704D01*
X82886215Y-93199416D01*
X82889651Y-93195979D01*
X82889655Y-93195977D01*
X83035977Y-93049655D01*
X83150941Y-92877598D01*
X83230130Y-92686420D01*
X83270500Y-92483465D01*
X83270500Y-92276535D01*
X83230130Y-92073580D01*
X83150941Y-91882402D01*
X83035977Y-91710345D01*
X82889655Y-91564023D01*
X82717598Y-91449059D01*
X82717599Y-91449059D01*
X82717597Y-91449058D01*
X82526418Y-91369869D01*
X82323467Y-91329500D01*
X82323465Y-91329500D01*
X82116535Y-91329500D01*
X82116532Y-91329500D01*
X81913581Y-91369869D01*
X81722402Y-91449058D01*
X81550348Y-91564020D01*
X81404020Y-91710348D01*
X81289058Y-91882402D01*
X81209869Y-92073581D01*
X81169500Y-92276532D01*
X81169500Y-92483467D01*
X81209869Y-92686418D01*
X81289058Y-92877597D01*
X81404020Y-93049651D01*
X81404023Y-93049655D01*
X81550345Y-93195977D01*
X81550348Y-93195979D01*
X81553785Y-93199416D01*
X81552322Y-93200878D01*
X81580889Y-93245503D01*
X81577287Y-93306582D01*
X81538472Y-93353879D01*
X81485097Y-93369500D01*
X80833856Y-93369500D01*
X80756864Y-93390130D01*
X80756863Y-93390129D01*
X80744710Y-93393386D01*
X80664789Y-93439529D01*
X80664787Y-93439531D01*
X80180291Y-93924025D01*
X80125775Y-93951802D01*
X80072403Y-93945485D01*
X79986420Y-93909870D01*
X79783467Y-93869500D01*
X79783465Y-93869500D01*
X79576535Y-93869500D01*
X79576532Y-93869500D01*
X79373581Y-93909869D01*
X79182402Y-93989058D01*
X79010348Y-94104020D01*
X78864020Y-94250348D01*
X78749058Y-94422402D01*
X78669869Y-94613581D01*
X78629500Y-94816532D01*
X75500500Y-94816532D01*
X75500500Y-92276532D01*
X78629500Y-92276532D01*
X78629500Y-92483467D01*
X78669869Y-92686418D01*
X78749058Y-92877597D01*
X78864020Y-93049651D01*
X78864023Y-93049655D01*
X79010345Y-93195977D01*
X79182402Y-93310941D01*
X79373580Y-93390130D01*
X79576535Y-93430500D01*
X79576536Y-93430500D01*
X79783464Y-93430500D01*
X79783465Y-93430500D01*
X79986420Y-93390130D01*
X80177598Y-93310941D01*
X80349655Y-93195977D01*
X80495977Y-93049655D01*
X80610941Y-92877598D01*
X80690130Y-92686420D01*
X80730500Y-92483465D01*
X80730500Y-92276535D01*
X80690130Y-92073580D01*
X80610941Y-91882402D01*
X80495977Y-91710345D01*
X80349655Y-91564023D01*
X80177598Y-91449059D01*
X80177599Y-91449059D01*
X80177597Y-91449058D01*
X79986418Y-91369869D01*
X79783467Y-91329500D01*
X79783465Y-91329500D01*
X79576535Y-91329500D01*
X79576532Y-91329500D01*
X79373581Y-91369869D01*
X79182402Y-91449058D01*
X79010348Y-91564020D01*
X78864020Y-91710348D01*
X78749058Y-91882402D01*
X78669869Y-92073581D01*
X78629500Y-92276532D01*
X75500500Y-92276532D01*
X75500500Y-89736532D01*
X78629500Y-89736532D01*
X78629500Y-89943467D01*
X78669869Y-90146418D01*
X78749058Y-90337597D01*
X78749059Y-90337598D01*
X78864023Y-90509655D01*
X79010345Y-90655977D01*
X79182402Y-90770941D01*
X79373580Y-90850130D01*
X79576535Y-90890500D01*
X79576536Y-90890500D01*
X79783464Y-90890500D01*
X79783465Y-90890500D01*
X79986420Y-90850130D01*
X80177598Y-90770941D01*
X80349655Y-90655977D01*
X80495977Y-90509655D01*
X80610941Y-90337598D01*
X80690130Y-90146420D01*
X80730500Y-89943465D01*
X80730500Y-89736535D01*
X80730499Y-89736532D01*
X81169500Y-89736532D01*
X81169500Y-89943467D01*
X81209869Y-90146418D01*
X81289058Y-90337597D01*
X81289059Y-90337598D01*
X81404023Y-90509655D01*
X81550345Y-90655977D01*
X81722402Y-90770941D01*
X81913580Y-90850130D01*
X82116535Y-90890500D01*
X82116536Y-90890500D01*
X82323464Y-90890500D01*
X82323465Y-90890500D01*
X82526420Y-90850130D01*
X82717598Y-90770941D01*
X82889655Y-90655977D01*
X83035977Y-90509655D01*
X83150941Y-90337598D01*
X83230130Y-90146420D01*
X83270500Y-89943465D01*
X83270500Y-89736535D01*
X83230130Y-89533580D01*
X83150941Y-89342402D01*
X83035977Y-89170345D01*
X82889655Y-89024023D01*
X82747887Y-88929297D01*
X82717597Y-88909058D01*
X82526418Y-88829869D01*
X82323467Y-88789500D01*
X82323465Y-88789500D01*
X82116535Y-88789500D01*
X82116532Y-88789500D01*
X81913581Y-88829869D01*
X81722402Y-88909058D01*
X81550348Y-89024020D01*
X81404020Y-89170348D01*
X81289058Y-89342402D01*
X81209869Y-89533581D01*
X81169500Y-89736532D01*
X80730499Y-89736532D01*
X80690130Y-89533580D01*
X80610941Y-89342402D01*
X80495977Y-89170345D01*
X80349655Y-89024023D01*
X80207887Y-88929297D01*
X80177597Y-88909058D01*
X79986418Y-88829869D01*
X79783467Y-88789500D01*
X79783465Y-88789500D01*
X79576535Y-88789500D01*
X79576532Y-88789500D01*
X79373581Y-88829869D01*
X79182402Y-88909058D01*
X79010348Y-89024020D01*
X78864020Y-89170348D01*
X78749058Y-89342402D01*
X78669869Y-89533581D01*
X78629500Y-89736532D01*
X75500500Y-89736532D01*
X75500500Y-87196532D01*
X78629500Y-87196532D01*
X78629500Y-87403467D01*
X78669869Y-87606418D01*
X78749058Y-87797597D01*
X78749059Y-87797598D01*
X78864023Y-87969655D01*
X79010345Y-88115977D01*
X79182402Y-88230941D01*
X79373580Y-88310130D01*
X79576535Y-88350500D01*
X79576536Y-88350500D01*
X79783464Y-88350500D01*
X79783465Y-88350500D01*
X79986420Y-88310130D01*
X80177598Y-88230941D01*
X80349655Y-88115977D01*
X80495977Y-87969655D01*
X80610941Y-87797598D01*
X80690130Y-87606420D01*
X80730500Y-87403465D01*
X80730500Y-87216279D01*
X81370000Y-87216279D01*
X81370000Y-87383720D01*
X81402664Y-87547934D01*
X81466739Y-87702625D01*
X81559759Y-87841840D01*
X81678159Y-87960240D01*
X81817374Y-88053260D01*
X81972065Y-88117335D01*
X82136279Y-88149999D01*
X82136283Y-88150000D01*
X82303717Y-88150000D01*
X82303720Y-88149999D01*
X82467934Y-88117335D01*
X82622625Y-88053260D01*
X82761840Y-87960240D01*
X82880240Y-87841840D01*
X82973260Y-87702625D01*
X83037335Y-87547934D01*
X83069999Y-87383720D01*
X83070000Y-87383716D01*
X83070000Y-87216283D01*
X83069999Y-87216279D01*
X83037335Y-87052065D01*
X82973260Y-86897374D01*
X82880240Y-86758159D01*
X82761840Y-86639759D01*
X82622625Y-86546739D01*
X82467934Y-86482664D01*
X82303720Y-86450000D01*
X82136279Y-86450000D01*
X81972065Y-86482664D01*
X81817374Y-86546739D01*
X81678159Y-86639759D01*
X81559759Y-86758159D01*
X81466739Y-86897374D01*
X81402664Y-87052065D01*
X81370000Y-87216279D01*
X80730500Y-87216279D01*
X80730500Y-87196535D01*
X80690130Y-86993580D01*
X80610941Y-86802402D01*
X80495977Y-86630345D01*
X80349655Y-86484023D01*
X80349651Y-86484020D01*
X80177597Y-86369058D01*
X79986418Y-86289869D01*
X79783467Y-86249500D01*
X79783465Y-86249500D01*
X79576535Y-86249500D01*
X79576532Y-86249500D01*
X79373581Y-86289869D01*
X79182402Y-86369058D01*
X79010348Y-86484020D01*
X78864020Y-86630348D01*
X78749058Y-86802402D01*
X78669869Y-86993581D01*
X78629500Y-87196532D01*
X75500500Y-87196532D01*
X75500500Y-84656532D01*
X78629500Y-84656532D01*
X78629500Y-84863467D01*
X78669869Y-85066418D01*
X78749058Y-85257597D01*
X78749059Y-85257598D01*
X78864023Y-85429655D01*
X79010345Y-85575977D01*
X79182402Y-85690941D01*
X79373580Y-85770130D01*
X79576535Y-85810500D01*
X79576536Y-85810500D01*
X79783464Y-85810500D01*
X79783465Y-85810500D01*
X79986420Y-85770130D01*
X80177598Y-85690941D01*
X80349655Y-85575977D01*
X80495977Y-85429655D01*
X80610941Y-85257598D01*
X80690130Y-85066420D01*
X80730500Y-84863465D01*
X80730500Y-84676279D01*
X81370000Y-84676279D01*
X81370000Y-84843720D01*
X81402664Y-85007934D01*
X81466739Y-85162625D01*
X81559759Y-85301840D01*
X81678159Y-85420240D01*
X81817374Y-85513260D01*
X81972065Y-85577335D01*
X82136279Y-85609999D01*
X82136283Y-85610000D01*
X82303717Y-85610000D01*
X82303720Y-85609999D01*
X82467934Y-85577335D01*
X82622625Y-85513260D01*
X82761840Y-85420240D01*
X82880240Y-85301840D01*
X82973260Y-85162625D01*
X83037335Y-85007934D01*
X83069999Y-84843720D01*
X83070000Y-84843716D01*
X83070000Y-84676283D01*
X83069999Y-84676279D01*
X83037335Y-84512065D01*
X82973260Y-84357374D01*
X82880240Y-84218159D01*
X82761840Y-84099759D01*
X82622625Y-84006739D01*
X82467934Y-83942664D01*
X82303720Y-83910000D01*
X82136279Y-83910000D01*
X81972065Y-83942664D01*
X81817374Y-84006739D01*
X81678159Y-84099759D01*
X81559759Y-84218159D01*
X81466739Y-84357374D01*
X81402664Y-84512065D01*
X81370000Y-84676279D01*
X80730500Y-84676279D01*
X80730500Y-84656535D01*
X80690130Y-84453580D01*
X80610941Y-84262402D01*
X80495977Y-84090345D01*
X80349655Y-83944023D01*
X80349651Y-83944020D01*
X80177597Y-83829058D01*
X79986418Y-83749869D01*
X79783467Y-83709500D01*
X79783465Y-83709500D01*
X79576535Y-83709500D01*
X79576532Y-83709500D01*
X79373581Y-83749869D01*
X79182402Y-83829058D01*
X79010348Y-83944020D01*
X78864020Y-84090348D01*
X78749058Y-84262402D01*
X78669869Y-84453581D01*
X78629500Y-84656532D01*
X75500500Y-84656532D01*
X75500500Y-82116532D01*
X78629500Y-82116532D01*
X78629500Y-82323467D01*
X78669869Y-82526418D01*
X78749058Y-82717597D01*
X78864020Y-82889651D01*
X78864023Y-82889655D01*
X79010345Y-83035977D01*
X79182402Y-83150941D01*
X79373580Y-83230130D01*
X79576535Y-83270500D01*
X79576536Y-83270500D01*
X79783464Y-83270500D01*
X79783465Y-83270500D01*
X79986420Y-83230130D01*
X80177598Y-83150941D01*
X80349655Y-83035977D01*
X80495977Y-82889655D01*
X80610941Y-82717598D01*
X80690130Y-82526420D01*
X80730500Y-82323465D01*
X80730500Y-82116535D01*
X80690130Y-81913580D01*
X80610941Y-81722402D01*
X80495977Y-81550345D01*
X80349655Y-81404023D01*
X80317140Y-81382297D01*
X80298738Y-81370001D01*
X81370000Y-81370001D01*
X81370000Y-83069999D01*
X81370001Y-83070000D01*
X83069999Y-83070000D01*
X83070000Y-83069999D01*
X83070000Y-81370001D01*
X83069999Y-81370000D01*
X81370001Y-81370000D01*
X81370000Y-81370001D01*
X80298738Y-81370001D01*
X80177597Y-81289058D01*
X79986418Y-81209869D01*
X79783467Y-81169500D01*
X79783465Y-81169500D01*
X79576535Y-81169500D01*
X79576532Y-81169500D01*
X79373581Y-81209869D01*
X79182402Y-81289058D01*
X79010348Y-81404020D01*
X78864020Y-81550348D01*
X78749058Y-81722402D01*
X78669869Y-81913581D01*
X78629500Y-82116532D01*
X75500500Y-82116532D01*
X75500500Y-81040692D01*
X96624633Y-81040692D01*
X96624633Y-81213155D01*
X96639732Y-81289059D01*
X96655832Y-81370001D01*
X96658278Y-81382295D01*
X96658278Y-81382297D01*
X96724272Y-81541623D01*
X96724272Y-81541624D01*
X96820086Y-81685018D01*
X96820087Y-81685019D01*
X96942032Y-81806964D01*
X97085425Y-81902777D01*
X97244755Y-81968773D01*
X97413898Y-82002418D01*
X97413899Y-82002418D01*
X97586355Y-82002418D01*
X97586356Y-82002418D01*
X97755499Y-81968773D01*
X97914829Y-81902777D01*
X98058222Y-81806964D01*
X98180167Y-81685019D01*
X98275980Y-81541626D01*
X98341976Y-81382296D01*
X98375621Y-81213153D01*
X98375621Y-81040695D01*
X98375620Y-81040692D01*
X101624633Y-81040692D01*
X101624633Y-81213155D01*
X101639732Y-81289059D01*
X101655832Y-81370001D01*
X101658278Y-81382295D01*
X101658278Y-81382297D01*
X101724272Y-81541623D01*
X101724272Y-81541624D01*
X101820086Y-81685018D01*
X101820087Y-81685019D01*
X101942032Y-81806964D01*
X102085425Y-81902777D01*
X102244755Y-81968773D01*
X102413898Y-82002418D01*
X102413899Y-82002418D01*
X102586355Y-82002418D01*
X102586356Y-82002418D01*
X102755499Y-81968773D01*
X102914829Y-81902777D01*
X103058222Y-81806964D01*
X103180167Y-81685019D01*
X103275980Y-81541626D01*
X103341976Y-81382296D01*
X103375621Y-81213153D01*
X103375621Y-81040695D01*
X103341976Y-80871552D01*
X103275981Y-80712224D01*
X103275981Y-80712223D01*
X103180167Y-80568829D01*
X103058221Y-80446883D01*
X102914826Y-80351069D01*
X102755499Y-80285075D01*
X102586358Y-80251430D01*
X102586356Y-80251430D01*
X102413898Y-80251430D01*
X102413895Y-80251430D01*
X102244755Y-80285075D01*
X102244753Y-80285075D01*
X102085427Y-80351069D01*
X102085426Y-80351069D01*
X101942032Y-80446883D01*
X101820086Y-80568829D01*
X101724272Y-80712223D01*
X101724272Y-80712224D01*
X101658278Y-80871550D01*
X101658278Y-80871552D01*
X101624633Y-81040692D01*
X98375620Y-81040692D01*
X98341976Y-80871552D01*
X98275981Y-80712224D01*
X98275981Y-80712223D01*
X98180167Y-80568829D01*
X98058221Y-80446883D01*
X97914826Y-80351069D01*
X97755499Y-80285075D01*
X97586358Y-80251430D01*
X97586356Y-80251430D01*
X97413898Y-80251430D01*
X97413895Y-80251430D01*
X97244755Y-80285075D01*
X97244753Y-80285075D01*
X97085427Y-80351069D01*
X97085426Y-80351069D01*
X96942032Y-80446883D01*
X96820086Y-80568829D01*
X96724272Y-80712223D01*
X96724272Y-80712224D01*
X96658278Y-80871550D01*
X96658278Y-80871552D01*
X96624633Y-81040692D01*
X75500500Y-81040692D01*
X75500500Y-77878710D01*
X76149500Y-77878710D01*
X76149500Y-78121289D01*
X76181161Y-78361781D01*
X76181161Y-78361786D01*
X76243944Y-78596092D01*
X76243948Y-78596105D01*
X76336772Y-78820204D01*
X76336774Y-78820208D01*
X76336776Y-78820212D01*
X76458064Y-79030289D01*
X76458066Y-79030292D01*
X76605729Y-79222731D01*
X76605731Y-79222733D01*
X76605735Y-79222738D01*
X76777262Y-79394265D01*
X76777266Y-79394268D01*
X76777268Y-79394270D01*
X76969707Y-79541933D01*
X76969711Y-79541936D01*
X77179788Y-79663224D01*
X77403900Y-79756054D01*
X77638211Y-79818838D01*
X77878712Y-79850500D01*
X77878713Y-79850500D01*
X78121287Y-79850500D01*
X78121288Y-79850500D01*
X78361789Y-79818838D01*
X78596100Y-79756054D01*
X78820212Y-79663224D01*
X79030289Y-79541936D01*
X79222738Y-79394265D01*
X79394265Y-79222738D01*
X79541936Y-79030289D01*
X79663224Y-78820212D01*
X79756054Y-78596100D01*
X79818838Y-78361789D01*
X79850500Y-78121288D01*
X79850500Y-77893709D01*
X80649500Y-77893709D01*
X80649500Y-78106290D01*
X80682752Y-78316238D01*
X80748443Y-78518412D01*
X80844948Y-78707815D01*
X80844950Y-78707819D01*
X80969891Y-78879786D01*
X80969893Y-78879788D01*
X80969896Y-78879792D01*
X81120208Y-79030104D01*
X81120211Y-79030106D01*
X81120213Y-79030108D01*
X81292180Y-79155049D01*
X81292184Y-79155051D01*
X81481588Y-79251557D01*
X81683757Y-79317246D01*
X81683758Y-79317246D01*
X81683761Y-79317247D01*
X81893710Y-79350500D01*
X81893713Y-79350500D01*
X82106290Y-79350500D01*
X82316238Y-79317247D01*
X82316239Y-79317246D01*
X82316243Y-79317246D01*
X82518412Y-79251557D01*
X82707816Y-79155051D01*
X82879792Y-79030104D01*
X83030104Y-78879792D01*
X83155051Y-78707816D01*
X83251557Y-78518412D01*
X83317246Y-78316243D01*
X83348124Y-78121289D01*
X83350500Y-78106290D01*
X83350500Y-77893709D01*
X83317247Y-77683761D01*
X83302449Y-77638218D01*
X83251557Y-77481588D01*
X83155051Y-77292184D01*
X83155049Y-77292180D01*
X83030108Y-77120213D01*
X83030106Y-77120211D01*
X83030104Y-77120208D01*
X82879792Y-76969896D01*
X82879788Y-76969893D01*
X82879786Y-76969891D01*
X82707819Y-76844950D01*
X82707815Y-76844948D01*
X82518412Y-76748443D01*
X82316238Y-76682752D01*
X82106290Y-76649500D01*
X82106287Y-76649500D01*
X81893713Y-76649500D01*
X81893710Y-76649500D01*
X81683761Y-76682752D01*
X81481587Y-76748443D01*
X81292184Y-76844948D01*
X81292180Y-76844950D01*
X81120213Y-76969891D01*
X80969891Y-77120213D01*
X80844950Y-77292180D01*
X80844948Y-77292184D01*
X80748443Y-77481587D01*
X80682752Y-77683761D01*
X80649500Y-77893709D01*
X79850500Y-77893709D01*
X79850500Y-77878712D01*
X79818838Y-77638211D01*
X79756054Y-77403900D01*
X79663224Y-77179788D01*
X79541936Y-76969711D01*
X79394265Y-76777262D01*
X79222738Y-76605735D01*
X79222733Y-76605731D01*
X79222731Y-76605729D01*
X79030292Y-76458066D01*
X79030289Y-76458064D01*
X78820212Y-76336776D01*
X78820208Y-76336774D01*
X78820204Y-76336772D01*
X78596105Y-76243948D01*
X78596104Y-76243947D01*
X78596100Y-76243946D01*
X78361789Y-76181162D01*
X78361786Y-76181161D01*
X78361784Y-76181161D01*
X78121289Y-76149500D01*
X78121288Y-76149500D01*
X77878712Y-76149500D01*
X77878710Y-76149500D01*
X77638218Y-76181161D01*
X77638213Y-76181161D01*
X77403907Y-76243944D01*
X77403894Y-76243948D01*
X77179795Y-76336772D01*
X76969707Y-76458066D01*
X76777268Y-76605729D01*
X76605729Y-76777268D01*
X76458066Y-76969707D01*
X76336772Y-77179795D01*
X76243948Y-77403894D01*
X76243944Y-77403907D01*
X76181161Y-77638213D01*
X76181161Y-77638218D01*
X76149500Y-77878710D01*
X75500500Y-77878710D01*
X75500500Y-77248322D01*
X75519407Y-77190131D01*
X75529496Y-77178318D01*
X77178318Y-75529496D01*
X77232835Y-75501719D01*
X77248322Y-75500500D01*
X83251678Y-75500500D01*
X83309869Y-75519407D01*
G37*
%TD.AperFunction*%
%TD*%
D18*
X104900000Y-98350000D03*
X104900000Y-95000000D03*
X104900000Y-105100000D03*
X104900000Y-101600000D03*
X97500000Y-98700000D03*
X97500000Y-102200000D03*
X97500000Y-105600000D03*
X97500000Y-95300000D03*
X100450000Y-115450000D03*
X120450000Y-80450000D03*
X80450000Y-120450000D03*
X115450000Y-120450000D03*
X90450000Y-100450000D03*
X110450000Y-110450000D03*
X110450000Y-105450000D03*
X110450000Y-85450000D03*
X120450000Y-120450000D03*
X120450000Y-100450000D03*
X95450000Y-90450000D03*
X100450000Y-120450000D03*
X110450000Y-120450000D03*
X110450000Y-80450000D03*
X90450000Y-110450000D03*
X85450000Y-80450000D03*
X90450000Y-90450000D03*
X90450000Y-115450000D03*
X120450000Y-95450000D03*
X105450000Y-115450000D03*
X115450000Y-80450000D03*
X115450000Y-105450000D03*
X95450000Y-85450000D03*
X120450000Y-115450000D03*
X105450000Y-120450000D03*
X115450000Y-110450000D03*
X85450000Y-85450000D03*
X120450000Y-105450000D03*
X90450000Y-120450000D03*
X115450000Y-85450000D03*
X100450000Y-85450000D03*
X95450000Y-80450000D03*
X115450000Y-90450000D03*
X95450000Y-115450000D03*
X95450000Y-110450000D03*
X110450000Y-90450000D03*
X85450000Y-120450000D03*
X120450000Y-85450000D03*
X110450000Y-115450000D03*
X85450000Y-95450000D03*
X100450000Y-110450000D03*
X105450000Y-90450000D03*
X85450000Y-110450000D03*
X95450000Y-120450000D03*
X100450000Y-80450000D03*
X90450000Y-85450000D03*
X90450000Y-105450000D03*
X115450000Y-115450000D03*
X85450000Y-100450000D03*
X105450000Y-80450000D03*
X85450000Y-115450000D03*
X105450000Y-85450000D03*
X120450000Y-90450000D03*
X120450000Y-110450000D03*
X85450000Y-105450000D03*
X90450000Y-80450000D03*
D19*
X78000000Y-122000000D03*
X82000000Y-122000000D03*
X118000000Y-122000000D03*
X118000000Y-78000000D03*
X122000000Y-122000000D03*
X78000000Y-78000000D03*
X122000000Y-78000000D03*
X82000000Y-78000000D03*
X97500127Y-81126924D03*
X102500127Y-81126924D03*
X101000000Y-83227000D03*
X99000000Y-83227000D03*
X118800178Y-107500127D03*
X118800178Y-92499873D03*
X116700102Y-106000000D03*
X116700102Y-104000000D03*
X116700102Y-102000000D03*
X116700102Y-100000000D03*
X116700102Y-98000000D03*
X116700102Y-96000000D03*
X116700102Y-94000000D03*
X82220000Y-82220000D03*
X79680000Y-82220000D03*
X82220000Y-84760000D03*
X79680000Y-84760000D03*
X82220000Y-87300000D03*
X79680000Y-87300000D03*
X82220000Y-89840000D03*
X79680000Y-89840000D03*
X82220000Y-92380000D03*
X79680000Y-92380000D03*
X82220000Y-94920000D03*
X79680000Y-94920000D03*
X82220000Y-97460000D03*
X79680000Y-97460000D03*
X82220000Y-100000000D03*
X79680000Y-100000000D03*
X82220000Y-102540000D03*
X79680000Y-102540000D03*
X82220000Y-105080000D03*
X79680000Y-105080000D03*
X82220000Y-107620000D03*
X79680000Y-107620000D03*
X82220000Y-110160000D03*
X79680000Y-110160000D03*
X82220000Y-112700000D03*
X79680000Y-112700000D03*
X82220000Y-115240000D03*
X79680000Y-115240000D03*
X82220000Y-117780000D03*
X79680000Y-117780000D03*
M02*
