%TF.GenerationSoftware,KiCad,Pcbnew,10.0.1*%
%TF.CreationDate,2026-09-12T12:04:22+09:00*%
%TF.ProjectId,m5_spi_module,6d355f73-7069-45f6-9d6f-64756c652e6b,rev?*%
%TF.SameCoordinates,Original*%
%TF.FileFunction,Soldermask,Bot*%
%TF.FilePolarity,Negative*%
%FSLAX46Y46*%
G04 Gerber Fmt 4.6, Leading zero omitted, Abs format (unit mm)*
G04 Created by KiCad (PCBNEW 10.0.1) date 2026-09-12 12:04:22*
%MOMM*%
%LPD*%
G01*
G04 APERTURE LIST*
%ADD10C,3.200000*%
%ADD11C,2.200000*%
%ADD12C,1.249987*%
%ADD13R,1.500000X1.500000*%
%ADD14C,1.500000*%
%ADD15C,1.200000*%
%ADD16C,1.400000*%
%ADD17R,1.700000X1.700000*%
%ADD18C,1.700000*%
%ADD19C,0.350000*%
G04 APERTURE END LIST*
D10*
%TO.C,H7*%
X78000000Y-122000000D03*
%TD*%
D11*
%TO.C,H11*%
X82000000Y-122000000D03*
%TD*%
%TO.C,H12*%
X118000000Y-122000000D03*
%TD*%
%TO.C,H10*%
X118000000Y-78000000D03*
%TD*%
D10*
%TO.C,H8*%
X122000000Y-122000000D03*
%TD*%
%TO.C,H5*%
X78000000Y-78000000D03*
%TD*%
%TO.C,H6*%
X122000000Y-78000000D03*
%TD*%
D11*
%TO.C,H9*%
X82000000Y-78000000D03*
%TD*%
D12*
%TO.C,U3*%
X97500127Y-81126924D03*
X102500127Y-81126924D03*
D13*
X101000000Y-83227000D03*
D14*
X99000000Y-83227000D03*
%TD*%
D15*
%TO.C,U7*%
X118800178Y-107500127D03*
X118800178Y-92499873D03*
D16*
X116700102Y-106000000D03*
X116700102Y-104000000D03*
X116700102Y-102000000D03*
X116700102Y-100000000D03*
X116700102Y-98000000D03*
X116700102Y-96000000D03*
X116700102Y-94000000D03*
%TD*%
D17*
%TO.C,J1*%
X82220000Y-82220000D03*
D18*
X79680000Y-82220000D03*
X82220000Y-84760000D03*
X79680000Y-84760000D03*
X82220000Y-87300000D03*
X79680000Y-87300000D03*
X82220000Y-89840000D03*
X79680000Y-89840000D03*
X82220000Y-92380000D03*
X79680000Y-92380000D03*
X82220000Y-94920000D03*
X79680000Y-94920000D03*
X82220000Y-97460000D03*
X79680000Y-97460000D03*
X82220000Y-100000000D03*
X79680000Y-100000000D03*
X82220000Y-102540000D03*
X79680000Y-102540000D03*
X82220000Y-105080000D03*
X79680000Y-105080000D03*
X82220000Y-107620000D03*
X79680000Y-107620000D03*
X82220000Y-110160000D03*
X79680000Y-110160000D03*
X82220000Y-112700000D03*
X79680000Y-112700000D03*
X82220000Y-115240000D03*
X79680000Y-115240000D03*
X82220000Y-117780000D03*
X79680000Y-117780000D03*
%TD*%
D19*
X78000000Y-122000000D03*
X82000000Y-122000000D03*
X118000000Y-122000000D03*
X118000000Y-78000000D03*
X122000000Y-122000000D03*
X78000000Y-78000000D03*
X122000000Y-78000000D03*
X82000000Y-78000000D03*
X97500127Y-81126924D03*
X102500127Y-81126924D03*
X101000000Y-83227000D03*
X99000000Y-83227000D03*
X118800178Y-107500127D03*
X118800178Y-92499873D03*
X116700102Y-106000000D03*
X116700102Y-104000000D03*
X116700102Y-102000000D03*
X116700102Y-100000000D03*
X116700102Y-98000000D03*
X116700102Y-96000000D03*
X116700102Y-94000000D03*
X82220000Y-82220000D03*
X79680000Y-82220000D03*
X82220000Y-84760000D03*
X79680000Y-84760000D03*
X82220000Y-87300000D03*
X79680000Y-87300000D03*
X82220000Y-89840000D03*
X79680000Y-89840000D03*
X82220000Y-92380000D03*
X79680000Y-92380000D03*
X82220000Y-94920000D03*
X79680000Y-94920000D03*
X82220000Y-97460000D03*
X79680000Y-97460000D03*
X82220000Y-100000000D03*
X79680000Y-100000000D03*
X82220000Y-102540000D03*
X79680000Y-102540000D03*
X82220000Y-105080000D03*
X79680000Y-105080000D03*
X82220000Y-107620000D03*
X79680000Y-107620000D03*
X82220000Y-110160000D03*
X79680000Y-110160000D03*
X82220000Y-112700000D03*
X79680000Y-112700000D03*
X82220000Y-115240000D03*
X79680000Y-115240000D03*
X82220000Y-117780000D03*
X79680000Y-117780000D03*
M02*
