%TF.GenerationSoftware,KiCad,Pcbnew,10.0.1*%
%TF.CreationDate,2026-09-12T12:04:22+09:00*%
%TF.ProjectId,m5_spi_module,6d355f73-7069-45f6-9d6f-64756c652e6b,rev?*%
%TF.SameCoordinates,Original*%
%TF.FileFunction,Profile,NP*%
%FSLAX46Y46*%
G04 Gerber Fmt 4.6, Leading zero omitted, Abs format (unit mm)*
G04 Created by KiCad (PCBNEW 10.0.1) date 2026-09-12 12:04:22*
%MOMM*%
%LPD*%
G01*
G04 APERTURE LIST*
%TA.AperFunction,Profile*%
%ADD10C,0.100000*%
%TD*%
%TA.AperFunction,Profile*%
%ADD11C,0.010050*%
%TD*%
%ADD12C,0.350000*%
G04 APERTURE END LIST*
D10*
X75000000Y-77000000D02*
X75000000Y-123000000D01*
X75000000Y-123000000D02*
X77000000Y-125000000D01*
X77000000Y-75000000D02*
X75000000Y-77000000D01*
X77000000Y-125000000D02*
X123000000Y-125000000D01*
X83500000Y-75000000D02*
X77000000Y-75000000D01*
D11*
X84005025Y-75000000D02*
G75*
G02*
X83994975Y-75000000I-5025J0D01*
G01*
X83994975Y-75000000D02*
G75*
G02*
X84005025Y-75000000I5025J0D01*
G01*
D10*
X84000000Y-75500000D02*
X83500000Y-75000000D01*
X84000000Y-77500000D02*
X84000000Y-75500000D01*
D11*
X88005025Y-75000000D02*
G75*
G02*
X87994975Y-75000000I-5025J0D01*
G01*
X87994975Y-75000000D02*
G75*
G02*
X88005025Y-75000000I5025J0D01*
G01*
D10*
X88000000Y-75500000D02*
X88000000Y-77500000D01*
X88000000Y-77500000D02*
X84000000Y-77500000D01*
X88500000Y-75000000D02*
X88000000Y-75500000D01*
X123000000Y-75000000D02*
X88500000Y-75000000D01*
X123000000Y-125000000D02*
X125000000Y-123000000D01*
X125000000Y-77000000D02*
X123000000Y-75000000D01*
X125000000Y-123000000D02*
X125000000Y-77000000D01*
D12*
X78000000Y-122000000D03*
X82000000Y-122000000D03*
X118000000Y-122000000D03*
X118000000Y-78000000D03*
X122000000Y-122000000D03*
X78000000Y-78000000D03*
X122000000Y-78000000D03*
X82000000Y-78000000D03*
X97500127Y-81126924D03*
X102500127Y-81126924D03*
X101000000Y-83227000D03*
X99000000Y-83227000D03*
X118800178Y-107500127D03*
X118800178Y-92499873D03*
X116700102Y-106000000D03*
X116700102Y-104000000D03*
X116700102Y-102000000D03*
X116700102Y-100000000D03*
X116700102Y-98000000D03*
X116700102Y-96000000D03*
X116700102Y-94000000D03*
X82220000Y-82220000D03*
X79680000Y-82220000D03*
X82220000Y-84760000D03*
X79680000Y-84760000D03*
X82220000Y-87300000D03*
X79680000Y-87300000D03*
X82220000Y-89840000D03*
X79680000Y-89840000D03*
X82220000Y-92380000D03*
X79680000Y-92380000D03*
X82220000Y-94920000D03*
X79680000Y-94920000D03*
X82220000Y-97460000D03*
X79680000Y-97460000D03*
X82220000Y-100000000D03*
X79680000Y-100000000D03*
X82220000Y-102540000D03*
X79680000Y-102540000D03*
X82220000Y-105080000D03*
X79680000Y-105080000D03*
X82220000Y-107620000D03*
X79680000Y-107620000D03*
X82220000Y-110160000D03*
X79680000Y-110160000D03*
X82220000Y-112700000D03*
X79680000Y-112700000D03*
X82220000Y-115240000D03*
X79680000Y-115240000D03*
X82220000Y-117780000D03*
X79680000Y-117780000D03*
M02*
