%TF.GenerationSoftware,KiCad,Pcbnew,10.0.1*%
%TF.CreationDate,2026-08-15T02:16:28+09:00*%
%TF.ProjectId,YM2151_UNIT,594d3231-3531-45f5-954e-49542e6b6963,rev?*%
%TF.SameCoordinates,Original*%
%TF.FileFunction,Legend,Top*%
%TF.FilePolarity,Positive*%
%FSLAX46Y46*%
G04 Gerber Fmt 4.6, Leading zero omitted, Abs format (unit mm)*
G04 Created by KiCad (PCBNEW 10.0.1) date 2026-08-15 02:16:28*
%MOMM*%
%LPD*%
G01*
G04 APERTURE LIST*
%ADD10C,0.200000*%
%ADD11C,0.300000*%
%ADD12C,0.150000*%
%ADD13C,0.254001*%
%ADD14C,0.152400*%
%ADD15C,0.120000*%
%ADD16C,0.600000*%
%ADD17C,0.350000*%
G04 APERTURE END LIST*
D10*
G36*
X112744224Y-66457240D02*
G01*
X112811297Y-66524313D01*
X112846749Y-66595218D01*
X112888720Y-66763099D01*
X112888720Y-66881337D01*
X112846749Y-67049218D01*
X112811296Y-67120124D01*
X112744225Y-67187197D01*
X112639160Y-67222219D01*
X112517292Y-67222219D01*
X112517292Y-66422219D01*
X112639160Y-66422219D01*
X112744224Y-66457240D01*
G37*
G36*
X113199831Y-67533330D02*
G01*
X110110943Y-67533330D01*
X110110943Y-66750790D01*
X110222054Y-66750790D01*
X110222054Y-66893647D01*
X110222389Y-66897049D01*
X110222172Y-66898508D01*
X110223251Y-66905805D01*
X110223975Y-66913156D01*
X110224539Y-66914519D01*
X110225040Y-66917901D01*
X110272659Y-67108376D01*
X110273172Y-67109813D01*
X110273224Y-67110536D01*
X110276332Y-67118660D01*
X110279254Y-67126837D01*
X110279684Y-67127417D01*
X110280230Y-67128844D01*
X110327849Y-67224082D01*
X110333131Y-67232474D01*
X110334144Y-67234918D01*
X110336400Y-67237667D01*
X110338292Y-67240672D01*
X110340286Y-67242401D01*
X110346581Y-67250071D01*
X110441819Y-67345311D01*
X110456972Y-67357747D01*
X110460291Y-67359122D01*
X110463007Y-67361477D01*
X110480907Y-67369468D01*
X110623764Y-67417087D01*
X110633436Y-67419286D01*
X110635878Y-67420298D01*
X110639415Y-67420646D01*
X110642879Y-67421434D01*
X110645513Y-67421246D01*
X110655387Y-67422219D01*
X110750625Y-67422219D01*
X110760498Y-67421246D01*
X110763132Y-67421434D01*
X110766595Y-67420646D01*
X110770134Y-67420298D01*
X110772576Y-67419286D01*
X110782248Y-67417087D01*
X110925104Y-67369468D01*
X110943005Y-67361477D01*
X110945720Y-67359122D01*
X110949040Y-67357747D01*
X110964193Y-67345310D01*
X111011812Y-67297690D01*
X111024249Y-67282537D01*
X111039180Y-67246488D01*
X111041101Y-67226980D01*
X111041101Y-66893647D01*
X111039180Y-66874138D01*
X111024248Y-66838090D01*
X110996658Y-66810500D01*
X110960610Y-66795568D01*
X110941101Y-66793647D01*
X110750625Y-66793647D01*
X110731116Y-66795568D01*
X110695068Y-66810500D01*
X110667478Y-66838090D01*
X110652546Y-66874138D01*
X110652546Y-66913156D01*
X110667478Y-66949204D01*
X110695068Y-66976794D01*
X110731116Y-66991726D01*
X110750625Y-66993647D01*
X110841101Y-66993647D01*
X110841101Y-67185559D01*
X110839462Y-67187197D01*
X110734398Y-67222219D01*
X110671613Y-67222219D01*
X110566548Y-67187197D01*
X110499478Y-67120127D01*
X110464024Y-67049218D01*
X110422054Y-66881337D01*
X110422054Y-66763100D01*
X110464024Y-66595218D01*
X110499477Y-66524312D01*
X110566549Y-66457240D01*
X110671613Y-66422219D01*
X110774637Y-66422219D01*
X110848760Y-66459281D01*
X110867069Y-66466287D01*
X110905989Y-66469053D01*
X110943005Y-66456714D01*
X110972482Y-66431149D01*
X110989931Y-66396251D01*
X110992696Y-66357331D01*
X110980993Y-66322219D01*
X111269673Y-66322219D01*
X111269673Y-67322219D01*
X111271594Y-67341728D01*
X111286526Y-67377776D01*
X111314116Y-67405366D01*
X111350164Y-67420298D01*
X111389182Y-67420298D01*
X111425230Y-67405366D01*
X111452820Y-67377776D01*
X111467752Y-67341728D01*
X111469673Y-67322219D01*
X111469673Y-66698775D01*
X111854277Y-67371833D01*
X111857195Y-67375943D01*
X111857954Y-67377776D01*
X111859820Y-67379642D01*
X111865624Y-67387818D01*
X111876140Y-67395962D01*
X111885544Y-67405366D01*
X111891431Y-67407804D01*
X111896473Y-67411709D01*
X111909305Y-67415208D01*
X111921592Y-67420298D01*
X111927968Y-67420298D01*
X111934117Y-67421975D01*
X111947310Y-67420298D01*
X111960610Y-67420298D01*
X111966498Y-67417858D01*
X111972823Y-67417055D01*
X111984372Y-67410454D01*
X111996658Y-67405366D01*
X112001165Y-67400858D01*
X112006700Y-67397696D01*
X112014844Y-67387179D01*
X112024248Y-67377776D01*
X112026686Y-67371888D01*
X112030591Y-67366847D01*
X112034090Y-67354014D01*
X112039180Y-67341728D01*
X112040162Y-67331750D01*
X112040857Y-67329204D01*
X112040606Y-67327236D01*
X112041101Y-67322219D01*
X112041101Y-66322219D01*
X112317292Y-66322219D01*
X112317292Y-67322219D01*
X112319213Y-67341728D01*
X112334145Y-67377776D01*
X112361735Y-67405366D01*
X112397783Y-67420298D01*
X112417292Y-67422219D01*
X112655387Y-67422219D01*
X112665260Y-67421246D01*
X112667894Y-67421434D01*
X112671357Y-67420646D01*
X112674896Y-67420298D01*
X112677338Y-67419286D01*
X112687010Y-67417087D01*
X112829866Y-67369468D01*
X112847767Y-67361477D01*
X112850482Y-67359122D01*
X112853802Y-67357747D01*
X112868955Y-67345310D01*
X112964193Y-67250071D01*
X112970485Y-67242404D01*
X112972482Y-67240673D01*
X112974375Y-67237665D01*
X112976630Y-67234918D01*
X112977641Y-67232476D01*
X112982925Y-67224082D01*
X113030544Y-67128845D01*
X113031090Y-67127416D01*
X113031520Y-67126837D01*
X113034441Y-67118660D01*
X113037550Y-67110536D01*
X113037601Y-67109815D01*
X113038115Y-67108377D01*
X113085734Y-66917901D01*
X113086234Y-66914519D01*
X113086799Y-66913156D01*
X113087522Y-66905805D01*
X113088602Y-66898508D01*
X113088384Y-66897049D01*
X113088720Y-66893647D01*
X113088720Y-66750790D01*
X113088384Y-66747387D01*
X113088602Y-66745929D01*
X113087522Y-66738631D01*
X113086799Y-66731281D01*
X113086234Y-66729917D01*
X113085734Y-66726536D01*
X113038115Y-66536060D01*
X113037601Y-66534621D01*
X113037550Y-66533901D01*
X113034441Y-66525776D01*
X113031520Y-66517600D01*
X113031090Y-66517020D01*
X113030544Y-66515592D01*
X112982925Y-66420355D01*
X112977638Y-66411956D01*
X112976629Y-66409519D01*
X112974377Y-66406775D01*
X112972482Y-66403764D01*
X112970484Y-66402031D01*
X112964193Y-66394365D01*
X112868955Y-66299127D01*
X112853801Y-66286691D01*
X112850482Y-66285316D01*
X112847767Y-66282961D01*
X112829866Y-66274970D01*
X112687010Y-66227351D01*
X112677338Y-66225151D01*
X112674896Y-66224140D01*
X112671357Y-66223791D01*
X112667894Y-66223004D01*
X112665260Y-66223191D01*
X112655387Y-66222219D01*
X112417292Y-66222219D01*
X112397783Y-66224140D01*
X112361735Y-66239072D01*
X112334145Y-66266662D01*
X112319213Y-66302710D01*
X112317292Y-66322219D01*
X112041101Y-66322219D01*
X112039180Y-66302710D01*
X112024248Y-66266662D01*
X111996658Y-66239072D01*
X111960610Y-66224140D01*
X111921592Y-66224140D01*
X111885544Y-66239072D01*
X111857954Y-66266662D01*
X111843022Y-66302710D01*
X111841101Y-66322219D01*
X111841101Y-66945662D01*
X111456497Y-66272605D01*
X111453578Y-66268494D01*
X111452820Y-66266662D01*
X111450953Y-66264795D01*
X111445150Y-66256620D01*
X111434635Y-66248477D01*
X111425230Y-66239072D01*
X111419339Y-66236632D01*
X111414301Y-66232730D01*
X111401472Y-66229231D01*
X111389182Y-66224140D01*
X111382807Y-66224140D01*
X111376658Y-66222463D01*
X111363465Y-66224140D01*
X111350164Y-66224140D01*
X111344275Y-66226579D01*
X111337951Y-66227383D01*
X111326401Y-66233983D01*
X111314116Y-66239072D01*
X111309608Y-66243579D01*
X111304074Y-66246742D01*
X111295931Y-66257256D01*
X111286526Y-66266662D01*
X111284086Y-66272552D01*
X111280184Y-66277591D01*
X111276685Y-66290419D01*
X111271594Y-66302710D01*
X111270611Y-66312687D01*
X111269917Y-66315234D01*
X111270167Y-66317201D01*
X111269673Y-66322219D01*
X110980993Y-66322219D01*
X110980358Y-66320315D01*
X110954793Y-66290838D01*
X110938203Y-66280395D01*
X110842965Y-66232776D01*
X110824657Y-66225770D01*
X110821073Y-66225515D01*
X110817753Y-66224140D01*
X110798244Y-66222219D01*
X110655387Y-66222219D01*
X110645513Y-66223191D01*
X110642879Y-66223004D01*
X110639415Y-66223791D01*
X110635878Y-66224140D01*
X110633436Y-66225151D01*
X110623764Y-66227351D01*
X110480907Y-66274970D01*
X110463007Y-66282961D01*
X110460291Y-66285316D01*
X110456973Y-66286691D01*
X110441819Y-66299127D01*
X110346581Y-66394365D01*
X110340286Y-66402035D01*
X110338292Y-66403765D01*
X110336398Y-66406772D01*
X110334145Y-66409519D01*
X110333134Y-66411958D01*
X110327849Y-66420355D01*
X110280230Y-66515593D01*
X110279684Y-66517019D01*
X110279254Y-66517600D01*
X110276332Y-66525776D01*
X110273224Y-66533901D01*
X110273172Y-66534623D01*
X110272659Y-66536061D01*
X110225040Y-66726536D01*
X110224539Y-66729917D01*
X110223975Y-66731281D01*
X110223251Y-66738631D01*
X110222172Y-66745929D01*
X110222389Y-66747387D01*
X110222054Y-66750790D01*
X110110943Y-66750790D01*
X110110943Y-66111108D01*
X113199831Y-66111108D01*
X113199831Y-67533330D01*
G37*
G36*
X113104445Y-69533330D02*
G01*
X110110943Y-69533330D01*
X110110943Y-68512695D01*
X110222054Y-68512695D01*
X110222054Y-68607933D01*
X110223975Y-68627442D01*
X110225350Y-68630762D01*
X110225605Y-68634346D01*
X110232611Y-68652654D01*
X110280230Y-68747892D01*
X110285515Y-68756288D01*
X110286526Y-68758728D01*
X110288779Y-68761474D01*
X110290673Y-68764482D01*
X110292667Y-68766211D01*
X110298962Y-68773882D01*
X110346581Y-68821500D01*
X110354247Y-68827792D01*
X110355980Y-68829790D01*
X110358988Y-68831683D01*
X110361734Y-68833937D01*
X110364174Y-68834947D01*
X110372571Y-68840233D01*
X110467808Y-68887852D01*
X110469236Y-68888398D01*
X110469816Y-68888828D01*
X110477992Y-68891749D01*
X110486117Y-68894858D01*
X110486837Y-68894909D01*
X110488276Y-68895423D01*
X110668101Y-68940379D01*
X110739008Y-68975833D01*
X110763677Y-69000501D01*
X110793482Y-69060111D01*
X110793482Y-69108135D01*
X110763677Y-69167743D01*
X110739008Y-69192413D01*
X110679399Y-69222219D01*
X110481137Y-69222219D01*
X110353677Y-69179732D01*
X110334561Y-69175385D01*
X110295641Y-69178151D01*
X110260742Y-69195601D01*
X110235177Y-69225077D01*
X110222839Y-69262093D01*
X110225605Y-69301013D01*
X110243055Y-69335912D01*
X110272531Y-69361477D01*
X110290431Y-69369468D01*
X110433288Y-69417087D01*
X110442960Y-69419286D01*
X110445402Y-69420298D01*
X110448939Y-69420646D01*
X110452403Y-69421434D01*
X110455037Y-69421246D01*
X110464911Y-69422219D01*
X110703006Y-69422219D01*
X110722515Y-69420298D01*
X110725835Y-69418922D01*
X110729419Y-69418668D01*
X110747727Y-69411662D01*
X110842965Y-69364043D01*
X110851360Y-69358758D01*
X110853802Y-69357747D01*
X110856549Y-69355491D01*
X110859555Y-69353600D01*
X110861285Y-69351605D01*
X110868955Y-69345310D01*
X110916574Y-69297690D01*
X110922866Y-69290023D01*
X110924863Y-69288292D01*
X110926756Y-69285284D01*
X110929011Y-69282537D01*
X110930022Y-69280095D01*
X110935306Y-69271701D01*
X110982925Y-69176464D01*
X110989931Y-69158155D01*
X110990185Y-69154571D01*
X110991561Y-69151251D01*
X110993482Y-69131742D01*
X110993482Y-69036504D01*
X110991561Y-69016995D01*
X110990185Y-69013674D01*
X110989931Y-69010091D01*
X110982925Y-68991782D01*
X110935306Y-68896545D01*
X110930020Y-68888148D01*
X110929010Y-68885708D01*
X110926756Y-68882962D01*
X110924863Y-68879954D01*
X110922865Y-68878221D01*
X110916573Y-68870555D01*
X110868955Y-68822936D01*
X110861284Y-68816641D01*
X110859555Y-68814647D01*
X110856547Y-68812753D01*
X110853801Y-68810500D01*
X110851361Y-68809489D01*
X110842965Y-68804204D01*
X110747727Y-68756585D01*
X110746300Y-68756039D01*
X110745720Y-68755609D01*
X110737543Y-68752687D01*
X110732584Y-68750790D01*
X111174435Y-68750790D01*
X111174435Y-68893647D01*
X111174770Y-68897049D01*
X111174553Y-68898508D01*
X111175632Y-68905805D01*
X111176356Y-68913156D01*
X111176920Y-68914519D01*
X111177421Y-68917901D01*
X111225040Y-69108376D01*
X111225553Y-69109813D01*
X111225605Y-69110536D01*
X111228713Y-69118660D01*
X111231635Y-69126837D01*
X111232065Y-69127417D01*
X111232611Y-69128844D01*
X111280230Y-69224082D01*
X111285512Y-69232474D01*
X111286525Y-69234918D01*
X111288781Y-69237667D01*
X111290673Y-69240672D01*
X111292667Y-69242401D01*
X111298962Y-69250071D01*
X111394200Y-69345311D01*
X111409353Y-69357747D01*
X111412672Y-69359122D01*
X111415388Y-69361477D01*
X111433288Y-69369468D01*
X111576145Y-69417087D01*
X111585817Y-69419286D01*
X111588259Y-69420298D01*
X111591796Y-69420646D01*
X111595260Y-69421434D01*
X111597894Y-69421246D01*
X111607768Y-69422219D01*
X111703006Y-69422219D01*
X111712879Y-69421246D01*
X111715513Y-69421434D01*
X111718976Y-69420646D01*
X111722515Y-69420298D01*
X111724957Y-69419286D01*
X111734629Y-69417087D01*
X111877485Y-69369468D01*
X111895386Y-69361477D01*
X111898101Y-69359122D01*
X111901421Y-69357747D01*
X111916574Y-69345310D01*
X111964193Y-69297690D01*
X111976630Y-69282537D01*
X111991561Y-69246488D01*
X111991560Y-69207470D01*
X111976629Y-69171422D01*
X111949038Y-69143832D01*
X111912990Y-69128901D01*
X111873972Y-69128902D01*
X111837924Y-69143833D01*
X111822770Y-69156270D01*
X111791843Y-69187197D01*
X111686779Y-69222219D01*
X111623994Y-69222219D01*
X111518929Y-69187197D01*
X111451859Y-69120127D01*
X111416405Y-69049218D01*
X111374435Y-68881337D01*
X111374435Y-68763100D01*
X111416405Y-68595218D01*
X111451858Y-68524312D01*
X111518930Y-68457240D01*
X111623994Y-68422219D01*
X111686779Y-68422219D01*
X111791844Y-68457240D01*
X111822771Y-68488167D01*
X111837924Y-68500604D01*
X111873973Y-68515535D01*
X111912991Y-68515535D01*
X111949039Y-68500604D01*
X111976629Y-68473014D01*
X111991560Y-68436966D01*
X111991560Y-68397948D01*
X111976629Y-68361899D01*
X111964192Y-68346746D01*
X111939666Y-68322219D01*
X112222054Y-68322219D01*
X112222054Y-69322219D01*
X112223975Y-69341728D01*
X112238907Y-69377776D01*
X112266497Y-69405366D01*
X112302545Y-69420298D01*
X112341563Y-69420298D01*
X112377611Y-69405366D01*
X112405201Y-69377776D01*
X112420133Y-69341728D01*
X112422054Y-69322219D01*
X112422054Y-68935069D01*
X112454091Y-68903031D01*
X112813482Y-69382219D01*
X112826724Y-69396674D01*
X112860299Y-69416553D01*
X112898925Y-69422071D01*
X112936722Y-69412388D01*
X112967937Y-69388977D01*
X112987816Y-69355403D01*
X112993334Y-69316777D01*
X112983651Y-69278979D01*
X112973482Y-69262219D01*
X112596948Y-68760174D01*
X112964193Y-68392930D01*
X112976629Y-68377777D01*
X112991560Y-68341728D01*
X112991560Y-68302710D01*
X112976629Y-68266662D01*
X112949039Y-68239072D01*
X112912991Y-68224141D01*
X112873973Y-68224141D01*
X112837924Y-68239072D01*
X112822771Y-68251508D01*
X112422054Y-68652225D01*
X112422054Y-68322219D01*
X112420133Y-68302710D01*
X112405201Y-68266662D01*
X112377611Y-68239072D01*
X112341563Y-68224140D01*
X112302545Y-68224140D01*
X112266497Y-68239072D01*
X112238907Y-68266662D01*
X112223975Y-68302710D01*
X112222054Y-68322219D01*
X111939666Y-68322219D01*
X111916574Y-68299127D01*
X111901420Y-68286691D01*
X111898101Y-68285316D01*
X111895386Y-68282961D01*
X111877485Y-68274970D01*
X111734629Y-68227351D01*
X111724957Y-68225151D01*
X111722515Y-68224140D01*
X111718976Y-68223791D01*
X111715513Y-68223004D01*
X111712879Y-68223191D01*
X111703006Y-68222219D01*
X111607768Y-68222219D01*
X111597894Y-68223191D01*
X111595260Y-68223004D01*
X111591796Y-68223791D01*
X111588259Y-68224140D01*
X111585817Y-68225151D01*
X111576145Y-68227351D01*
X111433288Y-68274970D01*
X111415388Y-68282961D01*
X111412672Y-68285316D01*
X111409354Y-68286691D01*
X111394200Y-68299127D01*
X111298962Y-68394365D01*
X111292667Y-68402035D01*
X111290673Y-68403765D01*
X111288779Y-68406772D01*
X111286526Y-68409519D01*
X111285515Y-68411958D01*
X111280230Y-68420355D01*
X111232611Y-68515593D01*
X111232065Y-68517019D01*
X111231635Y-68517600D01*
X111228713Y-68525776D01*
X111225605Y-68533901D01*
X111225553Y-68534623D01*
X111225040Y-68536061D01*
X111177421Y-68726536D01*
X111176920Y-68729917D01*
X111176356Y-68731281D01*
X111175632Y-68738631D01*
X111174553Y-68745929D01*
X111174770Y-68747387D01*
X111174435Y-68750790D01*
X110732584Y-68750790D01*
X110729419Y-68749579D01*
X110728696Y-68749527D01*
X110727259Y-68749014D01*
X110547434Y-68704057D01*
X110476527Y-68668604D01*
X110451859Y-68643935D01*
X110422054Y-68584325D01*
X110422054Y-68536302D01*
X110451859Y-68476692D01*
X110476527Y-68452023D01*
X110536137Y-68422219D01*
X110734398Y-68422219D01*
X110861859Y-68464706D01*
X110880974Y-68469053D01*
X110919894Y-68466287D01*
X110954793Y-68448837D01*
X110980358Y-68419361D01*
X110992697Y-68382345D01*
X110989930Y-68343425D01*
X110972481Y-68308526D01*
X110943005Y-68282961D01*
X110925104Y-68274970D01*
X110782248Y-68227351D01*
X110772576Y-68225151D01*
X110770134Y-68224140D01*
X110766595Y-68223791D01*
X110763132Y-68223004D01*
X110760498Y-68223191D01*
X110750625Y-68222219D01*
X110512530Y-68222219D01*
X110493021Y-68224140D01*
X110489700Y-68225515D01*
X110486117Y-68225770D01*
X110467808Y-68232776D01*
X110372571Y-68280395D01*
X110364174Y-68285680D01*
X110361734Y-68286691D01*
X110358988Y-68288944D01*
X110355980Y-68290838D01*
X110354247Y-68292835D01*
X110346581Y-68299128D01*
X110298962Y-68346746D01*
X110292667Y-68354416D01*
X110290673Y-68356146D01*
X110288779Y-68359153D01*
X110286526Y-68361900D01*
X110285515Y-68364339D01*
X110280230Y-68372736D01*
X110232611Y-68467974D01*
X110225605Y-68486282D01*
X110225350Y-68489865D01*
X110223975Y-68493186D01*
X110222054Y-68512695D01*
X110110943Y-68512695D01*
X110110943Y-68111108D01*
X113104445Y-68111108D01*
X113104445Y-69533330D01*
G37*
G36*
X111533165Y-71533330D02*
G01*
X110110943Y-71533330D01*
X110110943Y-70512695D01*
X110222054Y-70512695D01*
X110222054Y-70607933D01*
X110223975Y-70627442D01*
X110225350Y-70630762D01*
X110225605Y-70634346D01*
X110232611Y-70652654D01*
X110280230Y-70747892D01*
X110285515Y-70756288D01*
X110286526Y-70758728D01*
X110288779Y-70761474D01*
X110290673Y-70764482D01*
X110292667Y-70766211D01*
X110298962Y-70773882D01*
X110346581Y-70821500D01*
X110354247Y-70827792D01*
X110355980Y-70829790D01*
X110358988Y-70831683D01*
X110361734Y-70833937D01*
X110364174Y-70834947D01*
X110372571Y-70840233D01*
X110467808Y-70887852D01*
X110469236Y-70888398D01*
X110469816Y-70888828D01*
X110477992Y-70891749D01*
X110486117Y-70894858D01*
X110486837Y-70894909D01*
X110488276Y-70895423D01*
X110668101Y-70940379D01*
X110739008Y-70975833D01*
X110763677Y-71000501D01*
X110793482Y-71060111D01*
X110793482Y-71108135D01*
X110763677Y-71167743D01*
X110739008Y-71192413D01*
X110679399Y-71222219D01*
X110481137Y-71222219D01*
X110353677Y-71179732D01*
X110334561Y-71175385D01*
X110295641Y-71178151D01*
X110260742Y-71195601D01*
X110235177Y-71225077D01*
X110222839Y-71262093D01*
X110225605Y-71301013D01*
X110243055Y-71335912D01*
X110272531Y-71361477D01*
X110290431Y-71369468D01*
X110433288Y-71417087D01*
X110442960Y-71419286D01*
X110445402Y-71420298D01*
X110448939Y-71420646D01*
X110452403Y-71421434D01*
X110455037Y-71421246D01*
X110464911Y-71422219D01*
X110703006Y-71422219D01*
X110722515Y-71420298D01*
X110725835Y-71418922D01*
X110729419Y-71418668D01*
X110747727Y-71411662D01*
X110842965Y-71364043D01*
X110851360Y-71358758D01*
X110853802Y-71357747D01*
X110856549Y-71355491D01*
X110859555Y-71353600D01*
X110861285Y-71351605D01*
X110868955Y-71345310D01*
X110916574Y-71297690D01*
X110922866Y-71290023D01*
X110924863Y-71288292D01*
X110926756Y-71285284D01*
X110929011Y-71282537D01*
X110930022Y-71280095D01*
X110935306Y-71271701D01*
X110982925Y-71176464D01*
X110989931Y-71158155D01*
X110990185Y-71154571D01*
X110991561Y-71151251D01*
X110993482Y-71131742D01*
X110993482Y-71036504D01*
X110991561Y-71016995D01*
X110990185Y-71013674D01*
X110989931Y-71010091D01*
X110982925Y-70991782D01*
X110935306Y-70896545D01*
X110930020Y-70888148D01*
X110929010Y-70885708D01*
X110926756Y-70882962D01*
X110924863Y-70879954D01*
X110922865Y-70878221D01*
X110916573Y-70870555D01*
X110868955Y-70822936D01*
X110861284Y-70816641D01*
X110859555Y-70814647D01*
X110856547Y-70812753D01*
X110853801Y-70810500D01*
X110851361Y-70809489D01*
X110842965Y-70804204D01*
X110747727Y-70756585D01*
X110746300Y-70756039D01*
X110745720Y-70755609D01*
X110737543Y-70752687D01*
X110729419Y-70749579D01*
X110728696Y-70749527D01*
X110727259Y-70749014D01*
X110547434Y-70704057D01*
X110476527Y-70668604D01*
X110451859Y-70643935D01*
X110422054Y-70584325D01*
X110422054Y-70536302D01*
X110451859Y-70476692D01*
X110476527Y-70452023D01*
X110536137Y-70422219D01*
X110734398Y-70422219D01*
X110861859Y-70464706D01*
X110880974Y-70469053D01*
X110919894Y-70466287D01*
X110954793Y-70448837D01*
X110980358Y-70419361D01*
X110992697Y-70382345D01*
X110989930Y-70343425D01*
X110979327Y-70322219D01*
X111222054Y-70322219D01*
X111222054Y-71322219D01*
X111223975Y-71341728D01*
X111238907Y-71377776D01*
X111266497Y-71405366D01*
X111302545Y-71420298D01*
X111341563Y-71420298D01*
X111377611Y-71405366D01*
X111405201Y-71377776D01*
X111420133Y-71341728D01*
X111422054Y-71322219D01*
X111422054Y-70322219D01*
X111420133Y-70302710D01*
X111405201Y-70266662D01*
X111377611Y-70239072D01*
X111341563Y-70224140D01*
X111302545Y-70224140D01*
X111266497Y-70239072D01*
X111238907Y-70266662D01*
X111223975Y-70302710D01*
X111222054Y-70322219D01*
X110979327Y-70322219D01*
X110972481Y-70308526D01*
X110943005Y-70282961D01*
X110925104Y-70274970D01*
X110782248Y-70227351D01*
X110772576Y-70225151D01*
X110770134Y-70224140D01*
X110766595Y-70223791D01*
X110763132Y-70223004D01*
X110760498Y-70223191D01*
X110750625Y-70222219D01*
X110512530Y-70222219D01*
X110493021Y-70224140D01*
X110489700Y-70225515D01*
X110486117Y-70225770D01*
X110467808Y-70232776D01*
X110372571Y-70280395D01*
X110364174Y-70285680D01*
X110361734Y-70286691D01*
X110358988Y-70288944D01*
X110355980Y-70290838D01*
X110354247Y-70292835D01*
X110346581Y-70299128D01*
X110298962Y-70346746D01*
X110292667Y-70354416D01*
X110290673Y-70356146D01*
X110288779Y-70359153D01*
X110286526Y-70361900D01*
X110285515Y-70364339D01*
X110280230Y-70372736D01*
X110232611Y-70467974D01*
X110225605Y-70486282D01*
X110225350Y-70489865D01*
X110223975Y-70493186D01*
X110222054Y-70512695D01*
X110110943Y-70512695D01*
X110110943Y-70111108D01*
X111533165Y-70111108D01*
X111533165Y-71533330D01*
G37*
G36*
X111739007Y-72452023D02*
G01*
X111803186Y-72516202D01*
X111841101Y-72667861D01*
X111841101Y-72976575D01*
X111803185Y-73128235D01*
X111739009Y-73192413D01*
X111679399Y-73222219D01*
X111536137Y-73222219D01*
X111476527Y-73192414D01*
X111412350Y-73128236D01*
X111374435Y-72976575D01*
X111374435Y-72667862D01*
X111412350Y-72516202D01*
X111476529Y-72452023D01*
X111536137Y-72422219D01*
X111679399Y-72422219D01*
X111739007Y-72452023D01*
G37*
G36*
X112152212Y-73533330D02*
G01*
X110110943Y-73533330D01*
X110110943Y-72512695D01*
X110222054Y-72512695D01*
X110222054Y-72607933D01*
X110223975Y-72627442D01*
X110225350Y-72630762D01*
X110225605Y-72634346D01*
X110232611Y-72652654D01*
X110280230Y-72747892D01*
X110285515Y-72756288D01*
X110286526Y-72758728D01*
X110288779Y-72761474D01*
X110290673Y-72764482D01*
X110292667Y-72766211D01*
X110298962Y-72773882D01*
X110346581Y-72821500D01*
X110354247Y-72827792D01*
X110355980Y-72829790D01*
X110358988Y-72831683D01*
X110361734Y-72833937D01*
X110364174Y-72834947D01*
X110372571Y-72840233D01*
X110467808Y-72887852D01*
X110469236Y-72888398D01*
X110469816Y-72888828D01*
X110477992Y-72891749D01*
X110486117Y-72894858D01*
X110486837Y-72894909D01*
X110488276Y-72895423D01*
X110668101Y-72940379D01*
X110739008Y-72975833D01*
X110763677Y-73000501D01*
X110793482Y-73060111D01*
X110793482Y-73108135D01*
X110763677Y-73167743D01*
X110739008Y-73192413D01*
X110679399Y-73222219D01*
X110481137Y-73222219D01*
X110353677Y-73179732D01*
X110334561Y-73175385D01*
X110295641Y-73178151D01*
X110260742Y-73195601D01*
X110235177Y-73225077D01*
X110222839Y-73262093D01*
X110225605Y-73301013D01*
X110243055Y-73335912D01*
X110272531Y-73361477D01*
X110290431Y-73369468D01*
X110433288Y-73417087D01*
X110442960Y-73419286D01*
X110445402Y-73420298D01*
X110448939Y-73420646D01*
X110452403Y-73421434D01*
X110455037Y-73421246D01*
X110464911Y-73422219D01*
X110703006Y-73422219D01*
X110722515Y-73420298D01*
X110725835Y-73418922D01*
X110729419Y-73418668D01*
X110747727Y-73411662D01*
X110842965Y-73364043D01*
X110851360Y-73358758D01*
X110853802Y-73357747D01*
X110856549Y-73355491D01*
X110859555Y-73353600D01*
X110861285Y-73351605D01*
X110868955Y-73345310D01*
X110916574Y-73297690D01*
X110922866Y-73290023D01*
X110924863Y-73288292D01*
X110926756Y-73285284D01*
X110929011Y-73282537D01*
X110930022Y-73280095D01*
X110935306Y-73271701D01*
X110982925Y-73176464D01*
X110989931Y-73158155D01*
X110990185Y-73154571D01*
X110991561Y-73151251D01*
X110993482Y-73131742D01*
X110993482Y-73036504D01*
X110991561Y-73016995D01*
X110990185Y-73013674D01*
X110989931Y-73010091D01*
X110982925Y-72991782D01*
X110935306Y-72896545D01*
X110930020Y-72888148D01*
X110929010Y-72885708D01*
X110926756Y-72882962D01*
X110924863Y-72879954D01*
X110922865Y-72878221D01*
X110916573Y-72870555D01*
X110868955Y-72822936D01*
X110861284Y-72816641D01*
X110859555Y-72814647D01*
X110856547Y-72812753D01*
X110853801Y-72810500D01*
X110851361Y-72809489D01*
X110842965Y-72804204D01*
X110747727Y-72756585D01*
X110746300Y-72756039D01*
X110745720Y-72755609D01*
X110737543Y-72752687D01*
X110729419Y-72749579D01*
X110728696Y-72749527D01*
X110727259Y-72749014D01*
X110547434Y-72704057D01*
X110476527Y-72668604D01*
X110463476Y-72655552D01*
X111174435Y-72655552D01*
X111174435Y-72988885D01*
X111174770Y-72992287D01*
X111174553Y-72993746D01*
X111175632Y-73001043D01*
X111176356Y-73008394D01*
X111176920Y-73009757D01*
X111177421Y-73013139D01*
X111225040Y-73203614D01*
X111231635Y-73222075D01*
X111236060Y-73228047D01*
X111238906Y-73234918D01*
X111251343Y-73250071D01*
X111346581Y-73345311D01*
X111354249Y-73351604D01*
X111355980Y-73353600D01*
X111358987Y-73355493D01*
X111361734Y-73357747D01*
X111364174Y-73358757D01*
X111372571Y-73364043D01*
X111467808Y-73411662D01*
X111486117Y-73418668D01*
X111489700Y-73418922D01*
X111493021Y-73420298D01*
X111512530Y-73422219D01*
X111703006Y-73422219D01*
X111722515Y-73420298D01*
X111725835Y-73418922D01*
X111729419Y-73418668D01*
X111747727Y-73411662D01*
X111842965Y-73364043D01*
X111851360Y-73358758D01*
X111853802Y-73357747D01*
X111856549Y-73355491D01*
X111859555Y-73353600D01*
X111861285Y-73351605D01*
X111868955Y-73345310D01*
X111964193Y-73250071D01*
X111976630Y-73234918D01*
X111979475Y-73228047D01*
X111983901Y-73222075D01*
X111990496Y-73203615D01*
X112038115Y-73013139D01*
X112038615Y-73009757D01*
X112039180Y-73008394D01*
X112039903Y-73001043D01*
X112040983Y-72993746D01*
X112040765Y-72992287D01*
X112041101Y-72988885D01*
X112041101Y-72655552D01*
X112040765Y-72652149D01*
X112040983Y-72650691D01*
X112039903Y-72643393D01*
X112039180Y-72636043D01*
X112038615Y-72634679D01*
X112038115Y-72631298D01*
X111990496Y-72440822D01*
X111983901Y-72422362D01*
X111979474Y-72416387D01*
X111976629Y-72409519D01*
X111964193Y-72394365D01*
X111868955Y-72299127D01*
X111861284Y-72292832D01*
X111859555Y-72290838D01*
X111856547Y-72288944D01*
X111853801Y-72286691D01*
X111851361Y-72285680D01*
X111842965Y-72280395D01*
X111747727Y-72232776D01*
X111729419Y-72225770D01*
X111725835Y-72225515D01*
X111722515Y-72224140D01*
X111703006Y-72222219D01*
X111512530Y-72222219D01*
X111493021Y-72224140D01*
X111489700Y-72225515D01*
X111486117Y-72225770D01*
X111467808Y-72232776D01*
X111372571Y-72280395D01*
X111364172Y-72285681D01*
X111361735Y-72286691D01*
X111358991Y-72288942D01*
X111355980Y-72290838D01*
X111354247Y-72292835D01*
X111346581Y-72299127D01*
X111251343Y-72394365D01*
X111238907Y-72409519D01*
X111236061Y-72416387D01*
X111231635Y-72422362D01*
X111225040Y-72440823D01*
X111177421Y-72631298D01*
X111176920Y-72634679D01*
X111176356Y-72636043D01*
X111175632Y-72643393D01*
X111174553Y-72650691D01*
X111174770Y-72652149D01*
X111174435Y-72655552D01*
X110463476Y-72655552D01*
X110451859Y-72643935D01*
X110422054Y-72584325D01*
X110422054Y-72536302D01*
X110451859Y-72476692D01*
X110476527Y-72452023D01*
X110536137Y-72422219D01*
X110734398Y-72422219D01*
X110861859Y-72464706D01*
X110880974Y-72469053D01*
X110919894Y-72466287D01*
X110954793Y-72448837D01*
X110980358Y-72419361D01*
X110992697Y-72382345D01*
X110989930Y-72343425D01*
X110972481Y-72308526D01*
X110943005Y-72282961D01*
X110925104Y-72274970D01*
X110782248Y-72227351D01*
X110772576Y-72225151D01*
X110770134Y-72224140D01*
X110766595Y-72223791D01*
X110763132Y-72223004D01*
X110760498Y-72223191D01*
X110750625Y-72222219D01*
X110512530Y-72222219D01*
X110493021Y-72224140D01*
X110489700Y-72225515D01*
X110486117Y-72225770D01*
X110467808Y-72232776D01*
X110372571Y-72280395D01*
X110364174Y-72285680D01*
X110361734Y-72286691D01*
X110358988Y-72288944D01*
X110355980Y-72290838D01*
X110354247Y-72292835D01*
X110346581Y-72299128D01*
X110298962Y-72346746D01*
X110292667Y-72354416D01*
X110290673Y-72356146D01*
X110288779Y-72359153D01*
X110286526Y-72361900D01*
X110285515Y-72364339D01*
X110280230Y-72372736D01*
X110232611Y-72467974D01*
X110225605Y-72486282D01*
X110225350Y-72489865D01*
X110223975Y-72493186D01*
X110222054Y-72512695D01*
X110110943Y-72512695D01*
X110110943Y-72111108D01*
X112152212Y-72111108D01*
X112152212Y-73533330D01*
G37*
G36*
X112104593Y-75533330D02*
G01*
X110110943Y-75533330D01*
X110110943Y-74750790D01*
X110222054Y-74750790D01*
X110222054Y-74893647D01*
X110222389Y-74897049D01*
X110222172Y-74898508D01*
X110223251Y-74905805D01*
X110223975Y-74913156D01*
X110224539Y-74914519D01*
X110225040Y-74917901D01*
X110272659Y-75108376D01*
X110273172Y-75109813D01*
X110273224Y-75110536D01*
X110276332Y-75118660D01*
X110279254Y-75126837D01*
X110279684Y-75127417D01*
X110280230Y-75128844D01*
X110327849Y-75224082D01*
X110333131Y-75232474D01*
X110334144Y-75234918D01*
X110336400Y-75237667D01*
X110338292Y-75240672D01*
X110340286Y-75242401D01*
X110346581Y-75250071D01*
X110441819Y-75345311D01*
X110456972Y-75357747D01*
X110460291Y-75359122D01*
X110463007Y-75361477D01*
X110480907Y-75369468D01*
X110623764Y-75417087D01*
X110633436Y-75419286D01*
X110635878Y-75420298D01*
X110639415Y-75420646D01*
X110642879Y-75421434D01*
X110645513Y-75421246D01*
X110655387Y-75422219D01*
X110750625Y-75422219D01*
X110760498Y-75421246D01*
X110763132Y-75421434D01*
X110766595Y-75420646D01*
X110770134Y-75420298D01*
X110772576Y-75419286D01*
X110782248Y-75417087D01*
X110925104Y-75369468D01*
X110943005Y-75361477D01*
X110945720Y-75359122D01*
X110949040Y-75357747D01*
X110964193Y-75345310D01*
X111011812Y-75297690D01*
X111024249Y-75282537D01*
X111039180Y-75246488D01*
X111039179Y-75207470D01*
X111024248Y-75171422D01*
X110996657Y-75143832D01*
X110960609Y-75128901D01*
X110921591Y-75128902D01*
X110885543Y-75143833D01*
X110870389Y-75156270D01*
X110839462Y-75187197D01*
X110734398Y-75222219D01*
X110671613Y-75222219D01*
X110566548Y-75187197D01*
X110499478Y-75120127D01*
X110464024Y-75049218D01*
X110422054Y-74881337D01*
X110422054Y-74763100D01*
X110464024Y-74595218D01*
X110499477Y-74524312D01*
X110566549Y-74457240D01*
X110671613Y-74422219D01*
X110734398Y-74422219D01*
X110839463Y-74457240D01*
X110870390Y-74488167D01*
X110885543Y-74500604D01*
X110921592Y-74515535D01*
X110960610Y-74515535D01*
X110967467Y-74512695D01*
X111222054Y-74512695D01*
X111222054Y-74607933D01*
X111223975Y-74627442D01*
X111225350Y-74630762D01*
X111225605Y-74634346D01*
X111232611Y-74652654D01*
X111280230Y-74747892D01*
X111285515Y-74756288D01*
X111286526Y-74758728D01*
X111288779Y-74761474D01*
X111290673Y-74764482D01*
X111292667Y-74766211D01*
X111298962Y-74773882D01*
X111346581Y-74821500D01*
X111354247Y-74827792D01*
X111355980Y-74829790D01*
X111358988Y-74831683D01*
X111361734Y-74833937D01*
X111364174Y-74834947D01*
X111372571Y-74840233D01*
X111467808Y-74887852D01*
X111469236Y-74888398D01*
X111469816Y-74888828D01*
X111477992Y-74891749D01*
X111486117Y-74894858D01*
X111486837Y-74894909D01*
X111488276Y-74895423D01*
X111668101Y-74940379D01*
X111739008Y-74975833D01*
X111763677Y-75000501D01*
X111793482Y-75060111D01*
X111793482Y-75108135D01*
X111763677Y-75167743D01*
X111739008Y-75192413D01*
X111679399Y-75222219D01*
X111481137Y-75222219D01*
X111353677Y-75179732D01*
X111334561Y-75175385D01*
X111295641Y-75178151D01*
X111260742Y-75195601D01*
X111235177Y-75225077D01*
X111222839Y-75262093D01*
X111225605Y-75301013D01*
X111243055Y-75335912D01*
X111272531Y-75361477D01*
X111290431Y-75369468D01*
X111433288Y-75417087D01*
X111442960Y-75419286D01*
X111445402Y-75420298D01*
X111448939Y-75420646D01*
X111452403Y-75421434D01*
X111455037Y-75421246D01*
X111464911Y-75422219D01*
X111703006Y-75422219D01*
X111722515Y-75420298D01*
X111725835Y-75418922D01*
X111729419Y-75418668D01*
X111747727Y-75411662D01*
X111842965Y-75364043D01*
X111851360Y-75358758D01*
X111853802Y-75357747D01*
X111856549Y-75355491D01*
X111859555Y-75353600D01*
X111861285Y-75351605D01*
X111868955Y-75345310D01*
X111916574Y-75297690D01*
X111922866Y-75290023D01*
X111924863Y-75288292D01*
X111926756Y-75285284D01*
X111929011Y-75282537D01*
X111930022Y-75280095D01*
X111935306Y-75271701D01*
X111982925Y-75176464D01*
X111989931Y-75158155D01*
X111990185Y-75154571D01*
X111991561Y-75151251D01*
X111993482Y-75131742D01*
X111993482Y-75036504D01*
X111991561Y-75016995D01*
X111990185Y-75013674D01*
X111989931Y-75010091D01*
X111982925Y-74991782D01*
X111935306Y-74896545D01*
X111930020Y-74888148D01*
X111929010Y-74885708D01*
X111926756Y-74882962D01*
X111924863Y-74879954D01*
X111922865Y-74878221D01*
X111916573Y-74870555D01*
X111868955Y-74822936D01*
X111861284Y-74816641D01*
X111859555Y-74814647D01*
X111856547Y-74812753D01*
X111853801Y-74810500D01*
X111851361Y-74809489D01*
X111842965Y-74804204D01*
X111747727Y-74756585D01*
X111746300Y-74756039D01*
X111745720Y-74755609D01*
X111737543Y-74752687D01*
X111729419Y-74749579D01*
X111728696Y-74749527D01*
X111727259Y-74749014D01*
X111547434Y-74704057D01*
X111476527Y-74668604D01*
X111451859Y-74643935D01*
X111422054Y-74584325D01*
X111422054Y-74536302D01*
X111451859Y-74476692D01*
X111476527Y-74452023D01*
X111536137Y-74422219D01*
X111734398Y-74422219D01*
X111861859Y-74464706D01*
X111880974Y-74469053D01*
X111919894Y-74466287D01*
X111954793Y-74448837D01*
X111980358Y-74419361D01*
X111992697Y-74382345D01*
X111989930Y-74343425D01*
X111972481Y-74308526D01*
X111943005Y-74282961D01*
X111925104Y-74274970D01*
X111782248Y-74227351D01*
X111772576Y-74225151D01*
X111770134Y-74224140D01*
X111766595Y-74223791D01*
X111763132Y-74223004D01*
X111760498Y-74223191D01*
X111750625Y-74222219D01*
X111512530Y-74222219D01*
X111493021Y-74224140D01*
X111489700Y-74225515D01*
X111486117Y-74225770D01*
X111467808Y-74232776D01*
X111372571Y-74280395D01*
X111364174Y-74285680D01*
X111361734Y-74286691D01*
X111358988Y-74288944D01*
X111355980Y-74290838D01*
X111354247Y-74292835D01*
X111346581Y-74299128D01*
X111298962Y-74346746D01*
X111292667Y-74354416D01*
X111290673Y-74356146D01*
X111288779Y-74359153D01*
X111286526Y-74361900D01*
X111285515Y-74364339D01*
X111280230Y-74372736D01*
X111232611Y-74467974D01*
X111225605Y-74486282D01*
X111225350Y-74489865D01*
X111223975Y-74493186D01*
X111222054Y-74512695D01*
X110967467Y-74512695D01*
X110996658Y-74500604D01*
X111024248Y-74473014D01*
X111039179Y-74436966D01*
X111039179Y-74397948D01*
X111024248Y-74361899D01*
X111011811Y-74346746D01*
X110964193Y-74299127D01*
X110949039Y-74286691D01*
X110945720Y-74285316D01*
X110943005Y-74282961D01*
X110925104Y-74274970D01*
X110782248Y-74227351D01*
X110772576Y-74225151D01*
X110770134Y-74224140D01*
X110766595Y-74223791D01*
X110763132Y-74223004D01*
X110760498Y-74223191D01*
X110750625Y-74222219D01*
X110655387Y-74222219D01*
X110645513Y-74223191D01*
X110642879Y-74223004D01*
X110639415Y-74223791D01*
X110635878Y-74224140D01*
X110633436Y-74225151D01*
X110623764Y-74227351D01*
X110480907Y-74274970D01*
X110463007Y-74282961D01*
X110460291Y-74285316D01*
X110456973Y-74286691D01*
X110441819Y-74299127D01*
X110346581Y-74394365D01*
X110340286Y-74402035D01*
X110338292Y-74403765D01*
X110336398Y-74406772D01*
X110334145Y-74409519D01*
X110333134Y-74411958D01*
X110327849Y-74420355D01*
X110280230Y-74515593D01*
X110279684Y-74517019D01*
X110279254Y-74517600D01*
X110276332Y-74525776D01*
X110273224Y-74533901D01*
X110273172Y-74534623D01*
X110272659Y-74536061D01*
X110225040Y-74726536D01*
X110224539Y-74729917D01*
X110223975Y-74731281D01*
X110223251Y-74738631D01*
X110222172Y-74745929D01*
X110222389Y-74747387D01*
X110222054Y-74750790D01*
X110110943Y-74750790D01*
X110110943Y-74111108D01*
X112104593Y-74111108D01*
X112104593Y-75533330D01*
G37*
G36*
X113294284Y-77533330D02*
G01*
X110160483Y-77533330D01*
X110160483Y-76921757D01*
X110271594Y-76921757D01*
X110271594Y-76960775D01*
X110286526Y-76996823D01*
X110314116Y-77024413D01*
X110350164Y-77039345D01*
X110369673Y-77041266D01*
X110650625Y-77041266D01*
X110650625Y-77322219D01*
X110652546Y-77341728D01*
X110667478Y-77377776D01*
X110695068Y-77405366D01*
X110731116Y-77420298D01*
X110770134Y-77420298D01*
X110806182Y-77405366D01*
X110833772Y-77377776D01*
X110848704Y-77341728D01*
X110850625Y-77322219D01*
X110850625Y-77041266D01*
X111131578Y-77041266D01*
X111151087Y-77039345D01*
X111187135Y-77024413D01*
X111214725Y-76996823D01*
X111229657Y-76960775D01*
X111229657Y-76921757D01*
X111214725Y-76885709D01*
X111187135Y-76858119D01*
X111151087Y-76843187D01*
X111131578Y-76841266D01*
X110850625Y-76841266D01*
X110850625Y-76808062D01*
X111460616Y-76808062D01*
X111462070Y-76812880D01*
X111462070Y-76817918D01*
X111467666Y-76831427D01*
X111471887Y-76845417D01*
X111475074Y-76849313D01*
X111477002Y-76853966D01*
X111487338Y-76864302D01*
X111496594Y-76875615D01*
X111501031Y-76877995D01*
X111504592Y-76881556D01*
X111518097Y-76887150D01*
X111530978Y-76894060D01*
X111535987Y-76894560D01*
X111540640Y-76896488D01*
X111555261Y-76896488D01*
X111569802Y-76897942D01*
X111574621Y-76896488D01*
X111579658Y-76896488D01*
X111593167Y-76890891D01*
X111607157Y-76886671D01*
X111611053Y-76883483D01*
X111615706Y-76881556D01*
X111630860Y-76869120D01*
X111667003Y-76832975D01*
X111726613Y-76803171D01*
X111917494Y-76803171D01*
X111977103Y-76832976D01*
X112001772Y-76857644D01*
X112031577Y-76917254D01*
X112031577Y-77108135D01*
X112001772Y-77167743D01*
X111977103Y-77192413D01*
X111917494Y-77222219D01*
X111726613Y-77222219D01*
X111667003Y-77192414D01*
X111630860Y-77156270D01*
X111615707Y-77143833D01*
X111579659Y-77128902D01*
X111540641Y-77128901D01*
X111504592Y-77143832D01*
X111477002Y-77171422D01*
X111462071Y-77207470D01*
X111462070Y-77246488D01*
X111477001Y-77282537D01*
X111489438Y-77297690D01*
X111537056Y-77345310D01*
X111544724Y-77351603D01*
X111546456Y-77353600D01*
X111549464Y-77355493D01*
X111552210Y-77357747D01*
X111554650Y-77358757D01*
X111563047Y-77364043D01*
X111658284Y-77411662D01*
X111676593Y-77418668D01*
X111680176Y-77418922D01*
X111683497Y-77420298D01*
X111703006Y-77422219D01*
X111941101Y-77422219D01*
X111960610Y-77420298D01*
X111963930Y-77418922D01*
X111967514Y-77418668D01*
X111985822Y-77411662D01*
X112081060Y-77364043D01*
X112089455Y-77358758D01*
X112091897Y-77357747D01*
X112094644Y-77355491D01*
X112097650Y-77353600D01*
X112099380Y-77351605D01*
X112107050Y-77345310D01*
X112154669Y-77297690D01*
X112160961Y-77290023D01*
X112162958Y-77288292D01*
X112164851Y-77285284D01*
X112167106Y-77282537D01*
X112168117Y-77280095D01*
X112173401Y-77271701D01*
X112221020Y-77176464D01*
X112228026Y-77158155D01*
X112228280Y-77154571D01*
X112229656Y-77151251D01*
X112231577Y-77131742D01*
X112231577Y-76893647D01*
X112229656Y-76874138D01*
X112228280Y-76870817D01*
X112228026Y-76867234D01*
X112221020Y-76848925D01*
X112173401Y-76753688D01*
X112168115Y-76745291D01*
X112167105Y-76742851D01*
X112164851Y-76740105D01*
X112162958Y-76737097D01*
X112160960Y-76735364D01*
X112154668Y-76727698D01*
X112107050Y-76680079D01*
X112099379Y-76673784D01*
X112097650Y-76671790D01*
X112094642Y-76669896D01*
X112091896Y-76667643D01*
X112089456Y-76666632D01*
X112081060Y-76661347D01*
X111985822Y-76613728D01*
X111967514Y-76606722D01*
X111963930Y-76606467D01*
X111960610Y-76605092D01*
X111941101Y-76603171D01*
X111703006Y-76603171D01*
X111683497Y-76605092D01*
X111680176Y-76606467D01*
X111679839Y-76606491D01*
X111698267Y-76422219D01*
X112083958Y-76422219D01*
X112103467Y-76420298D01*
X112139515Y-76405366D01*
X112167105Y-76377776D01*
X112182037Y-76341728D01*
X112182037Y-76334726D01*
X112318077Y-76334726D01*
X112322424Y-76353842D01*
X112655757Y-77353841D01*
X112663748Y-77371742D01*
X112668431Y-77377141D01*
X112671626Y-77383531D01*
X112681097Y-77391746D01*
X112689313Y-77401218D01*
X112695701Y-77404412D01*
X112701102Y-77409096D01*
X112713003Y-77413063D01*
X112724212Y-77418667D01*
X112731336Y-77419173D01*
X112738118Y-77421434D01*
X112750627Y-77420544D01*
X112763132Y-77421434D01*
X112769910Y-77419174D01*
X112777038Y-77418668D01*
X112788254Y-77413059D01*
X112800148Y-77409095D01*
X112805545Y-77404414D01*
X112811937Y-77401218D01*
X112820155Y-77391742D01*
X112829624Y-77383530D01*
X112832817Y-77377143D01*
X112837502Y-77371742D01*
X112845493Y-77353842D01*
X113178826Y-76353842D01*
X113183173Y-76334727D01*
X113180407Y-76295807D01*
X113162957Y-76260908D01*
X113133481Y-76235343D01*
X113096465Y-76223004D01*
X113057545Y-76225771D01*
X113022646Y-76243220D01*
X112997081Y-76272696D01*
X112989090Y-76290597D01*
X112750625Y-77005991D01*
X112512160Y-76290596D01*
X112504169Y-76272696D01*
X112478604Y-76243220D01*
X112443705Y-76225770D01*
X112404785Y-76223004D01*
X112367769Y-76235342D01*
X112338293Y-76260907D01*
X112320843Y-76295806D01*
X112318077Y-76334726D01*
X112182037Y-76334726D01*
X112182037Y-76302710D01*
X112167105Y-76266662D01*
X112139515Y-76239072D01*
X112103467Y-76224140D01*
X112083958Y-76222219D01*
X111607768Y-76222219D01*
X111600551Y-76222929D01*
X111598115Y-76222686D01*
X111595736Y-76223403D01*
X111588259Y-76224140D01*
X111574749Y-76229736D01*
X111560760Y-76233957D01*
X111556863Y-76237144D01*
X111552211Y-76239072D01*
X111541874Y-76249408D01*
X111530562Y-76258664D01*
X111528181Y-76263101D01*
X111524621Y-76266662D01*
X111519026Y-76280167D01*
X111512117Y-76293048D01*
X111510640Y-76300412D01*
X111509689Y-76302710D01*
X111509689Y-76305160D01*
X111508264Y-76312269D01*
X111460645Y-76788459D01*
X111460616Y-76808062D01*
X110850625Y-76808062D01*
X110850625Y-76560314D01*
X110848704Y-76540805D01*
X110833772Y-76504757D01*
X110806182Y-76477167D01*
X110770134Y-76462235D01*
X110731116Y-76462235D01*
X110695068Y-76477167D01*
X110667478Y-76504757D01*
X110652546Y-76540805D01*
X110650625Y-76560314D01*
X110650625Y-76841266D01*
X110369673Y-76841266D01*
X110350164Y-76843187D01*
X110314116Y-76858119D01*
X110286526Y-76885709D01*
X110271594Y-76921757D01*
X110160483Y-76921757D01*
X110160483Y-76111108D01*
X113294284Y-76111108D01*
X113294284Y-77533330D01*
G37*
G36*
X114152212Y-79533330D02*
G01*
X110160483Y-79533330D01*
X110160483Y-78921757D01*
X110271594Y-78921757D01*
X110271594Y-78960775D01*
X110286526Y-78996823D01*
X110314116Y-79024413D01*
X110350164Y-79039345D01*
X110369673Y-79041266D01*
X110650625Y-79041266D01*
X110650625Y-79322219D01*
X110652546Y-79341728D01*
X110667478Y-79377776D01*
X110695068Y-79405366D01*
X110731116Y-79420298D01*
X110770134Y-79420298D01*
X110806182Y-79405366D01*
X110833772Y-79377776D01*
X110848704Y-79341728D01*
X110850625Y-79322219D01*
X110850625Y-79041266D01*
X111131578Y-79041266D01*
X111151087Y-79039345D01*
X111187135Y-79024413D01*
X111214725Y-78996823D01*
X111229657Y-78960775D01*
X111229657Y-78921757D01*
X111214725Y-78885709D01*
X111187135Y-78858119D01*
X111151087Y-78843187D01*
X111131578Y-78841266D01*
X110850625Y-78841266D01*
X110850625Y-78560314D01*
X110848704Y-78540805D01*
X110833772Y-78504757D01*
X110806182Y-78477167D01*
X110770134Y-78462235D01*
X110731116Y-78462235D01*
X110695068Y-78477167D01*
X110667478Y-78504757D01*
X110652546Y-78540805D01*
X110650625Y-78560314D01*
X110650625Y-78841266D01*
X110369673Y-78841266D01*
X110350164Y-78843187D01*
X110314116Y-78858119D01*
X110286526Y-78885709D01*
X110271594Y-78921757D01*
X110160483Y-78921757D01*
X110160483Y-78302710D01*
X111414451Y-78302710D01*
X111414451Y-78341728D01*
X111429383Y-78377776D01*
X111456973Y-78405366D01*
X111493021Y-78420298D01*
X111512530Y-78422219D01*
X111911200Y-78422219D01*
X111722986Y-78637321D01*
X111716956Y-78645754D01*
X111715097Y-78647614D01*
X111714366Y-78649377D01*
X111711585Y-78653268D01*
X111706380Y-78668656D01*
X111700165Y-78683662D01*
X111700165Y-78687035D01*
X111699085Y-78690229D01*
X111700165Y-78706431D01*
X111700165Y-78722680D01*
X111701455Y-78725795D01*
X111701680Y-78729161D01*
X111708880Y-78743721D01*
X111715097Y-78758728D01*
X111717481Y-78761112D01*
X111718977Y-78764136D01*
X111731202Y-78774833D01*
X111742687Y-78786318D01*
X111745801Y-78787608D01*
X111748341Y-78789830D01*
X111763729Y-78795034D01*
X111778735Y-78801250D01*
X111783494Y-78801718D01*
X111785302Y-78802330D01*
X111787926Y-78802155D01*
X111798244Y-78803171D01*
X111917494Y-78803171D01*
X111977103Y-78832976D01*
X112001772Y-78857644D01*
X112031577Y-78917254D01*
X112031577Y-79108135D01*
X112001772Y-79167743D01*
X111977103Y-79192413D01*
X111917494Y-79222219D01*
X111678994Y-79222219D01*
X111619384Y-79192414D01*
X111583241Y-79156270D01*
X111568088Y-79143833D01*
X111532040Y-79128902D01*
X111493022Y-79128901D01*
X111456973Y-79143832D01*
X111429383Y-79171422D01*
X111414452Y-79207470D01*
X111414451Y-79246488D01*
X111429382Y-79282537D01*
X111441819Y-79297690D01*
X111489437Y-79345310D01*
X111497105Y-79351603D01*
X111498837Y-79353600D01*
X111501845Y-79355493D01*
X111504591Y-79357747D01*
X111507031Y-79358757D01*
X111515428Y-79364043D01*
X111610665Y-79411662D01*
X111628974Y-79418668D01*
X111632557Y-79418922D01*
X111635878Y-79420298D01*
X111655387Y-79422219D01*
X111941101Y-79422219D01*
X111960610Y-79420298D01*
X111963930Y-79418922D01*
X111967514Y-79418668D01*
X111985822Y-79411662D01*
X112081060Y-79364043D01*
X112089455Y-79358758D01*
X112091897Y-79357747D01*
X112094644Y-79355491D01*
X112097650Y-79353600D01*
X112099380Y-79351605D01*
X112107050Y-79345310D01*
X112154669Y-79297690D01*
X112160961Y-79290023D01*
X112162958Y-79288292D01*
X112164851Y-79285284D01*
X112167106Y-79282537D01*
X112168117Y-79280095D01*
X112173401Y-79271701D01*
X112221020Y-79176464D01*
X112228026Y-79158155D01*
X112228280Y-79154571D01*
X112229656Y-79151251D01*
X112231577Y-79131742D01*
X112231577Y-78893647D01*
X112229656Y-78874138D01*
X112228280Y-78870817D01*
X112228026Y-78867234D01*
X112221020Y-78848925D01*
X112173401Y-78753688D01*
X112168115Y-78745291D01*
X112167105Y-78742851D01*
X112164851Y-78740105D01*
X112162958Y-78737097D01*
X112160960Y-78735364D01*
X112154668Y-78727698D01*
X112107050Y-78680079D01*
X112099379Y-78673784D01*
X112097650Y-78671790D01*
X112094642Y-78669896D01*
X112091896Y-78667643D01*
X112089456Y-78666632D01*
X112081060Y-78661347D01*
X112002212Y-78621923D01*
X112206835Y-78388069D01*
X112212864Y-78379635D01*
X112214724Y-78377776D01*
X112215454Y-78376012D01*
X112218236Y-78372122D01*
X112223440Y-78356733D01*
X112229656Y-78341728D01*
X112229656Y-78338354D01*
X112230736Y-78335161D01*
X112230707Y-78334726D01*
X112318077Y-78334726D01*
X112322424Y-78353842D01*
X112655757Y-79353841D01*
X112663748Y-79371742D01*
X112668431Y-79377141D01*
X112671626Y-79383531D01*
X112681097Y-79391746D01*
X112689313Y-79401218D01*
X112695701Y-79404412D01*
X112701102Y-79409096D01*
X112713003Y-79413063D01*
X112724212Y-79418667D01*
X112731336Y-79419173D01*
X112738118Y-79421434D01*
X112750627Y-79420544D01*
X112763132Y-79421434D01*
X112769910Y-79419174D01*
X112777038Y-79418668D01*
X112788254Y-79413059D01*
X112800148Y-79409095D01*
X112805545Y-79404414D01*
X112811937Y-79401218D01*
X112820155Y-79391742D01*
X112829624Y-79383530D01*
X112832817Y-79377143D01*
X112837502Y-79371742D01*
X112845493Y-79353842D01*
X113178826Y-78353842D01*
X113183173Y-78334727D01*
X113180898Y-78302710D01*
X113223975Y-78302710D01*
X113223975Y-78341728D01*
X113238907Y-78377776D01*
X113266497Y-78405366D01*
X113302545Y-78420298D01*
X113322054Y-78422219D01*
X113720724Y-78422219D01*
X113532510Y-78637321D01*
X113526480Y-78645754D01*
X113524621Y-78647614D01*
X113523890Y-78649377D01*
X113521109Y-78653268D01*
X113515904Y-78668656D01*
X113509689Y-78683662D01*
X113509689Y-78687035D01*
X113508609Y-78690229D01*
X113509689Y-78706431D01*
X113509689Y-78722680D01*
X113510979Y-78725795D01*
X113511204Y-78729161D01*
X113518404Y-78743721D01*
X113524621Y-78758728D01*
X113527005Y-78761112D01*
X113528501Y-78764136D01*
X113540726Y-78774833D01*
X113552211Y-78786318D01*
X113555325Y-78787608D01*
X113557865Y-78789830D01*
X113573253Y-78795034D01*
X113588259Y-78801250D01*
X113593018Y-78801718D01*
X113594826Y-78802330D01*
X113597450Y-78802155D01*
X113607768Y-78803171D01*
X113727018Y-78803171D01*
X113786627Y-78832976D01*
X113811296Y-78857644D01*
X113841101Y-78917254D01*
X113841101Y-79108135D01*
X113811296Y-79167743D01*
X113786627Y-79192413D01*
X113727018Y-79222219D01*
X113488518Y-79222219D01*
X113428908Y-79192414D01*
X113392765Y-79156270D01*
X113377612Y-79143833D01*
X113341564Y-79128902D01*
X113302546Y-79128901D01*
X113266497Y-79143832D01*
X113238907Y-79171422D01*
X113223976Y-79207470D01*
X113223975Y-79246488D01*
X113238906Y-79282537D01*
X113251343Y-79297690D01*
X113298961Y-79345310D01*
X113306629Y-79351603D01*
X113308361Y-79353600D01*
X113311369Y-79355493D01*
X113314115Y-79357747D01*
X113316555Y-79358757D01*
X113324952Y-79364043D01*
X113420189Y-79411662D01*
X113438498Y-79418668D01*
X113442081Y-79418922D01*
X113445402Y-79420298D01*
X113464911Y-79422219D01*
X113750625Y-79422219D01*
X113770134Y-79420298D01*
X113773454Y-79418922D01*
X113777038Y-79418668D01*
X113795346Y-79411662D01*
X113890584Y-79364043D01*
X113898979Y-79358758D01*
X113901421Y-79357747D01*
X113904168Y-79355491D01*
X113907174Y-79353600D01*
X113908904Y-79351605D01*
X113916574Y-79345310D01*
X113964193Y-79297690D01*
X113970485Y-79290023D01*
X113972482Y-79288292D01*
X113974375Y-79285284D01*
X113976630Y-79282537D01*
X113977641Y-79280095D01*
X113982925Y-79271701D01*
X114030544Y-79176464D01*
X114037550Y-79158155D01*
X114037804Y-79154571D01*
X114039180Y-79151251D01*
X114041101Y-79131742D01*
X114041101Y-78893647D01*
X114039180Y-78874138D01*
X114037804Y-78870817D01*
X114037550Y-78867234D01*
X114030544Y-78848925D01*
X113982925Y-78753688D01*
X113977639Y-78745291D01*
X113976629Y-78742851D01*
X113974375Y-78740105D01*
X113972482Y-78737097D01*
X113970484Y-78735364D01*
X113964192Y-78727698D01*
X113916574Y-78680079D01*
X113908903Y-78673784D01*
X113907174Y-78671790D01*
X113904166Y-78669896D01*
X113901420Y-78667643D01*
X113898980Y-78666632D01*
X113890584Y-78661347D01*
X113811736Y-78621923D01*
X114016359Y-78388069D01*
X114022388Y-78379635D01*
X114024248Y-78377776D01*
X114024978Y-78376012D01*
X114027760Y-78372122D01*
X114032964Y-78356733D01*
X114039180Y-78341728D01*
X114039180Y-78338354D01*
X114040260Y-78335161D01*
X114039180Y-78318958D01*
X114039180Y-78302710D01*
X114037889Y-78299594D01*
X114037665Y-78296229D01*
X114030462Y-78281663D01*
X114024248Y-78266662D01*
X114021864Y-78264278D01*
X114020369Y-78261254D01*
X114008135Y-78250549D01*
X113996658Y-78239072D01*
X113993544Y-78237782D01*
X113991005Y-78235560D01*
X113975613Y-78230354D01*
X113960610Y-78224140D01*
X113955850Y-78223671D01*
X113954043Y-78223060D01*
X113951418Y-78223234D01*
X113941101Y-78222219D01*
X113322054Y-78222219D01*
X113302545Y-78224140D01*
X113266497Y-78239072D01*
X113238907Y-78266662D01*
X113223975Y-78302710D01*
X113180898Y-78302710D01*
X113180407Y-78295807D01*
X113162957Y-78260908D01*
X113133481Y-78235343D01*
X113096465Y-78223004D01*
X113057545Y-78225771D01*
X113022646Y-78243220D01*
X112997081Y-78272696D01*
X112989090Y-78290597D01*
X112750625Y-79005991D01*
X112512160Y-78290596D01*
X112504169Y-78272696D01*
X112478604Y-78243220D01*
X112443705Y-78225770D01*
X112404785Y-78223004D01*
X112367769Y-78235342D01*
X112338293Y-78260907D01*
X112320843Y-78295806D01*
X112318077Y-78334726D01*
X112230707Y-78334726D01*
X112229656Y-78318958D01*
X112229656Y-78302710D01*
X112228365Y-78299594D01*
X112228141Y-78296229D01*
X112220938Y-78281663D01*
X112214724Y-78266662D01*
X112212340Y-78264278D01*
X112210845Y-78261254D01*
X112198611Y-78250549D01*
X112187134Y-78239072D01*
X112184020Y-78237782D01*
X112181481Y-78235560D01*
X112166089Y-78230354D01*
X112151086Y-78224140D01*
X112146326Y-78223671D01*
X112144519Y-78223060D01*
X112141894Y-78223234D01*
X112131577Y-78222219D01*
X111512530Y-78222219D01*
X111493021Y-78224140D01*
X111456973Y-78239072D01*
X111429383Y-78266662D01*
X111414451Y-78302710D01*
X110160483Y-78302710D01*
X110160483Y-78111108D01*
X114152212Y-78111108D01*
X114152212Y-79533330D01*
G37*
D11*
G36*
X140679942Y-91995535D02*
G01*
X140716946Y-92032539D01*
X140761652Y-92121951D01*
X140761652Y-92265418D01*
X140716945Y-92354831D01*
X140679940Y-92391836D01*
X140590528Y-92436542D01*
X140204509Y-92436542D01*
X140204509Y-91950828D01*
X140590528Y-91950828D01*
X140679942Y-91995535D01*
G37*
G36*
X145299748Y-93617495D02*
G01*
X123523595Y-93617495D01*
X123523595Y-91797480D01*
X123690262Y-91797480D01*
X123700396Y-91855123D01*
X123713676Y-91881359D01*
X124190225Y-92630221D01*
X124190225Y-93300828D01*
X124193107Y-93330092D01*
X124215505Y-93384164D01*
X124256889Y-93425548D01*
X124310961Y-93447946D01*
X124369489Y-93447946D01*
X124423561Y-93425548D01*
X124464945Y-93384164D01*
X124487343Y-93330092D01*
X124490225Y-93300828D01*
X124490225Y-92630221D01*
X124966774Y-91881360D01*
X124980054Y-91855123D01*
X124989598Y-91800828D01*
X125190224Y-91800828D01*
X125190224Y-93300828D01*
X125193106Y-93330092D01*
X125215504Y-93384164D01*
X125256888Y-93425548D01*
X125310960Y-93447946D01*
X125369488Y-93447946D01*
X125423560Y-93425548D01*
X125464944Y-93384164D01*
X125487342Y-93330092D01*
X125490224Y-93300828D01*
X125490224Y-92476961D01*
X125704297Y-92935690D01*
X125710643Y-92946403D01*
X125711964Y-92950035D01*
X125714315Y-92952603D01*
X125719284Y-92960990D01*
X125736089Y-92976380D01*
X125751491Y-92993198D01*
X125757534Y-92996018D01*
X125762447Y-93000517D01*
X125783867Y-93008306D01*
X125804529Y-93017948D01*
X125811186Y-93018240D01*
X125817449Y-93020518D01*
X125840228Y-93019517D01*
X125862999Y-93020518D01*
X125869258Y-93018241D01*
X125875920Y-93017949D01*
X125896587Y-93008304D01*
X125918002Y-93000517D01*
X125922915Y-92996017D01*
X125928957Y-92993198D01*
X125944352Y-92976385D01*
X125961165Y-92960990D01*
X125966133Y-92952601D01*
X125968484Y-92950035D01*
X125969803Y-92946405D01*
X125976151Y-92935690D01*
X126190224Y-92476962D01*
X126190224Y-93300828D01*
X126193106Y-93330092D01*
X126215504Y-93384164D01*
X126256888Y-93425548D01*
X126310960Y-93447946D01*
X126369488Y-93447946D01*
X126423560Y-93425548D01*
X126464944Y-93384164D01*
X126487342Y-93330092D01*
X126490224Y-93300828D01*
X126490224Y-93271564D01*
X126764535Y-93271564D01*
X126764535Y-93330092D01*
X126773812Y-93352489D01*
X126786932Y-93384163D01*
X126828318Y-93425549D01*
X126858701Y-93438134D01*
X126882389Y-93447946D01*
X126911653Y-93450828D01*
X127840225Y-93450828D01*
X127869489Y-93447946D01*
X127923561Y-93425548D01*
X127964945Y-93384164D01*
X127987343Y-93330092D01*
X127987343Y-93271564D01*
X127964945Y-93217492D01*
X127923561Y-93176108D01*
X127869489Y-93153710D01*
X127840225Y-93150828D01*
X127273785Y-93150828D01*
X127874862Y-92549751D01*
X127893517Y-92527021D01*
X127895580Y-92522039D01*
X127899110Y-92517970D01*
X127911098Y-92491120D01*
X127982527Y-92276835D01*
X127985826Y-92262325D01*
X127987343Y-92258664D01*
X127987865Y-92253355D01*
X127989047Y-92248161D01*
X127988766Y-92244211D01*
X127990225Y-92229400D01*
X127990225Y-92210639D01*
X128262831Y-92210639D01*
X128266980Y-92269019D01*
X128293154Y-92321368D01*
X128337369Y-92359715D01*
X128392892Y-92378222D01*
X128451272Y-92374073D01*
X128478735Y-92363564D01*
X128621592Y-92292135D01*
X128634185Y-92284207D01*
X128637845Y-92282692D01*
X128641964Y-92279310D01*
X128646478Y-92276470D01*
X128649074Y-92273476D01*
X128660576Y-92264037D01*
X128690224Y-92234389D01*
X128690224Y-93150828D01*
X128411653Y-93150828D01*
X128382389Y-93153710D01*
X128328317Y-93176108D01*
X128286933Y-93217492D01*
X128264535Y-93271564D01*
X128264535Y-93330092D01*
X128286933Y-93384164D01*
X128328317Y-93425548D01*
X128382389Y-93447946D01*
X128411653Y-93450828D01*
X129268796Y-93450828D01*
X129298060Y-93447946D01*
X129352132Y-93425548D01*
X129393516Y-93384164D01*
X129415914Y-93330092D01*
X129415914Y-93271564D01*
X129393516Y-93217492D01*
X129352132Y-93176108D01*
X129298060Y-93153710D01*
X129268796Y-93150828D01*
X128990224Y-93150828D01*
X128990224Y-92529594D01*
X129690924Y-92529594D01*
X129693106Y-92536825D01*
X129693106Y-92544378D01*
X129701497Y-92564637D01*
X129707831Y-92585626D01*
X129712612Y-92591470D01*
X129715504Y-92598450D01*
X129731008Y-92613953D01*
X129744892Y-92630923D01*
X129751548Y-92634494D01*
X129756890Y-92639835D01*
X129777144Y-92648224D01*
X129796467Y-92658590D01*
X129803984Y-92659341D01*
X129810962Y-92662232D01*
X129832885Y-92662232D01*
X129854704Y-92664414D01*
X129861935Y-92662232D01*
X129869488Y-92662232D01*
X129889747Y-92653840D01*
X129910736Y-92647507D01*
X129916580Y-92642725D01*
X129923560Y-92639834D01*
X129946291Y-92621179D01*
X130000507Y-92566962D01*
X130089919Y-92522257D01*
X130376243Y-92522257D01*
X130465656Y-92566963D01*
X130502659Y-92603967D01*
X130547367Y-92693381D01*
X130547367Y-92979703D01*
X130502659Y-93069117D01*
X130465656Y-93106121D01*
X130376243Y-93150828D01*
X130089919Y-93150828D01*
X130000507Y-93106122D01*
X129946291Y-93051906D01*
X129923560Y-93033251D01*
X129869488Y-93010853D01*
X129810962Y-93010853D01*
X129756890Y-93033250D01*
X129715504Y-93074635D01*
X129693106Y-93128707D01*
X129693106Y-93187233D01*
X129715503Y-93241305D01*
X129734157Y-93264036D01*
X129805585Y-93335465D01*
X129817087Y-93344904D01*
X129819685Y-93347900D01*
X129824199Y-93350741D01*
X129828316Y-93354120D01*
X129831974Y-93355635D01*
X129844571Y-93363564D01*
X129987429Y-93434993D01*
X130014892Y-93445502D01*
X130020267Y-93445883D01*
X130025246Y-93447946D01*
X130054510Y-93450828D01*
X130411652Y-93450828D01*
X130440916Y-93447946D01*
X130445894Y-93445883D01*
X130451270Y-93445502D01*
X130478733Y-93434992D01*
X130621592Y-93363564D01*
X130634186Y-93355635D01*
X130637846Y-93354120D01*
X130641966Y-93350738D01*
X130646477Y-93347899D01*
X130649071Y-93344907D01*
X130660577Y-93335465D01*
X130732005Y-93264036D01*
X130741443Y-93252535D01*
X130744437Y-93249939D01*
X130747277Y-93245426D01*
X130750659Y-93241306D01*
X130752174Y-93237646D01*
X130760102Y-93225053D01*
X130831531Y-93082197D01*
X130842040Y-93054733D01*
X130842421Y-93049358D01*
X130844485Y-93044378D01*
X130847367Y-93015114D01*
X130847367Y-92657971D01*
X130844485Y-92628707D01*
X130842421Y-92623726D01*
X130842040Y-92618352D01*
X130831531Y-92590888D01*
X130760102Y-92448032D01*
X130752174Y-92435438D01*
X130750659Y-92431779D01*
X130747277Y-92427658D01*
X130744437Y-92423146D01*
X130741443Y-92420549D01*
X130732005Y-92409049D01*
X130660577Y-92337620D01*
X130649071Y-92328177D01*
X130646477Y-92325186D01*
X130641966Y-92322346D01*
X130637846Y-92318965D01*
X130634186Y-92317449D01*
X130621592Y-92309521D01*
X130478733Y-92238093D01*
X130451270Y-92227583D01*
X130445894Y-92227201D01*
X130440916Y-92225139D01*
X130411652Y-92222257D01*
X130054510Y-92222257D01*
X130025246Y-92225139D01*
X130020267Y-92227201D01*
X130019759Y-92227237D01*
X130021419Y-92210639D01*
X131119973Y-92210639D01*
X131124122Y-92269019D01*
X131150296Y-92321368D01*
X131194511Y-92359715D01*
X131250034Y-92378222D01*
X131308414Y-92374073D01*
X131335877Y-92363564D01*
X131478734Y-92292135D01*
X131491327Y-92284207D01*
X131494987Y-92282692D01*
X131499106Y-92279310D01*
X131503620Y-92276470D01*
X131506216Y-92273476D01*
X131517718Y-92264037D01*
X131547366Y-92234389D01*
X131547366Y-93150828D01*
X131268795Y-93150828D01*
X131239531Y-93153710D01*
X131185459Y-93176108D01*
X131144075Y-93217492D01*
X131121677Y-93271564D01*
X131121677Y-93330092D01*
X131144075Y-93384164D01*
X131185459Y-93425548D01*
X131239531Y-93447946D01*
X131268795Y-93450828D01*
X132125938Y-93450828D01*
X132155202Y-93447946D01*
X132209274Y-93425548D01*
X132250658Y-93384164D01*
X132273056Y-93330092D01*
X132273056Y-93271564D01*
X132250658Y-93217492D01*
X132209274Y-93176108D01*
X132155202Y-93153710D01*
X132125938Y-93150828D01*
X131847366Y-93150828D01*
X131847366Y-91800828D01*
X133761651Y-91800828D01*
X133761651Y-93015114D01*
X133764533Y-93044378D01*
X133766596Y-93049358D01*
X133766978Y-93054733D01*
X133777487Y-93082196D01*
X133848916Y-93225053D01*
X133856843Y-93237646D01*
X133858359Y-93241306D01*
X133861740Y-93245425D01*
X133864581Y-93249939D01*
X133867574Y-93252535D01*
X133877014Y-93264037D01*
X133948443Y-93335466D01*
X133959947Y-93344907D01*
X133962542Y-93347899D01*
X133967051Y-93350737D01*
X133971174Y-93354121D01*
X133974835Y-93355637D01*
X133987427Y-93363564D01*
X134130285Y-93434992D01*
X134157748Y-93445502D01*
X134163123Y-93445883D01*
X134168102Y-93447946D01*
X134197366Y-93450828D01*
X134483080Y-93450828D01*
X134512344Y-93447946D01*
X134517322Y-93445883D01*
X134522698Y-93445502D01*
X134550162Y-93434992D01*
X134693019Y-93363564D01*
X134705612Y-93355636D01*
X134709272Y-93354121D01*
X134713391Y-93350739D01*
X134717905Y-93347899D01*
X134720501Y-93344905D01*
X134732003Y-93335466D01*
X134803432Y-93264037D01*
X134812873Y-93252532D01*
X134815865Y-93249938D01*
X134818703Y-93245428D01*
X134822087Y-93241306D01*
X134823603Y-93237644D01*
X134831530Y-93225053D01*
X134902958Y-93082195D01*
X134913468Y-93054732D01*
X134913849Y-93049356D01*
X134915912Y-93044378D01*
X134918794Y-93015114D01*
X134918794Y-91800828D01*
X135333080Y-91800828D01*
X135333080Y-93300828D01*
X135335962Y-93330092D01*
X135358360Y-93384164D01*
X135399744Y-93425548D01*
X135453816Y-93447946D01*
X135512344Y-93447946D01*
X135566416Y-93425548D01*
X135607800Y-93384164D01*
X135630198Y-93330092D01*
X135633080Y-93300828D01*
X135633080Y-92365661D01*
X136209987Y-93375249D01*
X136214364Y-93381416D01*
X136215503Y-93384164D01*
X136218302Y-93386963D01*
X136227008Y-93399227D01*
X136242781Y-93411442D01*
X136256887Y-93425548D01*
X136265720Y-93429206D01*
X136273282Y-93435063D01*
X136292530Y-93440312D01*
X136310959Y-93447946D01*
X136320521Y-93447946D01*
X136329746Y-93450462D01*
X136349537Y-93447946D01*
X136369487Y-93447946D01*
X136378320Y-93444286D01*
X136387806Y-93443081D01*
X136405128Y-93433182D01*
X136423559Y-93425548D01*
X136430319Y-93418787D01*
X136438622Y-93414043D01*
X136450835Y-93398271D01*
X136464943Y-93384164D01*
X136468602Y-93375328D01*
X136474457Y-93367769D01*
X136479705Y-93348524D01*
X136487341Y-93330092D01*
X136488814Y-93315127D01*
X136489857Y-93311306D01*
X136489481Y-93308354D01*
X136490223Y-93300828D01*
X136490223Y-91800828D01*
X136904509Y-91800828D01*
X136904509Y-93300828D01*
X136907391Y-93330092D01*
X136929789Y-93384164D01*
X136971173Y-93425548D01*
X137025245Y-93447946D01*
X137083773Y-93447946D01*
X137137845Y-93425548D01*
X137179229Y-93384164D01*
X137201627Y-93330092D01*
X137204509Y-93300828D01*
X137204509Y-91800828D01*
X137201627Y-91771564D01*
X137407392Y-91771564D01*
X137407392Y-91830092D01*
X137429790Y-91884164D01*
X137471174Y-91925548D01*
X137525246Y-91947946D01*
X137554510Y-91950828D01*
X137833081Y-91950828D01*
X137833081Y-93300828D01*
X137835963Y-93330092D01*
X137858361Y-93384164D01*
X137899745Y-93425548D01*
X137953817Y-93447946D01*
X138012345Y-93447946D01*
X138066417Y-93425548D01*
X138107801Y-93384164D01*
X138130199Y-93330092D01*
X138133081Y-93300828D01*
X138133081Y-91950828D01*
X138411653Y-91950828D01*
X138440917Y-91947946D01*
X138494989Y-91925548D01*
X138536373Y-91884164D01*
X138558771Y-91830092D01*
X138558771Y-91800828D01*
X139904509Y-91800828D01*
X139904509Y-93300828D01*
X139907391Y-93330092D01*
X139929789Y-93384164D01*
X139971173Y-93425548D01*
X140025245Y-93447946D01*
X140083773Y-93447946D01*
X140137845Y-93425548D01*
X140179229Y-93384164D01*
X140201627Y-93330092D01*
X140204509Y-93300828D01*
X140204509Y-92736542D01*
X140333554Y-92736542D01*
X140788767Y-93386847D01*
X140807910Y-93409169D01*
X140857267Y-93440622D01*
X140914903Y-93450793D01*
X140972045Y-93438134D01*
X141019993Y-93404570D01*
X141051446Y-93355213D01*
X141061617Y-93297577D01*
X141048958Y-93240435D01*
X141034537Y-93214809D01*
X140689585Y-92722020D01*
X140693020Y-92720706D01*
X140835877Y-92649278D01*
X140848470Y-92641350D01*
X140852130Y-92639835D01*
X140856249Y-92636453D01*
X140860763Y-92633613D01*
X140863359Y-92630619D01*
X140874861Y-92621180D01*
X140946290Y-92549751D01*
X140955731Y-92538246D01*
X140958723Y-92535652D01*
X140961561Y-92531142D01*
X140964945Y-92527020D01*
X140966461Y-92523358D01*
X140974388Y-92510767D01*
X141045816Y-92367909D01*
X141056326Y-92340446D01*
X141056707Y-92335070D01*
X141058770Y-92330092D01*
X141061652Y-92300828D01*
X141061652Y-92086542D01*
X141058770Y-92057278D01*
X141056707Y-92052299D01*
X141056326Y-92046924D01*
X141045816Y-92019461D01*
X140974388Y-91876603D01*
X140966459Y-91864008D01*
X140964944Y-91860349D01*
X140961562Y-91856228D01*
X140958723Y-91851718D01*
X140955731Y-91849123D01*
X140946289Y-91837618D01*
X140909498Y-91800828D01*
X141404509Y-91800828D01*
X141404509Y-93300828D01*
X141407391Y-93330091D01*
X141407391Y-93330092D01*
X141429789Y-93384164D01*
X141471173Y-93425548D01*
X141525245Y-93447946D01*
X141554509Y-93450828D01*
X142268795Y-93450828D01*
X142298059Y-93447946D01*
X142352131Y-93425548D01*
X142393515Y-93384164D01*
X142415913Y-93330092D01*
X142415913Y-93271564D01*
X142393515Y-93217492D01*
X142352131Y-93176108D01*
X142298059Y-93153710D01*
X142268795Y-93150828D01*
X141704509Y-93150828D01*
X141704509Y-92665114D01*
X142054509Y-92665114D01*
X142083773Y-92662232D01*
X142137845Y-92639834D01*
X142179229Y-92598450D01*
X142201627Y-92544378D01*
X142201627Y-92485850D01*
X142179229Y-92431778D01*
X142137845Y-92390394D01*
X142083773Y-92367996D01*
X142054509Y-92365114D01*
X141704509Y-92365114D01*
X141704509Y-91950828D01*
X142268795Y-91950828D01*
X142298059Y-91947946D01*
X142352131Y-91925548D01*
X142393515Y-91884164D01*
X142415913Y-91830092D01*
X142415913Y-91819589D01*
X142548545Y-91819589D01*
X142555065Y-91848262D01*
X143055065Y-93348262D01*
X143067053Y-93375113D01*
X143074075Y-93383210D01*
X143078868Y-93392795D01*
X143093074Y-93405116D01*
X143105400Y-93419328D01*
X143114987Y-93424121D01*
X143123082Y-93431142D01*
X143140924Y-93437089D01*
X143157748Y-93445501D01*
X143168438Y-93446260D01*
X143178606Y-93449650D01*
X143197362Y-93448317D01*
X143216128Y-93449651D01*
X143226298Y-93446260D01*
X143236987Y-93445501D01*
X143253808Y-93437090D01*
X143271652Y-93431142D01*
X143279748Y-93424119D01*
X143289334Y-93419327D01*
X143301657Y-93405118D01*
X143315866Y-93392795D01*
X143320658Y-93383209D01*
X143327681Y-93375113D01*
X143339669Y-93348262D01*
X143365235Y-93271564D01*
X143907391Y-93271564D01*
X143907391Y-93330092D01*
X143916668Y-93352489D01*
X143929788Y-93384163D01*
X143971174Y-93425549D01*
X144001557Y-93438134D01*
X144025245Y-93447946D01*
X144054509Y-93450828D01*
X144983081Y-93450828D01*
X145012345Y-93447946D01*
X145066417Y-93425548D01*
X145107801Y-93384164D01*
X145130199Y-93330092D01*
X145130199Y-93271564D01*
X145107801Y-93217492D01*
X145066417Y-93176108D01*
X145012345Y-93153710D01*
X144983081Y-93150828D01*
X144416641Y-93150828D01*
X145017718Y-92549751D01*
X145036373Y-92527021D01*
X145038436Y-92522039D01*
X145041966Y-92517970D01*
X145053954Y-92491120D01*
X145125383Y-92276835D01*
X145128682Y-92262325D01*
X145130199Y-92258664D01*
X145130721Y-92253355D01*
X145131903Y-92248161D01*
X145131622Y-92244211D01*
X145133081Y-92229400D01*
X145133081Y-92086542D01*
X145130199Y-92057278D01*
X145128135Y-92052297D01*
X145127754Y-92046923D01*
X145117245Y-92019459D01*
X145045816Y-91876603D01*
X145037889Y-91864011D01*
X145036373Y-91860349D01*
X145032989Y-91856226D01*
X145030151Y-91851717D01*
X145027158Y-91849121D01*
X145017718Y-91837619D01*
X144946290Y-91766191D01*
X144934788Y-91756751D01*
X144932192Y-91753758D01*
X144927678Y-91750917D01*
X144923559Y-91747536D01*
X144919899Y-91746020D01*
X144907306Y-91738093D01*
X144764448Y-91666664D01*
X144736985Y-91656154D01*
X144731607Y-91655771D01*
X144726630Y-91653710D01*
X144697366Y-91650828D01*
X144340224Y-91650828D01*
X144310960Y-91653710D01*
X144305982Y-91655771D01*
X144300605Y-91656154D01*
X144273142Y-91666664D01*
X144130284Y-91738093D01*
X144117692Y-91746019D01*
X144114030Y-91747536D01*
X144109907Y-91750919D01*
X144105398Y-91753758D01*
X144102802Y-91756750D01*
X144091300Y-91766191D01*
X144019872Y-91837619D01*
X144001217Y-91860350D01*
X143978820Y-91914422D01*
X143978820Y-91972948D01*
X144001217Y-92027020D01*
X144042603Y-92068406D01*
X144096675Y-92090803D01*
X144155201Y-92090803D01*
X144209273Y-92068406D01*
X144232004Y-92049751D01*
X144286220Y-91995535D01*
X144375634Y-91950828D01*
X144661956Y-91950828D01*
X144751370Y-91995535D01*
X144788374Y-92032539D01*
X144833081Y-92121952D01*
X144833081Y-92205059D01*
X144780547Y-92362657D01*
X143948443Y-93194762D01*
X143929788Y-93217493D01*
X143917085Y-93248162D01*
X143907391Y-93271564D01*
X143365235Y-93271564D01*
X143839670Y-91848262D01*
X143846190Y-91819588D01*
X143842040Y-91761208D01*
X143815866Y-91708861D01*
X143771652Y-91670514D01*
X143716128Y-91652005D01*
X143657748Y-91656155D01*
X143605400Y-91682328D01*
X143567053Y-91726543D01*
X143555065Y-91753394D01*
X143197367Y-92826486D01*
X142839669Y-91753394D01*
X142827681Y-91726543D01*
X142789334Y-91682329D01*
X142736987Y-91656155D01*
X142678606Y-91652006D01*
X142623082Y-91670514D01*
X142578868Y-91708861D01*
X142552694Y-91761208D01*
X142548545Y-91819589D01*
X142415913Y-91819589D01*
X142415913Y-91771564D01*
X142393515Y-91717492D01*
X142352131Y-91676108D01*
X142298059Y-91653710D01*
X142268795Y-91650828D01*
X141554509Y-91650828D01*
X141525245Y-91653710D01*
X141471173Y-91676108D01*
X141429789Y-91717492D01*
X141407391Y-91771564D01*
X141404509Y-91800828D01*
X140909498Y-91800828D01*
X140874860Y-91766190D01*
X140863360Y-91756752D01*
X140860763Y-91753758D01*
X140856246Y-91750915D01*
X140852129Y-91747536D01*
X140848472Y-91746021D01*
X140835877Y-91738093D01*
X140693020Y-91666664D01*
X140665557Y-91656155D01*
X140660182Y-91655773D01*
X140655202Y-91653710D01*
X140625938Y-91650828D01*
X140054509Y-91650828D01*
X140025245Y-91653710D01*
X139971173Y-91676108D01*
X139929789Y-91717492D01*
X139907391Y-91771564D01*
X139904509Y-91800828D01*
X138558771Y-91800828D01*
X138558771Y-91771564D01*
X138536373Y-91717492D01*
X138494989Y-91676108D01*
X138440917Y-91653710D01*
X138411653Y-91650828D01*
X137554510Y-91650828D01*
X137525246Y-91653710D01*
X137471174Y-91676108D01*
X137429790Y-91717492D01*
X137407392Y-91771564D01*
X137201627Y-91771564D01*
X137179229Y-91717492D01*
X137137845Y-91676108D01*
X137083773Y-91653710D01*
X137025245Y-91653710D01*
X136971173Y-91676108D01*
X136929789Y-91717492D01*
X136907391Y-91771564D01*
X136904509Y-91800828D01*
X136490223Y-91800828D01*
X136487341Y-91771564D01*
X136464943Y-91717492D01*
X136423559Y-91676108D01*
X136369487Y-91653710D01*
X136310959Y-91653710D01*
X136256887Y-91676108D01*
X136215503Y-91717492D01*
X136193105Y-91771564D01*
X136190223Y-91800828D01*
X136190223Y-92735992D01*
X135613316Y-91726407D01*
X135608938Y-91720239D01*
X135607800Y-91717492D01*
X135605000Y-91714692D01*
X135596295Y-91702429D01*
X135580523Y-91690215D01*
X135566416Y-91676108D01*
X135557580Y-91672448D01*
X135550021Y-91666594D01*
X135530776Y-91661345D01*
X135512344Y-91653710D01*
X135502782Y-91653710D01*
X135493557Y-91651194D01*
X135473766Y-91653710D01*
X135453816Y-91653710D01*
X135444982Y-91657369D01*
X135435497Y-91658575D01*
X135418174Y-91668473D01*
X135399744Y-91676108D01*
X135392983Y-91682868D01*
X135384681Y-91687613D01*
X135372467Y-91703384D01*
X135358360Y-91717492D01*
X135354700Y-91726327D01*
X135348846Y-91733887D01*
X135343597Y-91753131D01*
X135335962Y-91771564D01*
X135334488Y-91786530D01*
X135333446Y-91790351D01*
X135333821Y-91793302D01*
X135333080Y-91800828D01*
X134918794Y-91800828D01*
X134915912Y-91771564D01*
X134893514Y-91717492D01*
X134852130Y-91676108D01*
X134798058Y-91653710D01*
X134739530Y-91653710D01*
X134685458Y-91676108D01*
X134644074Y-91717492D01*
X134621676Y-91771564D01*
X134618794Y-91800828D01*
X134618794Y-92979704D01*
X134574087Y-93069117D01*
X134537082Y-93106122D01*
X134447670Y-93150828D01*
X134232776Y-93150828D01*
X134143362Y-93106121D01*
X134106358Y-93069117D01*
X134061651Y-92979703D01*
X134061651Y-91800828D01*
X134058769Y-91771564D01*
X134036371Y-91717492D01*
X133994987Y-91676108D01*
X133940915Y-91653710D01*
X133882387Y-91653710D01*
X133828315Y-91676108D01*
X133786931Y-91717492D01*
X133764533Y-91771564D01*
X133761651Y-91800828D01*
X131847366Y-91800828D01*
X131847355Y-91800722D01*
X131847366Y-91800670D01*
X131847335Y-91800516D01*
X131844484Y-91771564D01*
X131838800Y-91757843D01*
X131835888Y-91743281D01*
X131827709Y-91731068D01*
X131822086Y-91717492D01*
X131811587Y-91706993D01*
X131803322Y-91694651D01*
X131791091Y-91686497D01*
X131780702Y-91676108D01*
X131766983Y-91670425D01*
X131754623Y-91662185D01*
X131740204Y-91659332D01*
X131726630Y-91653710D01*
X131711779Y-91653710D01*
X131697209Y-91650828D01*
X131682799Y-91653710D01*
X131668102Y-91653710D01*
X131654380Y-91659393D01*
X131639819Y-91662306D01*
X131627606Y-91670484D01*
X131614030Y-91676108D01*
X131603531Y-91686606D01*
X131591189Y-91694872D01*
X131572757Y-91717380D01*
X131572646Y-91717492D01*
X131572625Y-91717542D01*
X131572559Y-91717623D01*
X131437939Y-91919551D01*
X131322798Y-92034692D01*
X131201713Y-92095236D01*
X131176827Y-92110901D01*
X131138480Y-92155116D01*
X131119973Y-92210639D01*
X130021419Y-92210639D01*
X130047401Y-91950828D01*
X130625938Y-91950828D01*
X130655202Y-91947946D01*
X130709274Y-91925548D01*
X130750658Y-91884164D01*
X130773056Y-91830092D01*
X130773056Y-91771564D01*
X130750658Y-91717492D01*
X130709274Y-91676108D01*
X130655202Y-91653710D01*
X130625938Y-91650828D01*
X129911652Y-91650828D01*
X129900825Y-91651894D01*
X129897172Y-91651529D01*
X129893604Y-91652605D01*
X129882388Y-91653710D01*
X129862125Y-91662103D01*
X129841140Y-91668435D01*
X129835295Y-91673216D01*
X129828316Y-91676108D01*
X129812810Y-91691613D01*
X129795843Y-91705496D01*
X129792272Y-91712151D01*
X129786932Y-91717492D01*
X129778540Y-91737749D01*
X129768176Y-91757071D01*
X129765961Y-91768118D01*
X129764534Y-91771564D01*
X129764534Y-91775238D01*
X129762396Y-91785903D01*
X129690968Y-92500189D01*
X129690924Y-92529594D01*
X128990224Y-92529594D01*
X128990224Y-91800828D01*
X128990213Y-91800722D01*
X128990224Y-91800670D01*
X128990193Y-91800516D01*
X128987342Y-91771564D01*
X128981658Y-91757843D01*
X128978746Y-91743281D01*
X128970567Y-91731068D01*
X128964944Y-91717492D01*
X128954445Y-91706993D01*
X128946180Y-91694651D01*
X128933949Y-91686497D01*
X128923560Y-91676108D01*
X128909841Y-91670425D01*
X128897481Y-91662185D01*
X128883062Y-91659332D01*
X128869488Y-91653710D01*
X128854637Y-91653710D01*
X128840067Y-91650828D01*
X128825657Y-91653710D01*
X128810960Y-91653710D01*
X128797238Y-91659393D01*
X128782677Y-91662306D01*
X128770464Y-91670484D01*
X128756888Y-91676108D01*
X128746389Y-91686606D01*
X128734047Y-91694872D01*
X128715615Y-91717380D01*
X128715504Y-91717492D01*
X128715483Y-91717542D01*
X128715417Y-91717623D01*
X128580797Y-91919551D01*
X128465656Y-92034692D01*
X128344571Y-92095236D01*
X128319685Y-92110901D01*
X128281338Y-92155116D01*
X128262831Y-92210639D01*
X127990225Y-92210639D01*
X127990225Y-92086542D01*
X127987343Y-92057278D01*
X127985279Y-92052297D01*
X127984898Y-92046923D01*
X127974389Y-92019459D01*
X127902960Y-91876603D01*
X127895033Y-91864011D01*
X127893517Y-91860349D01*
X127890133Y-91856226D01*
X127887295Y-91851717D01*
X127884302Y-91849121D01*
X127874862Y-91837619D01*
X127803434Y-91766191D01*
X127791932Y-91756751D01*
X127789336Y-91753758D01*
X127784822Y-91750917D01*
X127780703Y-91747536D01*
X127777043Y-91746020D01*
X127764450Y-91738093D01*
X127621592Y-91666664D01*
X127594129Y-91656154D01*
X127588751Y-91655771D01*
X127583774Y-91653710D01*
X127554510Y-91650828D01*
X127197368Y-91650828D01*
X127168104Y-91653710D01*
X127163126Y-91655771D01*
X127157749Y-91656154D01*
X127130286Y-91666664D01*
X126987428Y-91738093D01*
X126974836Y-91746019D01*
X126971174Y-91747536D01*
X126967051Y-91750919D01*
X126962542Y-91753758D01*
X126959946Y-91756750D01*
X126948444Y-91766191D01*
X126877016Y-91837619D01*
X126858361Y-91860350D01*
X126835964Y-91914422D01*
X126835964Y-91972948D01*
X126858361Y-92027020D01*
X126899747Y-92068406D01*
X126953819Y-92090803D01*
X127012345Y-92090803D01*
X127066417Y-92068406D01*
X127089148Y-92049751D01*
X127143364Y-91995535D01*
X127232778Y-91950828D01*
X127519100Y-91950828D01*
X127608514Y-91995535D01*
X127645518Y-92032539D01*
X127690225Y-92121952D01*
X127690225Y-92205059D01*
X127637691Y-92362657D01*
X126805587Y-93194762D01*
X126786932Y-93217493D01*
X126774229Y-93248162D01*
X126764535Y-93271564D01*
X126490224Y-93271564D01*
X126490224Y-91800828D01*
X126488329Y-91781590D01*
X126488485Y-91778052D01*
X126487793Y-91776151D01*
X126487342Y-91771564D01*
X126477381Y-91747518D01*
X126468484Y-91723050D01*
X126466224Y-91720582D01*
X126464944Y-91717492D01*
X126446546Y-91699094D01*
X126428957Y-91679887D01*
X126425923Y-91678471D01*
X126423560Y-91676108D01*
X126399529Y-91666154D01*
X126375920Y-91655136D01*
X126372575Y-91654989D01*
X126369488Y-91653710D01*
X126343464Y-91653710D01*
X126317449Y-91652567D01*
X126314306Y-91653710D01*
X126310960Y-91653710D01*
X126286907Y-91663673D01*
X126262447Y-91672568D01*
X126259979Y-91674827D01*
X126256888Y-91676108D01*
X126238479Y-91694516D01*
X126219284Y-91712095D01*
X126216934Y-91716061D01*
X126215504Y-91717492D01*
X126214148Y-91720764D01*
X126204297Y-91737395D01*
X125840224Y-92517551D01*
X125476151Y-91737395D01*
X125466297Y-91720760D01*
X125464944Y-91717492D01*
X125463515Y-91716063D01*
X125461165Y-91712095D01*
X125441957Y-91694505D01*
X125423560Y-91676108D01*
X125420469Y-91674827D01*
X125418002Y-91672568D01*
X125393536Y-91663671D01*
X125369488Y-91653710D01*
X125366142Y-91653710D01*
X125362999Y-91652567D01*
X125336995Y-91653710D01*
X125310960Y-91653710D01*
X125307869Y-91654990D01*
X125304529Y-91655137D01*
X125280933Y-91666147D01*
X125256888Y-91676108D01*
X125254524Y-91678471D01*
X125251491Y-91679887D01*
X125233901Y-91699094D01*
X125215504Y-91717492D01*
X125214223Y-91720582D01*
X125211964Y-91723050D01*
X125203067Y-91747515D01*
X125193106Y-91771564D01*
X125192654Y-91776152D01*
X125191963Y-91778053D01*
X125192118Y-91781591D01*
X125190224Y-91800828D01*
X124989598Y-91800828D01*
X124990187Y-91797480D01*
X124977491Y-91740348D01*
X124943898Y-91692422D01*
X124894520Y-91660999D01*
X124836877Y-91650866D01*
X124779744Y-91663562D01*
X124731818Y-91697155D01*
X124713676Y-91720297D01*
X124340225Y-92307147D01*
X123966774Y-91720297D01*
X123948632Y-91697155D01*
X123900705Y-91663562D01*
X123843573Y-91650865D01*
X123785930Y-91660999D01*
X123736552Y-91692421D01*
X123702959Y-91740348D01*
X123690262Y-91797480D01*
X123523595Y-91797480D01*
X123523595Y-91484161D01*
X145299748Y-91484161D01*
X145299748Y-93617495D01*
G37*
D12*
X115954819Y-68519047D02*
X115954819Y-68995237D01*
X115954819Y-68995237D02*
X114954819Y-68995237D01*
X115431009Y-68185713D02*
X115431009Y-67852380D01*
X115954819Y-67709523D02*
X115954819Y-68185713D01*
X115954819Y-68185713D02*
X114954819Y-68185713D01*
X114954819Y-68185713D02*
X114954819Y-67709523D01*
X115954819Y-67280951D02*
X114954819Y-67280951D01*
X114954819Y-67280951D02*
X114954819Y-67042856D01*
X114954819Y-67042856D02*
X115002438Y-66899999D01*
X115002438Y-66899999D02*
X115097676Y-66804761D01*
X115097676Y-66804761D02*
X115192914Y-66757142D01*
X115192914Y-66757142D02*
X115383390Y-66709523D01*
X115383390Y-66709523D02*
X115526247Y-66709523D01*
X115526247Y-66709523D02*
X115716723Y-66757142D01*
X115716723Y-66757142D02*
X115811961Y-66804761D01*
X115811961Y-66804761D02*
X115907200Y-66899999D01*
X115907200Y-66899999D02*
X115954819Y-67042856D01*
X115954819Y-67042856D02*
X115954819Y-67280951D01*
X114954819Y-66376189D02*
X114954819Y-65757142D01*
X114954819Y-65757142D02*
X115335771Y-66090475D01*
X115335771Y-66090475D02*
X115335771Y-65947618D01*
X115335771Y-65947618D02*
X115383390Y-65852380D01*
X115383390Y-65852380D02*
X115431009Y-65804761D01*
X115431009Y-65804761D02*
X115526247Y-65757142D01*
X115526247Y-65757142D02*
X115764342Y-65757142D01*
X115764342Y-65757142D02*
X115859580Y-65804761D01*
X115859580Y-65804761D02*
X115907200Y-65852380D01*
X115907200Y-65852380D02*
X115954819Y-65947618D01*
X115954819Y-65947618D02*
X115954819Y-66233332D01*
X115954819Y-66233332D02*
X115907200Y-66328570D01*
X115907200Y-66328570D02*
X115859580Y-66376189D01*
X150833333Y-88954819D02*
X150500000Y-88478628D01*
X150261905Y-88954819D02*
X150261905Y-87954819D01*
X150261905Y-87954819D02*
X150642857Y-87954819D01*
X150642857Y-87954819D02*
X150738095Y-88002438D01*
X150738095Y-88002438D02*
X150785714Y-88050057D01*
X150785714Y-88050057D02*
X150833333Y-88145295D01*
X150833333Y-88145295D02*
X150833333Y-88288152D01*
X150833333Y-88288152D02*
X150785714Y-88383390D01*
X150785714Y-88383390D02*
X150738095Y-88431009D01*
X150738095Y-88431009D02*
X150642857Y-88478628D01*
X150642857Y-88478628D02*
X150261905Y-88478628D01*
X151690476Y-87954819D02*
X151500000Y-87954819D01*
X151500000Y-87954819D02*
X151404762Y-88002438D01*
X151404762Y-88002438D02*
X151357143Y-88050057D01*
X151357143Y-88050057D02*
X151261905Y-88192914D01*
X151261905Y-88192914D02*
X151214286Y-88383390D01*
X151214286Y-88383390D02*
X151214286Y-88764342D01*
X151214286Y-88764342D02*
X151261905Y-88859580D01*
X151261905Y-88859580D02*
X151309524Y-88907200D01*
X151309524Y-88907200D02*
X151404762Y-88954819D01*
X151404762Y-88954819D02*
X151595238Y-88954819D01*
X151595238Y-88954819D02*
X151690476Y-88907200D01*
X151690476Y-88907200D02*
X151738095Y-88859580D01*
X151738095Y-88859580D02*
X151785714Y-88764342D01*
X151785714Y-88764342D02*
X151785714Y-88526247D01*
X151785714Y-88526247D02*
X151738095Y-88431009D01*
X151738095Y-88431009D02*
X151690476Y-88383390D01*
X151690476Y-88383390D02*
X151595238Y-88335771D01*
X151595238Y-88335771D02*
X151404762Y-88335771D01*
X151404762Y-88335771D02*
X151309524Y-88383390D01*
X151309524Y-88383390D02*
X151261905Y-88431009D01*
X151261905Y-88431009D02*
X151214286Y-88526247D01*
X139333333Y-78859580D02*
X139285714Y-78907200D01*
X139285714Y-78907200D02*
X139142857Y-78954819D01*
X139142857Y-78954819D02*
X139047619Y-78954819D01*
X139047619Y-78954819D02*
X138904762Y-78907200D01*
X138904762Y-78907200D02*
X138809524Y-78811961D01*
X138809524Y-78811961D02*
X138761905Y-78716723D01*
X138761905Y-78716723D02*
X138714286Y-78526247D01*
X138714286Y-78526247D02*
X138714286Y-78383390D01*
X138714286Y-78383390D02*
X138761905Y-78192914D01*
X138761905Y-78192914D02*
X138809524Y-78097676D01*
X138809524Y-78097676D02*
X138904762Y-78002438D01*
X138904762Y-78002438D02*
X139047619Y-77954819D01*
X139047619Y-77954819D02*
X139142857Y-77954819D01*
X139142857Y-77954819D02*
X139285714Y-78002438D01*
X139285714Y-78002438D02*
X139333333Y-78050057D01*
X140285714Y-78954819D02*
X139714286Y-78954819D01*
X140000000Y-78954819D02*
X140000000Y-77954819D01*
X140000000Y-77954819D02*
X139904762Y-78097676D01*
X139904762Y-78097676D02*
X139809524Y-78192914D01*
X139809524Y-78192914D02*
X139714286Y-78240533D01*
X155238095Y-81454819D02*
X155238095Y-82264342D01*
X155238095Y-82264342D02*
X155285714Y-82359580D01*
X155285714Y-82359580D02*
X155333333Y-82407200D01*
X155333333Y-82407200D02*
X155428571Y-82454819D01*
X155428571Y-82454819D02*
X155619047Y-82454819D01*
X155619047Y-82454819D02*
X155714285Y-82407200D01*
X155714285Y-82407200D02*
X155761904Y-82359580D01*
X155761904Y-82359580D02*
X155809523Y-82264342D01*
X155809523Y-82264342D02*
X155809523Y-81454819D01*
X156714285Y-81788152D02*
X156714285Y-82454819D01*
X156476190Y-81407200D02*
X156238095Y-82121485D01*
X156238095Y-82121485D02*
X156857142Y-82121485D01*
X145833333Y-88954819D02*
X145500000Y-88478628D01*
X145261905Y-88954819D02*
X145261905Y-87954819D01*
X145261905Y-87954819D02*
X145642857Y-87954819D01*
X145642857Y-87954819D02*
X145738095Y-88002438D01*
X145738095Y-88002438D02*
X145785714Y-88050057D01*
X145785714Y-88050057D02*
X145833333Y-88145295D01*
X145833333Y-88145295D02*
X145833333Y-88288152D01*
X145833333Y-88288152D02*
X145785714Y-88383390D01*
X145785714Y-88383390D02*
X145738095Y-88431009D01*
X145738095Y-88431009D02*
X145642857Y-88478628D01*
X145642857Y-88478628D02*
X145261905Y-88478628D01*
X146404762Y-88383390D02*
X146309524Y-88335771D01*
X146309524Y-88335771D02*
X146261905Y-88288152D01*
X146261905Y-88288152D02*
X146214286Y-88192914D01*
X146214286Y-88192914D02*
X146214286Y-88145295D01*
X146214286Y-88145295D02*
X146261905Y-88050057D01*
X146261905Y-88050057D02*
X146309524Y-88002438D01*
X146309524Y-88002438D02*
X146404762Y-87954819D01*
X146404762Y-87954819D02*
X146595238Y-87954819D01*
X146595238Y-87954819D02*
X146690476Y-88002438D01*
X146690476Y-88002438D02*
X146738095Y-88050057D01*
X146738095Y-88050057D02*
X146785714Y-88145295D01*
X146785714Y-88145295D02*
X146785714Y-88192914D01*
X146785714Y-88192914D02*
X146738095Y-88288152D01*
X146738095Y-88288152D02*
X146690476Y-88335771D01*
X146690476Y-88335771D02*
X146595238Y-88383390D01*
X146595238Y-88383390D02*
X146404762Y-88383390D01*
X146404762Y-88383390D02*
X146309524Y-88431009D01*
X146309524Y-88431009D02*
X146261905Y-88478628D01*
X146261905Y-88478628D02*
X146214286Y-88573866D01*
X146214286Y-88573866D02*
X146214286Y-88764342D01*
X146214286Y-88764342D02*
X146261905Y-88859580D01*
X146261905Y-88859580D02*
X146309524Y-88907200D01*
X146309524Y-88907200D02*
X146404762Y-88954819D01*
X146404762Y-88954819D02*
X146595238Y-88954819D01*
X146595238Y-88954819D02*
X146690476Y-88907200D01*
X146690476Y-88907200D02*
X146738095Y-88859580D01*
X146738095Y-88859580D02*
X146785714Y-88764342D01*
X146785714Y-88764342D02*
X146785714Y-88573866D01*
X146785714Y-88573866D02*
X146738095Y-88478628D01*
X146738095Y-88478628D02*
X146690476Y-88431009D01*
X146690476Y-88431009D02*
X146595238Y-88383390D01*
X110238095Y-81454819D02*
X110238095Y-82264342D01*
X110238095Y-82264342D02*
X110285714Y-82359580D01*
X110285714Y-82359580D02*
X110333333Y-82407200D01*
X110333333Y-82407200D02*
X110428571Y-82454819D01*
X110428571Y-82454819D02*
X110619047Y-82454819D01*
X110619047Y-82454819D02*
X110714285Y-82407200D01*
X110714285Y-82407200D02*
X110761904Y-82359580D01*
X110761904Y-82359580D02*
X110809523Y-82264342D01*
X110809523Y-82264342D02*
X110809523Y-81454819D01*
X111190476Y-81454819D02*
X111857142Y-81454819D01*
X111857142Y-81454819D02*
X111428571Y-82454819D01*
X155833333Y-88954819D02*
X155500000Y-88478628D01*
X155261905Y-88954819D02*
X155261905Y-87954819D01*
X155261905Y-87954819D02*
X155642857Y-87954819D01*
X155642857Y-87954819D02*
X155738095Y-88002438D01*
X155738095Y-88002438D02*
X155785714Y-88050057D01*
X155785714Y-88050057D02*
X155833333Y-88145295D01*
X155833333Y-88145295D02*
X155833333Y-88288152D01*
X155833333Y-88288152D02*
X155785714Y-88383390D01*
X155785714Y-88383390D02*
X155738095Y-88431009D01*
X155738095Y-88431009D02*
X155642857Y-88478628D01*
X155642857Y-88478628D02*
X155261905Y-88478628D01*
X156690476Y-88288152D02*
X156690476Y-88954819D01*
X156452381Y-87907200D02*
X156214286Y-88621485D01*
X156214286Y-88621485D02*
X156833333Y-88621485D01*
X150238095Y-81454819D02*
X150238095Y-82264342D01*
X150238095Y-82264342D02*
X150285714Y-82359580D01*
X150285714Y-82359580D02*
X150333333Y-82407200D01*
X150333333Y-82407200D02*
X150428571Y-82454819D01*
X150428571Y-82454819D02*
X150619047Y-82454819D01*
X150619047Y-82454819D02*
X150714285Y-82407200D01*
X150714285Y-82407200D02*
X150761904Y-82359580D01*
X150761904Y-82359580D02*
X150809523Y-82264342D01*
X150809523Y-82264342D02*
X150809523Y-81454819D01*
X151761904Y-81454819D02*
X151285714Y-81454819D01*
X151285714Y-81454819D02*
X151238095Y-81931009D01*
X151238095Y-81931009D02*
X151285714Y-81883390D01*
X151285714Y-81883390D02*
X151380952Y-81835771D01*
X151380952Y-81835771D02*
X151619047Y-81835771D01*
X151619047Y-81835771D02*
X151714285Y-81883390D01*
X151714285Y-81883390D02*
X151761904Y-81931009D01*
X151761904Y-81931009D02*
X151809523Y-82026247D01*
X151809523Y-82026247D02*
X151809523Y-82264342D01*
X151809523Y-82264342D02*
X151761904Y-82359580D01*
X151761904Y-82359580D02*
X151714285Y-82407200D01*
X151714285Y-82407200D02*
X151619047Y-82454819D01*
X151619047Y-82454819D02*
X151380952Y-82454819D01*
X151380952Y-82454819D02*
X151285714Y-82407200D01*
X151285714Y-82407200D02*
X151238095Y-82359580D01*
X138954819Y-87166666D02*
X138478628Y-87499999D01*
X138954819Y-87738094D02*
X137954819Y-87738094D01*
X137954819Y-87738094D02*
X137954819Y-87357142D01*
X137954819Y-87357142D02*
X138002438Y-87261904D01*
X138002438Y-87261904D02*
X138050057Y-87214285D01*
X138050057Y-87214285D02*
X138145295Y-87166666D01*
X138145295Y-87166666D02*
X138288152Y-87166666D01*
X138288152Y-87166666D02*
X138383390Y-87214285D01*
X138383390Y-87214285D02*
X138431009Y-87261904D01*
X138431009Y-87261904D02*
X138478628Y-87357142D01*
X138478628Y-87357142D02*
X138478628Y-87738094D01*
X138050057Y-86785713D02*
X138002438Y-86738094D01*
X138002438Y-86738094D02*
X137954819Y-86642856D01*
X137954819Y-86642856D02*
X137954819Y-86404761D01*
X137954819Y-86404761D02*
X138002438Y-86309523D01*
X138002438Y-86309523D02*
X138050057Y-86261904D01*
X138050057Y-86261904D02*
X138145295Y-86214285D01*
X138145295Y-86214285D02*
X138240533Y-86214285D01*
X138240533Y-86214285D02*
X138383390Y-86261904D01*
X138383390Y-86261904D02*
X138954819Y-86833332D01*
X138954819Y-86833332D02*
X138954819Y-86214285D01*
X153954819Y-87166666D02*
X153478628Y-87499999D01*
X153954819Y-87738094D02*
X152954819Y-87738094D01*
X152954819Y-87738094D02*
X152954819Y-87357142D01*
X152954819Y-87357142D02*
X153002438Y-87261904D01*
X153002438Y-87261904D02*
X153050057Y-87214285D01*
X153050057Y-87214285D02*
X153145295Y-87166666D01*
X153145295Y-87166666D02*
X153288152Y-87166666D01*
X153288152Y-87166666D02*
X153383390Y-87214285D01*
X153383390Y-87214285D02*
X153431009Y-87261904D01*
X153431009Y-87261904D02*
X153478628Y-87357142D01*
X153478628Y-87357142D02*
X153478628Y-87738094D01*
X152954819Y-86261904D02*
X152954819Y-86738094D01*
X152954819Y-86738094D02*
X153431009Y-86785713D01*
X153431009Y-86785713D02*
X153383390Y-86738094D01*
X153383390Y-86738094D02*
X153335771Y-86642856D01*
X153335771Y-86642856D02*
X153335771Y-86404761D01*
X153335771Y-86404761D02*
X153383390Y-86309523D01*
X153383390Y-86309523D02*
X153431009Y-86261904D01*
X153431009Y-86261904D02*
X153526247Y-86214285D01*
X153526247Y-86214285D02*
X153764342Y-86214285D01*
X153764342Y-86214285D02*
X153859580Y-86261904D01*
X153859580Y-86261904D02*
X153907200Y-86309523D01*
X153907200Y-86309523D02*
X153954819Y-86404761D01*
X153954819Y-86404761D02*
X153954819Y-86642856D01*
X153954819Y-86642856D02*
X153907200Y-86738094D01*
X153907200Y-86738094D02*
X153859580Y-86785713D01*
X140238095Y-81454819D02*
X140238095Y-82264342D01*
X140238095Y-82264342D02*
X140285714Y-82359580D01*
X140285714Y-82359580D02*
X140333333Y-82407200D01*
X140333333Y-82407200D02*
X140428571Y-82454819D01*
X140428571Y-82454819D02*
X140619047Y-82454819D01*
X140619047Y-82454819D02*
X140714285Y-82407200D01*
X140714285Y-82407200D02*
X140761904Y-82359580D01*
X140761904Y-82359580D02*
X140809523Y-82264342D01*
X140809523Y-82264342D02*
X140809523Y-81454819D01*
X141238095Y-81550057D02*
X141285714Y-81502438D01*
X141285714Y-81502438D02*
X141380952Y-81454819D01*
X141380952Y-81454819D02*
X141619047Y-81454819D01*
X141619047Y-81454819D02*
X141714285Y-81502438D01*
X141714285Y-81502438D02*
X141761904Y-81550057D01*
X141761904Y-81550057D02*
X141809523Y-81645295D01*
X141809523Y-81645295D02*
X141809523Y-81740533D01*
X141809523Y-81740533D02*
X141761904Y-81883390D01*
X141761904Y-81883390D02*
X141190476Y-82454819D01*
X141190476Y-82454819D02*
X141809523Y-82454819D01*
X116354819Y-64342857D02*
X115878628Y-64676190D01*
X116354819Y-64914285D02*
X115354819Y-64914285D01*
X115354819Y-64914285D02*
X115354819Y-64533333D01*
X115354819Y-64533333D02*
X115402438Y-64438095D01*
X115402438Y-64438095D02*
X115450057Y-64390476D01*
X115450057Y-64390476D02*
X115545295Y-64342857D01*
X115545295Y-64342857D02*
X115688152Y-64342857D01*
X115688152Y-64342857D02*
X115783390Y-64390476D01*
X115783390Y-64390476D02*
X115831009Y-64438095D01*
X115831009Y-64438095D02*
X115878628Y-64533333D01*
X115878628Y-64533333D02*
X115878628Y-64914285D01*
X116354819Y-63390476D02*
X116354819Y-63961904D01*
X116354819Y-63676190D02*
X115354819Y-63676190D01*
X115354819Y-63676190D02*
X115497676Y-63771428D01*
X115497676Y-63771428D02*
X115592914Y-63866666D01*
X115592914Y-63866666D02*
X115640533Y-63961904D01*
X116354819Y-62438095D02*
X116354819Y-63009523D01*
X116354819Y-62723809D02*
X115354819Y-62723809D01*
X115354819Y-62723809D02*
X115497676Y-62819047D01*
X115497676Y-62819047D02*
X115592914Y-62914285D01*
X115592914Y-62914285D02*
X115640533Y-63009523D01*
X116238095Y-71954819D02*
X116238095Y-72764342D01*
X116238095Y-72764342D02*
X116285714Y-72859580D01*
X116285714Y-72859580D02*
X116333333Y-72907200D01*
X116333333Y-72907200D02*
X116428571Y-72954819D01*
X116428571Y-72954819D02*
X116619047Y-72954819D01*
X116619047Y-72954819D02*
X116714285Y-72907200D01*
X116714285Y-72907200D02*
X116761904Y-72859580D01*
X116761904Y-72859580D02*
X116809523Y-72764342D01*
X116809523Y-72764342D02*
X116809523Y-71954819D01*
X117190476Y-71954819D02*
X117809523Y-71954819D01*
X117809523Y-71954819D02*
X117476190Y-72335771D01*
X117476190Y-72335771D02*
X117619047Y-72335771D01*
X117619047Y-72335771D02*
X117714285Y-72383390D01*
X117714285Y-72383390D02*
X117761904Y-72431009D01*
X117761904Y-72431009D02*
X117809523Y-72526247D01*
X117809523Y-72526247D02*
X117809523Y-72764342D01*
X117809523Y-72764342D02*
X117761904Y-72859580D01*
X117761904Y-72859580D02*
X117714285Y-72907200D01*
X117714285Y-72907200D02*
X117619047Y-72954819D01*
X117619047Y-72954819D02*
X117333333Y-72954819D01*
X117333333Y-72954819D02*
X117238095Y-72907200D01*
X117238095Y-72907200D02*
X117190476Y-72859580D01*
X108883625Y-61954819D02*
X108550292Y-61478628D01*
X108312197Y-61954819D02*
X108312197Y-60954819D01*
X108312197Y-60954819D02*
X108693149Y-60954819D01*
X108693149Y-60954819D02*
X108788387Y-61002438D01*
X108788387Y-61002438D02*
X108836006Y-61050057D01*
X108836006Y-61050057D02*
X108883625Y-61145295D01*
X108883625Y-61145295D02*
X108883625Y-61288152D01*
X108883625Y-61288152D02*
X108836006Y-61383390D01*
X108836006Y-61383390D02*
X108788387Y-61431009D01*
X108788387Y-61431009D02*
X108693149Y-61478628D01*
X108693149Y-61478628D02*
X108312197Y-61478628D01*
X109836006Y-61954819D02*
X109264578Y-61954819D01*
X109550292Y-61954819D02*
X109550292Y-60954819D01*
X109550292Y-60954819D02*
X109455054Y-61097676D01*
X109455054Y-61097676D02*
X109359816Y-61192914D01*
X109359816Y-61192914D02*
X109264578Y-61240533D01*
X103815674Y-61454819D02*
X103339484Y-61454819D01*
X103339484Y-61454819D02*
X103339484Y-60454819D01*
X104149008Y-60931009D02*
X104482341Y-60931009D01*
X104625198Y-61454819D02*
X104149008Y-61454819D01*
X104149008Y-61454819D02*
X104149008Y-60454819D01*
X104149008Y-60454819D02*
X104625198Y-60454819D01*
X105053770Y-61454819D02*
X105053770Y-60454819D01*
X105053770Y-60454819D02*
X105291865Y-60454819D01*
X105291865Y-60454819D02*
X105434722Y-60502438D01*
X105434722Y-60502438D02*
X105529960Y-60597676D01*
X105529960Y-60597676D02*
X105577579Y-60692914D01*
X105577579Y-60692914D02*
X105625198Y-60883390D01*
X105625198Y-60883390D02*
X105625198Y-61026247D01*
X105625198Y-61026247D02*
X105577579Y-61216723D01*
X105577579Y-61216723D02*
X105529960Y-61311961D01*
X105529960Y-61311961D02*
X105434722Y-61407200D01*
X105434722Y-61407200D02*
X105291865Y-61454819D01*
X105291865Y-61454819D02*
X105053770Y-61454819D01*
X106006151Y-60550057D02*
X106053770Y-60502438D01*
X106053770Y-60502438D02*
X106149008Y-60454819D01*
X106149008Y-60454819D02*
X106387103Y-60454819D01*
X106387103Y-60454819D02*
X106482341Y-60502438D01*
X106482341Y-60502438D02*
X106529960Y-60550057D01*
X106529960Y-60550057D02*
X106577579Y-60645295D01*
X106577579Y-60645295D02*
X106577579Y-60740533D01*
X106577579Y-60740533D02*
X106529960Y-60883390D01*
X106529960Y-60883390D02*
X105958532Y-61454819D01*
X105958532Y-61454819D02*
X106577579Y-61454819D01*
X148954819Y-87166666D02*
X148478628Y-87499999D01*
X148954819Y-87738094D02*
X147954819Y-87738094D01*
X147954819Y-87738094D02*
X147954819Y-87357142D01*
X147954819Y-87357142D02*
X148002438Y-87261904D01*
X148002438Y-87261904D02*
X148050057Y-87214285D01*
X148050057Y-87214285D02*
X148145295Y-87166666D01*
X148145295Y-87166666D02*
X148288152Y-87166666D01*
X148288152Y-87166666D02*
X148383390Y-87214285D01*
X148383390Y-87214285D02*
X148431009Y-87261904D01*
X148431009Y-87261904D02*
X148478628Y-87357142D01*
X148478628Y-87357142D02*
X148478628Y-87738094D01*
X147954819Y-86833332D02*
X147954819Y-86166666D01*
X147954819Y-86166666D02*
X148954819Y-86595237D01*
X146057142Y-63154819D02*
X145723809Y-62678628D01*
X145485714Y-63154819D02*
X145485714Y-62154819D01*
X145485714Y-62154819D02*
X145866666Y-62154819D01*
X145866666Y-62154819D02*
X145961904Y-62202438D01*
X145961904Y-62202438D02*
X146009523Y-62250057D01*
X146009523Y-62250057D02*
X146057142Y-62345295D01*
X146057142Y-62345295D02*
X146057142Y-62488152D01*
X146057142Y-62488152D02*
X146009523Y-62583390D01*
X146009523Y-62583390D02*
X145961904Y-62631009D01*
X145961904Y-62631009D02*
X145866666Y-62678628D01*
X145866666Y-62678628D02*
X145485714Y-62678628D01*
X147009523Y-63154819D02*
X146438095Y-63154819D01*
X146723809Y-63154819D02*
X146723809Y-62154819D01*
X146723809Y-62154819D02*
X146628571Y-62297676D01*
X146628571Y-62297676D02*
X146533333Y-62392914D01*
X146533333Y-62392914D02*
X146438095Y-62440533D01*
X147628571Y-62154819D02*
X147723809Y-62154819D01*
X147723809Y-62154819D02*
X147819047Y-62202438D01*
X147819047Y-62202438D02*
X147866666Y-62250057D01*
X147866666Y-62250057D02*
X147914285Y-62345295D01*
X147914285Y-62345295D02*
X147961904Y-62535771D01*
X147961904Y-62535771D02*
X147961904Y-62773866D01*
X147961904Y-62773866D02*
X147914285Y-62964342D01*
X147914285Y-62964342D02*
X147866666Y-63059580D01*
X147866666Y-63059580D02*
X147819047Y-63107200D01*
X147819047Y-63107200D02*
X147723809Y-63154819D01*
X147723809Y-63154819D02*
X147628571Y-63154819D01*
X147628571Y-63154819D02*
X147533333Y-63107200D01*
X147533333Y-63107200D02*
X147485714Y-63059580D01*
X147485714Y-63059580D02*
X147438095Y-62964342D01*
X147438095Y-62964342D02*
X147390476Y-62773866D01*
X147390476Y-62773866D02*
X147390476Y-62535771D01*
X147390476Y-62535771D02*
X147438095Y-62345295D01*
X147438095Y-62345295D02*
X147485714Y-62250057D01*
X147485714Y-62250057D02*
X147533333Y-62202438D01*
X147533333Y-62202438D02*
X147628571Y-62154819D01*
X143954819Y-87166666D02*
X143478628Y-87499999D01*
X143954819Y-87738094D02*
X142954819Y-87738094D01*
X142954819Y-87738094D02*
X142954819Y-87357142D01*
X142954819Y-87357142D02*
X143002438Y-87261904D01*
X143002438Y-87261904D02*
X143050057Y-87214285D01*
X143050057Y-87214285D02*
X143145295Y-87166666D01*
X143145295Y-87166666D02*
X143288152Y-87166666D01*
X143288152Y-87166666D02*
X143383390Y-87214285D01*
X143383390Y-87214285D02*
X143431009Y-87261904D01*
X143431009Y-87261904D02*
X143478628Y-87357142D01*
X143478628Y-87357142D02*
X143478628Y-87738094D01*
X143954819Y-86690475D02*
X143954819Y-86499999D01*
X143954819Y-86499999D02*
X143907200Y-86404761D01*
X143907200Y-86404761D02*
X143859580Y-86357142D01*
X143859580Y-86357142D02*
X143716723Y-86261904D01*
X143716723Y-86261904D02*
X143526247Y-86214285D01*
X143526247Y-86214285D02*
X143145295Y-86214285D01*
X143145295Y-86214285D02*
X143050057Y-86261904D01*
X143050057Y-86261904D02*
X143002438Y-86309523D01*
X143002438Y-86309523D02*
X142954819Y-86404761D01*
X142954819Y-86404761D02*
X142954819Y-86595237D01*
X142954819Y-86595237D02*
X143002438Y-86690475D01*
X143002438Y-86690475D02*
X143050057Y-86738094D01*
X143050057Y-86738094D02*
X143145295Y-86785713D01*
X143145295Y-86785713D02*
X143383390Y-86785713D01*
X143383390Y-86785713D02*
X143478628Y-86738094D01*
X143478628Y-86738094D02*
X143526247Y-86690475D01*
X143526247Y-86690475D02*
X143573866Y-86595237D01*
X143573866Y-86595237D02*
X143573866Y-86404761D01*
X143573866Y-86404761D02*
X143526247Y-86309523D01*
X143526247Y-86309523D02*
X143478628Y-86261904D01*
X143478628Y-86261904D02*
X143383390Y-86214285D01*
X140833333Y-88954819D02*
X140500000Y-88478628D01*
X140261905Y-88954819D02*
X140261905Y-87954819D01*
X140261905Y-87954819D02*
X140642857Y-87954819D01*
X140642857Y-87954819D02*
X140738095Y-88002438D01*
X140738095Y-88002438D02*
X140785714Y-88050057D01*
X140785714Y-88050057D02*
X140833333Y-88145295D01*
X140833333Y-88145295D02*
X140833333Y-88288152D01*
X140833333Y-88288152D02*
X140785714Y-88383390D01*
X140785714Y-88383390D02*
X140738095Y-88431009D01*
X140738095Y-88431009D02*
X140642857Y-88478628D01*
X140642857Y-88478628D02*
X140261905Y-88478628D01*
X141166667Y-87954819D02*
X141785714Y-87954819D01*
X141785714Y-87954819D02*
X141452381Y-88335771D01*
X141452381Y-88335771D02*
X141595238Y-88335771D01*
X141595238Y-88335771D02*
X141690476Y-88383390D01*
X141690476Y-88383390D02*
X141738095Y-88431009D01*
X141738095Y-88431009D02*
X141785714Y-88526247D01*
X141785714Y-88526247D02*
X141785714Y-88764342D01*
X141785714Y-88764342D02*
X141738095Y-88859580D01*
X141738095Y-88859580D02*
X141690476Y-88907200D01*
X141690476Y-88907200D02*
X141595238Y-88954819D01*
X141595238Y-88954819D02*
X141309524Y-88954819D01*
X141309524Y-88954819D02*
X141214286Y-88907200D01*
X141214286Y-88907200D02*
X141166667Y-88859580D01*
X145238095Y-81454819D02*
X145238095Y-82264342D01*
X145238095Y-82264342D02*
X145285714Y-82359580D01*
X145285714Y-82359580D02*
X145333333Y-82407200D01*
X145333333Y-82407200D02*
X145428571Y-82454819D01*
X145428571Y-82454819D02*
X145619047Y-82454819D01*
X145619047Y-82454819D02*
X145714285Y-82407200D01*
X145714285Y-82407200D02*
X145761904Y-82359580D01*
X145761904Y-82359580D02*
X145809523Y-82264342D01*
X145809523Y-82264342D02*
X145809523Y-81454819D01*
X146714285Y-81454819D02*
X146523809Y-81454819D01*
X146523809Y-81454819D02*
X146428571Y-81502438D01*
X146428571Y-81502438D02*
X146380952Y-81550057D01*
X146380952Y-81550057D02*
X146285714Y-81692914D01*
X146285714Y-81692914D02*
X146238095Y-81883390D01*
X146238095Y-81883390D02*
X146238095Y-82264342D01*
X146238095Y-82264342D02*
X146285714Y-82359580D01*
X146285714Y-82359580D02*
X146333333Y-82407200D01*
X146333333Y-82407200D02*
X146428571Y-82454819D01*
X146428571Y-82454819D02*
X146619047Y-82454819D01*
X146619047Y-82454819D02*
X146714285Y-82407200D01*
X146714285Y-82407200D02*
X146761904Y-82359580D01*
X146761904Y-82359580D02*
X146809523Y-82264342D01*
X146809523Y-82264342D02*
X146809523Y-82026247D01*
X146809523Y-82026247D02*
X146761904Y-81931009D01*
X146761904Y-81931009D02*
X146714285Y-81883390D01*
X146714285Y-81883390D02*
X146619047Y-81835771D01*
X146619047Y-81835771D02*
X146428571Y-81835771D01*
X146428571Y-81835771D02*
X146333333Y-81883390D01*
X146333333Y-81883390D02*
X146285714Y-81931009D01*
X146285714Y-81931009D02*
X146238095Y-82026247D01*
%TO.C,LED3*%
D13*
X116385268Y-65457074D02*
X116385268Y-67006477D01*
X116385268Y-69292482D02*
X116385268Y-67768479D01*
X116766269Y-69673482D02*
X116385268Y-69292482D01*
X116900000Y-67249708D02*
X117300000Y-67649708D01*
X116900000Y-67249708D02*
X117900254Y-67249708D01*
X117300000Y-67649708D02*
X117400000Y-67749708D01*
X117400000Y-67749708D02*
X117500254Y-67649708D01*
X117500254Y-67649708D02*
X117900254Y-67249708D01*
X118036271Y-69673482D02*
X116766269Y-69673482D01*
X118417272Y-65457074D02*
X116385268Y-65457074D01*
X118417272Y-67006477D02*
X118417272Y-65457074D01*
X118442672Y-67793879D02*
X118442672Y-69267082D01*
X118442672Y-69267082D02*
X118036271Y-69673482D01*
%TO.C,R6*%
D14*
X149614910Y-86339395D02*
X149614910Y-87660605D01*
X149614910Y-87660605D02*
X150573787Y-87660605D01*
X150573787Y-86339395D02*
X149614910Y-86339395D01*
X151426213Y-86339395D02*
X152385090Y-86339395D01*
X152385090Y-86339395D02*
X152385090Y-87660605D01*
X152385090Y-87660605D02*
X151426213Y-87660605D01*
%TO.C,J2*%
D15*
X138670000Y-95670000D02*
X140000000Y-95670000D01*
X138670000Y-97000000D02*
X138670000Y-95670000D01*
X141270000Y-95670000D02*
X154030000Y-95670000D01*
X141270000Y-98330000D02*
X141270000Y-95670000D01*
X141270000Y-98330000D02*
X154030000Y-98330000D01*
X154030000Y-98330000D02*
X154030000Y-95670000D01*
%TO.C,C1*%
D13*
X140909957Y-78899771D02*
X140909957Y-78099746D01*
X142019711Y-77789967D02*
X141219736Y-77789967D01*
X142019711Y-79209627D02*
X141219736Y-79209627D01*
X142580163Y-77790424D02*
X143380138Y-77790424D01*
X142580163Y-79210109D02*
X143380138Y-79210109D01*
X143689891Y-78100254D02*
X143689891Y-78900305D01*
X140909957Y-78099797D02*
G75*
G02*
X141219787Y-77789982I309818J-3D01*
G01*
X141219787Y-79209627D02*
G75*
G02*
X140909948Y-78899772I-12J309827D01*
G01*
X143380087Y-77790424D02*
G75*
G02*
X143689891Y-78100255I-27J-309831D01*
G01*
X143689891Y-78900229D02*
G75*
G02*
X143380086Y-79210109I-309831J-49D01*
G01*
%TO.C,U4*%
D14*
X154473787Y-83773787D02*
X155505410Y-83773787D01*
X154473787Y-85226213D02*
X154473787Y-83773787D01*
X156455398Y-85226213D02*
X155544602Y-85226213D01*
X157526213Y-83773787D02*
X156494590Y-83773787D01*
X157526213Y-85226213D02*
X157526213Y-83773787D01*
%TO.C,R8*%
X144614910Y-86339395D02*
X144614910Y-87660605D01*
X144614910Y-87660605D02*
X145573787Y-87660605D01*
X145573787Y-86339395D02*
X144614910Y-86339395D01*
X146426213Y-86339395D02*
X147385090Y-86339395D01*
X147385090Y-86339395D02*
X147385090Y-87660605D01*
X147385090Y-87660605D02*
X146426213Y-87660605D01*
%TO.C,U7*%
D13*
X100122491Y-64870000D02*
X105662497Y-64870000D01*
X100122491Y-80870051D02*
X100122491Y-64870000D01*
X100122491Y-80870051D02*
X105662573Y-80870051D01*
X106892265Y-80870051D02*
X111877508Y-80870051D01*
X106892316Y-64870000D02*
X111877508Y-64870000D01*
X107877508Y-66084935D02*
X107877508Y-65870000D01*
X107877508Y-68084935D02*
X107877508Y-67655014D01*
X107877508Y-70084961D02*
X107877508Y-69655014D01*
X107877508Y-72084961D02*
X107877508Y-71655039D01*
X107877508Y-74084961D02*
X107877508Y-73655039D01*
X107877508Y-76084961D02*
X107877508Y-75655039D01*
X107877508Y-78084986D02*
X107877508Y-77655039D01*
X107877508Y-79870051D02*
X107877508Y-79655039D01*
X111877508Y-64870000D02*
X111877508Y-65870000D01*
X111877508Y-65870000D02*
X107877508Y-65870000D01*
X111877508Y-79870051D02*
X107877508Y-79870051D01*
X111877508Y-80870051D02*
X111877508Y-79870051D01*
D15*
X107377406Y-66870000D02*
X106377508Y-67370000D01*
X106377508Y-66369975D01*
X107377406Y-66870000D01*
G36*
X107377406Y-66870000D02*
G01*
X106377508Y-67370000D01*
X106377508Y-66369975D01*
X107377406Y-66870000D01*
G37*
%TO.C,R4*%
D14*
X154861544Y-86339395D02*
X154861544Y-87660605D01*
X154861544Y-87660605D02*
X155820421Y-87660605D01*
X155820421Y-86339395D02*
X154861544Y-86339395D01*
X156672847Y-86339395D02*
X157631724Y-86339395D01*
X157631724Y-86339395D02*
X157631724Y-87660605D01*
X157631724Y-87660605D02*
X156672847Y-87660605D01*
%TO.C,U5*%
X149473787Y-83773787D02*
X150505410Y-83773787D01*
X149473787Y-85226213D02*
X149473787Y-83773787D01*
X151455398Y-85226213D02*
X150544602Y-85226213D01*
X152526213Y-83773787D02*
X151494590Y-83773787D01*
X152526213Y-85226213D02*
X152526213Y-83773787D01*
%TO.C,R2*%
X137839395Y-83114910D02*
X139160605Y-83114910D01*
X137839395Y-84073787D02*
X137839395Y-83114910D01*
X137839395Y-84926213D02*
X137839395Y-85885090D01*
X137839395Y-85885090D02*
X139160605Y-85885090D01*
X139160605Y-83114910D02*
X139160605Y-84073787D01*
X139160605Y-85885090D02*
X139160605Y-84926213D01*
%TO.C,R5*%
X152839395Y-83114910D02*
X154160605Y-83114910D01*
X152839395Y-84073787D02*
X152839395Y-83114910D01*
X152839395Y-84926213D02*
X152839395Y-85885090D01*
X152839395Y-85885090D02*
X154160605Y-85885090D01*
X154160605Y-83114910D02*
X154160605Y-84073787D01*
X154160605Y-85885090D02*
X154160605Y-84926213D01*
%TO.C,J1*%
D15*
X115810000Y-95670000D02*
X117140000Y-95670000D01*
X115810000Y-97000000D02*
X115810000Y-95670000D01*
X118410000Y-95670000D02*
X136250000Y-95670000D01*
X118410000Y-98330000D02*
X118410000Y-95670000D01*
X118410000Y-98330000D02*
X136250000Y-98330000D01*
X136250000Y-98330000D02*
X136250000Y-95670000D01*
%TO.C,U2*%
D14*
X139473787Y-83773787D02*
X140505410Y-83773787D01*
X139473787Y-85226213D02*
X139473787Y-83773787D01*
X141455398Y-85226213D02*
X140544602Y-85226213D01*
X142526213Y-83773787D02*
X141494590Y-83773787D01*
X142526213Y-85226213D02*
X142526213Y-83773787D01*
%TO.C,R11*%
X116697663Y-62368758D02*
X116697663Y-63327635D01*
X116697663Y-65138938D02*
X116697663Y-64180061D01*
X118018873Y-62368758D02*
X116697663Y-62368758D01*
X118018873Y-63327635D02*
X118018873Y-62368758D01*
X118018873Y-64180061D02*
X118018873Y-65138938D01*
X118018873Y-65138938D02*
X116697663Y-65138938D01*
%TO.C,U3*%
D13*
X119289967Y-69749987D02*
X154690017Y-69749987D01*
X119289967Y-71764999D02*
X119289967Y-69749987D01*
X119289967Y-75050013D02*
X119289967Y-73035001D01*
X154690017Y-69749987D02*
X154690017Y-75050013D01*
X154690017Y-75050013D02*
X119289967Y-75050013D01*
D11*
X119049936Y-76199848D02*
G75*
G02*
X119049936Y-76197308I161287J1270D01*
G01*
D13*
X119288697Y-73035001D02*
G75*
G02*
X119288697Y-71764999I0J635001D01*
G01*
D16*
X119989738Y-74051003D02*
G75*
G02*
X119989738Y-74045923I293249J2540D01*
G01*
%TO.C,R1*%
D14*
X107665202Y-62339395D02*
X108624079Y-62339395D01*
X107665202Y-63660605D02*
X107665202Y-62339395D01*
X108624079Y-63660605D02*
X107665202Y-63660605D01*
X109476505Y-63660605D02*
X110435382Y-63660605D01*
X110435382Y-62339395D02*
X109476505Y-62339395D01*
X110435382Y-63660605D02*
X110435382Y-62339395D01*
%TO.C,LED2*%
D13*
X102826518Y-62366269D02*
X103207518Y-61985268D01*
X102826518Y-63636271D02*
X102826518Y-62366269D01*
X103207518Y-61985268D02*
X104731521Y-61985268D01*
X103232918Y-64042672D02*
X102826518Y-63636271D01*
X104706121Y-64042672D02*
X103232918Y-64042672D01*
X104750292Y-63000000D02*
X104850292Y-63100254D01*
X104850292Y-62900000D02*
X104750292Y-63000000D01*
X104850292Y-63100254D02*
X105250292Y-63500254D01*
X105250292Y-62500000D02*
X104850292Y-62900000D01*
X105250292Y-62500000D02*
X105250292Y-63500254D01*
X105493523Y-64017272D02*
X107042926Y-64017272D01*
X107042926Y-61985268D02*
X105493523Y-61985268D01*
X107042926Y-64017272D02*
X107042926Y-61985268D01*
%TO.C,R7*%
D14*
X147839395Y-83114910D02*
X149160605Y-83114910D01*
X147839395Y-84073787D02*
X147839395Y-83114910D01*
X147839395Y-84926213D02*
X147839395Y-85885090D01*
X147839395Y-85885090D02*
X149160605Y-85885090D01*
X149160605Y-83114910D02*
X149160605Y-84073787D01*
X149160605Y-85885090D02*
X149160605Y-84926213D01*
%TO.C,R10*%
X145314910Y-63739395D02*
X146273787Y-63739395D01*
X145314910Y-65060605D02*
X145314910Y-63739395D01*
X146273787Y-65060605D02*
X145314910Y-65060605D01*
X147126213Y-65060605D02*
X148085090Y-65060605D01*
X148085090Y-63739395D02*
X147126213Y-63739395D01*
X148085090Y-65060605D02*
X148085090Y-63739395D01*
%TO.C,J6*%
D15*
X133590000Y-47410000D02*
X134920000Y-47410000D01*
X133590000Y-48740000D02*
X133590000Y-47410000D01*
X136190000Y-47410000D02*
X154030000Y-47410000D01*
X136190000Y-50070000D02*
X136190000Y-47410000D01*
X136190000Y-50070000D02*
X154030000Y-50070000D01*
X154030000Y-50070000D02*
X154030000Y-47410000D01*
%TO.C,R9*%
D14*
X142839395Y-83114910D02*
X144160605Y-83114910D01*
X142839395Y-84073787D02*
X142839395Y-83114910D01*
X142839395Y-84926213D02*
X142839395Y-85885090D01*
X142839395Y-85885090D02*
X144160605Y-85885090D01*
X144160605Y-83114910D02*
X144160605Y-84073787D01*
X144160605Y-85885090D02*
X144160605Y-84926213D01*
%TO.C,R3*%
X139614910Y-86339395D02*
X139614910Y-87660605D01*
X139614910Y-87660605D02*
X140573787Y-87660605D01*
X140573787Y-86339395D02*
X139614910Y-86339395D01*
X141426213Y-86339395D02*
X142385090Y-86339395D01*
X142385090Y-86339395D02*
X142385090Y-87660605D01*
X142385090Y-87660605D02*
X141426213Y-87660605D01*
%TO.C,U6*%
X144473787Y-83773787D02*
X145505410Y-83773787D01*
X144473787Y-85226213D02*
X144473787Y-83773787D01*
X146455398Y-85226213D02*
X145544602Y-85226213D01*
X147526213Y-83773787D02*
X146494590Y-83773787D01*
X147526213Y-85226213D02*
X147526213Y-83773787D01*
%TO.C,J5*%
D15*
X106670000Y-47410000D02*
X108000000Y-47410000D01*
X106670000Y-48740000D02*
X106670000Y-47410000D01*
X109270000Y-47410000D02*
X132190000Y-47410000D01*
X109270000Y-50070000D02*
X109270000Y-47410000D01*
X109270000Y-50070000D02*
X132190000Y-50070000D01*
X132190000Y-50070000D02*
X132190000Y-47410000D01*
%TD*%
D17*
X103000000Y-49000000D03*
X140000000Y-97000000D03*
X142540000Y-97000000D03*
X145080000Y-97000000D03*
X147620000Y-97000000D03*
X150160000Y-97000000D03*
X152700000Y-97000000D03*
X106277330Y-65369873D03*
X106277330Y-80370127D03*
X108377406Y-66870000D03*
X108377406Y-68870000D03*
X108377406Y-70870000D03*
X108377406Y-72870000D03*
X108377406Y-74870000D03*
X108377406Y-76870000D03*
X108377406Y-78870000D03*
X158000000Y-49000000D03*
X117140000Y-97000000D03*
X119680000Y-97000000D03*
X122220000Y-97000000D03*
X124760000Y-97000000D03*
X127300000Y-97000000D03*
X129840000Y-97000000D03*
X132380000Y-97000000D03*
X134920000Y-97000000D03*
X120479959Y-76400000D03*
X123019964Y-76400000D03*
X125559969Y-76400000D03*
X128099974Y-76400000D03*
X130639979Y-76400000D03*
X133179984Y-76400000D03*
X135719989Y-76400000D03*
X138259995Y-76400000D03*
X140800000Y-76400000D03*
X143340005Y-76400000D03*
X145880010Y-76400000D03*
X148420015Y-76400000D03*
X150960020Y-76400000D03*
X153500025Y-76400000D03*
X153500025Y-68400000D03*
X150960020Y-68400000D03*
X148420015Y-68400000D03*
X145880010Y-68400000D03*
X143340005Y-68400000D03*
X140800000Y-68400000D03*
X138259995Y-68400000D03*
X135719989Y-68400000D03*
X133179984Y-68400000D03*
X130639979Y-68400000D03*
X128099974Y-68400000D03*
X125559969Y-68400000D03*
X123019964Y-68400000D03*
X120479959Y-68400000D03*
X103000000Y-97000000D03*
X158000000Y-97000000D03*
X134920000Y-48740000D03*
X137460000Y-48740000D03*
X140000000Y-48740000D03*
X142540000Y-48740000D03*
X145080000Y-48740000D03*
X147620000Y-48740000D03*
X150160000Y-48740000D03*
X152700000Y-48740000D03*
X108000000Y-48740000D03*
X110540000Y-48740000D03*
X113080000Y-48740000D03*
X115620000Y-48740000D03*
X118160000Y-48740000D03*
X120700000Y-48740000D03*
X123240000Y-48740000D03*
X125780000Y-48740000D03*
X128320000Y-48740000D03*
X130860000Y-48740000D03*
M02*
