%TF.GenerationSoftware,KiCad,Pcbnew,10.0.1*%
%TF.CreationDate,2026-08-15T02:16:28+09:00*%
%TF.ProjectId,YM2151_UNIT,594d3231-3531-45f5-954e-49542e6b6963,rev?*%
%TF.SameCoordinates,Original*%
%TF.FileFunction,Paste,Bot*%
%TF.FilePolarity,Positive*%
%FSLAX46Y46*%
G04 Gerber Fmt 4.6, Leading zero omitted, Abs format (unit mm)*
G04 Created by KiCad (PCBNEW 10.0.1) date 2026-08-15 02:16:28*
%MOMM*%
%LPD*%
G01*
G04 APERTURE LIST*
%ADD10C,0.350000*%
G04 APERTURE END LIST*
D10*
X103000000Y-49000000D03*
X140000000Y-97000000D03*
X142540000Y-97000000D03*
X145080000Y-97000000D03*
X147620000Y-97000000D03*
X150160000Y-97000000D03*
X152700000Y-97000000D03*
X106277330Y-65369873D03*
X106277330Y-80370127D03*
X108377406Y-66870000D03*
X108377406Y-68870000D03*
X108377406Y-70870000D03*
X108377406Y-72870000D03*
X108377406Y-74870000D03*
X108377406Y-76870000D03*
X108377406Y-78870000D03*
X158000000Y-49000000D03*
X117140000Y-97000000D03*
X119680000Y-97000000D03*
X122220000Y-97000000D03*
X124760000Y-97000000D03*
X127300000Y-97000000D03*
X129840000Y-97000000D03*
X132380000Y-97000000D03*
X134920000Y-97000000D03*
X120479959Y-76400000D03*
X123019964Y-76400000D03*
X125559969Y-76400000D03*
X128099974Y-76400000D03*
X130639979Y-76400000D03*
X133179984Y-76400000D03*
X135719989Y-76400000D03*
X138259995Y-76400000D03*
X140800000Y-76400000D03*
X143340005Y-76400000D03*
X145880010Y-76400000D03*
X148420015Y-76400000D03*
X150960020Y-76400000D03*
X153500025Y-76400000D03*
X153500025Y-68400000D03*
X150960020Y-68400000D03*
X148420015Y-68400000D03*
X145880010Y-68400000D03*
X143340005Y-68400000D03*
X140800000Y-68400000D03*
X138259995Y-68400000D03*
X135719989Y-68400000D03*
X133179984Y-68400000D03*
X130639979Y-68400000D03*
X128099974Y-68400000D03*
X125559969Y-68400000D03*
X123019964Y-68400000D03*
X120479959Y-68400000D03*
X103000000Y-97000000D03*
X158000000Y-97000000D03*
X134920000Y-48740000D03*
X137460000Y-48740000D03*
X140000000Y-48740000D03*
X142540000Y-48740000D03*
X145080000Y-48740000D03*
X147620000Y-48740000D03*
X150160000Y-48740000D03*
X152700000Y-48740000D03*
X108000000Y-48740000D03*
X110540000Y-48740000D03*
X113080000Y-48740000D03*
X115620000Y-48740000D03*
X118160000Y-48740000D03*
X120700000Y-48740000D03*
X123240000Y-48740000D03*
X125780000Y-48740000D03*
X128320000Y-48740000D03*
X130860000Y-48740000D03*
M02*
