%TF.GenerationSoftware,KiCad,Pcbnew,10.0.1*%
%TF.CreationDate,2026-08-15T02:16:28+09:00*%
%TF.ProjectId,YM2151_UNIT,594d3231-3531-45f5-954e-49542e6b6963,rev?*%
%TF.SameCoordinates,Original*%
%TF.FileFunction,Paste,Top*%
%TF.FilePolarity,Positive*%
%FSLAX46Y46*%
G04 Gerber Fmt 4.6, Leading zero omitted, Abs format (unit mm)*
G04 Created by KiCad (PCBNEW 10.0.1) date 2026-08-15 02:16:28*
%MOMM*%
%LPD*%
G01*
G04 APERTURE LIST*
%ADD10C,0.150000*%
%ADD11R,1.399543X1.000000*%
%ADD12R,0.806477X0.864008*%
%ADD13R,0.800000X0.900000*%
%ADD14R,0.650013X1.000000*%
%ADD15R,0.864008X0.806477*%
%ADD16R,1.000000X1.399543*%
%ADD17C,0.350000*%
G04 APERTURE END LIST*
D10*
%TO.C,R6*%
X150654991Y-86599975D02*
X150654991Y-86842012D01*
X150284989Y-86842012D01*
X150284989Y-87172009D01*
X150654991Y-87172009D01*
X150654991Y-87399975D01*
X150604978Y-87449987D01*
X149804978Y-87449987D01*
X149754991Y-87399975D01*
X149754991Y-86599975D01*
X149804978Y-86549987D01*
X150604978Y-86549987D01*
X150654991Y-86599975D01*
G36*
X150654991Y-86599975D02*
G01*
X150654991Y-86842012D01*
X150284989Y-86842012D01*
X150284989Y-87172009D01*
X150654991Y-87172009D01*
X150654991Y-87399975D01*
X150604978Y-87449987D01*
X149804978Y-87449987D01*
X149754991Y-87399975D01*
X149754991Y-86599975D01*
X149804978Y-86549987D01*
X150604978Y-86549987D01*
X150654991Y-86599975D01*
G37*
X152245009Y-86600025D02*
X152245009Y-87400025D01*
X152195022Y-87450013D01*
X151395022Y-87450013D01*
X151345009Y-87400025D01*
X151345009Y-87157988D01*
X151715011Y-87157988D01*
X151715011Y-86827991D01*
X151345009Y-86827991D01*
X151345009Y-86600025D01*
X151395022Y-86550013D01*
X152195022Y-86550013D01*
X152245009Y-86600025D01*
G36*
X152245009Y-86600025D02*
G01*
X152245009Y-87400025D01*
X152195022Y-87450013D01*
X151395022Y-87450013D01*
X151345009Y-87400025D01*
X151345009Y-87157988D01*
X151715011Y-87157988D01*
X151715011Y-86827991D01*
X151345009Y-86827991D01*
X151345009Y-86600025D01*
X151395022Y-86550013D01*
X152195022Y-86550013D01*
X152245009Y-86600025D01*
G37*
%TO.C,R8*%
X145654991Y-86599975D02*
X145654991Y-86842012D01*
X145284989Y-86842012D01*
X145284989Y-87172009D01*
X145654991Y-87172009D01*
X145654991Y-87399975D01*
X145604978Y-87449987D01*
X144804978Y-87449987D01*
X144754991Y-87399975D01*
X144754991Y-86599975D01*
X144804978Y-86549987D01*
X145604978Y-86549987D01*
X145654991Y-86599975D01*
G36*
X145654991Y-86599975D02*
G01*
X145654991Y-86842012D01*
X145284989Y-86842012D01*
X145284989Y-87172009D01*
X145654991Y-87172009D01*
X145654991Y-87399975D01*
X145604978Y-87449987D01*
X144804978Y-87449987D01*
X144754991Y-87399975D01*
X144754991Y-86599975D01*
X144804978Y-86549987D01*
X145604978Y-86549987D01*
X145654991Y-86599975D01*
G37*
X147245009Y-86600025D02*
X147245009Y-87400025D01*
X147195022Y-87450013D01*
X146395022Y-87450013D01*
X146345009Y-87400025D01*
X146345009Y-87157988D01*
X146715011Y-87157988D01*
X146715011Y-86827991D01*
X146345009Y-86827991D01*
X146345009Y-86600025D01*
X146395022Y-86550013D01*
X147195022Y-86550013D01*
X147245009Y-86600025D01*
G36*
X147245009Y-86600025D02*
G01*
X147245009Y-87400025D01*
X147195022Y-87450013D01*
X146395022Y-87450013D01*
X146345009Y-87400025D01*
X146345009Y-87157988D01*
X146715011Y-87157988D01*
X146715011Y-86827991D01*
X146345009Y-86827991D01*
X146345009Y-86600025D01*
X146395022Y-86550013D01*
X147195022Y-86550013D01*
X147245009Y-86600025D01*
G37*
%TO.C,R4*%
X155901625Y-86599975D02*
X155901625Y-86842012D01*
X155531623Y-86842012D01*
X155531623Y-87172009D01*
X155901625Y-87172009D01*
X155901625Y-87399975D01*
X155851612Y-87449987D01*
X155051612Y-87449987D01*
X155001625Y-87399975D01*
X155001625Y-86599975D01*
X155051612Y-86549987D01*
X155851612Y-86549987D01*
X155901625Y-86599975D01*
G36*
X155901625Y-86599975D02*
G01*
X155901625Y-86842012D01*
X155531623Y-86842012D01*
X155531623Y-87172009D01*
X155901625Y-87172009D01*
X155901625Y-87399975D01*
X155851612Y-87449987D01*
X155051612Y-87449987D01*
X155001625Y-87399975D01*
X155001625Y-86599975D01*
X155051612Y-86549987D01*
X155851612Y-86549987D01*
X155901625Y-86599975D01*
G37*
X157491643Y-86600025D02*
X157491643Y-87400025D01*
X157441656Y-87450013D01*
X156641656Y-87450013D01*
X156591643Y-87400025D01*
X156591643Y-87157988D01*
X156961645Y-87157988D01*
X156961645Y-86827991D01*
X156591643Y-86827991D01*
X156591643Y-86600025D01*
X156641656Y-86550013D01*
X157441656Y-86550013D01*
X157491643Y-86600025D01*
G36*
X157491643Y-86600025D02*
G01*
X157491643Y-87400025D01*
X157441656Y-87450013D01*
X156641656Y-87450013D01*
X156591643Y-87400025D01*
X156591643Y-87157988D01*
X156961645Y-87157988D01*
X156961645Y-86827991D01*
X156591643Y-86827991D01*
X156591643Y-86600025D01*
X156641656Y-86550013D01*
X157441656Y-86550013D01*
X157491643Y-86600025D01*
G37*
%TO.C,R2*%
X138950013Y-83304978D02*
X138950013Y-84104978D01*
X138900025Y-84154991D01*
X138657988Y-84154991D01*
X138657988Y-83784989D01*
X138327991Y-83784989D01*
X138327991Y-84154991D01*
X138100025Y-84154991D01*
X138050013Y-84104978D01*
X138050013Y-83304978D01*
X138100025Y-83254991D01*
X138900025Y-83254991D01*
X138950013Y-83304978D01*
G36*
X138950013Y-83304978D02*
G01*
X138950013Y-84104978D01*
X138900025Y-84154991D01*
X138657988Y-84154991D01*
X138657988Y-83784989D01*
X138327991Y-83784989D01*
X138327991Y-84154991D01*
X138100025Y-84154991D01*
X138050013Y-84104978D01*
X138050013Y-83304978D01*
X138100025Y-83254991D01*
X138900025Y-83254991D01*
X138950013Y-83304978D01*
G37*
X138342012Y-85215011D02*
X138672009Y-85215011D01*
X138672009Y-84845009D01*
X138899975Y-84845009D01*
X138949987Y-84895022D01*
X138949987Y-85695022D01*
X138899975Y-85745009D01*
X138099975Y-85745009D01*
X138049987Y-85695022D01*
X138049987Y-84895022D01*
X138099975Y-84845009D01*
X138342012Y-84845009D01*
X138342012Y-85215011D01*
G36*
X138342012Y-85215011D02*
G01*
X138672009Y-85215011D01*
X138672009Y-84845009D01*
X138899975Y-84845009D01*
X138949987Y-84895022D01*
X138949987Y-85695022D01*
X138899975Y-85745009D01*
X138099975Y-85745009D01*
X138049987Y-85695022D01*
X138049987Y-84895022D01*
X138099975Y-84845009D01*
X138342012Y-84845009D01*
X138342012Y-85215011D01*
G37*
%TO.C,R5*%
X153950013Y-83304978D02*
X153950013Y-84104978D01*
X153900025Y-84154991D01*
X153657988Y-84154991D01*
X153657988Y-83784989D01*
X153327991Y-83784989D01*
X153327991Y-84154991D01*
X153100025Y-84154991D01*
X153050013Y-84104978D01*
X153050013Y-83304978D01*
X153100025Y-83254991D01*
X153900025Y-83254991D01*
X153950013Y-83304978D01*
G36*
X153950013Y-83304978D02*
G01*
X153950013Y-84104978D01*
X153900025Y-84154991D01*
X153657988Y-84154991D01*
X153657988Y-83784989D01*
X153327991Y-83784989D01*
X153327991Y-84154991D01*
X153100025Y-84154991D01*
X153050013Y-84104978D01*
X153050013Y-83304978D01*
X153100025Y-83254991D01*
X153900025Y-83254991D01*
X153950013Y-83304978D01*
G37*
X153342012Y-85215011D02*
X153672009Y-85215011D01*
X153672009Y-84845009D01*
X153899975Y-84845009D01*
X153949987Y-84895022D01*
X153949987Y-85695022D01*
X153899975Y-85745009D01*
X153099975Y-85745009D01*
X153049987Y-85695022D01*
X153049987Y-84895022D01*
X153099975Y-84845009D01*
X153342012Y-84845009D01*
X153342012Y-85215011D01*
G36*
X153342012Y-85215011D02*
G01*
X153672009Y-85215011D01*
X153672009Y-84845009D01*
X153899975Y-84845009D01*
X153949987Y-84895022D01*
X153949987Y-85695022D01*
X153899975Y-85745009D01*
X153099975Y-85745009D01*
X153049987Y-85695022D01*
X153049987Y-84895022D01*
X153099975Y-84845009D01*
X153342012Y-84845009D01*
X153342012Y-85215011D01*
G37*
%TO.C,R11*%
X117808281Y-62558826D02*
X117808281Y-63358826D01*
X117758293Y-63408839D01*
X117516256Y-63408839D01*
X117516256Y-63038837D01*
X117186259Y-63038837D01*
X117186259Y-63408839D01*
X116958293Y-63408839D01*
X116908281Y-63358826D01*
X116908281Y-62558826D01*
X116958293Y-62508839D01*
X117758293Y-62508839D01*
X117808281Y-62558826D01*
G36*
X117808281Y-62558826D02*
G01*
X117808281Y-63358826D01*
X117758293Y-63408839D01*
X117516256Y-63408839D01*
X117516256Y-63038837D01*
X117186259Y-63038837D01*
X117186259Y-63408839D01*
X116958293Y-63408839D01*
X116908281Y-63358826D01*
X116908281Y-62558826D01*
X116958293Y-62508839D01*
X117758293Y-62508839D01*
X117808281Y-62558826D01*
G37*
X117200280Y-64468859D02*
X117530277Y-64468859D01*
X117530277Y-64098857D01*
X117758243Y-64098857D01*
X117808255Y-64148870D01*
X117808255Y-64948870D01*
X117758243Y-64998857D01*
X116958243Y-64998857D01*
X116908255Y-64948870D01*
X116908255Y-64148870D01*
X116958243Y-64098857D01*
X117200280Y-64098857D01*
X117200280Y-64468859D01*
G36*
X117200280Y-64468859D02*
G01*
X117530277Y-64468859D01*
X117530277Y-64098857D01*
X117758243Y-64098857D01*
X117808255Y-64148870D01*
X117808255Y-64948870D01*
X117758243Y-64998857D01*
X116958243Y-64998857D01*
X116908255Y-64948870D01*
X116908255Y-64148870D01*
X116958243Y-64098857D01*
X117200280Y-64098857D01*
X117200280Y-64468859D01*
G37*
%TO.C,R1*%
X108705283Y-62599975D02*
X108705283Y-62842012D01*
X108335281Y-62842012D01*
X108335281Y-63172009D01*
X108705283Y-63172009D01*
X108705283Y-63399975D01*
X108655270Y-63449987D01*
X107855270Y-63449987D01*
X107805283Y-63399975D01*
X107805283Y-62599975D01*
X107855270Y-62549987D01*
X108655270Y-62549987D01*
X108705283Y-62599975D01*
G36*
X108705283Y-62599975D02*
G01*
X108705283Y-62842012D01*
X108335281Y-62842012D01*
X108335281Y-63172009D01*
X108705283Y-63172009D01*
X108705283Y-63399975D01*
X108655270Y-63449987D01*
X107855270Y-63449987D01*
X107805283Y-63399975D01*
X107805283Y-62599975D01*
X107855270Y-62549987D01*
X108655270Y-62549987D01*
X108705283Y-62599975D01*
G37*
X110295301Y-62600025D02*
X110295301Y-63400025D01*
X110245314Y-63450013D01*
X109445314Y-63450013D01*
X109395301Y-63400025D01*
X109395301Y-63157988D01*
X109765303Y-63157988D01*
X109765303Y-62827991D01*
X109395301Y-62827991D01*
X109395301Y-62600025D01*
X109445314Y-62550013D01*
X110245314Y-62550013D01*
X110295301Y-62600025D01*
G36*
X110295301Y-62600025D02*
G01*
X110295301Y-63400025D01*
X110245314Y-63450013D01*
X109445314Y-63450013D01*
X109395301Y-63400025D01*
X109395301Y-63157988D01*
X109765303Y-63157988D01*
X109765303Y-62827991D01*
X109395301Y-62827991D01*
X109395301Y-62600025D01*
X109445314Y-62550013D01*
X110245314Y-62550013D01*
X110295301Y-62600025D01*
G37*
%TO.C,R7*%
X148950013Y-83304978D02*
X148950013Y-84104978D01*
X148900025Y-84154991D01*
X148657988Y-84154991D01*
X148657988Y-83784989D01*
X148327991Y-83784989D01*
X148327991Y-84154991D01*
X148100025Y-84154991D01*
X148050013Y-84104978D01*
X148050013Y-83304978D01*
X148100025Y-83254991D01*
X148900025Y-83254991D01*
X148950013Y-83304978D01*
G36*
X148950013Y-83304978D02*
G01*
X148950013Y-84104978D01*
X148900025Y-84154991D01*
X148657988Y-84154991D01*
X148657988Y-83784989D01*
X148327991Y-83784989D01*
X148327991Y-84154991D01*
X148100025Y-84154991D01*
X148050013Y-84104978D01*
X148050013Y-83304978D01*
X148100025Y-83254991D01*
X148900025Y-83254991D01*
X148950013Y-83304978D01*
G37*
X148342012Y-85215011D02*
X148672009Y-85215011D01*
X148672009Y-84845009D01*
X148899975Y-84845009D01*
X148949987Y-84895022D01*
X148949987Y-85695022D01*
X148899975Y-85745009D01*
X148099975Y-85745009D01*
X148049987Y-85695022D01*
X148049987Y-84895022D01*
X148099975Y-84845009D01*
X148342012Y-84845009D01*
X148342012Y-85215011D01*
G36*
X148342012Y-85215011D02*
G01*
X148672009Y-85215011D01*
X148672009Y-84845009D01*
X148899975Y-84845009D01*
X148949987Y-84895022D01*
X148949987Y-85695022D01*
X148899975Y-85745009D01*
X148099975Y-85745009D01*
X148049987Y-85695022D01*
X148049987Y-84895022D01*
X148099975Y-84845009D01*
X148342012Y-84845009D01*
X148342012Y-85215011D01*
G37*
%TO.C,R10*%
X146354991Y-63999975D02*
X146354991Y-64242012D01*
X145984989Y-64242012D01*
X145984989Y-64572009D01*
X146354991Y-64572009D01*
X146354991Y-64799975D01*
X146304978Y-64849987D01*
X145504978Y-64849987D01*
X145454991Y-64799975D01*
X145454991Y-63999975D01*
X145504978Y-63949987D01*
X146304978Y-63949987D01*
X146354991Y-63999975D01*
G36*
X146354991Y-63999975D02*
G01*
X146354991Y-64242012D01*
X145984989Y-64242012D01*
X145984989Y-64572009D01*
X146354991Y-64572009D01*
X146354991Y-64799975D01*
X146304978Y-64849987D01*
X145504978Y-64849987D01*
X145454991Y-64799975D01*
X145454991Y-63999975D01*
X145504978Y-63949987D01*
X146304978Y-63949987D01*
X146354991Y-63999975D01*
G37*
X147945009Y-64000025D02*
X147945009Y-64800025D01*
X147895022Y-64850013D01*
X147095022Y-64850013D01*
X147045009Y-64800025D01*
X147045009Y-64557988D01*
X147415011Y-64557988D01*
X147415011Y-64227991D01*
X147045009Y-64227991D01*
X147045009Y-64000025D01*
X147095022Y-63950013D01*
X147895022Y-63950013D01*
X147945009Y-64000025D01*
G36*
X147945009Y-64000025D02*
G01*
X147945009Y-64800025D01*
X147895022Y-64850013D01*
X147095022Y-64850013D01*
X147045009Y-64800025D01*
X147045009Y-64557988D01*
X147415011Y-64557988D01*
X147415011Y-64227991D01*
X147045009Y-64227991D01*
X147045009Y-64000025D01*
X147095022Y-63950013D01*
X147895022Y-63950013D01*
X147945009Y-64000025D01*
G37*
%TO.C,R9*%
X143950013Y-83304978D02*
X143950013Y-84104978D01*
X143900025Y-84154991D01*
X143657988Y-84154991D01*
X143657988Y-83784989D01*
X143327991Y-83784989D01*
X143327991Y-84154991D01*
X143100025Y-84154991D01*
X143050013Y-84104978D01*
X143050013Y-83304978D01*
X143100025Y-83254991D01*
X143900025Y-83254991D01*
X143950013Y-83304978D01*
G36*
X143950013Y-83304978D02*
G01*
X143950013Y-84104978D01*
X143900025Y-84154991D01*
X143657988Y-84154991D01*
X143657988Y-83784989D01*
X143327991Y-83784989D01*
X143327991Y-84154991D01*
X143100025Y-84154991D01*
X143050013Y-84104978D01*
X143050013Y-83304978D01*
X143100025Y-83254991D01*
X143900025Y-83254991D01*
X143950013Y-83304978D01*
G37*
X143342012Y-85215011D02*
X143672009Y-85215011D01*
X143672009Y-84845009D01*
X143899975Y-84845009D01*
X143949987Y-84895022D01*
X143949987Y-85695022D01*
X143899975Y-85745009D01*
X143099975Y-85745009D01*
X143049987Y-85695022D01*
X143049987Y-84895022D01*
X143099975Y-84845009D01*
X143342012Y-84845009D01*
X143342012Y-85215011D01*
G36*
X143342012Y-85215011D02*
G01*
X143672009Y-85215011D01*
X143672009Y-84845009D01*
X143899975Y-84845009D01*
X143949987Y-84895022D01*
X143949987Y-85695022D01*
X143899975Y-85745009D01*
X143099975Y-85745009D01*
X143049987Y-85695022D01*
X143049987Y-84895022D01*
X143099975Y-84845009D01*
X143342012Y-84845009D01*
X143342012Y-85215011D01*
G37*
%TO.C,R3*%
X140654991Y-86599975D02*
X140654991Y-86842012D01*
X140284989Y-86842012D01*
X140284989Y-87172009D01*
X140654991Y-87172009D01*
X140654991Y-87399975D01*
X140604978Y-87449987D01*
X139804978Y-87449987D01*
X139754991Y-87399975D01*
X139754991Y-86599975D01*
X139804978Y-86549987D01*
X140604978Y-86549987D01*
X140654991Y-86599975D01*
G36*
X140654991Y-86599975D02*
G01*
X140654991Y-86842012D01*
X140284989Y-86842012D01*
X140284989Y-87172009D01*
X140654991Y-87172009D01*
X140654991Y-87399975D01*
X140604978Y-87449987D01*
X139804978Y-87449987D01*
X139754991Y-87399975D01*
X139754991Y-86599975D01*
X139804978Y-86549987D01*
X140604978Y-86549987D01*
X140654991Y-86599975D01*
G37*
X142245009Y-86600025D02*
X142245009Y-87400025D01*
X142195022Y-87450013D01*
X141395022Y-87450013D01*
X141345009Y-87400025D01*
X141345009Y-87157988D01*
X141715011Y-87157988D01*
X141715011Y-86827991D01*
X141345009Y-86827991D01*
X141345009Y-86600025D01*
X141395022Y-86550013D01*
X142195022Y-86550013D01*
X142245009Y-86600025D01*
G36*
X142245009Y-86600025D02*
G01*
X142245009Y-87400025D01*
X142195022Y-87450013D01*
X141395022Y-87450013D01*
X141345009Y-87400025D01*
X141345009Y-87157988D01*
X141715011Y-87157988D01*
X141715011Y-86827991D01*
X141345009Y-86827991D01*
X141345009Y-86600025D01*
X141395022Y-86550013D01*
X142195022Y-86550013D01*
X142245009Y-86600025D01*
G37*
%TD*%
D11*
%TO.C,LED3*%
X117400000Y-66399416D03*
X117400000Y-68500000D03*
%TD*%
D12*
%TO.C,R6*%
X151753366Y-87000000D03*
X150246634Y-87000000D03*
%TD*%
D13*
%TO.C,C1*%
X143000000Y-78500000D03*
X141599950Y-78500000D03*
%TD*%
D14*
%TO.C,U4*%
X155050038Y-85500000D03*
X156949962Y-85500000D03*
X156000000Y-83500000D03*
%TD*%
D12*
%TO.C,R8*%
X146753366Y-87000000D03*
X145246634Y-87000000D03*
%TD*%
%TO.C,R4*%
X157000000Y-87000000D03*
X155493268Y-87000000D03*
%TD*%
D14*
%TO.C,U5*%
X150050038Y-85500000D03*
X151949962Y-85500000D03*
X151000000Y-83500000D03*
%TD*%
D15*
%TO.C,R2*%
X138500000Y-83746634D03*
X138500000Y-85253366D03*
%TD*%
%TO.C,R5*%
X153500000Y-83746634D03*
X153500000Y-85253366D03*
%TD*%
D14*
%TO.C,U2*%
X140050038Y-85500000D03*
X141949962Y-85500000D03*
X141000000Y-83500000D03*
%TD*%
D15*
%TO.C,R11*%
X117358268Y-64507214D03*
X117358268Y-63000482D03*
%TD*%
D12*
%TO.C,R1*%
X108296926Y-63000000D03*
X109803658Y-63000000D03*
%TD*%
D16*
%TO.C,LED2*%
X106100584Y-63000000D03*
X104000000Y-63000000D03*
%TD*%
D15*
%TO.C,R7*%
X148500000Y-83746634D03*
X148500000Y-85253366D03*
%TD*%
D12*
%TO.C,R10*%
X145946634Y-64400000D03*
X147453366Y-64400000D03*
%TD*%
D15*
%TO.C,R9*%
X143500000Y-83746634D03*
X143500000Y-85253366D03*
%TD*%
D12*
%TO.C,R3*%
X141753366Y-87000000D03*
X140246634Y-87000000D03*
%TD*%
D14*
%TO.C,U6*%
X145050038Y-85500000D03*
X146949962Y-85500000D03*
X146000000Y-83500000D03*
%TD*%
D17*
X103000000Y-49000000D03*
X140000000Y-97000000D03*
X142540000Y-97000000D03*
X145080000Y-97000000D03*
X147620000Y-97000000D03*
X150160000Y-97000000D03*
X152700000Y-97000000D03*
X106277330Y-65369873D03*
X106277330Y-80370127D03*
X108377406Y-66870000D03*
X108377406Y-68870000D03*
X108377406Y-70870000D03*
X108377406Y-72870000D03*
X108377406Y-74870000D03*
X108377406Y-76870000D03*
X108377406Y-78870000D03*
X158000000Y-49000000D03*
X117140000Y-97000000D03*
X119680000Y-97000000D03*
X122220000Y-97000000D03*
X124760000Y-97000000D03*
X127300000Y-97000000D03*
X129840000Y-97000000D03*
X132380000Y-97000000D03*
X134920000Y-97000000D03*
X120479959Y-76400000D03*
X123019964Y-76400000D03*
X125559969Y-76400000D03*
X128099974Y-76400000D03*
X130639979Y-76400000D03*
X133179984Y-76400000D03*
X135719989Y-76400000D03*
X138259995Y-76400000D03*
X140800000Y-76400000D03*
X143340005Y-76400000D03*
X145880010Y-76400000D03*
X148420015Y-76400000D03*
X150960020Y-76400000D03*
X153500025Y-76400000D03*
X153500025Y-68400000D03*
X150960020Y-68400000D03*
X148420015Y-68400000D03*
X145880010Y-68400000D03*
X143340005Y-68400000D03*
X140800000Y-68400000D03*
X138259995Y-68400000D03*
X135719989Y-68400000D03*
X133179984Y-68400000D03*
X130639979Y-68400000D03*
X128099974Y-68400000D03*
X125559969Y-68400000D03*
X123019964Y-68400000D03*
X120479959Y-68400000D03*
X103000000Y-97000000D03*
X158000000Y-97000000D03*
X134920000Y-48740000D03*
X137460000Y-48740000D03*
X140000000Y-48740000D03*
X142540000Y-48740000D03*
X145080000Y-48740000D03*
X147620000Y-48740000D03*
X150160000Y-48740000D03*
X152700000Y-48740000D03*
X108000000Y-48740000D03*
X110540000Y-48740000D03*
X113080000Y-48740000D03*
X115620000Y-48740000D03*
X118160000Y-48740000D03*
X120700000Y-48740000D03*
X123240000Y-48740000D03*
X125780000Y-48740000D03*
X128320000Y-48740000D03*
X130860000Y-48740000D03*
M02*
