M48
; DRILL file KiCad 10.0.1 date 2026-08-15T02:16:28
; FORMAT={-:-/ absolute / metric / decimal}
; #@! TF.CreationDate,2026-08-15T02:16:28+09:00
; #@! TF.GenerationSoftware,Kicad,Pcbnew,10.0.1
; #@! TF.FileFunction,MixedPlating,1,2
FMAT,2
METRIC
; #@! TA.AperFunction,Plated,PTH,ViaDrill
T1C0.300
; #@! TA.AperFunction,Plated,PTH,ComponentDrill
T2C0.800
; #@! TA.AperFunction,Plated,PTH,ComponentDrill
T3C0.900
; #@! TA.AperFunction,Plated,PTH,ComponentDrill
T4C1.000
; #@! TA.AperFunction,Plated,PTH,ComponentDrill
T5C3.200
; #@! TA.AperFunction,NonPlated,NPTH,ComponentDrill
T6C1.200
%
G90
G05
T1
X102.5Y-67.5
X102.5Y-72.5
X102.5Y-77.5
X102.5Y-85.0
X105.0Y-55.0
X105.0Y-90.0
X107.5Y-82.5
X110.0Y-55.0
X110.0Y-95.0
X110.0Y-98.5
X112.5Y-87.5
X115.0Y-55.0
X115.0Y-60.0
X115.0Y-65.0
X115.0Y-70.0
X122.5Y-80.0
X123.5Y-90.0
X124.5Y-59.5
X124.5Y-63.5
X124.5Y-67.0
X126.0Y-56.0
X127.5Y-80.0
X128.5Y-53.5
X130.0Y-90.0
X131.0Y-51.0
X132.5Y-80.0
X135.0Y-90.0
X140.0Y-90.0
X141.0Y-85.65
X145.0Y-60.0
X145.0Y-90.0
X146.0Y-85.5
X150.0Y-55.0
X150.0Y-60.0
X150.0Y-90.0
X150.0Y-93.0
X151.0Y-85.5
X155.0Y-55.0
X155.0Y-60.0
X155.0Y-90.0
X155.0Y-93.0
X156.0Y-85.5
X157.5Y-70.0
X157.5Y-75.0
X157.5Y-80.0
T2
X108.377Y-66.87
X108.377Y-68.87
X108.377Y-70.87
X108.377Y-72.87
X108.377Y-74.87
X108.377Y-76.87
X108.377Y-78.87
T3
X120.48Y-68.4
X120.48Y-76.4
X123.02Y-68.4
X123.02Y-76.4
X125.56Y-68.4
X125.56Y-76.4
X128.1Y-68.4
X128.1Y-76.4
X130.64Y-68.4
X130.64Y-76.4
X133.18Y-68.4
X133.18Y-76.4
X135.72Y-68.4
X135.72Y-76.4
X138.26Y-68.4
X138.26Y-76.4
X140.8Y-68.4
X140.8Y-76.4
X143.34Y-68.4
X143.34Y-76.4
X145.88Y-68.4
X145.88Y-76.4
X148.42Y-68.4
X148.42Y-76.4
X150.96Y-68.4
X150.96Y-76.4
X153.5Y-68.4
X153.5Y-76.4
T4
X108.0Y-48.74
X110.54Y-48.74
X113.08Y-48.74
X115.62Y-48.74
X117.14Y-97.0
X118.16Y-48.74
X119.68Y-97.0
X120.7Y-48.74
X122.22Y-97.0
X123.24Y-48.74
X124.76Y-97.0
X125.78Y-48.74
X127.3Y-97.0
X128.32Y-48.74
X129.84Y-97.0
X130.86Y-48.74
X132.38Y-97.0
X134.92Y-48.74
X134.92Y-97.0
X137.46Y-48.74
X140.0Y-48.74
X140.0Y-97.0
X142.54Y-48.74
X142.54Y-97.0
X145.08Y-48.74
X145.08Y-97.0
X147.62Y-48.74
X147.62Y-97.0
X150.16Y-48.74
X150.16Y-97.0
X152.7Y-48.74
X152.7Y-97.0
T5
X103.0Y-49.0
X103.0Y-97.0
X158.0Y-49.0
X158.0Y-97.0
T6
X106.277Y-65.37
X106.277Y-80.37
M30
